G04 #@! TF.GenerationSoftware,KiCad,Pcbnew,(5.0.2)-1*
G04 #@! TF.CreationDate,2019-11-27T09:51:44+01:00*
G04 #@! TF.ProjectId,LoRa_Tracker,4c6f5261-5f54-4726-9163-6b65722e6b69,rev?*
G04 #@! TF.SameCoordinates,Original*
G04 #@! TF.FileFunction,Paste,Top*
G04 #@! TF.FilePolarity,Positive*
%FSLAX46Y46*%
G04 Gerber Fmt 4.6, Leading zero omitted, Abs format (unit mm)*
G04 Created by KiCad (PCBNEW (5.0.2)-1) date 27.11.2019 09:51:44*
%MOMM*%
%LPD*%
G01*
G04 APERTURE LIST*
%ADD10C,0.200000*%
%ADD11R,2.000000X1.000000*%
%ADD12R,1.300000X0.250000*%
%ADD13R,0.250000X1.300000*%
%ADD14C,0.100000*%
%ADD15C,1.150000*%
%ADD16R,0.600000X1.550000*%
%ADD17R,1.000000X1.000000*%
%ADD18R,0.800000X0.900000*%
%ADD19R,1.060000X0.650000*%
%ADD20R,1.700000X1.000000*%
%ADD21R,0.800000X1.000000*%
%ADD22R,0.650000X1.560000*%
%ADD23C,1.425000*%
%ADD24R,1.560000X0.650000*%
G04 APERTURE END LIST*
D10*
X191516000Y-109982000D02*
X191516000Y-144018000D01*
X130048000Y-144018000D02*
X191516000Y-144018000D01*
X130048000Y-109982000D02*
X130048000Y-144018000D01*
X130048000Y-109982000D02*
X191516000Y-109982000D01*
D11*
G04 #@! TO.C,MOD1*
X170874000Y-121794000D03*
X170874000Y-123794000D03*
X170874000Y-125794000D03*
X170874000Y-127794000D03*
X170874000Y-129794000D03*
X170874000Y-131794000D03*
X170874000Y-133794000D03*
X170874000Y-135794000D03*
X185674000Y-135794000D03*
X185674000Y-133794000D03*
X185674000Y-131794000D03*
X185674000Y-129794000D03*
X185674000Y-127794000D03*
X185674000Y-125794000D03*
X185674000Y-123794000D03*
X185674000Y-121794000D03*
G04 #@! TD*
D12*
G04 #@! TO.C,IC4*
X162878000Y-129500000D03*
X162878000Y-129000000D03*
X162878000Y-128500000D03*
X162878000Y-128000000D03*
X162878000Y-127500000D03*
X162878000Y-127000000D03*
X162878000Y-126500000D03*
X162878000Y-126000000D03*
X162878000Y-125500000D03*
X162878000Y-125000000D03*
X162878000Y-124500000D03*
X162878000Y-124000000D03*
D13*
X161278000Y-122400000D03*
X160778000Y-122400000D03*
X160278000Y-122400000D03*
X159778000Y-122400000D03*
X159278000Y-122400000D03*
X158778000Y-122400000D03*
X158278000Y-122400000D03*
X157778000Y-122400000D03*
X157278000Y-122400000D03*
X156778000Y-122400000D03*
X156278000Y-122400000D03*
X155778000Y-122400000D03*
D12*
X154178000Y-124000000D03*
X154178000Y-124500000D03*
X154178000Y-125000000D03*
X154178000Y-125500000D03*
X154178000Y-126000000D03*
X154178000Y-126500000D03*
X154178000Y-127000000D03*
X154178000Y-127500000D03*
X154178000Y-128000000D03*
X154178000Y-128500000D03*
X154178000Y-129000000D03*
X154178000Y-129500000D03*
D13*
X155778000Y-131100000D03*
X156278000Y-131100000D03*
X156778000Y-131100000D03*
X157278000Y-131100000D03*
X157778000Y-131100000D03*
X158278000Y-131100000D03*
X158778000Y-131100000D03*
X159278000Y-131100000D03*
X159778000Y-131100000D03*
X160278000Y-131100000D03*
X160778000Y-131100000D03*
X161278000Y-131100000D03*
G04 #@! TD*
D14*
G04 #@! TO.C,R4*
G36*
X155668505Y-136043804D02*
X155692773Y-136047404D01*
X155716572Y-136053365D01*
X155739671Y-136061630D01*
X155761850Y-136072120D01*
X155782893Y-136084732D01*
X155802599Y-136099347D01*
X155820777Y-136115823D01*
X155837253Y-136134001D01*
X155851868Y-136153707D01*
X155864480Y-136174750D01*
X155874970Y-136196929D01*
X155883235Y-136220028D01*
X155889196Y-136243827D01*
X155892796Y-136268095D01*
X155894000Y-136292599D01*
X155894000Y-136942601D01*
X155892796Y-136967105D01*
X155889196Y-136991373D01*
X155883235Y-137015172D01*
X155874970Y-137038271D01*
X155864480Y-137060450D01*
X155851868Y-137081493D01*
X155837253Y-137101199D01*
X155820777Y-137119377D01*
X155802599Y-137135853D01*
X155782893Y-137150468D01*
X155761850Y-137163080D01*
X155739671Y-137173570D01*
X155716572Y-137181835D01*
X155692773Y-137187796D01*
X155668505Y-137191396D01*
X155644001Y-137192600D01*
X154743999Y-137192600D01*
X154719495Y-137191396D01*
X154695227Y-137187796D01*
X154671428Y-137181835D01*
X154648329Y-137173570D01*
X154626150Y-137163080D01*
X154605107Y-137150468D01*
X154585401Y-137135853D01*
X154567223Y-137119377D01*
X154550747Y-137101199D01*
X154536132Y-137081493D01*
X154523520Y-137060450D01*
X154513030Y-137038271D01*
X154504765Y-137015172D01*
X154498804Y-136991373D01*
X154495204Y-136967105D01*
X154494000Y-136942601D01*
X154494000Y-136292599D01*
X154495204Y-136268095D01*
X154498804Y-136243827D01*
X154504765Y-136220028D01*
X154513030Y-136196929D01*
X154523520Y-136174750D01*
X154536132Y-136153707D01*
X154550747Y-136134001D01*
X154567223Y-136115823D01*
X154585401Y-136099347D01*
X154605107Y-136084732D01*
X154626150Y-136072120D01*
X154648329Y-136061630D01*
X154671428Y-136053365D01*
X154695227Y-136047404D01*
X154719495Y-136043804D01*
X154743999Y-136042600D01*
X155644001Y-136042600D01*
X155668505Y-136043804D01*
X155668505Y-136043804D01*
G37*
D15*
X155194000Y-136617600D03*
D14*
G36*
X155668505Y-138093804D02*
X155692773Y-138097404D01*
X155716572Y-138103365D01*
X155739671Y-138111630D01*
X155761850Y-138122120D01*
X155782893Y-138134732D01*
X155802599Y-138149347D01*
X155820777Y-138165823D01*
X155837253Y-138184001D01*
X155851868Y-138203707D01*
X155864480Y-138224750D01*
X155874970Y-138246929D01*
X155883235Y-138270028D01*
X155889196Y-138293827D01*
X155892796Y-138318095D01*
X155894000Y-138342599D01*
X155894000Y-138992601D01*
X155892796Y-139017105D01*
X155889196Y-139041373D01*
X155883235Y-139065172D01*
X155874970Y-139088271D01*
X155864480Y-139110450D01*
X155851868Y-139131493D01*
X155837253Y-139151199D01*
X155820777Y-139169377D01*
X155802599Y-139185853D01*
X155782893Y-139200468D01*
X155761850Y-139213080D01*
X155739671Y-139223570D01*
X155716572Y-139231835D01*
X155692773Y-139237796D01*
X155668505Y-139241396D01*
X155644001Y-139242600D01*
X154743999Y-139242600D01*
X154719495Y-139241396D01*
X154695227Y-139237796D01*
X154671428Y-139231835D01*
X154648329Y-139223570D01*
X154626150Y-139213080D01*
X154605107Y-139200468D01*
X154585401Y-139185853D01*
X154567223Y-139169377D01*
X154550747Y-139151199D01*
X154536132Y-139131493D01*
X154523520Y-139110450D01*
X154513030Y-139088271D01*
X154504765Y-139065172D01*
X154498804Y-139041373D01*
X154495204Y-139017105D01*
X154494000Y-138992601D01*
X154494000Y-138342599D01*
X154495204Y-138318095D01*
X154498804Y-138293827D01*
X154504765Y-138270028D01*
X154513030Y-138246929D01*
X154523520Y-138224750D01*
X154536132Y-138203707D01*
X154550747Y-138184001D01*
X154567223Y-138165823D01*
X154585401Y-138149347D01*
X154605107Y-138134732D01*
X154626150Y-138122120D01*
X154648329Y-138111630D01*
X154671428Y-138103365D01*
X154695227Y-138097404D01*
X154719495Y-138093804D01*
X154743999Y-138092600D01*
X155644001Y-138092600D01*
X155668505Y-138093804D01*
X155668505Y-138093804D01*
G37*
D15*
X155194000Y-138667600D03*
G04 #@! TD*
D16*
G04 #@! TO.C,IC3*
X189738000Y-111440000D03*
X188468000Y-111440000D03*
X187198000Y-111440000D03*
X185928000Y-111440000D03*
X185928000Y-116840000D03*
X187198000Y-116840000D03*
X188468000Y-116840000D03*
X189738000Y-116840000D03*
G04 #@! TD*
D14*
G04 #@! TO.C,C1*
G36*
X190720505Y-128948204D02*
X190744773Y-128951804D01*
X190768572Y-128957765D01*
X190791671Y-128966030D01*
X190813850Y-128976520D01*
X190834893Y-128989132D01*
X190854599Y-129003747D01*
X190872777Y-129020223D01*
X190889253Y-129038401D01*
X190903868Y-129058107D01*
X190916480Y-129079150D01*
X190926970Y-129101329D01*
X190935235Y-129124428D01*
X190941196Y-129148227D01*
X190944796Y-129172495D01*
X190946000Y-129196999D01*
X190946000Y-129847001D01*
X190944796Y-129871505D01*
X190941196Y-129895773D01*
X190935235Y-129919572D01*
X190926970Y-129942671D01*
X190916480Y-129964850D01*
X190903868Y-129985893D01*
X190889253Y-130005599D01*
X190872777Y-130023777D01*
X190854599Y-130040253D01*
X190834893Y-130054868D01*
X190813850Y-130067480D01*
X190791671Y-130077970D01*
X190768572Y-130086235D01*
X190744773Y-130092196D01*
X190720505Y-130095796D01*
X190696001Y-130097000D01*
X189795999Y-130097000D01*
X189771495Y-130095796D01*
X189747227Y-130092196D01*
X189723428Y-130086235D01*
X189700329Y-130077970D01*
X189678150Y-130067480D01*
X189657107Y-130054868D01*
X189637401Y-130040253D01*
X189619223Y-130023777D01*
X189602747Y-130005599D01*
X189588132Y-129985893D01*
X189575520Y-129964850D01*
X189565030Y-129942671D01*
X189556765Y-129919572D01*
X189550804Y-129895773D01*
X189547204Y-129871505D01*
X189546000Y-129847001D01*
X189546000Y-129196999D01*
X189547204Y-129172495D01*
X189550804Y-129148227D01*
X189556765Y-129124428D01*
X189565030Y-129101329D01*
X189575520Y-129079150D01*
X189588132Y-129058107D01*
X189602747Y-129038401D01*
X189619223Y-129020223D01*
X189637401Y-129003747D01*
X189657107Y-128989132D01*
X189678150Y-128976520D01*
X189700329Y-128966030D01*
X189723428Y-128957765D01*
X189747227Y-128951804D01*
X189771495Y-128948204D01*
X189795999Y-128947000D01*
X190696001Y-128947000D01*
X190720505Y-128948204D01*
X190720505Y-128948204D01*
G37*
D15*
X190246000Y-129522000D03*
D14*
G36*
X190720505Y-130998204D02*
X190744773Y-131001804D01*
X190768572Y-131007765D01*
X190791671Y-131016030D01*
X190813850Y-131026520D01*
X190834893Y-131039132D01*
X190854599Y-131053747D01*
X190872777Y-131070223D01*
X190889253Y-131088401D01*
X190903868Y-131108107D01*
X190916480Y-131129150D01*
X190926970Y-131151329D01*
X190935235Y-131174428D01*
X190941196Y-131198227D01*
X190944796Y-131222495D01*
X190946000Y-131246999D01*
X190946000Y-131897001D01*
X190944796Y-131921505D01*
X190941196Y-131945773D01*
X190935235Y-131969572D01*
X190926970Y-131992671D01*
X190916480Y-132014850D01*
X190903868Y-132035893D01*
X190889253Y-132055599D01*
X190872777Y-132073777D01*
X190854599Y-132090253D01*
X190834893Y-132104868D01*
X190813850Y-132117480D01*
X190791671Y-132127970D01*
X190768572Y-132136235D01*
X190744773Y-132142196D01*
X190720505Y-132145796D01*
X190696001Y-132147000D01*
X189795999Y-132147000D01*
X189771495Y-132145796D01*
X189747227Y-132142196D01*
X189723428Y-132136235D01*
X189700329Y-132127970D01*
X189678150Y-132117480D01*
X189657107Y-132104868D01*
X189637401Y-132090253D01*
X189619223Y-132073777D01*
X189602747Y-132055599D01*
X189588132Y-132035893D01*
X189575520Y-132014850D01*
X189565030Y-131992671D01*
X189556765Y-131969572D01*
X189550804Y-131945773D01*
X189547204Y-131921505D01*
X189546000Y-131897001D01*
X189546000Y-131246999D01*
X189547204Y-131222495D01*
X189550804Y-131198227D01*
X189556765Y-131174428D01*
X189565030Y-131151329D01*
X189575520Y-131129150D01*
X189588132Y-131108107D01*
X189602747Y-131088401D01*
X189619223Y-131070223D01*
X189637401Y-131053747D01*
X189657107Y-131039132D01*
X189678150Y-131026520D01*
X189700329Y-131016030D01*
X189723428Y-131007765D01*
X189747227Y-131001804D01*
X189771495Y-130998204D01*
X189795999Y-130997000D01*
X190696001Y-130997000D01*
X190720505Y-130998204D01*
X190720505Y-130998204D01*
G37*
D15*
X190246000Y-131572000D03*
G04 #@! TD*
D14*
G04 #@! TO.C,C2*
G36*
X188688505Y-128966204D02*
X188712773Y-128969804D01*
X188736572Y-128975765D01*
X188759671Y-128984030D01*
X188781850Y-128994520D01*
X188802893Y-129007132D01*
X188822599Y-129021747D01*
X188840777Y-129038223D01*
X188857253Y-129056401D01*
X188871868Y-129076107D01*
X188884480Y-129097150D01*
X188894970Y-129119329D01*
X188903235Y-129142428D01*
X188909196Y-129166227D01*
X188912796Y-129190495D01*
X188914000Y-129214999D01*
X188914000Y-129865001D01*
X188912796Y-129889505D01*
X188909196Y-129913773D01*
X188903235Y-129937572D01*
X188894970Y-129960671D01*
X188884480Y-129982850D01*
X188871868Y-130003893D01*
X188857253Y-130023599D01*
X188840777Y-130041777D01*
X188822599Y-130058253D01*
X188802893Y-130072868D01*
X188781850Y-130085480D01*
X188759671Y-130095970D01*
X188736572Y-130104235D01*
X188712773Y-130110196D01*
X188688505Y-130113796D01*
X188664001Y-130115000D01*
X187763999Y-130115000D01*
X187739495Y-130113796D01*
X187715227Y-130110196D01*
X187691428Y-130104235D01*
X187668329Y-130095970D01*
X187646150Y-130085480D01*
X187625107Y-130072868D01*
X187605401Y-130058253D01*
X187587223Y-130041777D01*
X187570747Y-130023599D01*
X187556132Y-130003893D01*
X187543520Y-129982850D01*
X187533030Y-129960671D01*
X187524765Y-129937572D01*
X187518804Y-129913773D01*
X187515204Y-129889505D01*
X187514000Y-129865001D01*
X187514000Y-129214999D01*
X187515204Y-129190495D01*
X187518804Y-129166227D01*
X187524765Y-129142428D01*
X187533030Y-129119329D01*
X187543520Y-129097150D01*
X187556132Y-129076107D01*
X187570747Y-129056401D01*
X187587223Y-129038223D01*
X187605401Y-129021747D01*
X187625107Y-129007132D01*
X187646150Y-128994520D01*
X187668329Y-128984030D01*
X187691428Y-128975765D01*
X187715227Y-128969804D01*
X187739495Y-128966204D01*
X187763999Y-128965000D01*
X188664001Y-128965000D01*
X188688505Y-128966204D01*
X188688505Y-128966204D01*
G37*
D15*
X188214000Y-129540000D03*
D14*
G36*
X188688505Y-131016204D02*
X188712773Y-131019804D01*
X188736572Y-131025765D01*
X188759671Y-131034030D01*
X188781850Y-131044520D01*
X188802893Y-131057132D01*
X188822599Y-131071747D01*
X188840777Y-131088223D01*
X188857253Y-131106401D01*
X188871868Y-131126107D01*
X188884480Y-131147150D01*
X188894970Y-131169329D01*
X188903235Y-131192428D01*
X188909196Y-131216227D01*
X188912796Y-131240495D01*
X188914000Y-131264999D01*
X188914000Y-131915001D01*
X188912796Y-131939505D01*
X188909196Y-131963773D01*
X188903235Y-131987572D01*
X188894970Y-132010671D01*
X188884480Y-132032850D01*
X188871868Y-132053893D01*
X188857253Y-132073599D01*
X188840777Y-132091777D01*
X188822599Y-132108253D01*
X188802893Y-132122868D01*
X188781850Y-132135480D01*
X188759671Y-132145970D01*
X188736572Y-132154235D01*
X188712773Y-132160196D01*
X188688505Y-132163796D01*
X188664001Y-132165000D01*
X187763999Y-132165000D01*
X187739495Y-132163796D01*
X187715227Y-132160196D01*
X187691428Y-132154235D01*
X187668329Y-132145970D01*
X187646150Y-132135480D01*
X187625107Y-132122868D01*
X187605401Y-132108253D01*
X187587223Y-132091777D01*
X187570747Y-132073599D01*
X187556132Y-132053893D01*
X187543520Y-132032850D01*
X187533030Y-132010671D01*
X187524765Y-131987572D01*
X187518804Y-131963773D01*
X187515204Y-131939505D01*
X187514000Y-131915001D01*
X187514000Y-131264999D01*
X187515204Y-131240495D01*
X187518804Y-131216227D01*
X187524765Y-131192428D01*
X187533030Y-131169329D01*
X187543520Y-131147150D01*
X187556132Y-131126107D01*
X187570747Y-131106401D01*
X187587223Y-131088223D01*
X187605401Y-131071747D01*
X187625107Y-131057132D01*
X187646150Y-131044520D01*
X187668329Y-131034030D01*
X187691428Y-131025765D01*
X187715227Y-131019804D01*
X187739495Y-131016204D01*
X187763999Y-131015000D01*
X188664001Y-131015000D01*
X188688505Y-131016204D01*
X188688505Y-131016204D01*
G37*
D15*
X188214000Y-131590000D03*
G04 #@! TD*
D14*
G04 #@! TO.C,C3*
G36*
X132046505Y-111168204D02*
X132070773Y-111171804D01*
X132094572Y-111177765D01*
X132117671Y-111186030D01*
X132139850Y-111196520D01*
X132160893Y-111209132D01*
X132180599Y-111223747D01*
X132198777Y-111240223D01*
X132215253Y-111258401D01*
X132229868Y-111278107D01*
X132242480Y-111299150D01*
X132252970Y-111321329D01*
X132261235Y-111344428D01*
X132267196Y-111368227D01*
X132270796Y-111392495D01*
X132272000Y-111416999D01*
X132272000Y-112067001D01*
X132270796Y-112091505D01*
X132267196Y-112115773D01*
X132261235Y-112139572D01*
X132252970Y-112162671D01*
X132242480Y-112184850D01*
X132229868Y-112205893D01*
X132215253Y-112225599D01*
X132198777Y-112243777D01*
X132180599Y-112260253D01*
X132160893Y-112274868D01*
X132139850Y-112287480D01*
X132117671Y-112297970D01*
X132094572Y-112306235D01*
X132070773Y-112312196D01*
X132046505Y-112315796D01*
X132022001Y-112317000D01*
X131121999Y-112317000D01*
X131097495Y-112315796D01*
X131073227Y-112312196D01*
X131049428Y-112306235D01*
X131026329Y-112297970D01*
X131004150Y-112287480D01*
X130983107Y-112274868D01*
X130963401Y-112260253D01*
X130945223Y-112243777D01*
X130928747Y-112225599D01*
X130914132Y-112205893D01*
X130901520Y-112184850D01*
X130891030Y-112162671D01*
X130882765Y-112139572D01*
X130876804Y-112115773D01*
X130873204Y-112091505D01*
X130872000Y-112067001D01*
X130872000Y-111416999D01*
X130873204Y-111392495D01*
X130876804Y-111368227D01*
X130882765Y-111344428D01*
X130891030Y-111321329D01*
X130901520Y-111299150D01*
X130914132Y-111278107D01*
X130928747Y-111258401D01*
X130945223Y-111240223D01*
X130963401Y-111223747D01*
X130983107Y-111209132D01*
X131004150Y-111196520D01*
X131026329Y-111186030D01*
X131049428Y-111177765D01*
X131073227Y-111171804D01*
X131097495Y-111168204D01*
X131121999Y-111167000D01*
X132022001Y-111167000D01*
X132046505Y-111168204D01*
X132046505Y-111168204D01*
G37*
D15*
X131572000Y-111742000D03*
D14*
G36*
X132046505Y-113218204D02*
X132070773Y-113221804D01*
X132094572Y-113227765D01*
X132117671Y-113236030D01*
X132139850Y-113246520D01*
X132160893Y-113259132D01*
X132180599Y-113273747D01*
X132198777Y-113290223D01*
X132215253Y-113308401D01*
X132229868Y-113328107D01*
X132242480Y-113349150D01*
X132252970Y-113371329D01*
X132261235Y-113394428D01*
X132267196Y-113418227D01*
X132270796Y-113442495D01*
X132272000Y-113466999D01*
X132272000Y-114117001D01*
X132270796Y-114141505D01*
X132267196Y-114165773D01*
X132261235Y-114189572D01*
X132252970Y-114212671D01*
X132242480Y-114234850D01*
X132229868Y-114255893D01*
X132215253Y-114275599D01*
X132198777Y-114293777D01*
X132180599Y-114310253D01*
X132160893Y-114324868D01*
X132139850Y-114337480D01*
X132117671Y-114347970D01*
X132094572Y-114356235D01*
X132070773Y-114362196D01*
X132046505Y-114365796D01*
X132022001Y-114367000D01*
X131121999Y-114367000D01*
X131097495Y-114365796D01*
X131073227Y-114362196D01*
X131049428Y-114356235D01*
X131026329Y-114347970D01*
X131004150Y-114337480D01*
X130983107Y-114324868D01*
X130963401Y-114310253D01*
X130945223Y-114293777D01*
X130928747Y-114275599D01*
X130914132Y-114255893D01*
X130901520Y-114234850D01*
X130891030Y-114212671D01*
X130882765Y-114189572D01*
X130876804Y-114165773D01*
X130873204Y-114141505D01*
X130872000Y-114117001D01*
X130872000Y-113466999D01*
X130873204Y-113442495D01*
X130876804Y-113418227D01*
X130882765Y-113394428D01*
X130891030Y-113371329D01*
X130901520Y-113349150D01*
X130914132Y-113328107D01*
X130928747Y-113308401D01*
X130945223Y-113290223D01*
X130963401Y-113273747D01*
X130983107Y-113259132D01*
X131004150Y-113246520D01*
X131026329Y-113236030D01*
X131049428Y-113227765D01*
X131073227Y-113221804D01*
X131097495Y-113218204D01*
X131121999Y-113217000D01*
X132022001Y-113217000D01*
X132046505Y-113218204D01*
X132046505Y-113218204D01*
G37*
D15*
X131572000Y-113792000D03*
G04 #@! TD*
D14*
G04 #@! TO.C,C6*
G36*
X142714505Y-131524204D02*
X142738773Y-131527804D01*
X142762572Y-131533765D01*
X142785671Y-131542030D01*
X142807850Y-131552520D01*
X142828893Y-131565132D01*
X142848599Y-131579747D01*
X142866777Y-131596223D01*
X142883253Y-131614401D01*
X142897868Y-131634107D01*
X142910480Y-131655150D01*
X142920970Y-131677329D01*
X142929235Y-131700428D01*
X142935196Y-131724227D01*
X142938796Y-131748495D01*
X142940000Y-131772999D01*
X142940000Y-132423001D01*
X142938796Y-132447505D01*
X142935196Y-132471773D01*
X142929235Y-132495572D01*
X142920970Y-132518671D01*
X142910480Y-132540850D01*
X142897868Y-132561893D01*
X142883253Y-132581599D01*
X142866777Y-132599777D01*
X142848599Y-132616253D01*
X142828893Y-132630868D01*
X142807850Y-132643480D01*
X142785671Y-132653970D01*
X142762572Y-132662235D01*
X142738773Y-132668196D01*
X142714505Y-132671796D01*
X142690001Y-132673000D01*
X141789999Y-132673000D01*
X141765495Y-132671796D01*
X141741227Y-132668196D01*
X141717428Y-132662235D01*
X141694329Y-132653970D01*
X141672150Y-132643480D01*
X141651107Y-132630868D01*
X141631401Y-132616253D01*
X141613223Y-132599777D01*
X141596747Y-132581599D01*
X141582132Y-132561893D01*
X141569520Y-132540850D01*
X141559030Y-132518671D01*
X141550765Y-132495572D01*
X141544804Y-132471773D01*
X141541204Y-132447505D01*
X141540000Y-132423001D01*
X141540000Y-131772999D01*
X141541204Y-131748495D01*
X141544804Y-131724227D01*
X141550765Y-131700428D01*
X141559030Y-131677329D01*
X141569520Y-131655150D01*
X141582132Y-131634107D01*
X141596747Y-131614401D01*
X141613223Y-131596223D01*
X141631401Y-131579747D01*
X141651107Y-131565132D01*
X141672150Y-131552520D01*
X141694329Y-131542030D01*
X141717428Y-131533765D01*
X141741227Y-131527804D01*
X141765495Y-131524204D01*
X141789999Y-131523000D01*
X142690001Y-131523000D01*
X142714505Y-131524204D01*
X142714505Y-131524204D01*
G37*
D15*
X142240000Y-132098000D03*
D14*
G36*
X142714505Y-129474204D02*
X142738773Y-129477804D01*
X142762572Y-129483765D01*
X142785671Y-129492030D01*
X142807850Y-129502520D01*
X142828893Y-129515132D01*
X142848599Y-129529747D01*
X142866777Y-129546223D01*
X142883253Y-129564401D01*
X142897868Y-129584107D01*
X142910480Y-129605150D01*
X142920970Y-129627329D01*
X142929235Y-129650428D01*
X142935196Y-129674227D01*
X142938796Y-129698495D01*
X142940000Y-129722999D01*
X142940000Y-130373001D01*
X142938796Y-130397505D01*
X142935196Y-130421773D01*
X142929235Y-130445572D01*
X142920970Y-130468671D01*
X142910480Y-130490850D01*
X142897868Y-130511893D01*
X142883253Y-130531599D01*
X142866777Y-130549777D01*
X142848599Y-130566253D01*
X142828893Y-130580868D01*
X142807850Y-130593480D01*
X142785671Y-130603970D01*
X142762572Y-130612235D01*
X142738773Y-130618196D01*
X142714505Y-130621796D01*
X142690001Y-130623000D01*
X141789999Y-130623000D01*
X141765495Y-130621796D01*
X141741227Y-130618196D01*
X141717428Y-130612235D01*
X141694329Y-130603970D01*
X141672150Y-130593480D01*
X141651107Y-130580868D01*
X141631401Y-130566253D01*
X141613223Y-130549777D01*
X141596747Y-130531599D01*
X141582132Y-130511893D01*
X141569520Y-130490850D01*
X141559030Y-130468671D01*
X141550765Y-130445572D01*
X141544804Y-130421773D01*
X141541204Y-130397505D01*
X141540000Y-130373001D01*
X141540000Y-129722999D01*
X141541204Y-129698495D01*
X141544804Y-129674227D01*
X141550765Y-129650428D01*
X141559030Y-129627329D01*
X141569520Y-129605150D01*
X141582132Y-129584107D01*
X141596747Y-129564401D01*
X141613223Y-129546223D01*
X141631401Y-129529747D01*
X141651107Y-129515132D01*
X141672150Y-129502520D01*
X141694329Y-129492030D01*
X141717428Y-129483765D01*
X141741227Y-129477804D01*
X141765495Y-129474204D01*
X141789999Y-129473000D01*
X142690001Y-129473000D01*
X142714505Y-129474204D01*
X142714505Y-129474204D01*
G37*
D15*
X142240000Y-130048000D03*
G04 #@! TD*
D14*
G04 #@! TO.C,C7*
G36*
X190974505Y-118298204D02*
X190998773Y-118301804D01*
X191022572Y-118307765D01*
X191045671Y-118316030D01*
X191067850Y-118326520D01*
X191088893Y-118339132D01*
X191108599Y-118353747D01*
X191126777Y-118370223D01*
X191143253Y-118388401D01*
X191157868Y-118408107D01*
X191170480Y-118429150D01*
X191180970Y-118451329D01*
X191189235Y-118474428D01*
X191195196Y-118498227D01*
X191198796Y-118522495D01*
X191200000Y-118546999D01*
X191200000Y-119197001D01*
X191198796Y-119221505D01*
X191195196Y-119245773D01*
X191189235Y-119269572D01*
X191180970Y-119292671D01*
X191170480Y-119314850D01*
X191157868Y-119335893D01*
X191143253Y-119355599D01*
X191126777Y-119373777D01*
X191108599Y-119390253D01*
X191088893Y-119404868D01*
X191067850Y-119417480D01*
X191045671Y-119427970D01*
X191022572Y-119436235D01*
X190998773Y-119442196D01*
X190974505Y-119445796D01*
X190950001Y-119447000D01*
X190049999Y-119447000D01*
X190025495Y-119445796D01*
X190001227Y-119442196D01*
X189977428Y-119436235D01*
X189954329Y-119427970D01*
X189932150Y-119417480D01*
X189911107Y-119404868D01*
X189891401Y-119390253D01*
X189873223Y-119373777D01*
X189856747Y-119355599D01*
X189842132Y-119335893D01*
X189829520Y-119314850D01*
X189819030Y-119292671D01*
X189810765Y-119269572D01*
X189804804Y-119245773D01*
X189801204Y-119221505D01*
X189800000Y-119197001D01*
X189800000Y-118546999D01*
X189801204Y-118522495D01*
X189804804Y-118498227D01*
X189810765Y-118474428D01*
X189819030Y-118451329D01*
X189829520Y-118429150D01*
X189842132Y-118408107D01*
X189856747Y-118388401D01*
X189873223Y-118370223D01*
X189891401Y-118353747D01*
X189911107Y-118339132D01*
X189932150Y-118326520D01*
X189954329Y-118316030D01*
X189977428Y-118307765D01*
X190001227Y-118301804D01*
X190025495Y-118298204D01*
X190049999Y-118297000D01*
X190950001Y-118297000D01*
X190974505Y-118298204D01*
X190974505Y-118298204D01*
G37*
D15*
X190500000Y-118872000D03*
D14*
G36*
X190974505Y-120348204D02*
X190998773Y-120351804D01*
X191022572Y-120357765D01*
X191045671Y-120366030D01*
X191067850Y-120376520D01*
X191088893Y-120389132D01*
X191108599Y-120403747D01*
X191126777Y-120420223D01*
X191143253Y-120438401D01*
X191157868Y-120458107D01*
X191170480Y-120479150D01*
X191180970Y-120501329D01*
X191189235Y-120524428D01*
X191195196Y-120548227D01*
X191198796Y-120572495D01*
X191200000Y-120596999D01*
X191200000Y-121247001D01*
X191198796Y-121271505D01*
X191195196Y-121295773D01*
X191189235Y-121319572D01*
X191180970Y-121342671D01*
X191170480Y-121364850D01*
X191157868Y-121385893D01*
X191143253Y-121405599D01*
X191126777Y-121423777D01*
X191108599Y-121440253D01*
X191088893Y-121454868D01*
X191067850Y-121467480D01*
X191045671Y-121477970D01*
X191022572Y-121486235D01*
X190998773Y-121492196D01*
X190974505Y-121495796D01*
X190950001Y-121497000D01*
X190049999Y-121497000D01*
X190025495Y-121495796D01*
X190001227Y-121492196D01*
X189977428Y-121486235D01*
X189954329Y-121477970D01*
X189932150Y-121467480D01*
X189911107Y-121454868D01*
X189891401Y-121440253D01*
X189873223Y-121423777D01*
X189856747Y-121405599D01*
X189842132Y-121385893D01*
X189829520Y-121364850D01*
X189819030Y-121342671D01*
X189810765Y-121319572D01*
X189804804Y-121295773D01*
X189801204Y-121271505D01*
X189800000Y-121247001D01*
X189800000Y-120596999D01*
X189801204Y-120572495D01*
X189804804Y-120548227D01*
X189810765Y-120524428D01*
X189819030Y-120501329D01*
X189829520Y-120479150D01*
X189842132Y-120458107D01*
X189856747Y-120438401D01*
X189873223Y-120420223D01*
X189891401Y-120403747D01*
X189911107Y-120389132D01*
X189932150Y-120376520D01*
X189954329Y-120366030D01*
X189977428Y-120357765D01*
X190001227Y-120351804D01*
X190025495Y-120348204D01*
X190049999Y-120347000D01*
X190950001Y-120347000D01*
X190974505Y-120348204D01*
X190974505Y-120348204D01*
G37*
D15*
X190500000Y-120922000D03*
G04 #@! TD*
D14*
G04 #@! TO.C,C8*
G36*
X164812505Y-134318204D02*
X164836773Y-134321804D01*
X164860572Y-134327765D01*
X164883671Y-134336030D01*
X164905850Y-134346520D01*
X164926893Y-134359132D01*
X164946599Y-134373747D01*
X164964777Y-134390223D01*
X164981253Y-134408401D01*
X164995868Y-134428107D01*
X165008480Y-134449150D01*
X165018970Y-134471329D01*
X165027235Y-134494428D01*
X165033196Y-134518227D01*
X165036796Y-134542495D01*
X165038000Y-134566999D01*
X165038000Y-135217001D01*
X165036796Y-135241505D01*
X165033196Y-135265773D01*
X165027235Y-135289572D01*
X165018970Y-135312671D01*
X165008480Y-135334850D01*
X164995868Y-135355893D01*
X164981253Y-135375599D01*
X164964777Y-135393777D01*
X164946599Y-135410253D01*
X164926893Y-135424868D01*
X164905850Y-135437480D01*
X164883671Y-135447970D01*
X164860572Y-135456235D01*
X164836773Y-135462196D01*
X164812505Y-135465796D01*
X164788001Y-135467000D01*
X163887999Y-135467000D01*
X163863495Y-135465796D01*
X163839227Y-135462196D01*
X163815428Y-135456235D01*
X163792329Y-135447970D01*
X163770150Y-135437480D01*
X163749107Y-135424868D01*
X163729401Y-135410253D01*
X163711223Y-135393777D01*
X163694747Y-135375599D01*
X163680132Y-135355893D01*
X163667520Y-135334850D01*
X163657030Y-135312671D01*
X163648765Y-135289572D01*
X163642804Y-135265773D01*
X163639204Y-135241505D01*
X163638000Y-135217001D01*
X163638000Y-134566999D01*
X163639204Y-134542495D01*
X163642804Y-134518227D01*
X163648765Y-134494428D01*
X163657030Y-134471329D01*
X163667520Y-134449150D01*
X163680132Y-134428107D01*
X163694747Y-134408401D01*
X163711223Y-134390223D01*
X163729401Y-134373747D01*
X163749107Y-134359132D01*
X163770150Y-134346520D01*
X163792329Y-134336030D01*
X163815428Y-134327765D01*
X163839227Y-134321804D01*
X163863495Y-134318204D01*
X163887999Y-134317000D01*
X164788001Y-134317000D01*
X164812505Y-134318204D01*
X164812505Y-134318204D01*
G37*
D15*
X164338000Y-134892000D03*
D14*
G36*
X164812505Y-132268204D02*
X164836773Y-132271804D01*
X164860572Y-132277765D01*
X164883671Y-132286030D01*
X164905850Y-132296520D01*
X164926893Y-132309132D01*
X164946599Y-132323747D01*
X164964777Y-132340223D01*
X164981253Y-132358401D01*
X164995868Y-132378107D01*
X165008480Y-132399150D01*
X165018970Y-132421329D01*
X165027235Y-132444428D01*
X165033196Y-132468227D01*
X165036796Y-132492495D01*
X165038000Y-132516999D01*
X165038000Y-133167001D01*
X165036796Y-133191505D01*
X165033196Y-133215773D01*
X165027235Y-133239572D01*
X165018970Y-133262671D01*
X165008480Y-133284850D01*
X164995868Y-133305893D01*
X164981253Y-133325599D01*
X164964777Y-133343777D01*
X164946599Y-133360253D01*
X164926893Y-133374868D01*
X164905850Y-133387480D01*
X164883671Y-133397970D01*
X164860572Y-133406235D01*
X164836773Y-133412196D01*
X164812505Y-133415796D01*
X164788001Y-133417000D01*
X163887999Y-133417000D01*
X163863495Y-133415796D01*
X163839227Y-133412196D01*
X163815428Y-133406235D01*
X163792329Y-133397970D01*
X163770150Y-133387480D01*
X163749107Y-133374868D01*
X163729401Y-133360253D01*
X163711223Y-133343777D01*
X163694747Y-133325599D01*
X163680132Y-133305893D01*
X163667520Y-133284850D01*
X163657030Y-133262671D01*
X163648765Y-133239572D01*
X163642804Y-133215773D01*
X163639204Y-133191505D01*
X163638000Y-133167001D01*
X163638000Y-132516999D01*
X163639204Y-132492495D01*
X163642804Y-132468227D01*
X163648765Y-132444428D01*
X163657030Y-132421329D01*
X163667520Y-132399150D01*
X163680132Y-132378107D01*
X163694747Y-132358401D01*
X163711223Y-132340223D01*
X163729401Y-132323747D01*
X163749107Y-132309132D01*
X163770150Y-132296520D01*
X163792329Y-132286030D01*
X163815428Y-132277765D01*
X163839227Y-132271804D01*
X163863495Y-132268204D01*
X163887999Y-132267000D01*
X164788001Y-132267000D01*
X164812505Y-132268204D01*
X164812505Y-132268204D01*
G37*
D15*
X164338000Y-132842000D03*
G04 #@! TD*
D14*
G04 #@! TO.C,C9*
G36*
X156178505Y-119443204D02*
X156202773Y-119446804D01*
X156226572Y-119452765D01*
X156249671Y-119461030D01*
X156271850Y-119471520D01*
X156292893Y-119484132D01*
X156312599Y-119498747D01*
X156330777Y-119515223D01*
X156347253Y-119533401D01*
X156361868Y-119553107D01*
X156374480Y-119574150D01*
X156384970Y-119596329D01*
X156393235Y-119619428D01*
X156399196Y-119643227D01*
X156402796Y-119667495D01*
X156404000Y-119691999D01*
X156404000Y-120592001D01*
X156402796Y-120616505D01*
X156399196Y-120640773D01*
X156393235Y-120664572D01*
X156384970Y-120687671D01*
X156374480Y-120709850D01*
X156361868Y-120730893D01*
X156347253Y-120750599D01*
X156330777Y-120768777D01*
X156312599Y-120785253D01*
X156292893Y-120799868D01*
X156271850Y-120812480D01*
X156249671Y-120822970D01*
X156226572Y-120831235D01*
X156202773Y-120837196D01*
X156178505Y-120840796D01*
X156154001Y-120842000D01*
X155503999Y-120842000D01*
X155479495Y-120840796D01*
X155455227Y-120837196D01*
X155431428Y-120831235D01*
X155408329Y-120822970D01*
X155386150Y-120812480D01*
X155365107Y-120799868D01*
X155345401Y-120785253D01*
X155327223Y-120768777D01*
X155310747Y-120750599D01*
X155296132Y-120730893D01*
X155283520Y-120709850D01*
X155273030Y-120687671D01*
X155264765Y-120664572D01*
X155258804Y-120640773D01*
X155255204Y-120616505D01*
X155254000Y-120592001D01*
X155254000Y-119691999D01*
X155255204Y-119667495D01*
X155258804Y-119643227D01*
X155264765Y-119619428D01*
X155273030Y-119596329D01*
X155283520Y-119574150D01*
X155296132Y-119553107D01*
X155310747Y-119533401D01*
X155327223Y-119515223D01*
X155345401Y-119498747D01*
X155365107Y-119484132D01*
X155386150Y-119471520D01*
X155408329Y-119461030D01*
X155431428Y-119452765D01*
X155455227Y-119446804D01*
X155479495Y-119443204D01*
X155503999Y-119442000D01*
X156154001Y-119442000D01*
X156178505Y-119443204D01*
X156178505Y-119443204D01*
G37*
D15*
X155829000Y-120142000D03*
D14*
G36*
X154128505Y-119443204D02*
X154152773Y-119446804D01*
X154176572Y-119452765D01*
X154199671Y-119461030D01*
X154221850Y-119471520D01*
X154242893Y-119484132D01*
X154262599Y-119498747D01*
X154280777Y-119515223D01*
X154297253Y-119533401D01*
X154311868Y-119553107D01*
X154324480Y-119574150D01*
X154334970Y-119596329D01*
X154343235Y-119619428D01*
X154349196Y-119643227D01*
X154352796Y-119667495D01*
X154354000Y-119691999D01*
X154354000Y-120592001D01*
X154352796Y-120616505D01*
X154349196Y-120640773D01*
X154343235Y-120664572D01*
X154334970Y-120687671D01*
X154324480Y-120709850D01*
X154311868Y-120730893D01*
X154297253Y-120750599D01*
X154280777Y-120768777D01*
X154262599Y-120785253D01*
X154242893Y-120799868D01*
X154221850Y-120812480D01*
X154199671Y-120822970D01*
X154176572Y-120831235D01*
X154152773Y-120837196D01*
X154128505Y-120840796D01*
X154104001Y-120842000D01*
X153453999Y-120842000D01*
X153429495Y-120840796D01*
X153405227Y-120837196D01*
X153381428Y-120831235D01*
X153358329Y-120822970D01*
X153336150Y-120812480D01*
X153315107Y-120799868D01*
X153295401Y-120785253D01*
X153277223Y-120768777D01*
X153260747Y-120750599D01*
X153246132Y-120730893D01*
X153233520Y-120709850D01*
X153223030Y-120687671D01*
X153214765Y-120664572D01*
X153208804Y-120640773D01*
X153205204Y-120616505D01*
X153204000Y-120592001D01*
X153204000Y-119691999D01*
X153205204Y-119667495D01*
X153208804Y-119643227D01*
X153214765Y-119619428D01*
X153223030Y-119596329D01*
X153233520Y-119574150D01*
X153246132Y-119553107D01*
X153260747Y-119533401D01*
X153277223Y-119515223D01*
X153295401Y-119498747D01*
X153315107Y-119484132D01*
X153336150Y-119471520D01*
X153358329Y-119461030D01*
X153381428Y-119452765D01*
X153405227Y-119446804D01*
X153429495Y-119443204D01*
X153453999Y-119442000D01*
X154104001Y-119442000D01*
X154128505Y-119443204D01*
X154128505Y-119443204D01*
G37*
D15*
X153779000Y-120142000D03*
G04 #@! TD*
D14*
G04 #@! TO.C,C10*
G36*
X166336505Y-123360204D02*
X166360773Y-123363804D01*
X166384572Y-123369765D01*
X166407671Y-123378030D01*
X166429850Y-123388520D01*
X166450893Y-123401132D01*
X166470599Y-123415747D01*
X166488777Y-123432223D01*
X166505253Y-123450401D01*
X166519868Y-123470107D01*
X166532480Y-123491150D01*
X166542970Y-123513329D01*
X166551235Y-123536428D01*
X166557196Y-123560227D01*
X166560796Y-123584495D01*
X166562000Y-123608999D01*
X166562000Y-124259001D01*
X166560796Y-124283505D01*
X166557196Y-124307773D01*
X166551235Y-124331572D01*
X166542970Y-124354671D01*
X166532480Y-124376850D01*
X166519868Y-124397893D01*
X166505253Y-124417599D01*
X166488777Y-124435777D01*
X166470599Y-124452253D01*
X166450893Y-124466868D01*
X166429850Y-124479480D01*
X166407671Y-124489970D01*
X166384572Y-124498235D01*
X166360773Y-124504196D01*
X166336505Y-124507796D01*
X166312001Y-124509000D01*
X165411999Y-124509000D01*
X165387495Y-124507796D01*
X165363227Y-124504196D01*
X165339428Y-124498235D01*
X165316329Y-124489970D01*
X165294150Y-124479480D01*
X165273107Y-124466868D01*
X165253401Y-124452253D01*
X165235223Y-124435777D01*
X165218747Y-124417599D01*
X165204132Y-124397893D01*
X165191520Y-124376850D01*
X165181030Y-124354671D01*
X165172765Y-124331572D01*
X165166804Y-124307773D01*
X165163204Y-124283505D01*
X165162000Y-124259001D01*
X165162000Y-123608999D01*
X165163204Y-123584495D01*
X165166804Y-123560227D01*
X165172765Y-123536428D01*
X165181030Y-123513329D01*
X165191520Y-123491150D01*
X165204132Y-123470107D01*
X165218747Y-123450401D01*
X165235223Y-123432223D01*
X165253401Y-123415747D01*
X165273107Y-123401132D01*
X165294150Y-123388520D01*
X165316329Y-123378030D01*
X165339428Y-123369765D01*
X165363227Y-123363804D01*
X165387495Y-123360204D01*
X165411999Y-123359000D01*
X166312001Y-123359000D01*
X166336505Y-123360204D01*
X166336505Y-123360204D01*
G37*
D15*
X165862000Y-123934000D03*
D14*
G36*
X166336505Y-125410204D02*
X166360773Y-125413804D01*
X166384572Y-125419765D01*
X166407671Y-125428030D01*
X166429850Y-125438520D01*
X166450893Y-125451132D01*
X166470599Y-125465747D01*
X166488777Y-125482223D01*
X166505253Y-125500401D01*
X166519868Y-125520107D01*
X166532480Y-125541150D01*
X166542970Y-125563329D01*
X166551235Y-125586428D01*
X166557196Y-125610227D01*
X166560796Y-125634495D01*
X166562000Y-125658999D01*
X166562000Y-126309001D01*
X166560796Y-126333505D01*
X166557196Y-126357773D01*
X166551235Y-126381572D01*
X166542970Y-126404671D01*
X166532480Y-126426850D01*
X166519868Y-126447893D01*
X166505253Y-126467599D01*
X166488777Y-126485777D01*
X166470599Y-126502253D01*
X166450893Y-126516868D01*
X166429850Y-126529480D01*
X166407671Y-126539970D01*
X166384572Y-126548235D01*
X166360773Y-126554196D01*
X166336505Y-126557796D01*
X166312001Y-126559000D01*
X165411999Y-126559000D01*
X165387495Y-126557796D01*
X165363227Y-126554196D01*
X165339428Y-126548235D01*
X165316329Y-126539970D01*
X165294150Y-126529480D01*
X165273107Y-126516868D01*
X165253401Y-126502253D01*
X165235223Y-126485777D01*
X165218747Y-126467599D01*
X165204132Y-126447893D01*
X165191520Y-126426850D01*
X165181030Y-126404671D01*
X165172765Y-126381572D01*
X165166804Y-126357773D01*
X165163204Y-126333505D01*
X165162000Y-126309001D01*
X165162000Y-125658999D01*
X165163204Y-125634495D01*
X165166804Y-125610227D01*
X165172765Y-125586428D01*
X165181030Y-125563329D01*
X165191520Y-125541150D01*
X165204132Y-125520107D01*
X165218747Y-125500401D01*
X165235223Y-125482223D01*
X165253401Y-125465747D01*
X165273107Y-125451132D01*
X165294150Y-125438520D01*
X165316329Y-125428030D01*
X165339428Y-125419765D01*
X165363227Y-125413804D01*
X165387495Y-125410204D01*
X165411999Y-125409000D01*
X166312001Y-125409000D01*
X166336505Y-125410204D01*
X166336505Y-125410204D01*
G37*
D15*
X165862000Y-125984000D03*
G04 #@! TD*
D14*
G04 #@! TO.C,C11*
G36*
X153636505Y-130236204D02*
X153660773Y-130239804D01*
X153684572Y-130245765D01*
X153707671Y-130254030D01*
X153729850Y-130264520D01*
X153750893Y-130277132D01*
X153770599Y-130291747D01*
X153788777Y-130308223D01*
X153805253Y-130326401D01*
X153819868Y-130346107D01*
X153832480Y-130367150D01*
X153842970Y-130389329D01*
X153851235Y-130412428D01*
X153857196Y-130436227D01*
X153860796Y-130460495D01*
X153862000Y-130484999D01*
X153862000Y-131135001D01*
X153860796Y-131159505D01*
X153857196Y-131183773D01*
X153851235Y-131207572D01*
X153842970Y-131230671D01*
X153832480Y-131252850D01*
X153819868Y-131273893D01*
X153805253Y-131293599D01*
X153788777Y-131311777D01*
X153770599Y-131328253D01*
X153750893Y-131342868D01*
X153729850Y-131355480D01*
X153707671Y-131365970D01*
X153684572Y-131374235D01*
X153660773Y-131380196D01*
X153636505Y-131383796D01*
X153612001Y-131385000D01*
X152711999Y-131385000D01*
X152687495Y-131383796D01*
X152663227Y-131380196D01*
X152639428Y-131374235D01*
X152616329Y-131365970D01*
X152594150Y-131355480D01*
X152573107Y-131342868D01*
X152553401Y-131328253D01*
X152535223Y-131311777D01*
X152518747Y-131293599D01*
X152504132Y-131273893D01*
X152491520Y-131252850D01*
X152481030Y-131230671D01*
X152472765Y-131207572D01*
X152466804Y-131183773D01*
X152463204Y-131159505D01*
X152462000Y-131135001D01*
X152462000Y-130484999D01*
X152463204Y-130460495D01*
X152466804Y-130436227D01*
X152472765Y-130412428D01*
X152481030Y-130389329D01*
X152491520Y-130367150D01*
X152504132Y-130346107D01*
X152518747Y-130326401D01*
X152535223Y-130308223D01*
X152553401Y-130291747D01*
X152573107Y-130277132D01*
X152594150Y-130264520D01*
X152616329Y-130254030D01*
X152639428Y-130245765D01*
X152663227Y-130239804D01*
X152687495Y-130236204D01*
X152711999Y-130235000D01*
X153612001Y-130235000D01*
X153636505Y-130236204D01*
X153636505Y-130236204D01*
G37*
D15*
X153162000Y-130810000D03*
D14*
G36*
X153636505Y-132286204D02*
X153660773Y-132289804D01*
X153684572Y-132295765D01*
X153707671Y-132304030D01*
X153729850Y-132314520D01*
X153750893Y-132327132D01*
X153770599Y-132341747D01*
X153788777Y-132358223D01*
X153805253Y-132376401D01*
X153819868Y-132396107D01*
X153832480Y-132417150D01*
X153842970Y-132439329D01*
X153851235Y-132462428D01*
X153857196Y-132486227D01*
X153860796Y-132510495D01*
X153862000Y-132534999D01*
X153862000Y-133185001D01*
X153860796Y-133209505D01*
X153857196Y-133233773D01*
X153851235Y-133257572D01*
X153842970Y-133280671D01*
X153832480Y-133302850D01*
X153819868Y-133323893D01*
X153805253Y-133343599D01*
X153788777Y-133361777D01*
X153770599Y-133378253D01*
X153750893Y-133392868D01*
X153729850Y-133405480D01*
X153707671Y-133415970D01*
X153684572Y-133424235D01*
X153660773Y-133430196D01*
X153636505Y-133433796D01*
X153612001Y-133435000D01*
X152711999Y-133435000D01*
X152687495Y-133433796D01*
X152663227Y-133430196D01*
X152639428Y-133424235D01*
X152616329Y-133415970D01*
X152594150Y-133405480D01*
X152573107Y-133392868D01*
X152553401Y-133378253D01*
X152535223Y-133361777D01*
X152518747Y-133343599D01*
X152504132Y-133323893D01*
X152491520Y-133302850D01*
X152481030Y-133280671D01*
X152472765Y-133257572D01*
X152466804Y-133233773D01*
X152463204Y-133209505D01*
X152462000Y-133185001D01*
X152462000Y-132534999D01*
X152463204Y-132510495D01*
X152466804Y-132486227D01*
X152472765Y-132462428D01*
X152481030Y-132439329D01*
X152491520Y-132417150D01*
X152504132Y-132396107D01*
X152518747Y-132376401D01*
X152535223Y-132358223D01*
X152553401Y-132341747D01*
X152573107Y-132327132D01*
X152594150Y-132314520D01*
X152616329Y-132304030D01*
X152639428Y-132295765D01*
X152663227Y-132289804D01*
X152687495Y-132286204D01*
X152711999Y-132285000D01*
X153612001Y-132285000D01*
X153636505Y-132286204D01*
X153636505Y-132286204D01*
G37*
D15*
X153162000Y-132860000D03*
G04 #@! TD*
D14*
G04 #@! TO.C,C12*
G36*
X184218105Y-114361204D02*
X184242373Y-114364804D01*
X184266172Y-114370765D01*
X184289271Y-114379030D01*
X184311450Y-114389520D01*
X184332493Y-114402132D01*
X184352199Y-114416747D01*
X184370377Y-114433223D01*
X184386853Y-114451401D01*
X184401468Y-114471107D01*
X184414080Y-114492150D01*
X184424570Y-114514329D01*
X184432835Y-114537428D01*
X184438796Y-114561227D01*
X184442396Y-114585495D01*
X184443600Y-114609999D01*
X184443600Y-115260001D01*
X184442396Y-115284505D01*
X184438796Y-115308773D01*
X184432835Y-115332572D01*
X184424570Y-115355671D01*
X184414080Y-115377850D01*
X184401468Y-115398893D01*
X184386853Y-115418599D01*
X184370377Y-115436777D01*
X184352199Y-115453253D01*
X184332493Y-115467868D01*
X184311450Y-115480480D01*
X184289271Y-115490970D01*
X184266172Y-115499235D01*
X184242373Y-115505196D01*
X184218105Y-115508796D01*
X184193601Y-115510000D01*
X183293599Y-115510000D01*
X183269095Y-115508796D01*
X183244827Y-115505196D01*
X183221028Y-115499235D01*
X183197929Y-115490970D01*
X183175750Y-115480480D01*
X183154707Y-115467868D01*
X183135001Y-115453253D01*
X183116823Y-115436777D01*
X183100347Y-115418599D01*
X183085732Y-115398893D01*
X183073120Y-115377850D01*
X183062630Y-115355671D01*
X183054365Y-115332572D01*
X183048404Y-115308773D01*
X183044804Y-115284505D01*
X183043600Y-115260001D01*
X183043600Y-114609999D01*
X183044804Y-114585495D01*
X183048404Y-114561227D01*
X183054365Y-114537428D01*
X183062630Y-114514329D01*
X183073120Y-114492150D01*
X183085732Y-114471107D01*
X183100347Y-114451401D01*
X183116823Y-114433223D01*
X183135001Y-114416747D01*
X183154707Y-114402132D01*
X183175750Y-114389520D01*
X183197929Y-114379030D01*
X183221028Y-114370765D01*
X183244827Y-114364804D01*
X183269095Y-114361204D01*
X183293599Y-114360000D01*
X184193601Y-114360000D01*
X184218105Y-114361204D01*
X184218105Y-114361204D01*
G37*
D15*
X183743600Y-114935000D03*
D14*
G36*
X184218105Y-116411204D02*
X184242373Y-116414804D01*
X184266172Y-116420765D01*
X184289271Y-116429030D01*
X184311450Y-116439520D01*
X184332493Y-116452132D01*
X184352199Y-116466747D01*
X184370377Y-116483223D01*
X184386853Y-116501401D01*
X184401468Y-116521107D01*
X184414080Y-116542150D01*
X184424570Y-116564329D01*
X184432835Y-116587428D01*
X184438796Y-116611227D01*
X184442396Y-116635495D01*
X184443600Y-116659999D01*
X184443600Y-117310001D01*
X184442396Y-117334505D01*
X184438796Y-117358773D01*
X184432835Y-117382572D01*
X184424570Y-117405671D01*
X184414080Y-117427850D01*
X184401468Y-117448893D01*
X184386853Y-117468599D01*
X184370377Y-117486777D01*
X184352199Y-117503253D01*
X184332493Y-117517868D01*
X184311450Y-117530480D01*
X184289271Y-117540970D01*
X184266172Y-117549235D01*
X184242373Y-117555196D01*
X184218105Y-117558796D01*
X184193601Y-117560000D01*
X183293599Y-117560000D01*
X183269095Y-117558796D01*
X183244827Y-117555196D01*
X183221028Y-117549235D01*
X183197929Y-117540970D01*
X183175750Y-117530480D01*
X183154707Y-117517868D01*
X183135001Y-117503253D01*
X183116823Y-117486777D01*
X183100347Y-117468599D01*
X183085732Y-117448893D01*
X183073120Y-117427850D01*
X183062630Y-117405671D01*
X183054365Y-117382572D01*
X183048404Y-117358773D01*
X183044804Y-117334505D01*
X183043600Y-117310001D01*
X183043600Y-116659999D01*
X183044804Y-116635495D01*
X183048404Y-116611227D01*
X183054365Y-116587428D01*
X183062630Y-116564329D01*
X183073120Y-116542150D01*
X183085732Y-116521107D01*
X183100347Y-116501401D01*
X183116823Y-116483223D01*
X183135001Y-116466747D01*
X183154707Y-116452132D01*
X183175750Y-116439520D01*
X183197929Y-116429030D01*
X183221028Y-116420765D01*
X183244827Y-116414804D01*
X183269095Y-116411204D01*
X183293599Y-116410000D01*
X184193601Y-116410000D01*
X184218105Y-116411204D01*
X184218105Y-116411204D01*
G37*
D15*
X183743600Y-116985000D03*
G04 #@! TD*
D14*
G04 #@! TO.C,C13*
G36*
X166465505Y-113855204D02*
X166489773Y-113858804D01*
X166513572Y-113864765D01*
X166536671Y-113873030D01*
X166558850Y-113883520D01*
X166579893Y-113896132D01*
X166599599Y-113910747D01*
X166617777Y-113927223D01*
X166634253Y-113945401D01*
X166648868Y-113965107D01*
X166661480Y-113986150D01*
X166671970Y-114008329D01*
X166680235Y-114031428D01*
X166686196Y-114055227D01*
X166689796Y-114079495D01*
X166691000Y-114103999D01*
X166691000Y-115004001D01*
X166689796Y-115028505D01*
X166686196Y-115052773D01*
X166680235Y-115076572D01*
X166671970Y-115099671D01*
X166661480Y-115121850D01*
X166648868Y-115142893D01*
X166634253Y-115162599D01*
X166617777Y-115180777D01*
X166599599Y-115197253D01*
X166579893Y-115211868D01*
X166558850Y-115224480D01*
X166536671Y-115234970D01*
X166513572Y-115243235D01*
X166489773Y-115249196D01*
X166465505Y-115252796D01*
X166441001Y-115254000D01*
X165790999Y-115254000D01*
X165766495Y-115252796D01*
X165742227Y-115249196D01*
X165718428Y-115243235D01*
X165695329Y-115234970D01*
X165673150Y-115224480D01*
X165652107Y-115211868D01*
X165632401Y-115197253D01*
X165614223Y-115180777D01*
X165597747Y-115162599D01*
X165583132Y-115142893D01*
X165570520Y-115121850D01*
X165560030Y-115099671D01*
X165551765Y-115076572D01*
X165545804Y-115052773D01*
X165542204Y-115028505D01*
X165541000Y-115004001D01*
X165541000Y-114103999D01*
X165542204Y-114079495D01*
X165545804Y-114055227D01*
X165551765Y-114031428D01*
X165560030Y-114008329D01*
X165570520Y-113986150D01*
X165583132Y-113965107D01*
X165597747Y-113945401D01*
X165614223Y-113927223D01*
X165632401Y-113910747D01*
X165652107Y-113896132D01*
X165673150Y-113883520D01*
X165695329Y-113873030D01*
X165718428Y-113864765D01*
X165742227Y-113858804D01*
X165766495Y-113855204D01*
X165790999Y-113854000D01*
X166441001Y-113854000D01*
X166465505Y-113855204D01*
X166465505Y-113855204D01*
G37*
D15*
X166116000Y-114554000D03*
D14*
G36*
X168515505Y-113855204D02*
X168539773Y-113858804D01*
X168563572Y-113864765D01*
X168586671Y-113873030D01*
X168608850Y-113883520D01*
X168629893Y-113896132D01*
X168649599Y-113910747D01*
X168667777Y-113927223D01*
X168684253Y-113945401D01*
X168698868Y-113965107D01*
X168711480Y-113986150D01*
X168721970Y-114008329D01*
X168730235Y-114031428D01*
X168736196Y-114055227D01*
X168739796Y-114079495D01*
X168741000Y-114103999D01*
X168741000Y-115004001D01*
X168739796Y-115028505D01*
X168736196Y-115052773D01*
X168730235Y-115076572D01*
X168721970Y-115099671D01*
X168711480Y-115121850D01*
X168698868Y-115142893D01*
X168684253Y-115162599D01*
X168667777Y-115180777D01*
X168649599Y-115197253D01*
X168629893Y-115211868D01*
X168608850Y-115224480D01*
X168586671Y-115234970D01*
X168563572Y-115243235D01*
X168539773Y-115249196D01*
X168515505Y-115252796D01*
X168491001Y-115254000D01*
X167840999Y-115254000D01*
X167816495Y-115252796D01*
X167792227Y-115249196D01*
X167768428Y-115243235D01*
X167745329Y-115234970D01*
X167723150Y-115224480D01*
X167702107Y-115211868D01*
X167682401Y-115197253D01*
X167664223Y-115180777D01*
X167647747Y-115162599D01*
X167633132Y-115142893D01*
X167620520Y-115121850D01*
X167610030Y-115099671D01*
X167601765Y-115076572D01*
X167595804Y-115052773D01*
X167592204Y-115028505D01*
X167591000Y-115004001D01*
X167591000Y-114103999D01*
X167592204Y-114079495D01*
X167595804Y-114055227D01*
X167601765Y-114031428D01*
X167610030Y-114008329D01*
X167620520Y-113986150D01*
X167633132Y-113965107D01*
X167647747Y-113945401D01*
X167664223Y-113927223D01*
X167682401Y-113910747D01*
X167702107Y-113896132D01*
X167723150Y-113883520D01*
X167745329Y-113873030D01*
X167768428Y-113864765D01*
X167792227Y-113858804D01*
X167816495Y-113855204D01*
X167840999Y-113854000D01*
X168491001Y-113854000D01*
X168515505Y-113855204D01*
X168515505Y-113855204D01*
G37*
D15*
X168166000Y-114554000D03*
G04 #@! TD*
D14*
G04 #@! TO.C,C14*
G36*
X159224505Y-111440204D02*
X159248773Y-111443804D01*
X159272572Y-111449765D01*
X159295671Y-111458030D01*
X159317850Y-111468520D01*
X159338893Y-111481132D01*
X159358599Y-111495747D01*
X159376777Y-111512223D01*
X159393253Y-111530401D01*
X159407868Y-111550107D01*
X159420480Y-111571150D01*
X159430970Y-111593329D01*
X159439235Y-111616428D01*
X159445196Y-111640227D01*
X159448796Y-111664495D01*
X159450000Y-111688999D01*
X159450000Y-112339001D01*
X159448796Y-112363505D01*
X159445196Y-112387773D01*
X159439235Y-112411572D01*
X159430970Y-112434671D01*
X159420480Y-112456850D01*
X159407868Y-112477893D01*
X159393253Y-112497599D01*
X159376777Y-112515777D01*
X159358599Y-112532253D01*
X159338893Y-112546868D01*
X159317850Y-112559480D01*
X159295671Y-112569970D01*
X159272572Y-112578235D01*
X159248773Y-112584196D01*
X159224505Y-112587796D01*
X159200001Y-112589000D01*
X158299999Y-112589000D01*
X158275495Y-112587796D01*
X158251227Y-112584196D01*
X158227428Y-112578235D01*
X158204329Y-112569970D01*
X158182150Y-112559480D01*
X158161107Y-112546868D01*
X158141401Y-112532253D01*
X158123223Y-112515777D01*
X158106747Y-112497599D01*
X158092132Y-112477893D01*
X158079520Y-112456850D01*
X158069030Y-112434671D01*
X158060765Y-112411572D01*
X158054804Y-112387773D01*
X158051204Y-112363505D01*
X158050000Y-112339001D01*
X158050000Y-111688999D01*
X158051204Y-111664495D01*
X158054804Y-111640227D01*
X158060765Y-111616428D01*
X158069030Y-111593329D01*
X158079520Y-111571150D01*
X158092132Y-111550107D01*
X158106747Y-111530401D01*
X158123223Y-111512223D01*
X158141401Y-111495747D01*
X158161107Y-111481132D01*
X158182150Y-111468520D01*
X158204329Y-111458030D01*
X158227428Y-111449765D01*
X158251227Y-111443804D01*
X158275495Y-111440204D01*
X158299999Y-111439000D01*
X159200001Y-111439000D01*
X159224505Y-111440204D01*
X159224505Y-111440204D01*
G37*
D15*
X158750000Y-112014000D03*
D14*
G36*
X159224505Y-113490204D02*
X159248773Y-113493804D01*
X159272572Y-113499765D01*
X159295671Y-113508030D01*
X159317850Y-113518520D01*
X159338893Y-113531132D01*
X159358599Y-113545747D01*
X159376777Y-113562223D01*
X159393253Y-113580401D01*
X159407868Y-113600107D01*
X159420480Y-113621150D01*
X159430970Y-113643329D01*
X159439235Y-113666428D01*
X159445196Y-113690227D01*
X159448796Y-113714495D01*
X159450000Y-113738999D01*
X159450000Y-114389001D01*
X159448796Y-114413505D01*
X159445196Y-114437773D01*
X159439235Y-114461572D01*
X159430970Y-114484671D01*
X159420480Y-114506850D01*
X159407868Y-114527893D01*
X159393253Y-114547599D01*
X159376777Y-114565777D01*
X159358599Y-114582253D01*
X159338893Y-114596868D01*
X159317850Y-114609480D01*
X159295671Y-114619970D01*
X159272572Y-114628235D01*
X159248773Y-114634196D01*
X159224505Y-114637796D01*
X159200001Y-114639000D01*
X158299999Y-114639000D01*
X158275495Y-114637796D01*
X158251227Y-114634196D01*
X158227428Y-114628235D01*
X158204329Y-114619970D01*
X158182150Y-114609480D01*
X158161107Y-114596868D01*
X158141401Y-114582253D01*
X158123223Y-114565777D01*
X158106747Y-114547599D01*
X158092132Y-114527893D01*
X158079520Y-114506850D01*
X158069030Y-114484671D01*
X158060765Y-114461572D01*
X158054804Y-114437773D01*
X158051204Y-114413505D01*
X158050000Y-114389001D01*
X158050000Y-113738999D01*
X158051204Y-113714495D01*
X158054804Y-113690227D01*
X158060765Y-113666428D01*
X158069030Y-113643329D01*
X158079520Y-113621150D01*
X158092132Y-113600107D01*
X158106747Y-113580401D01*
X158123223Y-113562223D01*
X158141401Y-113545747D01*
X158161107Y-113531132D01*
X158182150Y-113518520D01*
X158204329Y-113508030D01*
X158227428Y-113499765D01*
X158251227Y-113493804D01*
X158275495Y-113490204D01*
X158299999Y-113489000D01*
X159200001Y-113489000D01*
X159224505Y-113490204D01*
X159224505Y-113490204D01*
G37*
D15*
X158750000Y-114064000D03*
G04 #@! TD*
D17*
G04 #@! TO.C,D1*
X146050000Y-126198000D03*
X146050000Y-123698000D03*
G04 #@! TD*
D14*
G04 #@! TO.C,F1*
G36*
X142335505Y-115887204D02*
X142359773Y-115890804D01*
X142383572Y-115896765D01*
X142406671Y-115905030D01*
X142428850Y-115915520D01*
X142449893Y-115928132D01*
X142469599Y-115942747D01*
X142487777Y-115959223D01*
X142504253Y-115977401D01*
X142518868Y-115997107D01*
X142531480Y-116018150D01*
X142541970Y-116040329D01*
X142550235Y-116063428D01*
X142556196Y-116087227D01*
X142559796Y-116111495D01*
X142561000Y-116135999D01*
X142561000Y-117036001D01*
X142559796Y-117060505D01*
X142556196Y-117084773D01*
X142550235Y-117108572D01*
X142541970Y-117131671D01*
X142531480Y-117153850D01*
X142518868Y-117174893D01*
X142504253Y-117194599D01*
X142487777Y-117212777D01*
X142469599Y-117229253D01*
X142449893Y-117243868D01*
X142428850Y-117256480D01*
X142406671Y-117266970D01*
X142383572Y-117275235D01*
X142359773Y-117281196D01*
X142335505Y-117284796D01*
X142311001Y-117286000D01*
X141660999Y-117286000D01*
X141636495Y-117284796D01*
X141612227Y-117281196D01*
X141588428Y-117275235D01*
X141565329Y-117266970D01*
X141543150Y-117256480D01*
X141522107Y-117243868D01*
X141502401Y-117229253D01*
X141484223Y-117212777D01*
X141467747Y-117194599D01*
X141453132Y-117174893D01*
X141440520Y-117153850D01*
X141430030Y-117131671D01*
X141421765Y-117108572D01*
X141415804Y-117084773D01*
X141412204Y-117060505D01*
X141411000Y-117036001D01*
X141411000Y-116135999D01*
X141412204Y-116111495D01*
X141415804Y-116087227D01*
X141421765Y-116063428D01*
X141430030Y-116040329D01*
X141440520Y-116018150D01*
X141453132Y-115997107D01*
X141467747Y-115977401D01*
X141484223Y-115959223D01*
X141502401Y-115942747D01*
X141522107Y-115928132D01*
X141543150Y-115915520D01*
X141565329Y-115905030D01*
X141588428Y-115896765D01*
X141612227Y-115890804D01*
X141636495Y-115887204D01*
X141660999Y-115886000D01*
X142311001Y-115886000D01*
X142335505Y-115887204D01*
X142335505Y-115887204D01*
G37*
D15*
X141986000Y-116586000D03*
D14*
G36*
X140285505Y-115887204D02*
X140309773Y-115890804D01*
X140333572Y-115896765D01*
X140356671Y-115905030D01*
X140378850Y-115915520D01*
X140399893Y-115928132D01*
X140419599Y-115942747D01*
X140437777Y-115959223D01*
X140454253Y-115977401D01*
X140468868Y-115997107D01*
X140481480Y-116018150D01*
X140491970Y-116040329D01*
X140500235Y-116063428D01*
X140506196Y-116087227D01*
X140509796Y-116111495D01*
X140511000Y-116135999D01*
X140511000Y-117036001D01*
X140509796Y-117060505D01*
X140506196Y-117084773D01*
X140500235Y-117108572D01*
X140491970Y-117131671D01*
X140481480Y-117153850D01*
X140468868Y-117174893D01*
X140454253Y-117194599D01*
X140437777Y-117212777D01*
X140419599Y-117229253D01*
X140399893Y-117243868D01*
X140378850Y-117256480D01*
X140356671Y-117266970D01*
X140333572Y-117275235D01*
X140309773Y-117281196D01*
X140285505Y-117284796D01*
X140261001Y-117286000D01*
X139610999Y-117286000D01*
X139586495Y-117284796D01*
X139562227Y-117281196D01*
X139538428Y-117275235D01*
X139515329Y-117266970D01*
X139493150Y-117256480D01*
X139472107Y-117243868D01*
X139452401Y-117229253D01*
X139434223Y-117212777D01*
X139417747Y-117194599D01*
X139403132Y-117174893D01*
X139390520Y-117153850D01*
X139380030Y-117131671D01*
X139371765Y-117108572D01*
X139365804Y-117084773D01*
X139362204Y-117060505D01*
X139361000Y-117036001D01*
X139361000Y-116135999D01*
X139362204Y-116111495D01*
X139365804Y-116087227D01*
X139371765Y-116063428D01*
X139380030Y-116040329D01*
X139390520Y-116018150D01*
X139403132Y-115997107D01*
X139417747Y-115977401D01*
X139434223Y-115959223D01*
X139452401Y-115942747D01*
X139472107Y-115928132D01*
X139493150Y-115915520D01*
X139515329Y-115905030D01*
X139538428Y-115896765D01*
X139562227Y-115890804D01*
X139586495Y-115887204D01*
X139610999Y-115886000D01*
X140261001Y-115886000D01*
X140285505Y-115887204D01*
X140285505Y-115887204D01*
G37*
D15*
X139936000Y-116586000D03*
G04 #@! TD*
D14*
G04 #@! TO.C,F2*
G36*
X147032505Y-121346204D02*
X147056773Y-121349804D01*
X147080572Y-121355765D01*
X147103671Y-121364030D01*
X147125850Y-121374520D01*
X147146893Y-121387132D01*
X147166599Y-121401747D01*
X147184777Y-121418223D01*
X147201253Y-121436401D01*
X147215868Y-121456107D01*
X147228480Y-121477150D01*
X147238970Y-121499329D01*
X147247235Y-121522428D01*
X147253196Y-121546227D01*
X147256796Y-121570495D01*
X147258000Y-121594999D01*
X147258000Y-122245001D01*
X147256796Y-122269505D01*
X147253196Y-122293773D01*
X147247235Y-122317572D01*
X147238970Y-122340671D01*
X147228480Y-122362850D01*
X147215868Y-122383893D01*
X147201253Y-122403599D01*
X147184777Y-122421777D01*
X147166599Y-122438253D01*
X147146893Y-122452868D01*
X147125850Y-122465480D01*
X147103671Y-122475970D01*
X147080572Y-122484235D01*
X147056773Y-122490196D01*
X147032505Y-122493796D01*
X147008001Y-122495000D01*
X146107999Y-122495000D01*
X146083495Y-122493796D01*
X146059227Y-122490196D01*
X146035428Y-122484235D01*
X146012329Y-122475970D01*
X145990150Y-122465480D01*
X145969107Y-122452868D01*
X145949401Y-122438253D01*
X145931223Y-122421777D01*
X145914747Y-122403599D01*
X145900132Y-122383893D01*
X145887520Y-122362850D01*
X145877030Y-122340671D01*
X145868765Y-122317572D01*
X145862804Y-122293773D01*
X145859204Y-122269505D01*
X145858000Y-122245001D01*
X145858000Y-121594999D01*
X145859204Y-121570495D01*
X145862804Y-121546227D01*
X145868765Y-121522428D01*
X145877030Y-121499329D01*
X145887520Y-121477150D01*
X145900132Y-121456107D01*
X145914747Y-121436401D01*
X145931223Y-121418223D01*
X145949401Y-121401747D01*
X145969107Y-121387132D01*
X145990150Y-121374520D01*
X146012329Y-121364030D01*
X146035428Y-121355765D01*
X146059227Y-121349804D01*
X146083495Y-121346204D01*
X146107999Y-121345000D01*
X147008001Y-121345000D01*
X147032505Y-121346204D01*
X147032505Y-121346204D01*
G37*
D15*
X146558000Y-121920000D03*
D14*
G36*
X147032505Y-119296204D02*
X147056773Y-119299804D01*
X147080572Y-119305765D01*
X147103671Y-119314030D01*
X147125850Y-119324520D01*
X147146893Y-119337132D01*
X147166599Y-119351747D01*
X147184777Y-119368223D01*
X147201253Y-119386401D01*
X147215868Y-119406107D01*
X147228480Y-119427150D01*
X147238970Y-119449329D01*
X147247235Y-119472428D01*
X147253196Y-119496227D01*
X147256796Y-119520495D01*
X147258000Y-119544999D01*
X147258000Y-120195001D01*
X147256796Y-120219505D01*
X147253196Y-120243773D01*
X147247235Y-120267572D01*
X147238970Y-120290671D01*
X147228480Y-120312850D01*
X147215868Y-120333893D01*
X147201253Y-120353599D01*
X147184777Y-120371777D01*
X147166599Y-120388253D01*
X147146893Y-120402868D01*
X147125850Y-120415480D01*
X147103671Y-120425970D01*
X147080572Y-120434235D01*
X147056773Y-120440196D01*
X147032505Y-120443796D01*
X147008001Y-120445000D01*
X146107999Y-120445000D01*
X146083495Y-120443796D01*
X146059227Y-120440196D01*
X146035428Y-120434235D01*
X146012329Y-120425970D01*
X145990150Y-120415480D01*
X145969107Y-120402868D01*
X145949401Y-120388253D01*
X145931223Y-120371777D01*
X145914747Y-120353599D01*
X145900132Y-120333893D01*
X145887520Y-120312850D01*
X145877030Y-120290671D01*
X145868765Y-120267572D01*
X145862804Y-120243773D01*
X145859204Y-120219505D01*
X145858000Y-120195001D01*
X145858000Y-119544999D01*
X145859204Y-119520495D01*
X145862804Y-119496227D01*
X145868765Y-119472428D01*
X145877030Y-119449329D01*
X145887520Y-119427150D01*
X145900132Y-119406107D01*
X145914747Y-119386401D01*
X145931223Y-119368223D01*
X145949401Y-119351747D01*
X145969107Y-119337132D01*
X145990150Y-119324520D01*
X146012329Y-119314030D01*
X146035428Y-119305765D01*
X146059227Y-119299804D01*
X146083495Y-119296204D01*
X146107999Y-119295000D01*
X147008001Y-119295000D01*
X147032505Y-119296204D01*
X147032505Y-119296204D01*
G37*
D15*
X146558000Y-119870000D03*
G04 #@! TD*
D18*
G04 #@! TO.C,IC1*
X134178000Y-113792000D03*
X136078000Y-113792000D03*
X135128000Y-111792000D03*
G04 #@! TD*
D19*
G04 #@! TO.C,IC2*
X137922000Y-131826000D03*
X137922000Y-132776000D03*
X137922000Y-133726000D03*
X140122000Y-133726000D03*
X140122000Y-131826000D03*
G04 #@! TD*
D16*
G04 #@! TO.C,IC5*
X182092600Y-116982200D03*
X180822600Y-116982200D03*
X179552600Y-116982200D03*
X178282600Y-116982200D03*
X178282600Y-111582200D03*
X179552600Y-111582200D03*
X180822600Y-111582200D03*
X182092600Y-111582200D03*
G04 #@! TD*
D14*
G04 #@! TO.C,R1*
G36*
X147845305Y-114945404D02*
X147869573Y-114949004D01*
X147893372Y-114954965D01*
X147916471Y-114963230D01*
X147938650Y-114973720D01*
X147959693Y-114986332D01*
X147979399Y-115000947D01*
X147997577Y-115017423D01*
X148014053Y-115035601D01*
X148028668Y-115055307D01*
X148041280Y-115076350D01*
X148051770Y-115098529D01*
X148060035Y-115121628D01*
X148065996Y-115145427D01*
X148069596Y-115169695D01*
X148070800Y-115194199D01*
X148070800Y-115844201D01*
X148069596Y-115868705D01*
X148065996Y-115892973D01*
X148060035Y-115916772D01*
X148051770Y-115939871D01*
X148041280Y-115962050D01*
X148028668Y-115983093D01*
X148014053Y-116002799D01*
X147997577Y-116020977D01*
X147979399Y-116037453D01*
X147959693Y-116052068D01*
X147938650Y-116064680D01*
X147916471Y-116075170D01*
X147893372Y-116083435D01*
X147869573Y-116089396D01*
X147845305Y-116092996D01*
X147820801Y-116094200D01*
X146920799Y-116094200D01*
X146896295Y-116092996D01*
X146872027Y-116089396D01*
X146848228Y-116083435D01*
X146825129Y-116075170D01*
X146802950Y-116064680D01*
X146781907Y-116052068D01*
X146762201Y-116037453D01*
X146744023Y-116020977D01*
X146727547Y-116002799D01*
X146712932Y-115983093D01*
X146700320Y-115962050D01*
X146689830Y-115939871D01*
X146681565Y-115916772D01*
X146675604Y-115892973D01*
X146672004Y-115868705D01*
X146670800Y-115844201D01*
X146670800Y-115194199D01*
X146672004Y-115169695D01*
X146675604Y-115145427D01*
X146681565Y-115121628D01*
X146689830Y-115098529D01*
X146700320Y-115076350D01*
X146712932Y-115055307D01*
X146727547Y-115035601D01*
X146744023Y-115017423D01*
X146762201Y-115000947D01*
X146781907Y-114986332D01*
X146802950Y-114973720D01*
X146825129Y-114963230D01*
X146848228Y-114954965D01*
X146872027Y-114949004D01*
X146896295Y-114945404D01*
X146920799Y-114944200D01*
X147820801Y-114944200D01*
X147845305Y-114945404D01*
X147845305Y-114945404D01*
G37*
D15*
X147370800Y-115519200D03*
D14*
G36*
X147845305Y-116995404D02*
X147869573Y-116999004D01*
X147893372Y-117004965D01*
X147916471Y-117013230D01*
X147938650Y-117023720D01*
X147959693Y-117036332D01*
X147979399Y-117050947D01*
X147997577Y-117067423D01*
X148014053Y-117085601D01*
X148028668Y-117105307D01*
X148041280Y-117126350D01*
X148051770Y-117148529D01*
X148060035Y-117171628D01*
X148065996Y-117195427D01*
X148069596Y-117219695D01*
X148070800Y-117244199D01*
X148070800Y-117894201D01*
X148069596Y-117918705D01*
X148065996Y-117942973D01*
X148060035Y-117966772D01*
X148051770Y-117989871D01*
X148041280Y-118012050D01*
X148028668Y-118033093D01*
X148014053Y-118052799D01*
X147997577Y-118070977D01*
X147979399Y-118087453D01*
X147959693Y-118102068D01*
X147938650Y-118114680D01*
X147916471Y-118125170D01*
X147893372Y-118133435D01*
X147869573Y-118139396D01*
X147845305Y-118142996D01*
X147820801Y-118144200D01*
X146920799Y-118144200D01*
X146896295Y-118142996D01*
X146872027Y-118139396D01*
X146848228Y-118133435D01*
X146825129Y-118125170D01*
X146802950Y-118114680D01*
X146781907Y-118102068D01*
X146762201Y-118087453D01*
X146744023Y-118070977D01*
X146727547Y-118052799D01*
X146712932Y-118033093D01*
X146700320Y-118012050D01*
X146689830Y-117989871D01*
X146681565Y-117966772D01*
X146675604Y-117942973D01*
X146672004Y-117918705D01*
X146670800Y-117894201D01*
X146670800Y-117244199D01*
X146672004Y-117219695D01*
X146675604Y-117195427D01*
X146681565Y-117171628D01*
X146689830Y-117148529D01*
X146700320Y-117126350D01*
X146712932Y-117105307D01*
X146727547Y-117085601D01*
X146744023Y-117067423D01*
X146762201Y-117050947D01*
X146781907Y-117036332D01*
X146802950Y-117023720D01*
X146825129Y-117013230D01*
X146848228Y-117004965D01*
X146872027Y-116999004D01*
X146896295Y-116995404D01*
X146920799Y-116994200D01*
X147820801Y-116994200D01*
X147845305Y-116995404D01*
X147845305Y-116995404D01*
G37*
D15*
X147370800Y-117569200D03*
G04 #@! TD*
D14*
G04 #@! TO.C,R3*
G36*
X156227305Y-115783604D02*
X156251573Y-115787204D01*
X156275372Y-115793165D01*
X156298471Y-115801430D01*
X156320650Y-115811920D01*
X156341693Y-115824532D01*
X156361399Y-115839147D01*
X156379577Y-115855623D01*
X156396053Y-115873801D01*
X156410668Y-115893507D01*
X156423280Y-115914550D01*
X156433770Y-115936729D01*
X156442035Y-115959828D01*
X156447996Y-115983627D01*
X156451596Y-116007895D01*
X156452800Y-116032399D01*
X156452800Y-116682401D01*
X156451596Y-116706905D01*
X156447996Y-116731173D01*
X156442035Y-116754972D01*
X156433770Y-116778071D01*
X156423280Y-116800250D01*
X156410668Y-116821293D01*
X156396053Y-116840999D01*
X156379577Y-116859177D01*
X156361399Y-116875653D01*
X156341693Y-116890268D01*
X156320650Y-116902880D01*
X156298471Y-116913370D01*
X156275372Y-116921635D01*
X156251573Y-116927596D01*
X156227305Y-116931196D01*
X156202801Y-116932400D01*
X155302799Y-116932400D01*
X155278295Y-116931196D01*
X155254027Y-116927596D01*
X155230228Y-116921635D01*
X155207129Y-116913370D01*
X155184950Y-116902880D01*
X155163907Y-116890268D01*
X155144201Y-116875653D01*
X155126023Y-116859177D01*
X155109547Y-116840999D01*
X155094932Y-116821293D01*
X155082320Y-116800250D01*
X155071830Y-116778071D01*
X155063565Y-116754972D01*
X155057604Y-116731173D01*
X155054004Y-116706905D01*
X155052800Y-116682401D01*
X155052800Y-116032399D01*
X155054004Y-116007895D01*
X155057604Y-115983627D01*
X155063565Y-115959828D01*
X155071830Y-115936729D01*
X155082320Y-115914550D01*
X155094932Y-115893507D01*
X155109547Y-115873801D01*
X155126023Y-115855623D01*
X155144201Y-115839147D01*
X155163907Y-115824532D01*
X155184950Y-115811920D01*
X155207129Y-115801430D01*
X155230228Y-115793165D01*
X155254027Y-115787204D01*
X155278295Y-115783604D01*
X155302799Y-115782400D01*
X156202801Y-115782400D01*
X156227305Y-115783604D01*
X156227305Y-115783604D01*
G37*
D15*
X155752800Y-116357400D03*
D14*
G36*
X156227305Y-117833604D02*
X156251573Y-117837204D01*
X156275372Y-117843165D01*
X156298471Y-117851430D01*
X156320650Y-117861920D01*
X156341693Y-117874532D01*
X156361399Y-117889147D01*
X156379577Y-117905623D01*
X156396053Y-117923801D01*
X156410668Y-117943507D01*
X156423280Y-117964550D01*
X156433770Y-117986729D01*
X156442035Y-118009828D01*
X156447996Y-118033627D01*
X156451596Y-118057895D01*
X156452800Y-118082399D01*
X156452800Y-118732401D01*
X156451596Y-118756905D01*
X156447996Y-118781173D01*
X156442035Y-118804972D01*
X156433770Y-118828071D01*
X156423280Y-118850250D01*
X156410668Y-118871293D01*
X156396053Y-118890999D01*
X156379577Y-118909177D01*
X156361399Y-118925653D01*
X156341693Y-118940268D01*
X156320650Y-118952880D01*
X156298471Y-118963370D01*
X156275372Y-118971635D01*
X156251573Y-118977596D01*
X156227305Y-118981196D01*
X156202801Y-118982400D01*
X155302799Y-118982400D01*
X155278295Y-118981196D01*
X155254027Y-118977596D01*
X155230228Y-118971635D01*
X155207129Y-118963370D01*
X155184950Y-118952880D01*
X155163907Y-118940268D01*
X155144201Y-118925653D01*
X155126023Y-118909177D01*
X155109547Y-118890999D01*
X155094932Y-118871293D01*
X155082320Y-118850250D01*
X155071830Y-118828071D01*
X155063565Y-118804972D01*
X155057604Y-118781173D01*
X155054004Y-118756905D01*
X155052800Y-118732401D01*
X155052800Y-118082399D01*
X155054004Y-118057895D01*
X155057604Y-118033627D01*
X155063565Y-118009828D01*
X155071830Y-117986729D01*
X155082320Y-117964550D01*
X155094932Y-117943507D01*
X155109547Y-117923801D01*
X155126023Y-117905623D01*
X155144201Y-117889147D01*
X155163907Y-117874532D01*
X155184950Y-117861920D01*
X155207129Y-117851430D01*
X155230228Y-117843165D01*
X155254027Y-117837204D01*
X155278295Y-117833604D01*
X155302799Y-117832400D01*
X156202801Y-117832400D01*
X156227305Y-117833604D01*
X156227305Y-117833604D01*
G37*
D15*
X155752800Y-118407400D03*
G04 #@! TD*
D14*
G04 #@! TO.C,R5*
G36*
X172102305Y-139668604D02*
X172126573Y-139672204D01*
X172150372Y-139678165D01*
X172173471Y-139686430D01*
X172195650Y-139696920D01*
X172216693Y-139709532D01*
X172236399Y-139724147D01*
X172254577Y-139740623D01*
X172271053Y-139758801D01*
X172285668Y-139778507D01*
X172298280Y-139799550D01*
X172308770Y-139821729D01*
X172317035Y-139844828D01*
X172322996Y-139868627D01*
X172326596Y-139892895D01*
X172327800Y-139917399D01*
X172327800Y-140567401D01*
X172326596Y-140591905D01*
X172322996Y-140616173D01*
X172317035Y-140639972D01*
X172308770Y-140663071D01*
X172298280Y-140685250D01*
X172285668Y-140706293D01*
X172271053Y-140725999D01*
X172254577Y-140744177D01*
X172236399Y-140760653D01*
X172216693Y-140775268D01*
X172195650Y-140787880D01*
X172173471Y-140798370D01*
X172150372Y-140806635D01*
X172126573Y-140812596D01*
X172102305Y-140816196D01*
X172077801Y-140817400D01*
X171177799Y-140817400D01*
X171153295Y-140816196D01*
X171129027Y-140812596D01*
X171105228Y-140806635D01*
X171082129Y-140798370D01*
X171059950Y-140787880D01*
X171038907Y-140775268D01*
X171019201Y-140760653D01*
X171001023Y-140744177D01*
X170984547Y-140725999D01*
X170969932Y-140706293D01*
X170957320Y-140685250D01*
X170946830Y-140663071D01*
X170938565Y-140639972D01*
X170932604Y-140616173D01*
X170929004Y-140591905D01*
X170927800Y-140567401D01*
X170927800Y-139917399D01*
X170929004Y-139892895D01*
X170932604Y-139868627D01*
X170938565Y-139844828D01*
X170946830Y-139821729D01*
X170957320Y-139799550D01*
X170969932Y-139778507D01*
X170984547Y-139758801D01*
X171001023Y-139740623D01*
X171019201Y-139724147D01*
X171038907Y-139709532D01*
X171059950Y-139696920D01*
X171082129Y-139686430D01*
X171105228Y-139678165D01*
X171129027Y-139672204D01*
X171153295Y-139668604D01*
X171177799Y-139667400D01*
X172077801Y-139667400D01*
X172102305Y-139668604D01*
X172102305Y-139668604D01*
G37*
D15*
X171627800Y-140242400D03*
D14*
G36*
X172102305Y-137618604D02*
X172126573Y-137622204D01*
X172150372Y-137628165D01*
X172173471Y-137636430D01*
X172195650Y-137646920D01*
X172216693Y-137659532D01*
X172236399Y-137674147D01*
X172254577Y-137690623D01*
X172271053Y-137708801D01*
X172285668Y-137728507D01*
X172298280Y-137749550D01*
X172308770Y-137771729D01*
X172317035Y-137794828D01*
X172322996Y-137818627D01*
X172326596Y-137842895D01*
X172327800Y-137867399D01*
X172327800Y-138517401D01*
X172326596Y-138541905D01*
X172322996Y-138566173D01*
X172317035Y-138589972D01*
X172308770Y-138613071D01*
X172298280Y-138635250D01*
X172285668Y-138656293D01*
X172271053Y-138675999D01*
X172254577Y-138694177D01*
X172236399Y-138710653D01*
X172216693Y-138725268D01*
X172195650Y-138737880D01*
X172173471Y-138748370D01*
X172150372Y-138756635D01*
X172126573Y-138762596D01*
X172102305Y-138766196D01*
X172077801Y-138767400D01*
X171177799Y-138767400D01*
X171153295Y-138766196D01*
X171129027Y-138762596D01*
X171105228Y-138756635D01*
X171082129Y-138748370D01*
X171059950Y-138737880D01*
X171038907Y-138725268D01*
X171019201Y-138710653D01*
X171001023Y-138694177D01*
X170984547Y-138675999D01*
X170969932Y-138656293D01*
X170957320Y-138635250D01*
X170946830Y-138613071D01*
X170938565Y-138589972D01*
X170932604Y-138566173D01*
X170929004Y-138541905D01*
X170927800Y-138517401D01*
X170927800Y-137867399D01*
X170929004Y-137842895D01*
X170932604Y-137818627D01*
X170938565Y-137794828D01*
X170946830Y-137771729D01*
X170957320Y-137749550D01*
X170969932Y-137728507D01*
X170984547Y-137708801D01*
X171001023Y-137690623D01*
X171019201Y-137674147D01*
X171038907Y-137659532D01*
X171059950Y-137646920D01*
X171082129Y-137636430D01*
X171105228Y-137628165D01*
X171129027Y-137622204D01*
X171153295Y-137618604D01*
X171177799Y-137617400D01*
X172077801Y-137617400D01*
X172102305Y-137618604D01*
X172102305Y-137618604D01*
G37*
D15*
X171627800Y-138192400D03*
G04 #@! TD*
D14*
G04 #@! TO.C,R6*
G36*
X144367505Y-125539204D02*
X144391773Y-125542804D01*
X144415572Y-125548765D01*
X144438671Y-125557030D01*
X144460850Y-125567520D01*
X144481893Y-125580132D01*
X144501599Y-125594747D01*
X144519777Y-125611223D01*
X144536253Y-125629401D01*
X144550868Y-125649107D01*
X144563480Y-125670150D01*
X144573970Y-125692329D01*
X144582235Y-125715428D01*
X144588196Y-125739227D01*
X144591796Y-125763495D01*
X144593000Y-125787999D01*
X144593000Y-126688001D01*
X144591796Y-126712505D01*
X144588196Y-126736773D01*
X144582235Y-126760572D01*
X144573970Y-126783671D01*
X144563480Y-126805850D01*
X144550868Y-126826893D01*
X144536253Y-126846599D01*
X144519777Y-126864777D01*
X144501599Y-126881253D01*
X144481893Y-126895868D01*
X144460850Y-126908480D01*
X144438671Y-126918970D01*
X144415572Y-126927235D01*
X144391773Y-126933196D01*
X144367505Y-126936796D01*
X144343001Y-126938000D01*
X143692999Y-126938000D01*
X143668495Y-126936796D01*
X143644227Y-126933196D01*
X143620428Y-126927235D01*
X143597329Y-126918970D01*
X143575150Y-126908480D01*
X143554107Y-126895868D01*
X143534401Y-126881253D01*
X143516223Y-126864777D01*
X143499747Y-126846599D01*
X143485132Y-126826893D01*
X143472520Y-126805850D01*
X143462030Y-126783671D01*
X143453765Y-126760572D01*
X143447804Y-126736773D01*
X143444204Y-126712505D01*
X143443000Y-126688001D01*
X143443000Y-125787999D01*
X143444204Y-125763495D01*
X143447804Y-125739227D01*
X143453765Y-125715428D01*
X143462030Y-125692329D01*
X143472520Y-125670150D01*
X143485132Y-125649107D01*
X143499747Y-125629401D01*
X143516223Y-125611223D01*
X143534401Y-125594747D01*
X143554107Y-125580132D01*
X143575150Y-125567520D01*
X143597329Y-125557030D01*
X143620428Y-125548765D01*
X143644227Y-125542804D01*
X143668495Y-125539204D01*
X143692999Y-125538000D01*
X144343001Y-125538000D01*
X144367505Y-125539204D01*
X144367505Y-125539204D01*
G37*
D15*
X144018000Y-126238000D03*
D14*
G36*
X142317505Y-125539204D02*
X142341773Y-125542804D01*
X142365572Y-125548765D01*
X142388671Y-125557030D01*
X142410850Y-125567520D01*
X142431893Y-125580132D01*
X142451599Y-125594747D01*
X142469777Y-125611223D01*
X142486253Y-125629401D01*
X142500868Y-125649107D01*
X142513480Y-125670150D01*
X142523970Y-125692329D01*
X142532235Y-125715428D01*
X142538196Y-125739227D01*
X142541796Y-125763495D01*
X142543000Y-125787999D01*
X142543000Y-126688001D01*
X142541796Y-126712505D01*
X142538196Y-126736773D01*
X142532235Y-126760572D01*
X142523970Y-126783671D01*
X142513480Y-126805850D01*
X142500868Y-126826893D01*
X142486253Y-126846599D01*
X142469777Y-126864777D01*
X142451599Y-126881253D01*
X142431893Y-126895868D01*
X142410850Y-126908480D01*
X142388671Y-126918970D01*
X142365572Y-126927235D01*
X142341773Y-126933196D01*
X142317505Y-126936796D01*
X142293001Y-126938000D01*
X141642999Y-126938000D01*
X141618495Y-126936796D01*
X141594227Y-126933196D01*
X141570428Y-126927235D01*
X141547329Y-126918970D01*
X141525150Y-126908480D01*
X141504107Y-126895868D01*
X141484401Y-126881253D01*
X141466223Y-126864777D01*
X141449747Y-126846599D01*
X141435132Y-126826893D01*
X141422520Y-126805850D01*
X141412030Y-126783671D01*
X141403765Y-126760572D01*
X141397804Y-126736773D01*
X141394204Y-126712505D01*
X141393000Y-126688001D01*
X141393000Y-125787999D01*
X141394204Y-125763495D01*
X141397804Y-125739227D01*
X141403765Y-125715428D01*
X141412030Y-125692329D01*
X141422520Y-125670150D01*
X141435132Y-125649107D01*
X141449747Y-125629401D01*
X141466223Y-125611223D01*
X141484401Y-125594747D01*
X141504107Y-125580132D01*
X141525150Y-125567520D01*
X141547329Y-125557030D01*
X141570428Y-125548765D01*
X141594227Y-125542804D01*
X141618495Y-125539204D01*
X141642999Y-125538000D01*
X142293001Y-125538000D01*
X142317505Y-125539204D01*
X142317505Y-125539204D01*
G37*
D15*
X141968000Y-126238000D03*
G04 #@! TD*
D14*
G04 #@! TO.C,R7*
G36*
X144367505Y-123507204D02*
X144391773Y-123510804D01*
X144415572Y-123516765D01*
X144438671Y-123525030D01*
X144460850Y-123535520D01*
X144481893Y-123548132D01*
X144501599Y-123562747D01*
X144519777Y-123579223D01*
X144536253Y-123597401D01*
X144550868Y-123617107D01*
X144563480Y-123638150D01*
X144573970Y-123660329D01*
X144582235Y-123683428D01*
X144588196Y-123707227D01*
X144591796Y-123731495D01*
X144593000Y-123755999D01*
X144593000Y-124656001D01*
X144591796Y-124680505D01*
X144588196Y-124704773D01*
X144582235Y-124728572D01*
X144573970Y-124751671D01*
X144563480Y-124773850D01*
X144550868Y-124794893D01*
X144536253Y-124814599D01*
X144519777Y-124832777D01*
X144501599Y-124849253D01*
X144481893Y-124863868D01*
X144460850Y-124876480D01*
X144438671Y-124886970D01*
X144415572Y-124895235D01*
X144391773Y-124901196D01*
X144367505Y-124904796D01*
X144343001Y-124906000D01*
X143692999Y-124906000D01*
X143668495Y-124904796D01*
X143644227Y-124901196D01*
X143620428Y-124895235D01*
X143597329Y-124886970D01*
X143575150Y-124876480D01*
X143554107Y-124863868D01*
X143534401Y-124849253D01*
X143516223Y-124832777D01*
X143499747Y-124814599D01*
X143485132Y-124794893D01*
X143472520Y-124773850D01*
X143462030Y-124751671D01*
X143453765Y-124728572D01*
X143447804Y-124704773D01*
X143444204Y-124680505D01*
X143443000Y-124656001D01*
X143443000Y-123755999D01*
X143444204Y-123731495D01*
X143447804Y-123707227D01*
X143453765Y-123683428D01*
X143462030Y-123660329D01*
X143472520Y-123638150D01*
X143485132Y-123617107D01*
X143499747Y-123597401D01*
X143516223Y-123579223D01*
X143534401Y-123562747D01*
X143554107Y-123548132D01*
X143575150Y-123535520D01*
X143597329Y-123525030D01*
X143620428Y-123516765D01*
X143644227Y-123510804D01*
X143668495Y-123507204D01*
X143692999Y-123506000D01*
X144343001Y-123506000D01*
X144367505Y-123507204D01*
X144367505Y-123507204D01*
G37*
D15*
X144018000Y-124206000D03*
D14*
G36*
X142317505Y-123507204D02*
X142341773Y-123510804D01*
X142365572Y-123516765D01*
X142388671Y-123525030D01*
X142410850Y-123535520D01*
X142431893Y-123548132D01*
X142451599Y-123562747D01*
X142469777Y-123579223D01*
X142486253Y-123597401D01*
X142500868Y-123617107D01*
X142513480Y-123638150D01*
X142523970Y-123660329D01*
X142532235Y-123683428D01*
X142538196Y-123707227D01*
X142541796Y-123731495D01*
X142543000Y-123755999D01*
X142543000Y-124656001D01*
X142541796Y-124680505D01*
X142538196Y-124704773D01*
X142532235Y-124728572D01*
X142523970Y-124751671D01*
X142513480Y-124773850D01*
X142500868Y-124794893D01*
X142486253Y-124814599D01*
X142469777Y-124832777D01*
X142451599Y-124849253D01*
X142431893Y-124863868D01*
X142410850Y-124876480D01*
X142388671Y-124886970D01*
X142365572Y-124895235D01*
X142341773Y-124901196D01*
X142317505Y-124904796D01*
X142293001Y-124906000D01*
X141642999Y-124906000D01*
X141618495Y-124904796D01*
X141594227Y-124901196D01*
X141570428Y-124895235D01*
X141547329Y-124886970D01*
X141525150Y-124876480D01*
X141504107Y-124863868D01*
X141484401Y-124849253D01*
X141466223Y-124832777D01*
X141449747Y-124814599D01*
X141435132Y-124794893D01*
X141422520Y-124773850D01*
X141412030Y-124751671D01*
X141403765Y-124728572D01*
X141397804Y-124704773D01*
X141394204Y-124680505D01*
X141393000Y-124656001D01*
X141393000Y-123755999D01*
X141394204Y-123731495D01*
X141397804Y-123707227D01*
X141403765Y-123683428D01*
X141412030Y-123660329D01*
X141422520Y-123638150D01*
X141435132Y-123617107D01*
X141449747Y-123597401D01*
X141466223Y-123579223D01*
X141484401Y-123562747D01*
X141504107Y-123548132D01*
X141525150Y-123535520D01*
X141547329Y-123525030D01*
X141570428Y-123516765D01*
X141594227Y-123510804D01*
X141618495Y-123507204D01*
X141642999Y-123506000D01*
X142293001Y-123506000D01*
X142317505Y-123507204D01*
X142317505Y-123507204D01*
G37*
D15*
X141968000Y-124206000D03*
G04 #@! TD*
D14*
G04 #@! TO.C,R8*
G36*
X175025305Y-115226804D02*
X175049573Y-115230404D01*
X175073372Y-115236365D01*
X175096471Y-115244630D01*
X175118650Y-115255120D01*
X175139693Y-115267732D01*
X175159399Y-115282347D01*
X175177577Y-115298823D01*
X175194053Y-115317001D01*
X175208668Y-115336707D01*
X175221280Y-115357750D01*
X175231770Y-115379929D01*
X175240035Y-115403028D01*
X175245996Y-115426827D01*
X175249596Y-115451095D01*
X175250800Y-115475599D01*
X175250800Y-116375601D01*
X175249596Y-116400105D01*
X175245996Y-116424373D01*
X175240035Y-116448172D01*
X175231770Y-116471271D01*
X175221280Y-116493450D01*
X175208668Y-116514493D01*
X175194053Y-116534199D01*
X175177577Y-116552377D01*
X175159399Y-116568853D01*
X175139693Y-116583468D01*
X175118650Y-116596080D01*
X175096471Y-116606570D01*
X175073372Y-116614835D01*
X175049573Y-116620796D01*
X175025305Y-116624396D01*
X175000801Y-116625600D01*
X174350799Y-116625600D01*
X174326295Y-116624396D01*
X174302027Y-116620796D01*
X174278228Y-116614835D01*
X174255129Y-116606570D01*
X174232950Y-116596080D01*
X174211907Y-116583468D01*
X174192201Y-116568853D01*
X174174023Y-116552377D01*
X174157547Y-116534199D01*
X174142932Y-116514493D01*
X174130320Y-116493450D01*
X174119830Y-116471271D01*
X174111565Y-116448172D01*
X174105604Y-116424373D01*
X174102004Y-116400105D01*
X174100800Y-116375601D01*
X174100800Y-115475599D01*
X174102004Y-115451095D01*
X174105604Y-115426827D01*
X174111565Y-115403028D01*
X174119830Y-115379929D01*
X174130320Y-115357750D01*
X174142932Y-115336707D01*
X174157547Y-115317001D01*
X174174023Y-115298823D01*
X174192201Y-115282347D01*
X174211907Y-115267732D01*
X174232950Y-115255120D01*
X174255129Y-115244630D01*
X174278228Y-115236365D01*
X174302027Y-115230404D01*
X174326295Y-115226804D01*
X174350799Y-115225600D01*
X175000801Y-115225600D01*
X175025305Y-115226804D01*
X175025305Y-115226804D01*
G37*
D15*
X174675800Y-115925600D03*
D14*
G36*
X177075305Y-115226804D02*
X177099573Y-115230404D01*
X177123372Y-115236365D01*
X177146471Y-115244630D01*
X177168650Y-115255120D01*
X177189693Y-115267732D01*
X177209399Y-115282347D01*
X177227577Y-115298823D01*
X177244053Y-115317001D01*
X177258668Y-115336707D01*
X177271280Y-115357750D01*
X177281770Y-115379929D01*
X177290035Y-115403028D01*
X177295996Y-115426827D01*
X177299596Y-115451095D01*
X177300800Y-115475599D01*
X177300800Y-116375601D01*
X177299596Y-116400105D01*
X177295996Y-116424373D01*
X177290035Y-116448172D01*
X177281770Y-116471271D01*
X177271280Y-116493450D01*
X177258668Y-116514493D01*
X177244053Y-116534199D01*
X177227577Y-116552377D01*
X177209399Y-116568853D01*
X177189693Y-116583468D01*
X177168650Y-116596080D01*
X177146471Y-116606570D01*
X177123372Y-116614835D01*
X177099573Y-116620796D01*
X177075305Y-116624396D01*
X177050801Y-116625600D01*
X176400799Y-116625600D01*
X176376295Y-116624396D01*
X176352027Y-116620796D01*
X176328228Y-116614835D01*
X176305129Y-116606570D01*
X176282950Y-116596080D01*
X176261907Y-116583468D01*
X176242201Y-116568853D01*
X176224023Y-116552377D01*
X176207547Y-116534199D01*
X176192932Y-116514493D01*
X176180320Y-116493450D01*
X176169830Y-116471271D01*
X176161565Y-116448172D01*
X176155604Y-116424373D01*
X176152004Y-116400105D01*
X176150800Y-116375601D01*
X176150800Y-115475599D01*
X176152004Y-115451095D01*
X176155604Y-115426827D01*
X176161565Y-115403028D01*
X176169830Y-115379929D01*
X176180320Y-115357750D01*
X176192932Y-115336707D01*
X176207547Y-115317001D01*
X176224023Y-115298823D01*
X176242201Y-115282347D01*
X176261907Y-115267732D01*
X176282950Y-115255120D01*
X176305129Y-115244630D01*
X176328228Y-115236365D01*
X176352027Y-115230404D01*
X176376295Y-115226804D01*
X176400799Y-115225600D01*
X177050801Y-115225600D01*
X177075305Y-115226804D01*
X177075305Y-115226804D01*
G37*
D15*
X176725800Y-115925600D03*
G04 #@! TD*
D14*
G04 #@! TO.C,R9*
G36*
X177082705Y-117182604D02*
X177106973Y-117186204D01*
X177130772Y-117192165D01*
X177153871Y-117200430D01*
X177176050Y-117210920D01*
X177197093Y-117223532D01*
X177216799Y-117238147D01*
X177234977Y-117254623D01*
X177251453Y-117272801D01*
X177266068Y-117292507D01*
X177278680Y-117313550D01*
X177289170Y-117335729D01*
X177297435Y-117358828D01*
X177303396Y-117382627D01*
X177306996Y-117406895D01*
X177308200Y-117431399D01*
X177308200Y-118331401D01*
X177306996Y-118355905D01*
X177303396Y-118380173D01*
X177297435Y-118403972D01*
X177289170Y-118427071D01*
X177278680Y-118449250D01*
X177266068Y-118470293D01*
X177251453Y-118489999D01*
X177234977Y-118508177D01*
X177216799Y-118524653D01*
X177197093Y-118539268D01*
X177176050Y-118551880D01*
X177153871Y-118562370D01*
X177130772Y-118570635D01*
X177106973Y-118576596D01*
X177082705Y-118580196D01*
X177058201Y-118581400D01*
X176408199Y-118581400D01*
X176383695Y-118580196D01*
X176359427Y-118576596D01*
X176335628Y-118570635D01*
X176312529Y-118562370D01*
X176290350Y-118551880D01*
X176269307Y-118539268D01*
X176249601Y-118524653D01*
X176231423Y-118508177D01*
X176214947Y-118489999D01*
X176200332Y-118470293D01*
X176187720Y-118449250D01*
X176177230Y-118427071D01*
X176168965Y-118403972D01*
X176163004Y-118380173D01*
X176159404Y-118355905D01*
X176158200Y-118331401D01*
X176158200Y-117431399D01*
X176159404Y-117406895D01*
X176163004Y-117382627D01*
X176168965Y-117358828D01*
X176177230Y-117335729D01*
X176187720Y-117313550D01*
X176200332Y-117292507D01*
X176214947Y-117272801D01*
X176231423Y-117254623D01*
X176249601Y-117238147D01*
X176269307Y-117223532D01*
X176290350Y-117210920D01*
X176312529Y-117200430D01*
X176335628Y-117192165D01*
X176359427Y-117186204D01*
X176383695Y-117182604D01*
X176408199Y-117181400D01*
X177058201Y-117181400D01*
X177082705Y-117182604D01*
X177082705Y-117182604D01*
G37*
D15*
X176733200Y-117881400D03*
D14*
G36*
X175032705Y-117182604D02*
X175056973Y-117186204D01*
X175080772Y-117192165D01*
X175103871Y-117200430D01*
X175126050Y-117210920D01*
X175147093Y-117223532D01*
X175166799Y-117238147D01*
X175184977Y-117254623D01*
X175201453Y-117272801D01*
X175216068Y-117292507D01*
X175228680Y-117313550D01*
X175239170Y-117335729D01*
X175247435Y-117358828D01*
X175253396Y-117382627D01*
X175256996Y-117406895D01*
X175258200Y-117431399D01*
X175258200Y-118331401D01*
X175256996Y-118355905D01*
X175253396Y-118380173D01*
X175247435Y-118403972D01*
X175239170Y-118427071D01*
X175228680Y-118449250D01*
X175216068Y-118470293D01*
X175201453Y-118489999D01*
X175184977Y-118508177D01*
X175166799Y-118524653D01*
X175147093Y-118539268D01*
X175126050Y-118551880D01*
X175103871Y-118562370D01*
X175080772Y-118570635D01*
X175056973Y-118576596D01*
X175032705Y-118580196D01*
X175008201Y-118581400D01*
X174358199Y-118581400D01*
X174333695Y-118580196D01*
X174309427Y-118576596D01*
X174285628Y-118570635D01*
X174262529Y-118562370D01*
X174240350Y-118551880D01*
X174219307Y-118539268D01*
X174199601Y-118524653D01*
X174181423Y-118508177D01*
X174164947Y-118489999D01*
X174150332Y-118470293D01*
X174137720Y-118449250D01*
X174127230Y-118427071D01*
X174118965Y-118403972D01*
X174113004Y-118380173D01*
X174109404Y-118355905D01*
X174108200Y-118331401D01*
X174108200Y-117431399D01*
X174109404Y-117406895D01*
X174113004Y-117382627D01*
X174118965Y-117358828D01*
X174127230Y-117335729D01*
X174137720Y-117313550D01*
X174150332Y-117292507D01*
X174164947Y-117272801D01*
X174181423Y-117254623D01*
X174199601Y-117238147D01*
X174219307Y-117223532D01*
X174240350Y-117210920D01*
X174262529Y-117200430D01*
X174285628Y-117192165D01*
X174309427Y-117186204D01*
X174333695Y-117182604D01*
X174358199Y-117181400D01*
X175008201Y-117181400D01*
X175032705Y-117182604D01*
X175032705Y-117182604D01*
G37*
D15*
X174683200Y-117881400D03*
G04 #@! TD*
D14*
G04 #@! TO.C,R11*
G36*
X160962705Y-115506204D02*
X160986973Y-115509804D01*
X161010772Y-115515765D01*
X161033871Y-115524030D01*
X161056050Y-115534520D01*
X161077093Y-115547132D01*
X161096799Y-115561747D01*
X161114977Y-115578223D01*
X161131453Y-115596401D01*
X161146068Y-115616107D01*
X161158680Y-115637150D01*
X161169170Y-115659329D01*
X161177435Y-115682428D01*
X161183396Y-115706227D01*
X161186996Y-115730495D01*
X161188200Y-115754999D01*
X161188200Y-116655001D01*
X161186996Y-116679505D01*
X161183396Y-116703773D01*
X161177435Y-116727572D01*
X161169170Y-116750671D01*
X161158680Y-116772850D01*
X161146068Y-116793893D01*
X161131453Y-116813599D01*
X161114977Y-116831777D01*
X161096799Y-116848253D01*
X161077093Y-116862868D01*
X161056050Y-116875480D01*
X161033871Y-116885970D01*
X161010772Y-116894235D01*
X160986973Y-116900196D01*
X160962705Y-116903796D01*
X160938201Y-116905000D01*
X160288199Y-116905000D01*
X160263695Y-116903796D01*
X160239427Y-116900196D01*
X160215628Y-116894235D01*
X160192529Y-116885970D01*
X160170350Y-116875480D01*
X160149307Y-116862868D01*
X160129601Y-116848253D01*
X160111423Y-116831777D01*
X160094947Y-116813599D01*
X160080332Y-116793893D01*
X160067720Y-116772850D01*
X160057230Y-116750671D01*
X160048965Y-116727572D01*
X160043004Y-116703773D01*
X160039404Y-116679505D01*
X160038200Y-116655001D01*
X160038200Y-115754999D01*
X160039404Y-115730495D01*
X160043004Y-115706227D01*
X160048965Y-115682428D01*
X160057230Y-115659329D01*
X160067720Y-115637150D01*
X160080332Y-115616107D01*
X160094947Y-115596401D01*
X160111423Y-115578223D01*
X160129601Y-115561747D01*
X160149307Y-115547132D01*
X160170350Y-115534520D01*
X160192529Y-115524030D01*
X160215628Y-115515765D01*
X160239427Y-115509804D01*
X160263695Y-115506204D01*
X160288199Y-115505000D01*
X160938201Y-115505000D01*
X160962705Y-115506204D01*
X160962705Y-115506204D01*
G37*
D15*
X160613200Y-116205000D03*
D14*
G36*
X158912705Y-115506204D02*
X158936973Y-115509804D01*
X158960772Y-115515765D01*
X158983871Y-115524030D01*
X159006050Y-115534520D01*
X159027093Y-115547132D01*
X159046799Y-115561747D01*
X159064977Y-115578223D01*
X159081453Y-115596401D01*
X159096068Y-115616107D01*
X159108680Y-115637150D01*
X159119170Y-115659329D01*
X159127435Y-115682428D01*
X159133396Y-115706227D01*
X159136996Y-115730495D01*
X159138200Y-115754999D01*
X159138200Y-116655001D01*
X159136996Y-116679505D01*
X159133396Y-116703773D01*
X159127435Y-116727572D01*
X159119170Y-116750671D01*
X159108680Y-116772850D01*
X159096068Y-116793893D01*
X159081453Y-116813599D01*
X159064977Y-116831777D01*
X159046799Y-116848253D01*
X159027093Y-116862868D01*
X159006050Y-116875480D01*
X158983871Y-116885970D01*
X158960772Y-116894235D01*
X158936973Y-116900196D01*
X158912705Y-116903796D01*
X158888201Y-116905000D01*
X158238199Y-116905000D01*
X158213695Y-116903796D01*
X158189427Y-116900196D01*
X158165628Y-116894235D01*
X158142529Y-116885970D01*
X158120350Y-116875480D01*
X158099307Y-116862868D01*
X158079601Y-116848253D01*
X158061423Y-116831777D01*
X158044947Y-116813599D01*
X158030332Y-116793893D01*
X158017720Y-116772850D01*
X158007230Y-116750671D01*
X157998965Y-116727572D01*
X157993004Y-116703773D01*
X157989404Y-116679505D01*
X157988200Y-116655001D01*
X157988200Y-115754999D01*
X157989404Y-115730495D01*
X157993004Y-115706227D01*
X157998965Y-115682428D01*
X158007230Y-115659329D01*
X158017720Y-115637150D01*
X158030332Y-115616107D01*
X158044947Y-115596401D01*
X158061423Y-115578223D01*
X158079601Y-115561747D01*
X158099307Y-115547132D01*
X158120350Y-115534520D01*
X158142529Y-115524030D01*
X158165628Y-115515765D01*
X158189427Y-115509804D01*
X158213695Y-115506204D01*
X158238199Y-115505000D01*
X158888201Y-115505000D01*
X158912705Y-115506204D01*
X158912705Y-115506204D01*
G37*
D15*
X158563200Y-116205000D03*
G04 #@! TD*
D20*
G04 #@! TO.C,S1*
X132130000Y-139182000D03*
X132130000Y-135382000D03*
X138430000Y-135382000D03*
X138430000Y-139182000D03*
G04 #@! TD*
G04 #@! TO.C,S2*
X153175500Y-139192000D03*
X153175500Y-135392000D03*
X146875500Y-135392000D03*
X146875500Y-139192000D03*
G04 #@! TD*
D18*
G04 #@! TO.C,T1*
X145653800Y-116592600D03*
X143753800Y-116592600D03*
X144703800Y-118592600D03*
G04 #@! TD*
D14*
G04 #@! TO.C,C15*
G36*
X138498105Y-116850404D02*
X138522373Y-116854004D01*
X138546172Y-116859965D01*
X138569271Y-116868230D01*
X138591450Y-116878720D01*
X138612493Y-116891332D01*
X138632199Y-116905947D01*
X138650377Y-116922423D01*
X138666853Y-116940601D01*
X138681468Y-116960307D01*
X138694080Y-116981350D01*
X138704570Y-117003529D01*
X138712835Y-117026628D01*
X138718796Y-117050427D01*
X138722396Y-117074695D01*
X138723600Y-117099199D01*
X138723600Y-117749201D01*
X138722396Y-117773705D01*
X138718796Y-117797973D01*
X138712835Y-117821772D01*
X138704570Y-117844871D01*
X138694080Y-117867050D01*
X138681468Y-117888093D01*
X138666853Y-117907799D01*
X138650377Y-117925977D01*
X138632199Y-117942453D01*
X138612493Y-117957068D01*
X138591450Y-117969680D01*
X138569271Y-117980170D01*
X138546172Y-117988435D01*
X138522373Y-117994396D01*
X138498105Y-117997996D01*
X138473601Y-117999200D01*
X137573599Y-117999200D01*
X137549095Y-117997996D01*
X137524827Y-117994396D01*
X137501028Y-117988435D01*
X137477929Y-117980170D01*
X137455750Y-117969680D01*
X137434707Y-117957068D01*
X137415001Y-117942453D01*
X137396823Y-117925977D01*
X137380347Y-117907799D01*
X137365732Y-117888093D01*
X137353120Y-117867050D01*
X137342630Y-117844871D01*
X137334365Y-117821772D01*
X137328404Y-117797973D01*
X137324804Y-117773705D01*
X137323600Y-117749201D01*
X137323600Y-117099199D01*
X137324804Y-117074695D01*
X137328404Y-117050427D01*
X137334365Y-117026628D01*
X137342630Y-117003529D01*
X137353120Y-116981350D01*
X137365732Y-116960307D01*
X137380347Y-116940601D01*
X137396823Y-116922423D01*
X137415001Y-116905947D01*
X137434707Y-116891332D01*
X137455750Y-116878720D01*
X137477929Y-116868230D01*
X137501028Y-116859965D01*
X137524827Y-116854004D01*
X137549095Y-116850404D01*
X137573599Y-116849200D01*
X138473601Y-116849200D01*
X138498105Y-116850404D01*
X138498105Y-116850404D01*
G37*
D15*
X138023600Y-117424200D03*
D14*
G36*
X138498105Y-118900404D02*
X138522373Y-118904004D01*
X138546172Y-118909965D01*
X138569271Y-118918230D01*
X138591450Y-118928720D01*
X138612493Y-118941332D01*
X138632199Y-118955947D01*
X138650377Y-118972423D01*
X138666853Y-118990601D01*
X138681468Y-119010307D01*
X138694080Y-119031350D01*
X138704570Y-119053529D01*
X138712835Y-119076628D01*
X138718796Y-119100427D01*
X138722396Y-119124695D01*
X138723600Y-119149199D01*
X138723600Y-119799201D01*
X138722396Y-119823705D01*
X138718796Y-119847973D01*
X138712835Y-119871772D01*
X138704570Y-119894871D01*
X138694080Y-119917050D01*
X138681468Y-119938093D01*
X138666853Y-119957799D01*
X138650377Y-119975977D01*
X138632199Y-119992453D01*
X138612493Y-120007068D01*
X138591450Y-120019680D01*
X138569271Y-120030170D01*
X138546172Y-120038435D01*
X138522373Y-120044396D01*
X138498105Y-120047996D01*
X138473601Y-120049200D01*
X137573599Y-120049200D01*
X137549095Y-120047996D01*
X137524827Y-120044396D01*
X137501028Y-120038435D01*
X137477929Y-120030170D01*
X137455750Y-120019680D01*
X137434707Y-120007068D01*
X137415001Y-119992453D01*
X137396823Y-119975977D01*
X137380347Y-119957799D01*
X137365732Y-119938093D01*
X137353120Y-119917050D01*
X137342630Y-119894871D01*
X137334365Y-119871772D01*
X137328404Y-119847973D01*
X137324804Y-119823705D01*
X137323600Y-119799201D01*
X137323600Y-119149199D01*
X137324804Y-119124695D01*
X137328404Y-119100427D01*
X137334365Y-119076628D01*
X137342630Y-119053529D01*
X137353120Y-119031350D01*
X137365732Y-119010307D01*
X137380347Y-118990601D01*
X137396823Y-118972423D01*
X137415001Y-118955947D01*
X137434707Y-118941332D01*
X137455750Y-118928720D01*
X137477929Y-118918230D01*
X137501028Y-118909965D01*
X137524827Y-118904004D01*
X137549095Y-118900404D01*
X137573599Y-118899200D01*
X138473601Y-118899200D01*
X138498105Y-118900404D01*
X138498105Y-118900404D01*
G37*
D15*
X138023600Y-119474200D03*
G04 #@! TD*
D14*
G04 #@! TO.C,C17*
G36*
X162780505Y-132268204D02*
X162804773Y-132271804D01*
X162828572Y-132277765D01*
X162851671Y-132286030D01*
X162873850Y-132296520D01*
X162894893Y-132309132D01*
X162914599Y-132323747D01*
X162932777Y-132340223D01*
X162949253Y-132358401D01*
X162963868Y-132378107D01*
X162976480Y-132399150D01*
X162986970Y-132421329D01*
X162995235Y-132444428D01*
X163001196Y-132468227D01*
X163004796Y-132492495D01*
X163006000Y-132516999D01*
X163006000Y-133167001D01*
X163004796Y-133191505D01*
X163001196Y-133215773D01*
X162995235Y-133239572D01*
X162986970Y-133262671D01*
X162976480Y-133284850D01*
X162963868Y-133305893D01*
X162949253Y-133325599D01*
X162932777Y-133343777D01*
X162914599Y-133360253D01*
X162894893Y-133374868D01*
X162873850Y-133387480D01*
X162851671Y-133397970D01*
X162828572Y-133406235D01*
X162804773Y-133412196D01*
X162780505Y-133415796D01*
X162756001Y-133417000D01*
X161855999Y-133417000D01*
X161831495Y-133415796D01*
X161807227Y-133412196D01*
X161783428Y-133406235D01*
X161760329Y-133397970D01*
X161738150Y-133387480D01*
X161717107Y-133374868D01*
X161697401Y-133360253D01*
X161679223Y-133343777D01*
X161662747Y-133325599D01*
X161648132Y-133305893D01*
X161635520Y-133284850D01*
X161625030Y-133262671D01*
X161616765Y-133239572D01*
X161610804Y-133215773D01*
X161607204Y-133191505D01*
X161606000Y-133167001D01*
X161606000Y-132516999D01*
X161607204Y-132492495D01*
X161610804Y-132468227D01*
X161616765Y-132444428D01*
X161625030Y-132421329D01*
X161635520Y-132399150D01*
X161648132Y-132378107D01*
X161662747Y-132358401D01*
X161679223Y-132340223D01*
X161697401Y-132323747D01*
X161717107Y-132309132D01*
X161738150Y-132296520D01*
X161760329Y-132286030D01*
X161783428Y-132277765D01*
X161807227Y-132271804D01*
X161831495Y-132268204D01*
X161855999Y-132267000D01*
X162756001Y-132267000D01*
X162780505Y-132268204D01*
X162780505Y-132268204D01*
G37*
D15*
X162306000Y-132842000D03*
D14*
G36*
X162780505Y-134318204D02*
X162804773Y-134321804D01*
X162828572Y-134327765D01*
X162851671Y-134336030D01*
X162873850Y-134346520D01*
X162894893Y-134359132D01*
X162914599Y-134373747D01*
X162932777Y-134390223D01*
X162949253Y-134408401D01*
X162963868Y-134428107D01*
X162976480Y-134449150D01*
X162986970Y-134471329D01*
X162995235Y-134494428D01*
X163001196Y-134518227D01*
X163004796Y-134542495D01*
X163006000Y-134566999D01*
X163006000Y-135217001D01*
X163004796Y-135241505D01*
X163001196Y-135265773D01*
X162995235Y-135289572D01*
X162986970Y-135312671D01*
X162976480Y-135334850D01*
X162963868Y-135355893D01*
X162949253Y-135375599D01*
X162932777Y-135393777D01*
X162914599Y-135410253D01*
X162894893Y-135424868D01*
X162873850Y-135437480D01*
X162851671Y-135447970D01*
X162828572Y-135456235D01*
X162804773Y-135462196D01*
X162780505Y-135465796D01*
X162756001Y-135467000D01*
X161855999Y-135467000D01*
X161831495Y-135465796D01*
X161807227Y-135462196D01*
X161783428Y-135456235D01*
X161760329Y-135447970D01*
X161738150Y-135437480D01*
X161717107Y-135424868D01*
X161697401Y-135410253D01*
X161679223Y-135393777D01*
X161662747Y-135375599D01*
X161648132Y-135355893D01*
X161635520Y-135334850D01*
X161625030Y-135312671D01*
X161616765Y-135289572D01*
X161610804Y-135265773D01*
X161607204Y-135241505D01*
X161606000Y-135217001D01*
X161606000Y-134566999D01*
X161607204Y-134542495D01*
X161610804Y-134518227D01*
X161616765Y-134494428D01*
X161625030Y-134471329D01*
X161635520Y-134449150D01*
X161648132Y-134428107D01*
X161662747Y-134408401D01*
X161679223Y-134390223D01*
X161697401Y-134373747D01*
X161717107Y-134359132D01*
X161738150Y-134346520D01*
X161760329Y-134336030D01*
X161783428Y-134327765D01*
X161807227Y-134321804D01*
X161831495Y-134318204D01*
X161855999Y-134317000D01*
X162756001Y-134317000D01*
X162780505Y-134318204D01*
X162780505Y-134318204D01*
G37*
D15*
X162306000Y-134892000D03*
G04 #@! TD*
D14*
G04 #@! TO.C,C18*
G36*
X138761505Y-129349204D02*
X138785773Y-129352804D01*
X138809572Y-129358765D01*
X138832671Y-129367030D01*
X138854850Y-129377520D01*
X138875893Y-129390132D01*
X138895599Y-129404747D01*
X138913777Y-129421223D01*
X138930253Y-129439401D01*
X138944868Y-129459107D01*
X138957480Y-129480150D01*
X138967970Y-129502329D01*
X138976235Y-129525428D01*
X138982196Y-129549227D01*
X138985796Y-129573495D01*
X138987000Y-129597999D01*
X138987000Y-130498001D01*
X138985796Y-130522505D01*
X138982196Y-130546773D01*
X138976235Y-130570572D01*
X138967970Y-130593671D01*
X138957480Y-130615850D01*
X138944868Y-130636893D01*
X138930253Y-130656599D01*
X138913777Y-130674777D01*
X138895599Y-130691253D01*
X138875893Y-130705868D01*
X138854850Y-130718480D01*
X138832671Y-130728970D01*
X138809572Y-130737235D01*
X138785773Y-130743196D01*
X138761505Y-130746796D01*
X138737001Y-130748000D01*
X138086999Y-130748000D01*
X138062495Y-130746796D01*
X138038227Y-130743196D01*
X138014428Y-130737235D01*
X137991329Y-130728970D01*
X137969150Y-130718480D01*
X137948107Y-130705868D01*
X137928401Y-130691253D01*
X137910223Y-130674777D01*
X137893747Y-130656599D01*
X137879132Y-130636893D01*
X137866520Y-130615850D01*
X137856030Y-130593671D01*
X137847765Y-130570572D01*
X137841804Y-130546773D01*
X137838204Y-130522505D01*
X137837000Y-130498001D01*
X137837000Y-129597999D01*
X137838204Y-129573495D01*
X137841804Y-129549227D01*
X137847765Y-129525428D01*
X137856030Y-129502329D01*
X137866520Y-129480150D01*
X137879132Y-129459107D01*
X137893747Y-129439401D01*
X137910223Y-129421223D01*
X137928401Y-129404747D01*
X137948107Y-129390132D01*
X137969150Y-129377520D01*
X137991329Y-129367030D01*
X138014428Y-129358765D01*
X138038227Y-129352804D01*
X138062495Y-129349204D01*
X138086999Y-129348000D01*
X138737001Y-129348000D01*
X138761505Y-129349204D01*
X138761505Y-129349204D01*
G37*
D15*
X138412000Y-130048000D03*
D14*
G36*
X140811505Y-129349204D02*
X140835773Y-129352804D01*
X140859572Y-129358765D01*
X140882671Y-129367030D01*
X140904850Y-129377520D01*
X140925893Y-129390132D01*
X140945599Y-129404747D01*
X140963777Y-129421223D01*
X140980253Y-129439401D01*
X140994868Y-129459107D01*
X141007480Y-129480150D01*
X141017970Y-129502329D01*
X141026235Y-129525428D01*
X141032196Y-129549227D01*
X141035796Y-129573495D01*
X141037000Y-129597999D01*
X141037000Y-130498001D01*
X141035796Y-130522505D01*
X141032196Y-130546773D01*
X141026235Y-130570572D01*
X141017970Y-130593671D01*
X141007480Y-130615850D01*
X140994868Y-130636893D01*
X140980253Y-130656599D01*
X140963777Y-130674777D01*
X140945599Y-130691253D01*
X140925893Y-130705868D01*
X140904850Y-130718480D01*
X140882671Y-130728970D01*
X140859572Y-130737235D01*
X140835773Y-130743196D01*
X140811505Y-130746796D01*
X140787001Y-130748000D01*
X140136999Y-130748000D01*
X140112495Y-130746796D01*
X140088227Y-130743196D01*
X140064428Y-130737235D01*
X140041329Y-130728970D01*
X140019150Y-130718480D01*
X139998107Y-130705868D01*
X139978401Y-130691253D01*
X139960223Y-130674777D01*
X139943747Y-130656599D01*
X139929132Y-130636893D01*
X139916520Y-130615850D01*
X139906030Y-130593671D01*
X139897765Y-130570572D01*
X139891804Y-130546773D01*
X139888204Y-130522505D01*
X139887000Y-130498001D01*
X139887000Y-129597999D01*
X139888204Y-129573495D01*
X139891804Y-129549227D01*
X139897765Y-129525428D01*
X139906030Y-129502329D01*
X139916520Y-129480150D01*
X139929132Y-129459107D01*
X139943747Y-129439401D01*
X139960223Y-129421223D01*
X139978401Y-129404747D01*
X139998107Y-129390132D01*
X140019150Y-129377520D01*
X140041329Y-129367030D01*
X140064428Y-129358765D01*
X140088227Y-129352804D01*
X140112495Y-129349204D01*
X140136999Y-129348000D01*
X140787001Y-129348000D01*
X140811505Y-129349204D01*
X140811505Y-129349204D01*
G37*
D15*
X140462000Y-130048000D03*
G04 #@! TD*
D21*
G04 #@! TO.C,X1*
X166624000Y-128016000D03*
X166624000Y-130716000D03*
X165424000Y-130716000D03*
X165424000Y-128016000D03*
G04 #@! TD*
D22*
G04 #@! TO.C,IC7*
X136014500Y-116205000D03*
X135064500Y-116205000D03*
X134114500Y-116205000D03*
X134114500Y-118905000D03*
X136014500Y-118905000D03*
G04 #@! TD*
D14*
G04 #@! TO.C,C5*
G36*
X136618505Y-131188704D02*
X136642773Y-131192304D01*
X136666572Y-131198265D01*
X136689671Y-131206530D01*
X136711850Y-131217020D01*
X136732893Y-131229632D01*
X136752599Y-131244247D01*
X136770777Y-131260723D01*
X136787253Y-131278901D01*
X136801868Y-131298607D01*
X136814480Y-131319650D01*
X136824970Y-131341829D01*
X136833235Y-131364928D01*
X136839196Y-131388727D01*
X136842796Y-131412995D01*
X136844000Y-131437499D01*
X136844000Y-132087501D01*
X136842796Y-132112005D01*
X136839196Y-132136273D01*
X136833235Y-132160072D01*
X136824970Y-132183171D01*
X136814480Y-132205350D01*
X136801868Y-132226393D01*
X136787253Y-132246099D01*
X136770777Y-132264277D01*
X136752599Y-132280753D01*
X136732893Y-132295368D01*
X136711850Y-132307980D01*
X136689671Y-132318470D01*
X136666572Y-132326735D01*
X136642773Y-132332696D01*
X136618505Y-132336296D01*
X136594001Y-132337500D01*
X135693999Y-132337500D01*
X135669495Y-132336296D01*
X135645227Y-132332696D01*
X135621428Y-132326735D01*
X135598329Y-132318470D01*
X135576150Y-132307980D01*
X135555107Y-132295368D01*
X135535401Y-132280753D01*
X135517223Y-132264277D01*
X135500747Y-132246099D01*
X135486132Y-132226393D01*
X135473520Y-132205350D01*
X135463030Y-132183171D01*
X135454765Y-132160072D01*
X135448804Y-132136273D01*
X135445204Y-132112005D01*
X135444000Y-132087501D01*
X135444000Y-131437499D01*
X135445204Y-131412995D01*
X135448804Y-131388727D01*
X135454765Y-131364928D01*
X135463030Y-131341829D01*
X135473520Y-131319650D01*
X135486132Y-131298607D01*
X135500747Y-131278901D01*
X135517223Y-131260723D01*
X135535401Y-131244247D01*
X135555107Y-131229632D01*
X135576150Y-131217020D01*
X135598329Y-131206530D01*
X135621428Y-131198265D01*
X135645227Y-131192304D01*
X135669495Y-131188704D01*
X135693999Y-131187500D01*
X136594001Y-131187500D01*
X136618505Y-131188704D01*
X136618505Y-131188704D01*
G37*
D15*
X136144000Y-131762500D03*
D14*
G36*
X136618505Y-133238704D02*
X136642773Y-133242304D01*
X136666572Y-133248265D01*
X136689671Y-133256530D01*
X136711850Y-133267020D01*
X136732893Y-133279632D01*
X136752599Y-133294247D01*
X136770777Y-133310723D01*
X136787253Y-133328901D01*
X136801868Y-133348607D01*
X136814480Y-133369650D01*
X136824970Y-133391829D01*
X136833235Y-133414928D01*
X136839196Y-133438727D01*
X136842796Y-133462995D01*
X136844000Y-133487499D01*
X136844000Y-134137501D01*
X136842796Y-134162005D01*
X136839196Y-134186273D01*
X136833235Y-134210072D01*
X136824970Y-134233171D01*
X136814480Y-134255350D01*
X136801868Y-134276393D01*
X136787253Y-134296099D01*
X136770777Y-134314277D01*
X136752599Y-134330753D01*
X136732893Y-134345368D01*
X136711850Y-134357980D01*
X136689671Y-134368470D01*
X136666572Y-134376735D01*
X136642773Y-134382696D01*
X136618505Y-134386296D01*
X136594001Y-134387500D01*
X135693999Y-134387500D01*
X135669495Y-134386296D01*
X135645227Y-134382696D01*
X135621428Y-134376735D01*
X135598329Y-134368470D01*
X135576150Y-134357980D01*
X135555107Y-134345368D01*
X135535401Y-134330753D01*
X135517223Y-134314277D01*
X135500747Y-134296099D01*
X135486132Y-134276393D01*
X135473520Y-134255350D01*
X135463030Y-134233171D01*
X135454765Y-134210072D01*
X135448804Y-134186273D01*
X135445204Y-134162005D01*
X135444000Y-134137501D01*
X135444000Y-133487499D01*
X135445204Y-133462995D01*
X135448804Y-133438727D01*
X135454765Y-133414928D01*
X135463030Y-133391829D01*
X135473520Y-133369650D01*
X135486132Y-133348607D01*
X135500747Y-133328901D01*
X135517223Y-133310723D01*
X135535401Y-133294247D01*
X135555107Y-133279632D01*
X135576150Y-133267020D01*
X135598329Y-133256530D01*
X135621428Y-133248265D01*
X135645227Y-133242304D01*
X135669495Y-133238704D01*
X135693999Y-133237500D01*
X136594001Y-133237500D01*
X136618505Y-133238704D01*
X136618505Y-133238704D01*
G37*
D15*
X136144000Y-133812500D03*
G04 #@! TD*
D14*
G04 #@! TO.C,C16*
G36*
X138001004Y-120601704D02*
X138025273Y-120605304D01*
X138049071Y-120611265D01*
X138072171Y-120619530D01*
X138094349Y-120630020D01*
X138115393Y-120642633D01*
X138135098Y-120657247D01*
X138153277Y-120673723D01*
X138169753Y-120691902D01*
X138184367Y-120711607D01*
X138196980Y-120732651D01*
X138207470Y-120754829D01*
X138215735Y-120777929D01*
X138221696Y-120801727D01*
X138225296Y-120825996D01*
X138226500Y-120850500D01*
X138226500Y-122100500D01*
X138225296Y-122125004D01*
X138221696Y-122149273D01*
X138215735Y-122173071D01*
X138207470Y-122196171D01*
X138196980Y-122218349D01*
X138184367Y-122239393D01*
X138169753Y-122259098D01*
X138153277Y-122277277D01*
X138135098Y-122293753D01*
X138115393Y-122308367D01*
X138094349Y-122320980D01*
X138072171Y-122331470D01*
X138049071Y-122339735D01*
X138025273Y-122345696D01*
X138001004Y-122349296D01*
X137976500Y-122350500D01*
X137051500Y-122350500D01*
X137026996Y-122349296D01*
X137002727Y-122345696D01*
X136978929Y-122339735D01*
X136955829Y-122331470D01*
X136933651Y-122320980D01*
X136912607Y-122308367D01*
X136892902Y-122293753D01*
X136874723Y-122277277D01*
X136858247Y-122259098D01*
X136843633Y-122239393D01*
X136831020Y-122218349D01*
X136820530Y-122196171D01*
X136812265Y-122173071D01*
X136806304Y-122149273D01*
X136802704Y-122125004D01*
X136801500Y-122100500D01*
X136801500Y-120850500D01*
X136802704Y-120825996D01*
X136806304Y-120801727D01*
X136812265Y-120777929D01*
X136820530Y-120754829D01*
X136831020Y-120732651D01*
X136843633Y-120711607D01*
X136858247Y-120691902D01*
X136874723Y-120673723D01*
X136892902Y-120657247D01*
X136912607Y-120642633D01*
X136933651Y-120630020D01*
X136955829Y-120619530D01*
X136978929Y-120611265D01*
X137002727Y-120605304D01*
X137026996Y-120601704D01*
X137051500Y-120600500D01*
X137976500Y-120600500D01*
X138001004Y-120601704D01*
X138001004Y-120601704D01*
G37*
D23*
X137514000Y-121475500D03*
D14*
G36*
X140976004Y-120601704D02*
X141000273Y-120605304D01*
X141024071Y-120611265D01*
X141047171Y-120619530D01*
X141069349Y-120630020D01*
X141090393Y-120642633D01*
X141110098Y-120657247D01*
X141128277Y-120673723D01*
X141144753Y-120691902D01*
X141159367Y-120711607D01*
X141171980Y-120732651D01*
X141182470Y-120754829D01*
X141190735Y-120777929D01*
X141196696Y-120801727D01*
X141200296Y-120825996D01*
X141201500Y-120850500D01*
X141201500Y-122100500D01*
X141200296Y-122125004D01*
X141196696Y-122149273D01*
X141190735Y-122173071D01*
X141182470Y-122196171D01*
X141171980Y-122218349D01*
X141159367Y-122239393D01*
X141144753Y-122259098D01*
X141128277Y-122277277D01*
X141110098Y-122293753D01*
X141090393Y-122308367D01*
X141069349Y-122320980D01*
X141047171Y-122331470D01*
X141024071Y-122339735D01*
X141000273Y-122345696D01*
X140976004Y-122349296D01*
X140951500Y-122350500D01*
X140026500Y-122350500D01*
X140001996Y-122349296D01*
X139977727Y-122345696D01*
X139953929Y-122339735D01*
X139930829Y-122331470D01*
X139908651Y-122320980D01*
X139887607Y-122308367D01*
X139867902Y-122293753D01*
X139849723Y-122277277D01*
X139833247Y-122259098D01*
X139818633Y-122239393D01*
X139806020Y-122218349D01*
X139795530Y-122196171D01*
X139787265Y-122173071D01*
X139781304Y-122149273D01*
X139777704Y-122125004D01*
X139776500Y-122100500D01*
X139776500Y-120850500D01*
X139777704Y-120825996D01*
X139781304Y-120801727D01*
X139787265Y-120777929D01*
X139795530Y-120754829D01*
X139806020Y-120732651D01*
X139818633Y-120711607D01*
X139833247Y-120691902D01*
X139849723Y-120673723D01*
X139867902Y-120657247D01*
X139887607Y-120642633D01*
X139908651Y-120630020D01*
X139930829Y-120619530D01*
X139953929Y-120611265D01*
X139977727Y-120605304D01*
X140001996Y-120601704D01*
X140026500Y-120600500D01*
X140951500Y-120600500D01*
X140976004Y-120601704D01*
X140976004Y-120601704D01*
G37*
D23*
X140489000Y-121475500D03*
G04 #@! TD*
D14*
G04 #@! TO.C,C19*
G36*
X140603504Y-123177204D02*
X140627773Y-123180804D01*
X140651571Y-123186765D01*
X140674671Y-123195030D01*
X140696849Y-123205520D01*
X140717893Y-123218133D01*
X140737598Y-123232747D01*
X140755777Y-123249223D01*
X140772253Y-123267402D01*
X140786867Y-123287107D01*
X140799480Y-123308151D01*
X140809970Y-123330329D01*
X140818235Y-123353429D01*
X140824196Y-123377227D01*
X140827796Y-123401496D01*
X140829000Y-123426000D01*
X140829000Y-124351000D01*
X140827796Y-124375504D01*
X140824196Y-124399773D01*
X140818235Y-124423571D01*
X140809970Y-124446671D01*
X140799480Y-124468849D01*
X140786867Y-124489893D01*
X140772253Y-124509598D01*
X140755777Y-124527777D01*
X140737598Y-124544253D01*
X140717893Y-124558867D01*
X140696849Y-124571480D01*
X140674671Y-124581970D01*
X140651571Y-124590235D01*
X140627773Y-124596196D01*
X140603504Y-124599796D01*
X140579000Y-124601000D01*
X139329000Y-124601000D01*
X139304496Y-124599796D01*
X139280227Y-124596196D01*
X139256429Y-124590235D01*
X139233329Y-124581970D01*
X139211151Y-124571480D01*
X139190107Y-124558867D01*
X139170402Y-124544253D01*
X139152223Y-124527777D01*
X139135747Y-124509598D01*
X139121133Y-124489893D01*
X139108520Y-124468849D01*
X139098030Y-124446671D01*
X139089765Y-124423571D01*
X139083804Y-124399773D01*
X139080204Y-124375504D01*
X139079000Y-124351000D01*
X139079000Y-123426000D01*
X139080204Y-123401496D01*
X139083804Y-123377227D01*
X139089765Y-123353429D01*
X139098030Y-123330329D01*
X139108520Y-123308151D01*
X139121133Y-123287107D01*
X139135747Y-123267402D01*
X139152223Y-123249223D01*
X139170402Y-123232747D01*
X139190107Y-123218133D01*
X139211151Y-123205520D01*
X139233329Y-123195030D01*
X139256429Y-123186765D01*
X139280227Y-123180804D01*
X139304496Y-123177204D01*
X139329000Y-123176000D01*
X140579000Y-123176000D01*
X140603504Y-123177204D01*
X140603504Y-123177204D01*
G37*
D23*
X139954000Y-123888500D03*
D14*
G36*
X140603504Y-126152204D02*
X140627773Y-126155804D01*
X140651571Y-126161765D01*
X140674671Y-126170030D01*
X140696849Y-126180520D01*
X140717893Y-126193133D01*
X140737598Y-126207747D01*
X140755777Y-126224223D01*
X140772253Y-126242402D01*
X140786867Y-126262107D01*
X140799480Y-126283151D01*
X140809970Y-126305329D01*
X140818235Y-126328429D01*
X140824196Y-126352227D01*
X140827796Y-126376496D01*
X140829000Y-126401000D01*
X140829000Y-127326000D01*
X140827796Y-127350504D01*
X140824196Y-127374773D01*
X140818235Y-127398571D01*
X140809970Y-127421671D01*
X140799480Y-127443849D01*
X140786867Y-127464893D01*
X140772253Y-127484598D01*
X140755777Y-127502777D01*
X140737598Y-127519253D01*
X140717893Y-127533867D01*
X140696849Y-127546480D01*
X140674671Y-127556970D01*
X140651571Y-127565235D01*
X140627773Y-127571196D01*
X140603504Y-127574796D01*
X140579000Y-127576000D01*
X139329000Y-127576000D01*
X139304496Y-127574796D01*
X139280227Y-127571196D01*
X139256429Y-127565235D01*
X139233329Y-127556970D01*
X139211151Y-127546480D01*
X139190107Y-127533867D01*
X139170402Y-127519253D01*
X139152223Y-127502777D01*
X139135747Y-127484598D01*
X139121133Y-127464893D01*
X139108520Y-127443849D01*
X139098030Y-127421671D01*
X139089765Y-127398571D01*
X139083804Y-127374773D01*
X139080204Y-127350504D01*
X139079000Y-127326000D01*
X139079000Y-126401000D01*
X139080204Y-126376496D01*
X139083804Y-126352227D01*
X139089765Y-126328429D01*
X139098030Y-126305329D01*
X139108520Y-126283151D01*
X139121133Y-126262107D01*
X139135747Y-126242402D01*
X139152223Y-126224223D01*
X139170402Y-126207747D01*
X139190107Y-126193133D01*
X139211151Y-126180520D01*
X139233329Y-126170030D01*
X139256429Y-126161765D01*
X139280227Y-126155804D01*
X139304496Y-126152204D01*
X139329000Y-126151000D01*
X140579000Y-126151000D01*
X140603504Y-126152204D01*
X140603504Y-126152204D01*
G37*
D23*
X139954000Y-126863500D03*
G04 #@! TD*
D14*
G04 #@! TO.C,C20*
G36*
X135288004Y-120157204D02*
X135312273Y-120160804D01*
X135336071Y-120166765D01*
X135359171Y-120175030D01*
X135381349Y-120185520D01*
X135402393Y-120198133D01*
X135422098Y-120212747D01*
X135440277Y-120229223D01*
X135456753Y-120247402D01*
X135471367Y-120267107D01*
X135483980Y-120288151D01*
X135494470Y-120310329D01*
X135502735Y-120333429D01*
X135508696Y-120357227D01*
X135512296Y-120381496D01*
X135513500Y-120406000D01*
X135513500Y-121656000D01*
X135512296Y-121680504D01*
X135508696Y-121704773D01*
X135502735Y-121728571D01*
X135494470Y-121751671D01*
X135483980Y-121773849D01*
X135471367Y-121794893D01*
X135456753Y-121814598D01*
X135440277Y-121832777D01*
X135422098Y-121849253D01*
X135402393Y-121863867D01*
X135381349Y-121876480D01*
X135359171Y-121886970D01*
X135336071Y-121895235D01*
X135312273Y-121901196D01*
X135288004Y-121904796D01*
X135263500Y-121906000D01*
X134338500Y-121906000D01*
X134313996Y-121904796D01*
X134289727Y-121901196D01*
X134265929Y-121895235D01*
X134242829Y-121886970D01*
X134220651Y-121876480D01*
X134199607Y-121863867D01*
X134179902Y-121849253D01*
X134161723Y-121832777D01*
X134145247Y-121814598D01*
X134130633Y-121794893D01*
X134118020Y-121773849D01*
X134107530Y-121751671D01*
X134099265Y-121728571D01*
X134093304Y-121704773D01*
X134089704Y-121680504D01*
X134088500Y-121656000D01*
X134088500Y-120406000D01*
X134089704Y-120381496D01*
X134093304Y-120357227D01*
X134099265Y-120333429D01*
X134107530Y-120310329D01*
X134118020Y-120288151D01*
X134130633Y-120267107D01*
X134145247Y-120247402D01*
X134161723Y-120229223D01*
X134179902Y-120212747D01*
X134199607Y-120198133D01*
X134220651Y-120185520D01*
X134242829Y-120175030D01*
X134265929Y-120166765D01*
X134289727Y-120160804D01*
X134313996Y-120157204D01*
X134338500Y-120156000D01*
X135263500Y-120156000D01*
X135288004Y-120157204D01*
X135288004Y-120157204D01*
G37*
D23*
X134801000Y-121031000D03*
D14*
G36*
X132313004Y-120157204D02*
X132337273Y-120160804D01*
X132361071Y-120166765D01*
X132384171Y-120175030D01*
X132406349Y-120185520D01*
X132427393Y-120198133D01*
X132447098Y-120212747D01*
X132465277Y-120229223D01*
X132481753Y-120247402D01*
X132496367Y-120267107D01*
X132508980Y-120288151D01*
X132519470Y-120310329D01*
X132527735Y-120333429D01*
X132533696Y-120357227D01*
X132537296Y-120381496D01*
X132538500Y-120406000D01*
X132538500Y-121656000D01*
X132537296Y-121680504D01*
X132533696Y-121704773D01*
X132527735Y-121728571D01*
X132519470Y-121751671D01*
X132508980Y-121773849D01*
X132496367Y-121794893D01*
X132481753Y-121814598D01*
X132465277Y-121832777D01*
X132447098Y-121849253D01*
X132427393Y-121863867D01*
X132406349Y-121876480D01*
X132384171Y-121886970D01*
X132361071Y-121895235D01*
X132337273Y-121901196D01*
X132313004Y-121904796D01*
X132288500Y-121906000D01*
X131363500Y-121906000D01*
X131338996Y-121904796D01*
X131314727Y-121901196D01*
X131290929Y-121895235D01*
X131267829Y-121886970D01*
X131245651Y-121876480D01*
X131224607Y-121863867D01*
X131204902Y-121849253D01*
X131186723Y-121832777D01*
X131170247Y-121814598D01*
X131155633Y-121794893D01*
X131143020Y-121773849D01*
X131132530Y-121751671D01*
X131124265Y-121728571D01*
X131118304Y-121704773D01*
X131114704Y-121680504D01*
X131113500Y-121656000D01*
X131113500Y-120406000D01*
X131114704Y-120381496D01*
X131118304Y-120357227D01*
X131124265Y-120333429D01*
X131132530Y-120310329D01*
X131143020Y-120288151D01*
X131155633Y-120267107D01*
X131170247Y-120247402D01*
X131186723Y-120229223D01*
X131204902Y-120212747D01*
X131224607Y-120198133D01*
X131245651Y-120185520D01*
X131267829Y-120175030D01*
X131290929Y-120166765D01*
X131314727Y-120160804D01*
X131338996Y-120157204D01*
X131363500Y-120156000D01*
X132288500Y-120156000D01*
X132313004Y-120157204D01*
X132313004Y-120157204D01*
G37*
D23*
X131826000Y-121031000D03*
G04 #@! TD*
D14*
G04 #@! TO.C,C21*
G36*
X131714504Y-131079204D02*
X131738773Y-131082804D01*
X131762571Y-131088765D01*
X131785671Y-131097030D01*
X131807849Y-131107520D01*
X131828893Y-131120133D01*
X131848598Y-131134747D01*
X131866777Y-131151223D01*
X131883253Y-131169402D01*
X131897867Y-131189107D01*
X131910480Y-131210151D01*
X131920970Y-131232329D01*
X131929235Y-131255429D01*
X131935196Y-131279227D01*
X131938796Y-131303496D01*
X131940000Y-131328000D01*
X131940000Y-132578000D01*
X131938796Y-132602504D01*
X131935196Y-132626773D01*
X131929235Y-132650571D01*
X131920970Y-132673671D01*
X131910480Y-132695849D01*
X131897867Y-132716893D01*
X131883253Y-132736598D01*
X131866777Y-132754777D01*
X131848598Y-132771253D01*
X131828893Y-132785867D01*
X131807849Y-132798480D01*
X131785671Y-132808970D01*
X131762571Y-132817235D01*
X131738773Y-132823196D01*
X131714504Y-132826796D01*
X131690000Y-132828000D01*
X130765000Y-132828000D01*
X130740496Y-132826796D01*
X130716227Y-132823196D01*
X130692429Y-132817235D01*
X130669329Y-132808970D01*
X130647151Y-132798480D01*
X130626107Y-132785867D01*
X130606402Y-132771253D01*
X130588223Y-132754777D01*
X130571747Y-132736598D01*
X130557133Y-132716893D01*
X130544520Y-132695849D01*
X130534030Y-132673671D01*
X130525765Y-132650571D01*
X130519804Y-132626773D01*
X130516204Y-132602504D01*
X130515000Y-132578000D01*
X130515000Y-131328000D01*
X130516204Y-131303496D01*
X130519804Y-131279227D01*
X130525765Y-131255429D01*
X130534030Y-131232329D01*
X130544520Y-131210151D01*
X130557133Y-131189107D01*
X130571747Y-131169402D01*
X130588223Y-131151223D01*
X130606402Y-131134747D01*
X130626107Y-131120133D01*
X130647151Y-131107520D01*
X130669329Y-131097030D01*
X130692429Y-131088765D01*
X130716227Y-131082804D01*
X130740496Y-131079204D01*
X130765000Y-131078000D01*
X131690000Y-131078000D01*
X131714504Y-131079204D01*
X131714504Y-131079204D01*
G37*
D23*
X131227500Y-131953000D03*
D14*
G36*
X134689504Y-131079204D02*
X134713773Y-131082804D01*
X134737571Y-131088765D01*
X134760671Y-131097030D01*
X134782849Y-131107520D01*
X134803893Y-131120133D01*
X134823598Y-131134747D01*
X134841777Y-131151223D01*
X134858253Y-131169402D01*
X134872867Y-131189107D01*
X134885480Y-131210151D01*
X134895970Y-131232329D01*
X134904235Y-131255429D01*
X134910196Y-131279227D01*
X134913796Y-131303496D01*
X134915000Y-131328000D01*
X134915000Y-132578000D01*
X134913796Y-132602504D01*
X134910196Y-132626773D01*
X134904235Y-132650571D01*
X134895970Y-132673671D01*
X134885480Y-132695849D01*
X134872867Y-132716893D01*
X134858253Y-132736598D01*
X134841777Y-132754777D01*
X134823598Y-132771253D01*
X134803893Y-132785867D01*
X134782849Y-132798480D01*
X134760671Y-132808970D01*
X134737571Y-132817235D01*
X134713773Y-132823196D01*
X134689504Y-132826796D01*
X134665000Y-132828000D01*
X133740000Y-132828000D01*
X133715496Y-132826796D01*
X133691227Y-132823196D01*
X133667429Y-132817235D01*
X133644329Y-132808970D01*
X133622151Y-132798480D01*
X133601107Y-132785867D01*
X133581402Y-132771253D01*
X133563223Y-132754777D01*
X133546747Y-132736598D01*
X133532133Y-132716893D01*
X133519520Y-132695849D01*
X133509030Y-132673671D01*
X133500765Y-132650571D01*
X133494804Y-132626773D01*
X133491204Y-132602504D01*
X133490000Y-132578000D01*
X133490000Y-131328000D01*
X133491204Y-131303496D01*
X133494804Y-131279227D01*
X133500765Y-131255429D01*
X133509030Y-131232329D01*
X133519520Y-131210151D01*
X133532133Y-131189107D01*
X133546747Y-131169402D01*
X133563223Y-131151223D01*
X133581402Y-131134747D01*
X133601107Y-131120133D01*
X133622151Y-131107520D01*
X133644329Y-131097030D01*
X133667429Y-131088765D01*
X133691227Y-131082804D01*
X133715496Y-131079204D01*
X133740000Y-131078000D01*
X134665000Y-131078000D01*
X134689504Y-131079204D01*
X134689504Y-131079204D01*
G37*
D23*
X134202500Y-131953000D03*
G04 #@! TD*
D14*
G04 #@! TO.C,LED1*
G36*
X188754005Y-122808704D02*
X188778273Y-122812304D01*
X188802072Y-122818265D01*
X188825171Y-122826530D01*
X188847350Y-122837020D01*
X188868393Y-122849632D01*
X188888099Y-122864247D01*
X188906277Y-122880723D01*
X188922753Y-122898901D01*
X188937368Y-122918607D01*
X188949980Y-122939650D01*
X188960470Y-122961829D01*
X188968735Y-122984928D01*
X188974696Y-123008727D01*
X188978296Y-123032995D01*
X188979500Y-123057499D01*
X188979500Y-123957501D01*
X188978296Y-123982005D01*
X188974696Y-124006273D01*
X188968735Y-124030072D01*
X188960470Y-124053171D01*
X188949980Y-124075350D01*
X188937368Y-124096393D01*
X188922753Y-124116099D01*
X188906277Y-124134277D01*
X188888099Y-124150753D01*
X188868393Y-124165368D01*
X188847350Y-124177980D01*
X188825171Y-124188470D01*
X188802072Y-124196735D01*
X188778273Y-124202696D01*
X188754005Y-124206296D01*
X188729501Y-124207500D01*
X188079499Y-124207500D01*
X188054995Y-124206296D01*
X188030727Y-124202696D01*
X188006928Y-124196735D01*
X187983829Y-124188470D01*
X187961650Y-124177980D01*
X187940607Y-124165368D01*
X187920901Y-124150753D01*
X187902723Y-124134277D01*
X187886247Y-124116099D01*
X187871632Y-124096393D01*
X187859020Y-124075350D01*
X187848530Y-124053171D01*
X187840265Y-124030072D01*
X187834304Y-124006273D01*
X187830704Y-123982005D01*
X187829500Y-123957501D01*
X187829500Y-123057499D01*
X187830704Y-123032995D01*
X187834304Y-123008727D01*
X187840265Y-122984928D01*
X187848530Y-122961829D01*
X187859020Y-122939650D01*
X187871632Y-122918607D01*
X187886247Y-122898901D01*
X187902723Y-122880723D01*
X187920901Y-122864247D01*
X187940607Y-122849632D01*
X187961650Y-122837020D01*
X187983829Y-122826530D01*
X188006928Y-122818265D01*
X188030727Y-122812304D01*
X188054995Y-122808704D01*
X188079499Y-122807500D01*
X188729501Y-122807500D01*
X188754005Y-122808704D01*
X188754005Y-122808704D01*
G37*
D15*
X188404500Y-123507500D03*
D14*
G36*
X190804005Y-122808704D02*
X190828273Y-122812304D01*
X190852072Y-122818265D01*
X190875171Y-122826530D01*
X190897350Y-122837020D01*
X190918393Y-122849632D01*
X190938099Y-122864247D01*
X190956277Y-122880723D01*
X190972753Y-122898901D01*
X190987368Y-122918607D01*
X190999980Y-122939650D01*
X191010470Y-122961829D01*
X191018735Y-122984928D01*
X191024696Y-123008727D01*
X191028296Y-123032995D01*
X191029500Y-123057499D01*
X191029500Y-123957501D01*
X191028296Y-123982005D01*
X191024696Y-124006273D01*
X191018735Y-124030072D01*
X191010470Y-124053171D01*
X190999980Y-124075350D01*
X190987368Y-124096393D01*
X190972753Y-124116099D01*
X190956277Y-124134277D01*
X190938099Y-124150753D01*
X190918393Y-124165368D01*
X190897350Y-124177980D01*
X190875171Y-124188470D01*
X190852072Y-124196735D01*
X190828273Y-124202696D01*
X190804005Y-124206296D01*
X190779501Y-124207500D01*
X190129499Y-124207500D01*
X190104995Y-124206296D01*
X190080727Y-124202696D01*
X190056928Y-124196735D01*
X190033829Y-124188470D01*
X190011650Y-124177980D01*
X189990607Y-124165368D01*
X189970901Y-124150753D01*
X189952723Y-124134277D01*
X189936247Y-124116099D01*
X189921632Y-124096393D01*
X189909020Y-124075350D01*
X189898530Y-124053171D01*
X189890265Y-124030072D01*
X189884304Y-124006273D01*
X189880704Y-123982005D01*
X189879500Y-123957501D01*
X189879500Y-123057499D01*
X189880704Y-123032995D01*
X189884304Y-123008727D01*
X189890265Y-122984928D01*
X189898530Y-122961829D01*
X189909020Y-122939650D01*
X189921632Y-122918607D01*
X189936247Y-122898901D01*
X189952723Y-122880723D01*
X189970901Y-122864247D01*
X189990607Y-122849632D01*
X190011650Y-122837020D01*
X190033829Y-122826530D01*
X190056928Y-122818265D01*
X190080727Y-122812304D01*
X190104995Y-122808704D01*
X190129499Y-122807500D01*
X190779501Y-122807500D01*
X190804005Y-122808704D01*
X190804005Y-122808704D01*
G37*
D15*
X190454500Y-123507500D03*
G04 #@! TD*
D14*
G04 #@! TO.C,LED2*
G36*
X176671005Y-137667704D02*
X176695273Y-137671304D01*
X176719072Y-137677265D01*
X176742171Y-137685530D01*
X176764350Y-137696020D01*
X176785393Y-137708632D01*
X176805099Y-137723247D01*
X176823277Y-137739723D01*
X176839753Y-137757901D01*
X176854368Y-137777607D01*
X176866980Y-137798650D01*
X176877470Y-137820829D01*
X176885735Y-137843928D01*
X176891696Y-137867727D01*
X176895296Y-137891995D01*
X176896500Y-137916499D01*
X176896500Y-138816501D01*
X176895296Y-138841005D01*
X176891696Y-138865273D01*
X176885735Y-138889072D01*
X176877470Y-138912171D01*
X176866980Y-138934350D01*
X176854368Y-138955393D01*
X176839753Y-138975099D01*
X176823277Y-138993277D01*
X176805099Y-139009753D01*
X176785393Y-139024368D01*
X176764350Y-139036980D01*
X176742171Y-139047470D01*
X176719072Y-139055735D01*
X176695273Y-139061696D01*
X176671005Y-139065296D01*
X176646501Y-139066500D01*
X175996499Y-139066500D01*
X175971995Y-139065296D01*
X175947727Y-139061696D01*
X175923928Y-139055735D01*
X175900829Y-139047470D01*
X175878650Y-139036980D01*
X175857607Y-139024368D01*
X175837901Y-139009753D01*
X175819723Y-138993277D01*
X175803247Y-138975099D01*
X175788632Y-138955393D01*
X175776020Y-138934350D01*
X175765530Y-138912171D01*
X175757265Y-138889072D01*
X175751304Y-138865273D01*
X175747704Y-138841005D01*
X175746500Y-138816501D01*
X175746500Y-137916499D01*
X175747704Y-137891995D01*
X175751304Y-137867727D01*
X175757265Y-137843928D01*
X175765530Y-137820829D01*
X175776020Y-137798650D01*
X175788632Y-137777607D01*
X175803247Y-137757901D01*
X175819723Y-137739723D01*
X175837901Y-137723247D01*
X175857607Y-137708632D01*
X175878650Y-137696020D01*
X175900829Y-137685530D01*
X175923928Y-137677265D01*
X175947727Y-137671304D01*
X175971995Y-137667704D01*
X175996499Y-137666500D01*
X176646501Y-137666500D01*
X176671005Y-137667704D01*
X176671005Y-137667704D01*
G37*
D15*
X176321500Y-138366500D03*
D14*
G36*
X178721005Y-137667704D02*
X178745273Y-137671304D01*
X178769072Y-137677265D01*
X178792171Y-137685530D01*
X178814350Y-137696020D01*
X178835393Y-137708632D01*
X178855099Y-137723247D01*
X178873277Y-137739723D01*
X178889753Y-137757901D01*
X178904368Y-137777607D01*
X178916980Y-137798650D01*
X178927470Y-137820829D01*
X178935735Y-137843928D01*
X178941696Y-137867727D01*
X178945296Y-137891995D01*
X178946500Y-137916499D01*
X178946500Y-138816501D01*
X178945296Y-138841005D01*
X178941696Y-138865273D01*
X178935735Y-138889072D01*
X178927470Y-138912171D01*
X178916980Y-138934350D01*
X178904368Y-138955393D01*
X178889753Y-138975099D01*
X178873277Y-138993277D01*
X178855099Y-139009753D01*
X178835393Y-139024368D01*
X178814350Y-139036980D01*
X178792171Y-139047470D01*
X178769072Y-139055735D01*
X178745273Y-139061696D01*
X178721005Y-139065296D01*
X178696501Y-139066500D01*
X178046499Y-139066500D01*
X178021995Y-139065296D01*
X177997727Y-139061696D01*
X177973928Y-139055735D01*
X177950829Y-139047470D01*
X177928650Y-139036980D01*
X177907607Y-139024368D01*
X177887901Y-139009753D01*
X177869723Y-138993277D01*
X177853247Y-138975099D01*
X177838632Y-138955393D01*
X177826020Y-138934350D01*
X177815530Y-138912171D01*
X177807265Y-138889072D01*
X177801304Y-138865273D01*
X177797704Y-138841005D01*
X177796500Y-138816501D01*
X177796500Y-137916499D01*
X177797704Y-137891995D01*
X177801304Y-137867727D01*
X177807265Y-137843928D01*
X177815530Y-137820829D01*
X177826020Y-137798650D01*
X177838632Y-137777607D01*
X177853247Y-137757901D01*
X177869723Y-137739723D01*
X177887901Y-137723247D01*
X177907607Y-137708632D01*
X177928650Y-137696020D01*
X177950829Y-137685530D01*
X177973928Y-137677265D01*
X177997727Y-137671304D01*
X178021995Y-137667704D01*
X178046499Y-137666500D01*
X178696501Y-137666500D01*
X178721005Y-137667704D01*
X178721005Y-137667704D01*
G37*
D15*
X178371500Y-138366500D03*
G04 #@! TD*
D14*
G04 #@! TO.C,R2*
G36*
X190786005Y-125094704D02*
X190810273Y-125098304D01*
X190834072Y-125104265D01*
X190857171Y-125112530D01*
X190879350Y-125123020D01*
X190900393Y-125135632D01*
X190920099Y-125150247D01*
X190938277Y-125166723D01*
X190954753Y-125184901D01*
X190969368Y-125204607D01*
X190981980Y-125225650D01*
X190992470Y-125247829D01*
X191000735Y-125270928D01*
X191006696Y-125294727D01*
X191010296Y-125318995D01*
X191011500Y-125343499D01*
X191011500Y-126243501D01*
X191010296Y-126268005D01*
X191006696Y-126292273D01*
X191000735Y-126316072D01*
X190992470Y-126339171D01*
X190981980Y-126361350D01*
X190969368Y-126382393D01*
X190954753Y-126402099D01*
X190938277Y-126420277D01*
X190920099Y-126436753D01*
X190900393Y-126451368D01*
X190879350Y-126463980D01*
X190857171Y-126474470D01*
X190834072Y-126482735D01*
X190810273Y-126488696D01*
X190786005Y-126492296D01*
X190761501Y-126493500D01*
X190111499Y-126493500D01*
X190086995Y-126492296D01*
X190062727Y-126488696D01*
X190038928Y-126482735D01*
X190015829Y-126474470D01*
X189993650Y-126463980D01*
X189972607Y-126451368D01*
X189952901Y-126436753D01*
X189934723Y-126420277D01*
X189918247Y-126402099D01*
X189903632Y-126382393D01*
X189891020Y-126361350D01*
X189880530Y-126339171D01*
X189872265Y-126316072D01*
X189866304Y-126292273D01*
X189862704Y-126268005D01*
X189861500Y-126243501D01*
X189861500Y-125343499D01*
X189862704Y-125318995D01*
X189866304Y-125294727D01*
X189872265Y-125270928D01*
X189880530Y-125247829D01*
X189891020Y-125225650D01*
X189903632Y-125204607D01*
X189918247Y-125184901D01*
X189934723Y-125166723D01*
X189952901Y-125150247D01*
X189972607Y-125135632D01*
X189993650Y-125123020D01*
X190015829Y-125112530D01*
X190038928Y-125104265D01*
X190062727Y-125098304D01*
X190086995Y-125094704D01*
X190111499Y-125093500D01*
X190761501Y-125093500D01*
X190786005Y-125094704D01*
X190786005Y-125094704D01*
G37*
D15*
X190436500Y-125793500D03*
D14*
G36*
X188736005Y-125094704D02*
X188760273Y-125098304D01*
X188784072Y-125104265D01*
X188807171Y-125112530D01*
X188829350Y-125123020D01*
X188850393Y-125135632D01*
X188870099Y-125150247D01*
X188888277Y-125166723D01*
X188904753Y-125184901D01*
X188919368Y-125204607D01*
X188931980Y-125225650D01*
X188942470Y-125247829D01*
X188950735Y-125270928D01*
X188956696Y-125294727D01*
X188960296Y-125318995D01*
X188961500Y-125343499D01*
X188961500Y-126243501D01*
X188960296Y-126268005D01*
X188956696Y-126292273D01*
X188950735Y-126316072D01*
X188942470Y-126339171D01*
X188931980Y-126361350D01*
X188919368Y-126382393D01*
X188904753Y-126402099D01*
X188888277Y-126420277D01*
X188870099Y-126436753D01*
X188850393Y-126451368D01*
X188829350Y-126463980D01*
X188807171Y-126474470D01*
X188784072Y-126482735D01*
X188760273Y-126488696D01*
X188736005Y-126492296D01*
X188711501Y-126493500D01*
X188061499Y-126493500D01*
X188036995Y-126492296D01*
X188012727Y-126488696D01*
X187988928Y-126482735D01*
X187965829Y-126474470D01*
X187943650Y-126463980D01*
X187922607Y-126451368D01*
X187902901Y-126436753D01*
X187884723Y-126420277D01*
X187868247Y-126402099D01*
X187853632Y-126382393D01*
X187841020Y-126361350D01*
X187830530Y-126339171D01*
X187822265Y-126316072D01*
X187816304Y-126292273D01*
X187812704Y-126268005D01*
X187811500Y-126243501D01*
X187811500Y-125343499D01*
X187812704Y-125318995D01*
X187816304Y-125294727D01*
X187822265Y-125270928D01*
X187830530Y-125247829D01*
X187841020Y-125225650D01*
X187853632Y-125204607D01*
X187868247Y-125184901D01*
X187884723Y-125166723D01*
X187902901Y-125150247D01*
X187922607Y-125135632D01*
X187943650Y-125123020D01*
X187965829Y-125112530D01*
X187988928Y-125104265D01*
X188012727Y-125098304D01*
X188036995Y-125094704D01*
X188061499Y-125093500D01*
X188711501Y-125093500D01*
X188736005Y-125094704D01*
X188736005Y-125094704D01*
G37*
D15*
X188386500Y-125793500D03*
G04 #@! TD*
D14*
G04 #@! TO.C,R10*
G36*
X176625505Y-139445704D02*
X176649773Y-139449304D01*
X176673572Y-139455265D01*
X176696671Y-139463530D01*
X176718850Y-139474020D01*
X176739893Y-139486632D01*
X176759599Y-139501247D01*
X176777777Y-139517723D01*
X176794253Y-139535901D01*
X176808868Y-139555607D01*
X176821480Y-139576650D01*
X176831970Y-139598829D01*
X176840235Y-139621928D01*
X176846196Y-139645727D01*
X176849796Y-139669995D01*
X176851000Y-139694499D01*
X176851000Y-140594501D01*
X176849796Y-140619005D01*
X176846196Y-140643273D01*
X176840235Y-140667072D01*
X176831970Y-140690171D01*
X176821480Y-140712350D01*
X176808868Y-140733393D01*
X176794253Y-140753099D01*
X176777777Y-140771277D01*
X176759599Y-140787753D01*
X176739893Y-140802368D01*
X176718850Y-140814980D01*
X176696671Y-140825470D01*
X176673572Y-140833735D01*
X176649773Y-140839696D01*
X176625505Y-140843296D01*
X176601001Y-140844500D01*
X175950999Y-140844500D01*
X175926495Y-140843296D01*
X175902227Y-140839696D01*
X175878428Y-140833735D01*
X175855329Y-140825470D01*
X175833150Y-140814980D01*
X175812107Y-140802368D01*
X175792401Y-140787753D01*
X175774223Y-140771277D01*
X175757747Y-140753099D01*
X175743132Y-140733393D01*
X175730520Y-140712350D01*
X175720030Y-140690171D01*
X175711765Y-140667072D01*
X175705804Y-140643273D01*
X175702204Y-140619005D01*
X175701000Y-140594501D01*
X175701000Y-139694499D01*
X175702204Y-139669995D01*
X175705804Y-139645727D01*
X175711765Y-139621928D01*
X175720030Y-139598829D01*
X175730520Y-139576650D01*
X175743132Y-139555607D01*
X175757747Y-139535901D01*
X175774223Y-139517723D01*
X175792401Y-139501247D01*
X175812107Y-139486632D01*
X175833150Y-139474020D01*
X175855329Y-139463530D01*
X175878428Y-139455265D01*
X175902227Y-139449304D01*
X175926495Y-139445704D01*
X175950999Y-139444500D01*
X176601001Y-139444500D01*
X176625505Y-139445704D01*
X176625505Y-139445704D01*
G37*
D15*
X176276000Y-140144500D03*
D14*
G36*
X174575505Y-139445704D02*
X174599773Y-139449304D01*
X174623572Y-139455265D01*
X174646671Y-139463530D01*
X174668850Y-139474020D01*
X174689893Y-139486632D01*
X174709599Y-139501247D01*
X174727777Y-139517723D01*
X174744253Y-139535901D01*
X174758868Y-139555607D01*
X174771480Y-139576650D01*
X174781970Y-139598829D01*
X174790235Y-139621928D01*
X174796196Y-139645727D01*
X174799796Y-139669995D01*
X174801000Y-139694499D01*
X174801000Y-140594501D01*
X174799796Y-140619005D01*
X174796196Y-140643273D01*
X174790235Y-140667072D01*
X174781970Y-140690171D01*
X174771480Y-140712350D01*
X174758868Y-140733393D01*
X174744253Y-140753099D01*
X174727777Y-140771277D01*
X174709599Y-140787753D01*
X174689893Y-140802368D01*
X174668850Y-140814980D01*
X174646671Y-140825470D01*
X174623572Y-140833735D01*
X174599773Y-140839696D01*
X174575505Y-140843296D01*
X174551001Y-140844500D01*
X173900999Y-140844500D01*
X173876495Y-140843296D01*
X173852227Y-140839696D01*
X173828428Y-140833735D01*
X173805329Y-140825470D01*
X173783150Y-140814980D01*
X173762107Y-140802368D01*
X173742401Y-140787753D01*
X173724223Y-140771277D01*
X173707747Y-140753099D01*
X173693132Y-140733393D01*
X173680520Y-140712350D01*
X173670030Y-140690171D01*
X173661765Y-140667072D01*
X173655804Y-140643273D01*
X173652204Y-140619005D01*
X173651000Y-140594501D01*
X173651000Y-139694499D01*
X173652204Y-139669995D01*
X173655804Y-139645727D01*
X173661765Y-139621928D01*
X173670030Y-139598829D01*
X173680520Y-139576650D01*
X173693132Y-139555607D01*
X173707747Y-139535901D01*
X173724223Y-139517723D01*
X173742401Y-139501247D01*
X173762107Y-139486632D01*
X173783150Y-139474020D01*
X173805329Y-139463530D01*
X173828428Y-139455265D01*
X173852227Y-139449304D01*
X173876495Y-139445704D01*
X173900999Y-139444500D01*
X174551001Y-139444500D01*
X174575505Y-139445704D01*
X174575505Y-139445704D01*
G37*
D15*
X174226000Y-140144500D03*
G04 #@! TD*
D24*
G04 #@! TO.C,IC6*
X160765500Y-112842000D03*
X160765500Y-113792000D03*
X160765500Y-114742000D03*
X163465500Y-114742000D03*
X163465500Y-112842000D03*
G04 #@! TD*
M02*
