G04 #@! TF.GenerationSoftware,KiCad,Pcbnew,(5.0.2)-1*
G04 #@! TF.CreationDate,2019-11-27T09:51:44+01:00*
G04 #@! TF.ProjectId,LoRa_Tracker,4c6f5261-5f54-4726-9163-6b65722e6b69,rev?*
G04 #@! TF.SameCoordinates,Original*
G04 #@! TF.FileFunction,Copper,L2,Bot*
G04 #@! TF.FilePolarity,Positive*
%FSLAX46Y46*%
G04 Gerber Fmt 4.6, Leading zero omitted, Abs format (unit mm)*
G04 Created by KiCad (PCBNEW (5.0.2)-1) date 27.11.2019 09:51:44*
%MOMM*%
%LPD*%
G01*
G04 APERTURE LIST*
G04 #@! TA.AperFunction,NonConductor*
%ADD10C,0.100000*%
G04 #@! TD*
G04 #@! TA.AperFunction,NonConductor*
%ADD11C,0.200000*%
G04 #@! TD*
G04 #@! TA.AperFunction,ComponentPad*
%ADD12R,1.700000X1.700000*%
G04 #@! TD*
G04 #@! TA.AperFunction,ComponentPad*
%ADD13O,1.700000X1.700000*%
G04 #@! TD*
G04 #@! TA.AperFunction,ComponentPad*
%ADD14C,2.000000*%
G04 #@! TD*
G04 #@! TA.AperFunction,ComponentPad*
%ADD15C,1.800000*%
G04 #@! TD*
G04 #@! TA.AperFunction,ComponentPad*
%ADD16R,1.600000X1.600000*%
G04 #@! TD*
G04 #@! TA.AperFunction,ComponentPad*
%ADD17C,1.600000*%
G04 #@! TD*
G04 #@! TA.AperFunction,ComponentPad*
%ADD18R,1.350000X1.350000*%
G04 #@! TD*
G04 #@! TA.AperFunction,ComponentPad*
%ADD19O,1.350000X1.350000*%
G04 #@! TD*
G04 #@! TA.AperFunction,SMDPad,CuDef*
%ADD20C,0.300000*%
G04 #@! TD*
G04 #@! TA.AperFunction,Conductor*
%ADD21C,0.100000*%
G04 #@! TD*
G04 #@! TA.AperFunction,SMDPad,CuDef*
%ADD22C,0.500000*%
G04 #@! TD*
G04 #@! TA.AperFunction,SMDPad,CuDef*
%ADD23R,1.000000X1.500000*%
G04 #@! TD*
G04 #@! TA.AperFunction,ViaPad*
%ADD24C,0.800000*%
G04 #@! TD*
G04 #@! TA.AperFunction,Conductor*
%ADD25C,1.000000*%
G04 #@! TD*
G04 #@! TA.AperFunction,Conductor*
%ADD26C,0.250000*%
G04 #@! TD*
G04 #@! TA.AperFunction,Conductor*
%ADD27C,0.500000*%
G04 #@! TD*
G04 #@! TA.AperFunction,Conductor*
%ADD28C,0.254000*%
G04 #@! TD*
G04 APERTURE END LIST*
D10*
X130958452Y-118942119D02*
X130958452Y-118751642D01*
X130558452Y-118751642D01*
X130958452Y-119075452D02*
X130691785Y-119075452D01*
X130558452Y-119075452D02*
X130577500Y-119056404D01*
X130596547Y-119075452D01*
X130577500Y-119094500D01*
X130558452Y-119075452D01*
X130596547Y-119075452D01*
X130939404Y-119437357D02*
X130958452Y-119399261D01*
X130958452Y-119323071D01*
X130939404Y-119284976D01*
X130920357Y-119265928D01*
X130882261Y-119246880D01*
X130767976Y-119246880D01*
X130729880Y-119265928D01*
X130710833Y-119284976D01*
X130691785Y-119323071D01*
X130691785Y-119399261D01*
X130710833Y-119437357D01*
X130939404Y-119761166D02*
X130958452Y-119723071D01*
X130958452Y-119646880D01*
X130939404Y-119608785D01*
X130901309Y-119589738D01*
X130748928Y-119589738D01*
X130710833Y-119608785D01*
X130691785Y-119646880D01*
X130691785Y-119723071D01*
X130710833Y-119761166D01*
X130748928Y-119780214D01*
X130787023Y-119780214D01*
X130825119Y-119589738D01*
X130691785Y-119951642D02*
X130958452Y-119951642D01*
X130729880Y-119951642D02*
X130710833Y-119970690D01*
X130691785Y-120008785D01*
X130691785Y-120065928D01*
X130710833Y-120104023D01*
X130748928Y-120123071D01*
X130958452Y-120123071D01*
X130939404Y-120294500D02*
X130958452Y-120332595D01*
X130958452Y-120408785D01*
X130939404Y-120446880D01*
X130901309Y-120465928D01*
X130882261Y-120465928D01*
X130844166Y-120446880D01*
X130825119Y-120408785D01*
X130825119Y-120351642D01*
X130806071Y-120313547D01*
X130767976Y-120294500D01*
X130748928Y-120294500D01*
X130710833Y-120313547D01*
X130691785Y-120351642D01*
X130691785Y-120408785D01*
X130710833Y-120446880D01*
X130939404Y-120789738D02*
X130958452Y-120751642D01*
X130958452Y-120675452D01*
X130939404Y-120637357D01*
X130901309Y-120618309D01*
X130748928Y-120618309D01*
X130710833Y-120637357D01*
X130691785Y-120675452D01*
X130691785Y-120751642D01*
X130710833Y-120789738D01*
X130748928Y-120808785D01*
X130787023Y-120808785D01*
X130825119Y-120618309D01*
X130958452Y-121151642D02*
X130558452Y-121151642D01*
X130939404Y-121151642D02*
X130958452Y-121113547D01*
X130958452Y-121037357D01*
X130939404Y-120999261D01*
X130920357Y-120980214D01*
X130882261Y-120961166D01*
X130767976Y-120961166D01*
X130729880Y-120980214D01*
X130710833Y-120999261D01*
X130691785Y-121037357D01*
X130691785Y-121113547D01*
X130710833Y-121151642D01*
X130691785Y-121818309D02*
X130958452Y-121818309D01*
X130691785Y-121646880D02*
X130901309Y-121646880D01*
X130939404Y-121665928D01*
X130958452Y-121704023D01*
X130958452Y-121761166D01*
X130939404Y-121799261D01*
X130920357Y-121818309D01*
X130691785Y-122008785D02*
X130958452Y-122008785D01*
X130729880Y-122008785D02*
X130710833Y-122027833D01*
X130691785Y-122065928D01*
X130691785Y-122123071D01*
X130710833Y-122161166D01*
X130748928Y-122180214D01*
X130958452Y-122180214D01*
X130958452Y-122542119D02*
X130558452Y-122542119D01*
X130939404Y-122542119D02*
X130958452Y-122504023D01*
X130958452Y-122427833D01*
X130939404Y-122389738D01*
X130920357Y-122370690D01*
X130882261Y-122351642D01*
X130767976Y-122351642D01*
X130729880Y-122370690D01*
X130710833Y-122389738D01*
X130691785Y-122427833D01*
X130691785Y-122504023D01*
X130710833Y-122542119D01*
X130939404Y-122884976D02*
X130958452Y-122846880D01*
X130958452Y-122770690D01*
X130939404Y-122732595D01*
X130901309Y-122713547D01*
X130748928Y-122713547D01*
X130710833Y-122732595D01*
X130691785Y-122770690D01*
X130691785Y-122846880D01*
X130710833Y-122884976D01*
X130748928Y-122904023D01*
X130787023Y-122904023D01*
X130825119Y-122713547D01*
X130958452Y-123075452D02*
X130691785Y-123075452D01*
X130767976Y-123075452D02*
X130729880Y-123094500D01*
X130710833Y-123113547D01*
X130691785Y-123151642D01*
X130691785Y-123189738D01*
X131620357Y-119018309D02*
X131639404Y-118999261D01*
X131658452Y-118942119D01*
X131658452Y-118904023D01*
X131639404Y-118846880D01*
X131601309Y-118808785D01*
X131563214Y-118789738D01*
X131487023Y-118770690D01*
X131429880Y-118770690D01*
X131353690Y-118789738D01*
X131315595Y-118808785D01*
X131277500Y-118846880D01*
X131258452Y-118904023D01*
X131258452Y-118942119D01*
X131277500Y-118999261D01*
X131296547Y-119018309D01*
X131448928Y-119189738D02*
X131448928Y-119323071D01*
X131658452Y-119380214D02*
X131658452Y-119189738D01*
X131258452Y-119189738D01*
X131258452Y-119380214D01*
X131658452Y-119780214D02*
X131467976Y-119646880D01*
X131658452Y-119551642D02*
X131258452Y-119551642D01*
X131258452Y-119704023D01*
X131277500Y-119742119D01*
X131296547Y-119761166D01*
X131334642Y-119780214D01*
X131391785Y-119780214D01*
X131429880Y-119761166D01*
X131448928Y-119742119D01*
X131467976Y-119704023D01*
X131467976Y-119551642D01*
X131658452Y-119951642D02*
X131258452Y-119951642D01*
X131658452Y-120180214D01*
X131258452Y-120180214D01*
X131258452Y-120751642D02*
X131258452Y-120827833D01*
X131277500Y-120865928D01*
X131315595Y-120904023D01*
X131391785Y-120923071D01*
X131525119Y-120923071D01*
X131601309Y-120904023D01*
X131639404Y-120865928D01*
X131658452Y-120827833D01*
X131658452Y-120751642D01*
X131639404Y-120713547D01*
X131601309Y-120675452D01*
X131525119Y-120656404D01*
X131391785Y-120656404D01*
X131315595Y-120675452D01*
X131277500Y-120713547D01*
X131258452Y-120751642D01*
X131658452Y-121094500D02*
X131258452Y-121094500D01*
X131448928Y-121094500D02*
X131448928Y-121323071D01*
X131658452Y-121323071D02*
X131258452Y-121323071D01*
X131658452Y-121704023D02*
X131658452Y-121513547D01*
X131258452Y-121513547D01*
X131391785Y-122104023D02*
X131658452Y-122199261D01*
X131391785Y-122294500D01*
X131620357Y-122446880D02*
X131639404Y-122465928D01*
X131658452Y-122446880D01*
X131639404Y-122427833D01*
X131620357Y-122446880D01*
X131658452Y-122446880D01*
X131658452Y-122846880D02*
X131658452Y-122618309D01*
X131658452Y-122732595D02*
X131258452Y-122732595D01*
X131315595Y-122694500D01*
X131353690Y-122656404D01*
X131372738Y-122618309D01*
X131620357Y-123018309D02*
X131639404Y-123037357D01*
X131658452Y-123018309D01*
X131639404Y-122999261D01*
X131620357Y-123018309D01*
X131658452Y-123018309D01*
X131296547Y-123189738D02*
X131277500Y-123208785D01*
X131258452Y-123246880D01*
X131258452Y-123342119D01*
X131277500Y-123380214D01*
X131296547Y-123399261D01*
X131334642Y-123418309D01*
X131372738Y-123418309D01*
X131429880Y-123399261D01*
X131658452Y-123170690D01*
X131658452Y-123418309D01*
D11*
X186044523Y-131046666D02*
X186104047Y-130987142D01*
X186223095Y-130808571D01*
X186282619Y-130689523D01*
X186342142Y-130510952D01*
X186401666Y-130213333D01*
X186401666Y-129975238D01*
X186342142Y-129677619D01*
X186282619Y-129499047D01*
X186223095Y-129380000D01*
X186104047Y-129201428D01*
X186044523Y-129141904D01*
X185032619Y-130510952D02*
X185151666Y-130570476D01*
X185389761Y-130570476D01*
X185508809Y-130510952D01*
X185568333Y-130451428D01*
X185627857Y-130332380D01*
X185627857Y-129975238D01*
X185568333Y-129856190D01*
X185508809Y-129796666D01*
X185389761Y-129737142D01*
X185151666Y-129737142D01*
X185032619Y-129796666D01*
X184615952Y-131046666D02*
X184556428Y-130987142D01*
X184437380Y-130808571D01*
X184377857Y-130689523D01*
X184318333Y-130510952D01*
X184258809Y-130213333D01*
X184258809Y-129975238D01*
X184318333Y-129677619D01*
X184377857Y-129499047D01*
X184437380Y-129380000D01*
X184556428Y-129201428D01*
X184615952Y-129141904D01*
X182711190Y-129915714D02*
X182294523Y-129915714D01*
X182115952Y-130570476D02*
X182711190Y-130570476D01*
X182711190Y-129320476D01*
X182115952Y-129320476D01*
X181401666Y-130570476D02*
X181520714Y-130510952D01*
X181580238Y-130391904D01*
X181580238Y-129320476D01*
X180449285Y-130510952D02*
X180568333Y-130570476D01*
X180806428Y-130570476D01*
X180925476Y-130510952D01*
X180985000Y-130391904D01*
X180985000Y-129915714D01*
X180925476Y-129796666D01*
X180806428Y-129737142D01*
X180568333Y-129737142D01*
X180449285Y-129796666D01*
X180389761Y-129915714D01*
X180389761Y-130034761D01*
X180985000Y-130153809D01*
X179854047Y-130570476D02*
X179854047Y-129320476D01*
X179735000Y-130094285D02*
X179377857Y-130570476D01*
X179377857Y-129737142D02*
X179854047Y-130213333D01*
X179020714Y-129737142D02*
X178544523Y-129737142D01*
X178842142Y-129320476D02*
X178842142Y-130391904D01*
X178782619Y-130510952D01*
X178663571Y-130570476D01*
X178544523Y-130570476D01*
X177949285Y-130570476D02*
X178068333Y-130510952D01*
X178127857Y-130451428D01*
X178187380Y-130332380D01*
X178187380Y-129975238D01*
X178127857Y-129856190D01*
X178068333Y-129796666D01*
X177949285Y-129737142D01*
X177770714Y-129737142D01*
X177651666Y-129796666D01*
X177592142Y-129856190D01*
X177532619Y-129975238D01*
X177532619Y-130332380D01*
X177592142Y-130451428D01*
X177651666Y-130510952D01*
X177770714Y-130570476D01*
X177949285Y-130570476D01*
X176996904Y-130570476D02*
X176996904Y-129737142D01*
X176996904Y-129975238D02*
X176937380Y-129856190D01*
X176877857Y-129796666D01*
X176758809Y-129737142D01*
X176639761Y-129737142D01*
X185598095Y-132645476D02*
X186312380Y-132645476D01*
X185955238Y-132645476D02*
X185955238Y-131395476D01*
X186074285Y-131574047D01*
X186193333Y-131693095D01*
X186312380Y-131752619D01*
X184883809Y-131931190D02*
X185002857Y-131871666D01*
X185062380Y-131812142D01*
X185121904Y-131693095D01*
X185121904Y-131633571D01*
X185062380Y-131514523D01*
X185002857Y-131455000D01*
X184883809Y-131395476D01*
X184645714Y-131395476D01*
X184526666Y-131455000D01*
X184467142Y-131514523D01*
X184407619Y-131633571D01*
X184407619Y-131693095D01*
X184467142Y-131812142D01*
X184526666Y-131871666D01*
X184645714Y-131931190D01*
X184883809Y-131931190D01*
X185002857Y-131990714D01*
X185062380Y-132050238D01*
X185121904Y-132169285D01*
X185121904Y-132407380D01*
X185062380Y-132526428D01*
X185002857Y-132585952D01*
X184883809Y-132645476D01*
X184645714Y-132645476D01*
X184526666Y-132585952D01*
X184467142Y-132526428D01*
X184407619Y-132407380D01*
X184407619Y-132169285D01*
X184467142Y-132050238D01*
X184526666Y-131990714D01*
X184645714Y-131931190D01*
X183633809Y-131395476D02*
X183514761Y-131395476D01*
X183395714Y-131455000D01*
X183336190Y-131514523D01*
X183276666Y-131633571D01*
X183217142Y-131871666D01*
X183217142Y-132169285D01*
X183276666Y-132407380D01*
X183336190Y-132526428D01*
X183395714Y-132585952D01*
X183514761Y-132645476D01*
X183633809Y-132645476D01*
X183752857Y-132585952D01*
X183812380Y-132526428D01*
X183871904Y-132407380D01*
X183931428Y-132169285D01*
X183931428Y-131871666D01*
X183871904Y-131633571D01*
X183812380Y-131514523D01*
X183752857Y-131455000D01*
X183633809Y-131395476D01*
X182086190Y-131395476D02*
X182681428Y-131395476D01*
X182740952Y-131990714D01*
X182681428Y-131931190D01*
X182562380Y-131871666D01*
X182264761Y-131871666D01*
X182145714Y-131931190D01*
X182086190Y-131990714D01*
X182026666Y-132109761D01*
X182026666Y-132407380D01*
X182086190Y-132526428D01*
X182145714Y-132585952D01*
X182264761Y-132645476D01*
X182562380Y-132645476D01*
X182681428Y-132585952D01*
X182740952Y-132526428D01*
X180836190Y-132645476D02*
X181550476Y-132645476D01*
X181193333Y-132645476D02*
X181193333Y-131395476D01*
X181312380Y-131574047D01*
X181431428Y-131693095D01*
X181550476Y-131752619D01*
X179764761Y-131395476D02*
X180002857Y-131395476D01*
X180121904Y-131455000D01*
X180181428Y-131514523D01*
X180300476Y-131693095D01*
X180360000Y-131931190D01*
X180360000Y-132407380D01*
X180300476Y-132526428D01*
X180240952Y-132585952D01*
X180121904Y-132645476D01*
X179883809Y-132645476D01*
X179764761Y-132585952D01*
X179705238Y-132526428D01*
X179645714Y-132407380D01*
X179645714Y-132109761D01*
X179705238Y-131990714D01*
X179764761Y-131931190D01*
X179883809Y-131871666D01*
X180121904Y-131871666D01*
X180240952Y-131931190D01*
X180300476Y-131990714D01*
X180360000Y-132109761D01*
X179110000Y-132169285D02*
X178157619Y-132169285D01*
X176907619Y-132645476D02*
X177621904Y-132645476D01*
X177264761Y-132645476D02*
X177264761Y-131395476D01*
X177383809Y-131574047D01*
X177502857Y-131693095D01*
X177621904Y-131752619D01*
X183514761Y-133470476D02*
X183098095Y-134720476D01*
X182681428Y-133470476D01*
X182383809Y-133470476D02*
X181610000Y-133470476D01*
X182026666Y-133946666D01*
X181848095Y-133946666D01*
X181729047Y-134006190D01*
X181669523Y-134065714D01*
X181610000Y-134184761D01*
X181610000Y-134482380D01*
X181669523Y-134601428D01*
X181729047Y-134660952D01*
X181848095Y-134720476D01*
X182205238Y-134720476D01*
X182324285Y-134660952D01*
X182383809Y-134601428D01*
X181074285Y-134601428D02*
X181014761Y-134660952D01*
X181074285Y-134720476D01*
X181133809Y-134660952D01*
X181074285Y-134601428D01*
X181074285Y-134720476D01*
X180538571Y-133589523D02*
X180479047Y-133530000D01*
X180360000Y-133470476D01*
X180062380Y-133470476D01*
X179943333Y-133530000D01*
X179883809Y-133589523D01*
X179824285Y-133708571D01*
X179824285Y-133827619D01*
X179883809Y-134006190D01*
X180598095Y-134720476D01*
X179824285Y-134720476D01*
X191516000Y-109982000D02*
X191516000Y-144018000D01*
X130048000Y-144018000D02*
X191516000Y-144018000D01*
X130048000Y-109982000D02*
X130048000Y-144018000D01*
X130048000Y-109982000D02*
X191516000Y-109982000D01*
D12*
G04 #@! TO.P,K4,1*
G04 #@! TO.N,Net-(C13-Pad2)*
X165862000Y-112014000D03*
D13*
G04 #@! TO.P,K4,2*
G04 #@! TO.N,GND*
X168402000Y-112014000D03*
G04 #@! TO.P,K4,3*
G04 #@! TO.N,GPS_RXD*
X170942000Y-112014000D03*
G04 #@! TO.P,K4,4*
G04 #@! TO.N,GPS_TXD*
X173482000Y-112014000D03*
G04 #@! TO.P,K4,5*
G04 #@! TO.N,N/C*
X176022000Y-112014000D03*
G04 #@! TD*
D14*
G04 #@! TO.P,BT2,1*
G04 #@! TO.N,VBAT*
X143668000Y-120396000D03*
G04 #@! TO.P,BT2,2*
G04 #@! TO.N,GND*
X188468000Y-120396000D03*
G04 #@! TD*
G04 #@! TO.P,BT1,2*
G04 #@! TO.N,GND*
X188468000Y-133858000D03*
G04 #@! TO.P,BT1,1*
G04 #@! TO.N,VBAT*
X143668000Y-133858000D03*
G04 #@! TD*
D15*
G04 #@! TO.P,ANT1,1*
G04 #@! TO.N,Net-(ANT1-Pad1)*
X189814200Y-140182600D03*
G04 #@! TD*
D12*
G04 #@! TO.P,K3,1*
G04 #@! TO.N,VUSB*
X153162000Y-112014000D03*
D13*
G04 #@! TO.P,K3,2*
G04 #@! TO.N,USBDM*
X150622000Y-112014000D03*
G04 #@! TO.P,K3,3*
G04 #@! TO.N,USBDP*
X148082000Y-112014000D03*
G04 #@! TO.P,K3,4*
G04 #@! TO.N,GND*
X145542000Y-112014000D03*
G04 #@! TD*
D16*
G04 #@! TO.P,C4,1*
G04 #@! TO.N,VSupply*
X136906000Y-126492000D03*
D17*
G04 #@! TO.P,C4,2*
G04 #@! TO.N,GND*
X131906000Y-126492000D03*
G04 #@! TD*
D12*
G04 #@! TO.P,K1,1*
G04 #@! TO.N,GND*
X189738000Y-137160000D03*
G04 #@! TD*
D18*
G04 #@! TO.P,K2,1*
G04 #@! TO.N,VBAT*
X133013200Y-142417800D03*
D19*
G04 #@! TO.P,K2,2*
G04 #@! TO.N,GND*
X131013200Y-142417800D03*
G04 #@! TD*
D12*
G04 #@! TO.P,K5,1*
G04 #@! TO.N,SWCLK*
X176022000Y-142494000D03*
D13*
G04 #@! TO.P,K5,2*
G04 #@! TO.N,SWDIO*
X173482000Y-142494000D03*
G04 #@! TO.P,K5,3*
G04 #@! TO.N,3V3*
X170942000Y-142494000D03*
G04 #@! TO.P,K5,4*
G04 #@! TO.N,GND*
X168402000Y-142494000D03*
G04 #@! TO.P,K5,5*
G04 #@! TO.N,CAN_TX*
X165862000Y-142494000D03*
G04 #@! TO.P,K5,6*
G04 #@! TO.N,CAN_RX*
X163322000Y-142494000D03*
G04 #@! TO.P,K5,7*
G04 #@! TO.N,I2C_SDA*
X160782000Y-142494000D03*
G04 #@! TO.P,K5,8*
G04 #@! TO.N,I2C_SCL*
X158242000Y-142494000D03*
G04 #@! TO.P,K5,9*
G04 #@! TO.N,UNUSED_05*
X155702000Y-142494000D03*
G04 #@! TO.P,K5,10*
G04 #@! TO.N,UNUSED_04*
X153162000Y-142494000D03*
G04 #@! TO.P,K5,11*
G04 #@! TO.N,UNUSED_03*
X150622000Y-142494000D03*
G04 #@! TO.P,K5,12*
G04 #@! TO.N,UNUSED_02*
X148082000Y-142494000D03*
G04 #@! TO.P,K5,13*
G04 #@! TO.N,UNUSED_01*
X145542000Y-142494000D03*
G04 #@! TO.P,K5,14*
G04 #@! TO.N,UNUSED_00*
X143002000Y-142494000D03*
G04 #@! TO.P,K5,15*
G04 #@! TO.N,3V3*
X140462000Y-142494000D03*
G04 #@! TO.P,K5,16*
G04 #@! TO.N,GND*
X137922000Y-142494000D03*
G04 #@! TO.P,K5,17*
G04 #@! TO.N,VBAT*
X135382000Y-142494000D03*
G04 #@! TD*
D12*
G04 #@! TO.P,K6,1*
G04 #@! TO.N,JTDI*
X183667400Y-142544800D03*
D13*
G04 #@! TO.P,K6,2*
G04 #@! TO.N,JTDO*
X186207400Y-142544800D03*
G04 #@! TO.P,K6,3*
G04 #@! TO.N,~RST*
X188747400Y-142544800D03*
G04 #@! TD*
D20*
G04 #@! TO.P,JP1,2*
G04 #@! TO.N,Net-(IC5-Pad1)*
X182993200Y-111201200D03*
D21*
G04 #@! TD*
G04 #@! TO.N,Net-(IC5-Pad1)*
G04 #@! TO.C,JP1*
G36*
X182493200Y-110451200D02*
X183643200Y-110451200D01*
X183143200Y-111201200D01*
X183643200Y-111951200D01*
X182493200Y-111951200D01*
X182493200Y-110451200D01*
X182493200Y-110451200D01*
G37*
D20*
G04 #@! TO.P,JP1,1*
G04 #@! TO.N,GND*
X184443200Y-111201200D03*
D21*
G04 #@! TD*
G04 #@! TO.N,GND*
G04 #@! TO.C,JP1*
G36*
X183443200Y-111201200D02*
X183943200Y-110451200D01*
X184943200Y-110451200D01*
X184943200Y-111951200D01*
X183943200Y-111951200D01*
X183443200Y-111201200D01*
X183443200Y-111201200D01*
G37*
D22*
G04 #@! TO.P,JP2,1*
G04 #@! TO.N,Net-(IC1-Pad2)*
X136428000Y-112014000D03*
D21*
G04 #@! TD*
G04 #@! TO.N,Net-(IC1-Pad2)*
G04 #@! TO.C,JP2*
G36*
X135878000Y-111264000D02*
X136428000Y-111264000D01*
X136428000Y-111264602D01*
X136452534Y-111264602D01*
X136501365Y-111269412D01*
X136549490Y-111278984D01*
X136596445Y-111293228D01*
X136641778Y-111312005D01*
X136685051Y-111335136D01*
X136725850Y-111362396D01*
X136763779Y-111393524D01*
X136798476Y-111428221D01*
X136829604Y-111466150D01*
X136856864Y-111506949D01*
X136879995Y-111550222D01*
X136898772Y-111595555D01*
X136913016Y-111642510D01*
X136922588Y-111690635D01*
X136927398Y-111739466D01*
X136927398Y-111764000D01*
X136928000Y-111764000D01*
X136928000Y-112264000D01*
X136927398Y-112264000D01*
X136927398Y-112288534D01*
X136922588Y-112337365D01*
X136913016Y-112385490D01*
X136898772Y-112432445D01*
X136879995Y-112477778D01*
X136856864Y-112521051D01*
X136829604Y-112561850D01*
X136798476Y-112599779D01*
X136763779Y-112634476D01*
X136725850Y-112665604D01*
X136685051Y-112692864D01*
X136641778Y-112715995D01*
X136596445Y-112734772D01*
X136549490Y-112749016D01*
X136501365Y-112758588D01*
X136452534Y-112763398D01*
X136428000Y-112763398D01*
X136428000Y-112764000D01*
X135878000Y-112764000D01*
X135878000Y-111264000D01*
X135878000Y-111264000D01*
G37*
D22*
G04 #@! TO.P,JP2,3*
G04 #@! TO.N,Net-(C3-Pad1)*
X133828000Y-112014000D03*
D21*
G04 #@! TD*
G04 #@! TO.N,Net-(C3-Pad1)*
G04 #@! TO.C,JP2*
G36*
X133828000Y-112763398D02*
X133803466Y-112763398D01*
X133754635Y-112758588D01*
X133706510Y-112749016D01*
X133659555Y-112734772D01*
X133614222Y-112715995D01*
X133570949Y-112692864D01*
X133530150Y-112665604D01*
X133492221Y-112634476D01*
X133457524Y-112599779D01*
X133426396Y-112561850D01*
X133399136Y-112521051D01*
X133376005Y-112477778D01*
X133357228Y-112432445D01*
X133342984Y-112385490D01*
X133333412Y-112337365D01*
X133328602Y-112288534D01*
X133328602Y-112264000D01*
X133328000Y-112264000D01*
X133328000Y-111764000D01*
X133328602Y-111764000D01*
X133328602Y-111739466D01*
X133333412Y-111690635D01*
X133342984Y-111642510D01*
X133357228Y-111595555D01*
X133376005Y-111550222D01*
X133399136Y-111506949D01*
X133426396Y-111466150D01*
X133457524Y-111428221D01*
X133492221Y-111393524D01*
X133530150Y-111362396D01*
X133570949Y-111335136D01*
X133614222Y-111312005D01*
X133659555Y-111293228D01*
X133706510Y-111278984D01*
X133754635Y-111269412D01*
X133803466Y-111264602D01*
X133828000Y-111264602D01*
X133828000Y-111264000D01*
X134378000Y-111264000D01*
X134378000Y-112764000D01*
X133828000Y-112764000D01*
X133828000Y-112763398D01*
X133828000Y-112763398D01*
G37*
D23*
G04 #@! TO.P,JP2,2*
G04 #@! TO.N,Net-(IC7-Pad3)*
X135128000Y-112014000D03*
G04 #@! TD*
D24*
G04 #@! TO.N,*
X161645600Y-136499600D03*
G04 #@! TO.N,3V3*
X174703030Y-137386770D03*
X183451500Y-126873000D03*
X154686000Y-131851400D03*
X152247600Y-120345200D03*
X167132000Y-124714000D03*
X153352500Y-136334500D03*
X187198000Y-112776000D03*
X188468000Y-115316000D03*
X186944000Y-119126000D03*
X181787800Y-114985800D03*
X145288000Y-131572000D03*
X162814000Y-130860800D03*
X165150800Y-129286000D03*
G04 #@! TO.N,GND*
X155194000Y-110744000D03*
X168249600Y-134137400D03*
X165608000Y-135178800D03*
X154178000Y-118364000D03*
X157226000Y-114808000D03*
X172212000Y-121666000D03*
X175006000Y-121666000D03*
X154552628Y-133483372D03*
X169038000Y-135794000D03*
X177800000Y-124460000D03*
X177800000Y-122682000D03*
X179324000Y-122682000D03*
X181102000Y-122682000D03*
X181102000Y-124460000D03*
X179324000Y-124460000D03*
X158242000Y-125806200D03*
X166624000Y-140716000D03*
X165608000Y-136652000D03*
X164338000Y-136652000D03*
X168402000Y-132588000D03*
X147066000Y-136652000D03*
X147066000Y-133096000D03*
X190500000Y-115062000D03*
X190500000Y-112776000D03*
X183261000Y-137414000D03*
X177736500Y-136906000D03*
X180594000Y-137414000D03*
X184962800Y-115476587D03*
X184443200Y-111201200D03*
X178054000Y-140970000D03*
X178054000Y-142494000D03*
X133096000Y-113792000D03*
X142240000Y-129032000D03*
X136144000Y-135445500D03*
X163068000Y-122428000D03*
X184150000Y-119888000D03*
X137160000Y-114808000D03*
X141968000Y-122791000D03*
X166624000Y-133350000D03*
X156908500Y-125857000D03*
X172275500Y-117030500D03*
X156908500Y-141160500D03*
X156887500Y-127190500D03*
X158242000Y-127190500D03*
X185039000Y-139954000D03*
X179387500Y-136969500D03*
X173324000Y-135794000D03*
G04 #@! TO.N,SWDIO*
X154940000Y-140023315D03*
G04 #@! TO.N,~RST*
X168706800Y-137160000D03*
X145237200Y-139623800D03*
G04 #@! TO.N,GPS_RXD*
X168656000Y-116586000D03*
X167635347Y-121670653D03*
G04 #@! TO.N,GPS_TXD*
X166624000Y-121629000D03*
X169801109Y-116466196D03*
G04 #@! TO.N,RFM95_MOSI*
X169043063Y-119754937D03*
X169577010Y-125730000D03*
G04 #@! TO.N,RFM95_DIO0*
X171958000Y-118909000D03*
X180410051Y-118909000D03*
G04 #@! TO.N,RFM95_DIO1*
X170942000Y-118872000D03*
X179578000Y-119634000D03*
G04 #@! TO.N,RFM95_DIO2*
X170180000Y-119634000D03*
X178562000Y-120396000D03*
G04 #@! TO.N,USBDM*
X150922147Y-128493947D03*
X150063200Y-122910600D03*
G04 #@! TO.N,USBDP*
X150723600Y-129717800D03*
X149063583Y-122938367D03*
G04 #@! TO.N,I2C_SDA*
X159267074Y-129286232D03*
X178308000Y-115443000D03*
G04 #@! TO.N,I2C_SCL*
X179552600Y-114960400D03*
X158267400Y-129260600D03*
G04 #@! TO.N,GPS_ACTIVE_ON*
X165608000Y-116586000D03*
X161036000Y-128778000D03*
G04 #@! TO.N,SPI_NOR_NCS*
X187198000Y-113829000D03*
X189484000Y-113792000D03*
G04 #@! TO.N,Net-(IC4-Pad44)*
X159283400Y-136753600D03*
X152363000Y-137769600D03*
G04 #@! TO.N,SWCLK*
X156718000Y-139517287D03*
G04 #@! TO.N,Net-(IC4-Pad20)*
X158009122Y-120061522D03*
X157302200Y-117652800D03*
G04 #@! TO.N,VUSB*
X148336000Y-119634000D03*
G04 #@! TO.N,JTDI*
X157652421Y-139067276D03*
X187368000Y-127127000D03*
X177038000Y-135953500D03*
G04 #@! TO.N,JTDO*
X157480000Y-137922000D03*
X175008245Y-138936780D03*
G04 #@! TO.N,Net-(C3-Pad1)*
X133350000Y-112014000D03*
G04 #@! TO.N,Net-(IC5-Pad1)*
X183083200Y-112127200D03*
X180644800Y-115011200D03*
G04 #@! TO.N,Net-(IC1-Pad2)*
X136906000Y-112014000D03*
G04 #@! TO.N,Net-(IC4-Pad11)*
X155956000Y-124460000D03*
X158245652Y-124202348D03*
G04 #@! TO.N,Net-(IC7-Pad3)*
X131064000Y-117602000D03*
G04 #@! TD*
D25*
G04 #@! TO.N,3V3*
X172567600Y-130860800D02*
X174703030Y-132996230D01*
X174703030Y-132996230D02*
X174703030Y-137386770D01*
X163855400Y-130860800D02*
X163855400Y-130810000D01*
X163855400Y-130860800D02*
X163855400Y-130581400D01*
X154381200Y-131546600D02*
X154686000Y-131851400D01*
X154381200Y-130860800D02*
X154381200Y-131546600D01*
X152247600Y-130149600D02*
X151536400Y-130860800D01*
X151536400Y-130860800D02*
X154381200Y-130860800D01*
X164744400Y-129692400D02*
X165150800Y-129286000D01*
X167132000Y-127304800D02*
X167132000Y-124714000D01*
X152247600Y-120345200D02*
X152247600Y-130149600D01*
D26*
X187198000Y-112776000D02*
X186182000Y-113792000D01*
X186182000Y-113792000D02*
X186182000Y-115062000D01*
X186182000Y-115062000D02*
X186436000Y-115316000D01*
X186436000Y-115316000D02*
X188468000Y-115316000D01*
D25*
X186156600Y-119913400D02*
X186944000Y-119126000D01*
D26*
X151536400Y-130860800D02*
X151536400Y-134968715D01*
X185928000Y-119126000D02*
X186944000Y-119126000D01*
X181787800Y-114985800D02*
X185928000Y-119126000D01*
D25*
X141311999Y-141644001D02*
X140462000Y-142494000D01*
X145389600Y-137566400D02*
X141311999Y-141644001D01*
X145389600Y-132239285D02*
X145389600Y-137566400D01*
X145288000Y-132137685D02*
X145389600Y-132239285D01*
X145288000Y-131572000D02*
X145288000Y-132137685D01*
X151493401Y-130817801D02*
X151536400Y-130860800D01*
X146042199Y-130817801D02*
X151493401Y-130817801D01*
X145288000Y-131572000D02*
X146042199Y-130817801D01*
X163855400Y-130581400D02*
X164744400Y-129692400D01*
X163855400Y-130860800D02*
X168148000Y-130860800D01*
X168148000Y-130860800D02*
X172567600Y-130860800D01*
X163855400Y-130810000D02*
X163855400Y-130733800D01*
X162814000Y-130860800D02*
X162814000Y-130860800D01*
X162814000Y-130860800D02*
X163855400Y-130860800D01*
X154381200Y-130860800D02*
X162814000Y-130860800D01*
X162814000Y-130860800D02*
X163118800Y-130860800D01*
X165150800Y-129286000D02*
X167132000Y-127304800D01*
X176555400Y-126873000D02*
X172567600Y-130860800D01*
X182600600Y-126873000D02*
X176555400Y-126873000D01*
X183451500Y-126873000D02*
X182600600Y-126873000D01*
X186156600Y-124733585D02*
X186156600Y-123444000D01*
X184017185Y-126873000D02*
X186156600Y-124733585D01*
X183451500Y-126873000D02*
X184017185Y-126873000D01*
X186156600Y-123444000D02*
X186156600Y-119913400D01*
D26*
X151986715Y-134968715D02*
X153352500Y-136334500D01*
X151536400Y-134968715D02*
X151986715Y-134968715D01*
D25*
G04 #@! TO.N,GND*
X188468000Y-132443787D02*
X188468000Y-120396000D01*
X188468000Y-133858000D02*
X188468000Y-132443787D01*
D26*
X188468000Y-120396000D02*
X188468000Y-118981787D01*
X169926000Y-110490000D02*
X168402000Y-112014000D01*
X154178000Y-118364000D02*
X154178000Y-115824000D01*
X154178000Y-115824000D02*
X155194000Y-114808000D01*
X155194000Y-114808000D02*
X157226000Y-114808000D01*
D25*
X172212000Y-121666000D02*
X175006000Y-121666000D01*
X166727372Y-133483372D02*
X154552628Y-133483372D01*
X169038000Y-135794000D02*
X166727372Y-133483372D01*
X166649400Y-134137400D02*
X165608000Y-135178800D01*
X167132000Y-134137400D02*
X166649400Y-134137400D01*
D27*
X168249600Y-134137400D02*
X167132000Y-134137400D01*
X141968000Y-122791000D02*
X141968000Y-128016000D01*
X136621999Y-141193999D02*
X137922000Y-142494000D01*
X131541999Y-141193999D02*
X136621999Y-141193999D01*
D26*
X131013200Y-141722798D02*
X131541999Y-141193999D01*
X131013200Y-142417800D02*
X131013200Y-141722798D01*
X188468000Y-118981787D02*
X184962800Y-115476587D01*
X184962800Y-115476587D02*
X184658000Y-115171787D01*
X184962800Y-115476587D02*
X184962800Y-114910902D01*
X184962800Y-114910902D02*
X184443200Y-114391302D01*
X184443200Y-112293400D02*
X184443200Y-111201200D01*
X184443200Y-114391302D02*
X184443200Y-112293400D01*
X168402000Y-112014000D02*
X166624000Y-113792000D01*
X156210000Y-113792000D02*
X155194000Y-114808000D01*
X157810200Y-113792000D02*
X156210000Y-113792000D01*
X157810200Y-113792000D02*
X157683200Y-113792000D01*
X166624000Y-113792000D02*
X157810200Y-113792000D01*
X144692001Y-111164001D02*
X145542000Y-112014000D01*
X144466990Y-110938990D02*
X144692001Y-111164001D01*
X133352008Y-110938990D02*
X144466990Y-110938990D01*
X132624999Y-111665999D02*
X133352008Y-110938990D01*
X132624999Y-113320999D02*
X132624999Y-111665999D01*
X133096000Y-113792000D02*
X132624999Y-113320999D01*
D27*
X141968000Y-128016000D02*
X141968000Y-128760000D01*
X141968000Y-128760000D02*
X142240000Y-129032000D01*
D25*
X131013200Y-127384800D02*
X131906000Y-126492000D01*
X131013200Y-142417800D02*
X131013200Y-127384800D01*
D26*
G04 #@! TO.N,SWDIO*
X159109382Y-139272030D02*
X158139125Y-140242287D01*
X154940000Y-140023315D02*
X155053199Y-140136514D01*
X154819885Y-139903200D02*
X154940000Y-140023315D01*
X169489970Y-140893800D02*
X167868200Y-139272030D01*
X167868200Y-139272030D02*
X159109382Y-139272030D01*
X171881800Y-140893800D02*
X173482000Y-142494000D01*
X169489970Y-140893800D02*
X171881800Y-140893800D01*
X155165528Y-140023315D02*
X155384500Y-140242287D01*
X154940000Y-140023315D02*
X155165528Y-140023315D01*
X158139125Y-140242287D02*
X155384500Y-140242287D01*
G04 #@! TO.N,~RST*
X184490580Y-138211780D02*
X188747400Y-142468600D01*
X168706800Y-137160000D02*
X169758580Y-138211780D01*
X169758580Y-138211780D02*
X184490580Y-138211780D01*
X168141115Y-137160000D02*
X168706800Y-137160000D01*
X167861715Y-137439400D02*
X168141115Y-137160000D01*
X159492802Y-135890000D02*
X161042202Y-137439400D01*
X157802588Y-135890000D02*
X159492802Y-135890000D01*
X145237200Y-139598400D02*
X147791001Y-137044599D01*
X147791001Y-137044599D02*
X152989597Y-137044599D01*
X161042202Y-137439400D02*
X167861715Y-137439400D01*
X152989597Y-137044599D02*
X153358998Y-137414000D01*
X153358998Y-137414000D02*
X156278588Y-137414000D01*
X145237200Y-139623800D02*
X145237200Y-139598400D01*
X156278588Y-137414000D02*
X157802588Y-135890000D01*
G04 #@! TO.N,GPS_RXD*
X168598010Y-116643990D02*
X168656000Y-116586000D01*
X167103425Y-116643990D02*
X168598010Y-116643990D01*
X167640000Y-121100315D02*
X167443685Y-120904000D01*
X167443685Y-120904000D02*
X167024602Y-120904000D01*
X167024602Y-120904000D02*
X166770602Y-120650000D01*
X167640000Y-121666000D02*
X167640000Y-121100315D01*
X166770602Y-120650000D02*
X166770602Y-116976813D01*
X166770602Y-116976813D02*
X167103425Y-116643990D01*
G04 #@! TO.N,GPS_TXD*
X166320592Y-121325592D02*
X166624000Y-121629000D01*
X166320592Y-116745133D02*
X166320592Y-121325592D01*
X167204726Y-115860999D02*
X166320592Y-116745133D01*
X169801109Y-116466196D02*
X169195912Y-115860999D01*
X169195912Y-115860999D02*
X167204726Y-115860999D01*
G04 #@! TO.N,RFM95_MOSI*
X169577010Y-120288884D02*
X169043063Y-119754937D01*
X169577010Y-125730000D02*
X169577010Y-120288884D01*
G04 #@! TO.N,RFM95_DIO0*
X171958000Y-118909000D02*
X180410051Y-118909000D01*
G04 #@! TO.N,RFM95_DIO1*
X170942000Y-119437685D02*
X171138315Y-119634000D01*
X170942000Y-118872000D02*
X170942000Y-119437685D01*
X171138315Y-119634000D02*
X179578000Y-119634000D01*
G04 #@! TO.N,RFM95_DIO2*
X170180000Y-119634000D02*
X170819653Y-120273653D01*
X170819653Y-120273653D02*
X178439653Y-120273653D01*
X178439653Y-120273653D02*
X178562000Y-120396000D01*
G04 #@! TO.N,USBDM*
X150356462Y-128493947D02*
X150063200Y-128200685D01*
X150922147Y-128493947D02*
X150356462Y-128493947D01*
X150063200Y-128200685D02*
X150063200Y-123393200D01*
X150063200Y-123393200D02*
X150063200Y-122910600D01*
G04 #@! TO.N,USBDP*
X149961600Y-129717800D02*
X150723600Y-129717800D01*
X149063583Y-122938367D02*
X149063583Y-128819783D01*
X149063583Y-128819783D02*
X149961600Y-129717800D01*
G04 #@! TO.N,I2C_SDA*
X159667073Y-121453925D02*
X166262198Y-114858800D01*
X159667073Y-128886233D02*
X159667073Y-121453925D01*
X159267074Y-129286232D02*
X159667073Y-128886233D01*
X177723800Y-114858800D02*
X178308000Y-115443000D01*
X177571400Y-114858800D02*
X177723800Y-114858800D01*
X177571400Y-114858800D02*
X177716915Y-114858800D01*
X166262198Y-114858800D02*
X177571400Y-114858800D01*
G04 #@! TO.N,I2C_SCL*
X178638200Y-114046000D02*
X179552600Y-114960400D01*
X178022398Y-114046000D02*
X178638200Y-114046000D01*
X158267400Y-128694915D02*
X159207200Y-127755115D01*
X159207200Y-127755115D02*
X159207200Y-121277388D01*
X159207200Y-121277388D02*
X166242578Y-114242010D01*
X158267400Y-129260600D02*
X158267400Y-128694915D01*
X166242578Y-114242010D02*
X177826388Y-114242010D01*
X177826388Y-114242010D02*
X178022398Y-114046000D01*
G04 #@! TO.N,GPS_ACTIVE_ON*
X165862000Y-116840000D02*
X165608000Y-116586000D01*
X161036000Y-128778000D02*
X160117083Y-127859083D01*
X160117083Y-127859083D02*
X160117083Y-121640325D01*
X160553675Y-121640325D02*
X165608000Y-116586000D01*
X160117083Y-121640325D02*
X160553675Y-121640325D01*
G04 #@! TO.N,SPI_NOR_NCS*
X187198000Y-113829000D02*
X189447000Y-113829000D01*
X189447000Y-113829000D02*
X189484000Y-113792000D01*
G04 #@! TO.N,Net-(IC4-Pad44)*
X157575398Y-136753600D02*
X156184600Y-138144398D01*
X159283400Y-136753600D02*
X157575398Y-136753600D01*
X156184600Y-138144398D02*
X152737798Y-138144398D01*
X152737798Y-138144398D02*
X152363000Y-137769600D01*
G04 #@! TO.N,SWCLK*
X157952725Y-139792277D02*
X158922982Y-138822020D01*
X158922982Y-138822020D02*
X168054600Y-138822020D01*
X168054600Y-138822020D02*
X169624529Y-140391949D01*
X157304420Y-139792277D02*
X157952725Y-139792277D01*
X157029430Y-139517287D02*
X157304420Y-139792277D01*
X156718000Y-139517287D02*
X157029430Y-139517287D01*
X175019949Y-140391949D02*
X173050200Y-140391949D01*
X176022000Y-141394000D02*
X175019949Y-140391949D01*
X176022000Y-142494000D02*
X176022000Y-141394000D01*
X169624529Y-140391949D02*
X173050200Y-140391949D01*
D25*
G04 #@! TO.N,VBAT*
X143668000Y-133858000D02*
X141224000Y-133858000D01*
X141224000Y-133858000D02*
X139446000Y-132080000D01*
X142253787Y-120396000D02*
X143668000Y-120396000D01*
X139446000Y-123203787D02*
X142253787Y-120396000D01*
X139446000Y-132080000D02*
X139446000Y-123203787D01*
X135305800Y-142417800D02*
X135382000Y-142494000D01*
X133013200Y-142417800D02*
X135305800Y-142417800D01*
D26*
G04 #@! TO.N,Net-(IC4-Pad20)*
X158009122Y-120061522D02*
X158009122Y-118359722D01*
X158009122Y-118359722D02*
X157302200Y-117652800D01*
G04 #@! TO.N,VUSB*
X153162000Y-113114000D02*
X153162000Y-112014000D01*
D27*
X153162000Y-112014000D02*
X153162000Y-113364000D01*
X153162000Y-113364000D02*
X153162000Y-114808000D01*
X153162000Y-114808000D02*
X148336000Y-119634000D01*
D26*
G04 #@! TO.N,JTDI*
X168241000Y-138372010D02*
X169568990Y-139700000D01*
X158347687Y-138372010D02*
X168241000Y-138372010D01*
X157652421Y-139067276D02*
X158347687Y-138372010D01*
X169568990Y-139700000D02*
X176352200Y-139700000D01*
X183667400Y-141444800D02*
X183667400Y-142544800D01*
X181668600Y-139446000D02*
X183667400Y-141444800D01*
X176606200Y-139446000D02*
X181668600Y-139446000D01*
X176352200Y-139700000D02*
X176606200Y-139446000D01*
D27*
X186802315Y-127127000D02*
X187368000Y-127127000D01*
X175895000Y-128876916D02*
X176628916Y-128143000D01*
X176628916Y-128143000D02*
X185786315Y-128143000D01*
X185786315Y-128143000D02*
X186802315Y-127127000D01*
X175895000Y-135376185D02*
X175895000Y-134239000D01*
X176472315Y-135953500D02*
X175895000Y-135376185D01*
X177038000Y-135953500D02*
X176472315Y-135953500D01*
X175895000Y-134239000D02*
X175895000Y-128876916D01*
D26*
G04 #@! TO.N,JTDO*
X182400590Y-138661790D02*
X186207400Y-142468600D01*
X175206010Y-138661790D02*
X182400590Y-138661790D01*
X174675800Y-139192000D02*
X175206010Y-138661790D01*
X169697400Y-139192000D02*
X174675800Y-139192000D01*
X157480000Y-137922000D02*
X168427400Y-137922000D01*
X168427400Y-137922000D02*
X169697400Y-139192000D01*
G04 #@! TO.N,Net-(C3-Pad1)*
X133350000Y-112014000D02*
X133828000Y-112014000D01*
G04 #@! TO.N,Net-(IC5-Pad1)*
X183083200Y-111291200D02*
X182993200Y-111201200D01*
X183083200Y-112127200D02*
X183083200Y-111291200D01*
X183083200Y-112318800D02*
X183083200Y-112127200D01*
X183083200Y-112572800D02*
X183083200Y-112127200D01*
X180644800Y-115011200D02*
X183083200Y-112572800D01*
G04 #@! TO.N,Net-(IC4-Pad11)*
X155956000Y-124460000D02*
X157988000Y-124460000D01*
X157988000Y-124460000D02*
X158245652Y-124202348D01*
G04 #@! TO.N,Net-(IC7-Pad3)*
X135128000Y-113538000D02*
X135128000Y-112014000D01*
X131064000Y-117602000D02*
X135128000Y-113538000D01*
G04 #@! TD*
D28*
G04 #@! TO.N,GND*
G36*
X151582000Y-137614249D02*
X151582000Y-137924951D01*
X151700900Y-138212001D01*
X151920599Y-138431700D01*
X152207649Y-138550600D01*
X152434946Y-138550600D01*
X152540367Y-138621039D01*
X152687963Y-138650398D01*
X152737797Y-138660311D01*
X152787631Y-138650398D01*
X156134766Y-138650398D01*
X156184600Y-138660311D01*
X156234434Y-138650398D01*
X156234435Y-138650398D01*
X156382031Y-138621039D01*
X156549406Y-138509204D01*
X156577639Y-138466951D01*
X156777565Y-138267024D01*
X156817900Y-138364401D01*
X157034348Y-138580849D01*
X156990321Y-138624875D01*
X156933801Y-138761326D01*
X156873351Y-138736287D01*
X156562649Y-138736287D01*
X156275599Y-138855187D01*
X156055900Y-139074886D01*
X155937000Y-139361936D01*
X155937000Y-139672638D01*
X155963364Y-139736287D01*
X155666458Y-139736287D01*
X155602100Y-139580914D01*
X155382401Y-139361215D01*
X155095351Y-139242315D01*
X154784649Y-139242315D01*
X154497599Y-139361215D01*
X154277900Y-139580914D01*
X154159000Y-139867964D01*
X154159000Y-140178666D01*
X154277900Y-140465716D01*
X154497599Y-140685415D01*
X154784649Y-140804315D01*
X155095351Y-140804315D01*
X155264371Y-140734305D01*
X155334665Y-140748287D01*
X155384499Y-140758200D01*
X155434333Y-140748287D01*
X158089291Y-140748287D01*
X158139125Y-140758200D01*
X158188959Y-140748287D01*
X158188960Y-140748287D01*
X158336556Y-140718928D01*
X158503931Y-140607093D01*
X158532163Y-140564840D01*
X159318974Y-139778030D01*
X167658609Y-139778030D01*
X169056275Y-141175697D01*
X168758890Y-141052524D01*
X168529000Y-141173845D01*
X168529000Y-142367000D01*
X168549000Y-142367000D01*
X168549000Y-142621000D01*
X168529000Y-142621000D01*
X168529000Y-142641000D01*
X168275000Y-142641000D01*
X168275000Y-142621000D01*
X168255000Y-142621000D01*
X168255000Y-142367000D01*
X168275000Y-142367000D01*
X168275000Y-141173845D01*
X168045110Y-141052524D01*
X167635076Y-141222355D01*
X167206817Y-141612642D01*
X167019755Y-142010963D01*
X166749501Y-141606499D01*
X166342312Y-141334424D01*
X165983239Y-141263000D01*
X165740761Y-141263000D01*
X165381688Y-141334424D01*
X164974499Y-141606499D01*
X164702424Y-142013688D01*
X164606884Y-142494000D01*
X164702424Y-142974312D01*
X164974499Y-143381501D01*
X165207220Y-143537000D01*
X163976780Y-143537000D01*
X164209501Y-143381501D01*
X164481576Y-142974312D01*
X164577116Y-142494000D01*
X164481576Y-142013688D01*
X164209501Y-141606499D01*
X163802312Y-141334424D01*
X163443239Y-141263000D01*
X163200761Y-141263000D01*
X162841688Y-141334424D01*
X162434499Y-141606499D01*
X162162424Y-142013688D01*
X162066884Y-142494000D01*
X162162424Y-142974312D01*
X162434499Y-143381501D01*
X162667220Y-143537000D01*
X161436780Y-143537000D01*
X161669501Y-143381501D01*
X161941576Y-142974312D01*
X162037116Y-142494000D01*
X161941576Y-142013688D01*
X161669501Y-141606499D01*
X161262312Y-141334424D01*
X160903239Y-141263000D01*
X160660761Y-141263000D01*
X160301688Y-141334424D01*
X159894499Y-141606499D01*
X159622424Y-142013688D01*
X159526884Y-142494000D01*
X159622424Y-142974312D01*
X159894499Y-143381501D01*
X160127220Y-143537000D01*
X158896780Y-143537000D01*
X159129501Y-143381501D01*
X159401576Y-142974312D01*
X159497116Y-142494000D01*
X159401576Y-142013688D01*
X159129501Y-141606499D01*
X158722312Y-141334424D01*
X158363239Y-141263000D01*
X158120761Y-141263000D01*
X157761688Y-141334424D01*
X157354499Y-141606499D01*
X157082424Y-142013688D01*
X156986884Y-142494000D01*
X157082424Y-142974312D01*
X157354499Y-143381501D01*
X157587220Y-143537000D01*
X156356780Y-143537000D01*
X156589501Y-143381501D01*
X156861576Y-142974312D01*
X156957116Y-142494000D01*
X156861576Y-142013688D01*
X156589501Y-141606499D01*
X156182312Y-141334424D01*
X155823239Y-141263000D01*
X155580761Y-141263000D01*
X155221688Y-141334424D01*
X154814499Y-141606499D01*
X154542424Y-142013688D01*
X154446884Y-142494000D01*
X154542424Y-142974312D01*
X154814499Y-143381501D01*
X155047220Y-143537000D01*
X153816780Y-143537000D01*
X154049501Y-143381501D01*
X154321576Y-142974312D01*
X154417116Y-142494000D01*
X154321576Y-142013688D01*
X154049501Y-141606499D01*
X153642312Y-141334424D01*
X153283239Y-141263000D01*
X153040761Y-141263000D01*
X152681688Y-141334424D01*
X152274499Y-141606499D01*
X152002424Y-142013688D01*
X151906884Y-142494000D01*
X152002424Y-142974312D01*
X152274499Y-143381501D01*
X152507220Y-143537000D01*
X151276780Y-143537000D01*
X151509501Y-143381501D01*
X151781576Y-142974312D01*
X151877116Y-142494000D01*
X151781576Y-142013688D01*
X151509501Y-141606499D01*
X151102312Y-141334424D01*
X150743239Y-141263000D01*
X150500761Y-141263000D01*
X150141688Y-141334424D01*
X149734499Y-141606499D01*
X149462424Y-142013688D01*
X149366884Y-142494000D01*
X149462424Y-142974312D01*
X149734499Y-143381501D01*
X149967220Y-143537000D01*
X148736780Y-143537000D01*
X148969501Y-143381501D01*
X149241576Y-142974312D01*
X149337116Y-142494000D01*
X149241576Y-142013688D01*
X148969501Y-141606499D01*
X148562312Y-141334424D01*
X148203239Y-141263000D01*
X147960761Y-141263000D01*
X147601688Y-141334424D01*
X147194499Y-141606499D01*
X146922424Y-142013688D01*
X146826884Y-142494000D01*
X146922424Y-142974312D01*
X147194499Y-143381501D01*
X147427220Y-143537000D01*
X146196780Y-143537000D01*
X146429501Y-143381501D01*
X146701576Y-142974312D01*
X146797116Y-142494000D01*
X146701576Y-142013688D01*
X146429501Y-141606499D01*
X146022312Y-141334424D01*
X145663239Y-141263000D01*
X145420761Y-141263000D01*
X145061688Y-141334424D01*
X144654499Y-141606499D01*
X144382424Y-142013688D01*
X144286884Y-142494000D01*
X144382424Y-142974312D01*
X144654499Y-143381501D01*
X144887220Y-143537000D01*
X143656780Y-143537000D01*
X143889501Y-143381501D01*
X144161576Y-142974312D01*
X144257116Y-142494000D01*
X144161576Y-142013688D01*
X143889501Y-141606499D01*
X143482312Y-141334424D01*
X143123239Y-141263000D01*
X142938921Y-141263000D01*
X144456200Y-139745722D01*
X144456200Y-139779151D01*
X144575100Y-140066201D01*
X144794799Y-140285900D01*
X145081849Y-140404800D01*
X145392551Y-140404800D01*
X145679601Y-140285900D01*
X145899300Y-140066201D01*
X146018200Y-139779151D01*
X146018200Y-139532991D01*
X148000593Y-137550599D01*
X151608365Y-137550599D01*
X151582000Y-137614249D01*
X151582000Y-137614249D01*
G37*
X151582000Y-137614249D02*
X151582000Y-137924951D01*
X151700900Y-138212001D01*
X151920599Y-138431700D01*
X152207649Y-138550600D01*
X152434946Y-138550600D01*
X152540367Y-138621039D01*
X152687963Y-138650398D01*
X152737797Y-138660311D01*
X152787631Y-138650398D01*
X156134766Y-138650398D01*
X156184600Y-138660311D01*
X156234434Y-138650398D01*
X156234435Y-138650398D01*
X156382031Y-138621039D01*
X156549406Y-138509204D01*
X156577639Y-138466951D01*
X156777565Y-138267024D01*
X156817900Y-138364401D01*
X157034348Y-138580849D01*
X156990321Y-138624875D01*
X156933801Y-138761326D01*
X156873351Y-138736287D01*
X156562649Y-138736287D01*
X156275599Y-138855187D01*
X156055900Y-139074886D01*
X155937000Y-139361936D01*
X155937000Y-139672638D01*
X155963364Y-139736287D01*
X155666458Y-139736287D01*
X155602100Y-139580914D01*
X155382401Y-139361215D01*
X155095351Y-139242315D01*
X154784649Y-139242315D01*
X154497599Y-139361215D01*
X154277900Y-139580914D01*
X154159000Y-139867964D01*
X154159000Y-140178666D01*
X154277900Y-140465716D01*
X154497599Y-140685415D01*
X154784649Y-140804315D01*
X155095351Y-140804315D01*
X155264371Y-140734305D01*
X155334665Y-140748287D01*
X155384499Y-140758200D01*
X155434333Y-140748287D01*
X158089291Y-140748287D01*
X158139125Y-140758200D01*
X158188959Y-140748287D01*
X158188960Y-140748287D01*
X158336556Y-140718928D01*
X158503931Y-140607093D01*
X158532163Y-140564840D01*
X159318974Y-139778030D01*
X167658609Y-139778030D01*
X169056275Y-141175697D01*
X168758890Y-141052524D01*
X168529000Y-141173845D01*
X168529000Y-142367000D01*
X168549000Y-142367000D01*
X168549000Y-142621000D01*
X168529000Y-142621000D01*
X168529000Y-142641000D01*
X168275000Y-142641000D01*
X168275000Y-142621000D01*
X168255000Y-142621000D01*
X168255000Y-142367000D01*
X168275000Y-142367000D01*
X168275000Y-141173845D01*
X168045110Y-141052524D01*
X167635076Y-141222355D01*
X167206817Y-141612642D01*
X167019755Y-142010963D01*
X166749501Y-141606499D01*
X166342312Y-141334424D01*
X165983239Y-141263000D01*
X165740761Y-141263000D01*
X165381688Y-141334424D01*
X164974499Y-141606499D01*
X164702424Y-142013688D01*
X164606884Y-142494000D01*
X164702424Y-142974312D01*
X164974499Y-143381501D01*
X165207220Y-143537000D01*
X163976780Y-143537000D01*
X164209501Y-143381501D01*
X164481576Y-142974312D01*
X164577116Y-142494000D01*
X164481576Y-142013688D01*
X164209501Y-141606499D01*
X163802312Y-141334424D01*
X163443239Y-141263000D01*
X163200761Y-141263000D01*
X162841688Y-141334424D01*
X162434499Y-141606499D01*
X162162424Y-142013688D01*
X162066884Y-142494000D01*
X162162424Y-142974312D01*
X162434499Y-143381501D01*
X162667220Y-143537000D01*
X161436780Y-143537000D01*
X161669501Y-143381501D01*
X161941576Y-142974312D01*
X162037116Y-142494000D01*
X161941576Y-142013688D01*
X161669501Y-141606499D01*
X161262312Y-141334424D01*
X160903239Y-141263000D01*
X160660761Y-141263000D01*
X160301688Y-141334424D01*
X159894499Y-141606499D01*
X159622424Y-142013688D01*
X159526884Y-142494000D01*
X159622424Y-142974312D01*
X159894499Y-143381501D01*
X160127220Y-143537000D01*
X158896780Y-143537000D01*
X159129501Y-143381501D01*
X159401576Y-142974312D01*
X159497116Y-142494000D01*
X159401576Y-142013688D01*
X159129501Y-141606499D01*
X158722312Y-141334424D01*
X158363239Y-141263000D01*
X158120761Y-141263000D01*
X157761688Y-141334424D01*
X157354499Y-141606499D01*
X157082424Y-142013688D01*
X156986884Y-142494000D01*
X157082424Y-142974312D01*
X157354499Y-143381501D01*
X157587220Y-143537000D01*
X156356780Y-143537000D01*
X156589501Y-143381501D01*
X156861576Y-142974312D01*
X156957116Y-142494000D01*
X156861576Y-142013688D01*
X156589501Y-141606499D01*
X156182312Y-141334424D01*
X155823239Y-141263000D01*
X155580761Y-141263000D01*
X155221688Y-141334424D01*
X154814499Y-141606499D01*
X154542424Y-142013688D01*
X154446884Y-142494000D01*
X154542424Y-142974312D01*
X154814499Y-143381501D01*
X155047220Y-143537000D01*
X153816780Y-143537000D01*
X154049501Y-143381501D01*
X154321576Y-142974312D01*
X154417116Y-142494000D01*
X154321576Y-142013688D01*
X154049501Y-141606499D01*
X153642312Y-141334424D01*
X153283239Y-141263000D01*
X153040761Y-141263000D01*
X152681688Y-141334424D01*
X152274499Y-141606499D01*
X152002424Y-142013688D01*
X151906884Y-142494000D01*
X152002424Y-142974312D01*
X152274499Y-143381501D01*
X152507220Y-143537000D01*
X151276780Y-143537000D01*
X151509501Y-143381501D01*
X151781576Y-142974312D01*
X151877116Y-142494000D01*
X151781576Y-142013688D01*
X151509501Y-141606499D01*
X151102312Y-141334424D01*
X150743239Y-141263000D01*
X150500761Y-141263000D01*
X150141688Y-141334424D01*
X149734499Y-141606499D01*
X149462424Y-142013688D01*
X149366884Y-142494000D01*
X149462424Y-142974312D01*
X149734499Y-143381501D01*
X149967220Y-143537000D01*
X148736780Y-143537000D01*
X148969501Y-143381501D01*
X149241576Y-142974312D01*
X149337116Y-142494000D01*
X149241576Y-142013688D01*
X148969501Y-141606499D01*
X148562312Y-141334424D01*
X148203239Y-141263000D01*
X147960761Y-141263000D01*
X147601688Y-141334424D01*
X147194499Y-141606499D01*
X146922424Y-142013688D01*
X146826884Y-142494000D01*
X146922424Y-142974312D01*
X147194499Y-143381501D01*
X147427220Y-143537000D01*
X146196780Y-143537000D01*
X146429501Y-143381501D01*
X146701576Y-142974312D01*
X146797116Y-142494000D01*
X146701576Y-142013688D01*
X146429501Y-141606499D01*
X146022312Y-141334424D01*
X145663239Y-141263000D01*
X145420761Y-141263000D01*
X145061688Y-141334424D01*
X144654499Y-141606499D01*
X144382424Y-142013688D01*
X144286884Y-142494000D01*
X144382424Y-142974312D01*
X144654499Y-143381501D01*
X144887220Y-143537000D01*
X143656780Y-143537000D01*
X143889501Y-143381501D01*
X144161576Y-142974312D01*
X144257116Y-142494000D01*
X144161576Y-142013688D01*
X143889501Y-141606499D01*
X143482312Y-141334424D01*
X143123239Y-141263000D01*
X142938921Y-141263000D01*
X144456200Y-139745722D01*
X144456200Y-139779151D01*
X144575100Y-140066201D01*
X144794799Y-140285900D01*
X145081849Y-140404800D01*
X145392551Y-140404800D01*
X145679601Y-140285900D01*
X145899300Y-140066201D01*
X146018200Y-139779151D01*
X146018200Y-139532991D01*
X148000593Y-137550599D01*
X151608365Y-137550599D01*
X151582000Y-137614249D01*
G36*
X179364505Y-140308113D02*
X179116200Y-140907574D01*
X179116200Y-141556426D01*
X179364505Y-142155887D01*
X179823313Y-142614695D01*
X180422774Y-142863000D01*
X181071626Y-142863000D01*
X181671087Y-142614695D01*
X182129895Y-142155887D01*
X182378200Y-141556426D01*
X182378200Y-140907574D01*
X182352474Y-140845465D01*
X182814017Y-141307009D01*
X182668741Y-141335906D01*
X182542714Y-141420114D01*
X182458506Y-141546141D01*
X182428936Y-141694800D01*
X182428936Y-143394800D01*
X182457221Y-143537000D01*
X177201266Y-143537000D01*
X177230894Y-143492659D01*
X177260464Y-143344000D01*
X177260464Y-141644000D01*
X177230894Y-141495341D01*
X177146686Y-141369314D01*
X177020659Y-141285106D01*
X176872000Y-141255536D01*
X176510370Y-141255536D01*
X176498641Y-141196569D01*
X176386806Y-141029194D01*
X176344555Y-141000963D01*
X175549591Y-140206000D01*
X176302366Y-140206000D01*
X176352200Y-140215913D01*
X176402034Y-140206000D01*
X176402035Y-140206000D01*
X176549631Y-140176641D01*
X176717006Y-140064806D01*
X176745239Y-140022552D01*
X176815791Y-139952000D01*
X179720618Y-139952000D01*
X179364505Y-140308113D01*
X179364505Y-140308113D01*
G37*
X179364505Y-140308113D02*
X179116200Y-140907574D01*
X179116200Y-141556426D01*
X179364505Y-142155887D01*
X179823313Y-142614695D01*
X180422774Y-142863000D01*
X181071626Y-142863000D01*
X181671087Y-142614695D01*
X182129895Y-142155887D01*
X182378200Y-141556426D01*
X182378200Y-140907574D01*
X182352474Y-140845465D01*
X182814017Y-141307009D01*
X182668741Y-141335906D01*
X182542714Y-141420114D01*
X182458506Y-141546141D01*
X182428936Y-141694800D01*
X182428936Y-143394800D01*
X182457221Y-143537000D01*
X177201266Y-143537000D01*
X177230894Y-143492659D01*
X177260464Y-143344000D01*
X177260464Y-141644000D01*
X177230894Y-141495341D01*
X177146686Y-141369314D01*
X177020659Y-141285106D01*
X176872000Y-141255536D01*
X176510370Y-141255536D01*
X176498641Y-141196569D01*
X176386806Y-141029194D01*
X176344555Y-141000963D01*
X175549591Y-140206000D01*
X176302366Y-140206000D01*
X176352200Y-140215913D01*
X176402034Y-140206000D01*
X176402035Y-140206000D01*
X176549631Y-140176641D01*
X176717006Y-140064806D01*
X176745239Y-140022552D01*
X176815791Y-139952000D01*
X179720618Y-139952000D01*
X179364505Y-140308113D01*
G36*
X187603795Y-142040586D02*
X187587824Y-142064488D01*
X187492284Y-142544800D01*
X187587824Y-143025112D01*
X187859899Y-143432301D01*
X188016592Y-143537000D01*
X186938208Y-143537000D01*
X187094901Y-143432301D01*
X187366976Y-143025112D01*
X187462516Y-142544800D01*
X187366976Y-142064488D01*
X187094901Y-141657299D01*
X186687712Y-141385224D01*
X186328639Y-141313800D01*
X186086161Y-141313800D01*
X185820946Y-141366554D01*
X183172171Y-138717780D01*
X184280989Y-138717780D01*
X187603795Y-142040586D01*
X187603795Y-142040586D01*
G37*
X187603795Y-142040586D02*
X187587824Y-142064488D01*
X187492284Y-142544800D01*
X187587824Y-143025112D01*
X187859899Y-143432301D01*
X188016592Y-143537000D01*
X186938208Y-143537000D01*
X187094901Y-143432301D01*
X187366976Y-143025112D01*
X187462516Y-142544800D01*
X187366976Y-142064488D01*
X187094901Y-141657299D01*
X186687712Y-141385224D01*
X186328639Y-141313800D01*
X186086161Y-141313800D01*
X185820946Y-141366554D01*
X183172171Y-138717780D01*
X184280989Y-138717780D01*
X187603795Y-142040586D01*
G36*
X191035001Y-135858975D02*
X190947698Y-135771673D01*
X190714309Y-135675000D01*
X190023750Y-135675000D01*
X189865000Y-135833750D01*
X189865000Y-137033000D01*
X189885000Y-137033000D01*
X189885000Y-137287000D01*
X189865000Y-137287000D01*
X189865000Y-138486250D01*
X190023750Y-138645000D01*
X190714309Y-138645000D01*
X190947698Y-138548327D01*
X191035001Y-138461025D01*
X191035001Y-139782460D01*
X190900179Y-139456972D01*
X190539828Y-139096621D01*
X190069007Y-138901600D01*
X189559393Y-138901600D01*
X189088572Y-139096621D01*
X188728221Y-139456972D01*
X188533200Y-139927793D01*
X188533200Y-140437407D01*
X188728221Y-140908228D01*
X189088572Y-141268579D01*
X189559393Y-141463600D01*
X190069007Y-141463600D01*
X190539828Y-141268579D01*
X190900179Y-140908228D01*
X191035001Y-140582740D01*
X191035001Y-143537000D01*
X189478208Y-143537000D01*
X189634901Y-143432301D01*
X189906976Y-143025112D01*
X190002516Y-142544800D01*
X189906976Y-142064488D01*
X189634901Y-141657299D01*
X189227712Y-141385224D01*
X188868639Y-141313800D01*
X188626161Y-141313800D01*
X188360946Y-141366554D01*
X184883619Y-137889228D01*
X184855386Y-137846974D01*
X184688011Y-137735139D01*
X184540415Y-137705780D01*
X184540414Y-137705780D01*
X184490580Y-137695867D01*
X184440746Y-137705780D01*
X175537834Y-137705780D01*
X175584030Y-137473537D01*
X175584030Y-137445750D01*
X188253000Y-137445750D01*
X188253000Y-138136310D01*
X188349673Y-138369699D01*
X188528302Y-138548327D01*
X188761691Y-138645000D01*
X189452250Y-138645000D01*
X189611000Y-138486250D01*
X189611000Y-137287000D01*
X188411750Y-137287000D01*
X188253000Y-137445750D01*
X175584030Y-137445750D01*
X175584030Y-135957583D01*
X175982182Y-136355735D01*
X176017389Y-136408426D01*
X176226111Y-136547889D01*
X176472315Y-136596862D01*
X176534463Y-136584500D01*
X176564499Y-136584500D01*
X176595599Y-136615600D01*
X176882649Y-136734500D01*
X177193351Y-136734500D01*
X177480401Y-136615600D01*
X177700100Y-136395901D01*
X177788000Y-136183690D01*
X188253000Y-136183690D01*
X188253000Y-136874250D01*
X188411750Y-137033000D01*
X189611000Y-137033000D01*
X189611000Y-135833750D01*
X189452250Y-135675000D01*
X188761691Y-135675000D01*
X188528302Y-135771673D01*
X188349673Y-135950301D01*
X188253000Y-136183690D01*
X177788000Y-136183690D01*
X177819000Y-136108851D01*
X177819000Y-135798149D01*
X177762191Y-135661000D01*
X187180286Y-135661000D01*
X187180286Y-135010532D01*
X187495073Y-135010532D01*
X187593736Y-135277387D01*
X188203461Y-135503908D01*
X188853460Y-135479856D01*
X189342264Y-135277387D01*
X189440927Y-135010532D01*
X188468000Y-134037605D01*
X187495073Y-135010532D01*
X187180286Y-135010532D01*
X187180286Y-134780947D01*
X187315468Y-134830927D01*
X188288395Y-133858000D01*
X188647605Y-133858000D01*
X189620532Y-134830927D01*
X189887387Y-134732264D01*
X190113908Y-134122539D01*
X190089856Y-133472540D01*
X189887387Y-132983736D01*
X189620532Y-132885073D01*
X188647605Y-133858000D01*
X188288395Y-133858000D01*
X187315468Y-132885073D01*
X187180286Y-132935053D01*
X187180286Y-132705468D01*
X187495073Y-132705468D01*
X188468000Y-133678395D01*
X189440927Y-132705468D01*
X189342264Y-132438613D01*
X188732539Y-132212092D01*
X188082540Y-132236144D01*
X187593736Y-132438613D01*
X187495073Y-132705468D01*
X187180286Y-132705468D01*
X187180286Y-128674000D01*
X186127388Y-128674000D01*
X186241241Y-128597926D01*
X186276447Y-128545236D01*
X187001249Y-127820435D01*
X187212649Y-127908000D01*
X187523351Y-127908000D01*
X187810401Y-127789100D01*
X188030100Y-127569401D01*
X188149000Y-127282351D01*
X188149000Y-126971649D01*
X188030100Y-126684599D01*
X187810401Y-126464900D01*
X187523351Y-126346000D01*
X187212649Y-126346000D01*
X186925599Y-126464900D01*
X186894499Y-126496000D01*
X186864463Y-126496000D01*
X186802315Y-126483638D01*
X186740167Y-126496000D01*
X186556111Y-126532611D01*
X186347389Y-126672074D01*
X186312184Y-126724762D01*
X185524947Y-127512000D01*
X184646611Y-127512000D01*
X184652350Y-127508165D01*
X184701502Y-127434604D01*
X186718208Y-125417899D01*
X186791765Y-125368750D01*
X186986483Y-125077334D01*
X187037600Y-124820352D01*
X187037600Y-124820351D01*
X187054859Y-124733585D01*
X187037600Y-124646818D01*
X187037600Y-121548532D01*
X187495073Y-121548532D01*
X187593736Y-121815387D01*
X188203461Y-122041908D01*
X188853460Y-122017856D01*
X189342264Y-121815387D01*
X189440927Y-121548532D01*
X188468000Y-120575605D01*
X187495073Y-121548532D01*
X187037600Y-121548532D01*
X187037600Y-121243676D01*
X187048613Y-121270264D01*
X187315468Y-121368927D01*
X188288395Y-120396000D01*
X188647605Y-120396000D01*
X189620532Y-121368927D01*
X189887387Y-121270264D01*
X190113908Y-120660539D01*
X190089856Y-120010540D01*
X189887387Y-119521736D01*
X189620532Y-119423073D01*
X188647605Y-120396000D01*
X188288395Y-120396000D01*
X188274253Y-120381858D01*
X188453858Y-120202253D01*
X188468000Y-120216395D01*
X189440927Y-119243468D01*
X189342264Y-118976613D01*
X188732539Y-118750092D01*
X188082540Y-118774144D01*
X187795888Y-118892879D01*
X187773883Y-118782252D01*
X187579165Y-118490835D01*
X187287748Y-118296117D01*
X186944000Y-118227741D01*
X186600251Y-118296117D01*
X186382392Y-118441686D01*
X186204078Y-118620000D01*
X186137592Y-118620000D01*
X182568800Y-115051209D01*
X182568800Y-114830449D01*
X182449900Y-114543399D01*
X182230201Y-114323700D01*
X182101289Y-114270303D01*
X182579592Y-113792000D01*
X185666087Y-113792000D01*
X185676000Y-113841834D01*
X185676001Y-115012161D01*
X185666087Y-115062000D01*
X185695255Y-115208631D01*
X185705360Y-115259431D01*
X185817195Y-115426806D01*
X185859446Y-115455037D01*
X186042961Y-115638552D01*
X186071194Y-115680806D01*
X186238569Y-115792641D01*
X186386165Y-115822000D01*
X186435999Y-115831913D01*
X186485833Y-115822000D01*
X187869499Y-115822000D01*
X188025599Y-115978100D01*
X188312649Y-116097000D01*
X188623351Y-116097000D01*
X188910401Y-115978100D01*
X189130100Y-115758401D01*
X189249000Y-115471351D01*
X189249000Y-115160649D01*
X189130100Y-114873599D01*
X188910401Y-114653900D01*
X188623351Y-114535000D01*
X188312649Y-114535000D01*
X188025599Y-114653900D01*
X187869499Y-114810000D01*
X186688000Y-114810000D01*
X186688000Y-114423501D01*
X186755599Y-114491100D01*
X187042649Y-114610000D01*
X187353351Y-114610000D01*
X187640401Y-114491100D01*
X187796501Y-114335000D01*
X188922499Y-114335000D01*
X189041599Y-114454100D01*
X189328649Y-114573000D01*
X189639351Y-114573000D01*
X189926401Y-114454100D01*
X190146100Y-114234401D01*
X190265000Y-113947351D01*
X190265000Y-113636649D01*
X190146100Y-113349599D01*
X189926401Y-113129900D01*
X189639351Y-113011000D01*
X189328649Y-113011000D01*
X189041599Y-113129900D01*
X188848499Y-113323000D01*
X187796501Y-113323000D01*
X187776001Y-113302500D01*
X187860100Y-113218401D01*
X187979000Y-112931351D01*
X187979000Y-112620649D01*
X187860100Y-112333599D01*
X187640401Y-112113900D01*
X187353351Y-111995000D01*
X187042649Y-111995000D01*
X186755599Y-112113900D01*
X186535900Y-112333599D01*
X186417000Y-112620649D01*
X186417000Y-112841408D01*
X185859447Y-113398962D01*
X185817194Y-113427194D01*
X185705359Y-113594570D01*
X185677225Y-113736010D01*
X185666087Y-113792000D01*
X182579592Y-113792000D01*
X183405756Y-112965836D01*
X183448006Y-112937606D01*
X183559841Y-112770231D01*
X183563608Y-112751293D01*
X183745300Y-112569601D01*
X183798804Y-112440430D01*
X183943200Y-112469152D01*
X184943200Y-112469152D01*
X185141412Y-112429725D01*
X185309447Y-112317447D01*
X185421725Y-112149412D01*
X185461152Y-111951200D01*
X185461152Y-110463000D01*
X191035000Y-110463000D01*
X191035001Y-135858975D01*
X191035001Y-135858975D01*
G37*
X191035001Y-135858975D02*
X190947698Y-135771673D01*
X190714309Y-135675000D01*
X190023750Y-135675000D01*
X189865000Y-135833750D01*
X189865000Y-137033000D01*
X189885000Y-137033000D01*
X189885000Y-137287000D01*
X189865000Y-137287000D01*
X189865000Y-138486250D01*
X190023750Y-138645000D01*
X190714309Y-138645000D01*
X190947698Y-138548327D01*
X191035001Y-138461025D01*
X191035001Y-139782460D01*
X190900179Y-139456972D01*
X190539828Y-139096621D01*
X190069007Y-138901600D01*
X189559393Y-138901600D01*
X189088572Y-139096621D01*
X188728221Y-139456972D01*
X188533200Y-139927793D01*
X188533200Y-140437407D01*
X188728221Y-140908228D01*
X189088572Y-141268579D01*
X189559393Y-141463600D01*
X190069007Y-141463600D01*
X190539828Y-141268579D01*
X190900179Y-140908228D01*
X191035001Y-140582740D01*
X191035001Y-143537000D01*
X189478208Y-143537000D01*
X189634901Y-143432301D01*
X189906976Y-143025112D01*
X190002516Y-142544800D01*
X189906976Y-142064488D01*
X189634901Y-141657299D01*
X189227712Y-141385224D01*
X188868639Y-141313800D01*
X188626161Y-141313800D01*
X188360946Y-141366554D01*
X184883619Y-137889228D01*
X184855386Y-137846974D01*
X184688011Y-137735139D01*
X184540415Y-137705780D01*
X184540414Y-137705780D01*
X184490580Y-137695867D01*
X184440746Y-137705780D01*
X175537834Y-137705780D01*
X175584030Y-137473537D01*
X175584030Y-137445750D01*
X188253000Y-137445750D01*
X188253000Y-138136310D01*
X188349673Y-138369699D01*
X188528302Y-138548327D01*
X188761691Y-138645000D01*
X189452250Y-138645000D01*
X189611000Y-138486250D01*
X189611000Y-137287000D01*
X188411750Y-137287000D01*
X188253000Y-137445750D01*
X175584030Y-137445750D01*
X175584030Y-135957583D01*
X175982182Y-136355735D01*
X176017389Y-136408426D01*
X176226111Y-136547889D01*
X176472315Y-136596862D01*
X176534463Y-136584500D01*
X176564499Y-136584500D01*
X176595599Y-136615600D01*
X176882649Y-136734500D01*
X177193351Y-136734500D01*
X177480401Y-136615600D01*
X177700100Y-136395901D01*
X177788000Y-136183690D01*
X188253000Y-136183690D01*
X188253000Y-136874250D01*
X188411750Y-137033000D01*
X189611000Y-137033000D01*
X189611000Y-135833750D01*
X189452250Y-135675000D01*
X188761691Y-135675000D01*
X188528302Y-135771673D01*
X188349673Y-135950301D01*
X188253000Y-136183690D01*
X177788000Y-136183690D01*
X177819000Y-136108851D01*
X177819000Y-135798149D01*
X177762191Y-135661000D01*
X187180286Y-135661000D01*
X187180286Y-135010532D01*
X187495073Y-135010532D01*
X187593736Y-135277387D01*
X188203461Y-135503908D01*
X188853460Y-135479856D01*
X189342264Y-135277387D01*
X189440927Y-135010532D01*
X188468000Y-134037605D01*
X187495073Y-135010532D01*
X187180286Y-135010532D01*
X187180286Y-134780947D01*
X187315468Y-134830927D01*
X188288395Y-133858000D01*
X188647605Y-133858000D01*
X189620532Y-134830927D01*
X189887387Y-134732264D01*
X190113908Y-134122539D01*
X190089856Y-133472540D01*
X189887387Y-132983736D01*
X189620532Y-132885073D01*
X188647605Y-133858000D01*
X188288395Y-133858000D01*
X187315468Y-132885073D01*
X187180286Y-132935053D01*
X187180286Y-132705468D01*
X187495073Y-132705468D01*
X188468000Y-133678395D01*
X189440927Y-132705468D01*
X189342264Y-132438613D01*
X188732539Y-132212092D01*
X188082540Y-132236144D01*
X187593736Y-132438613D01*
X187495073Y-132705468D01*
X187180286Y-132705468D01*
X187180286Y-128674000D01*
X186127388Y-128674000D01*
X186241241Y-128597926D01*
X186276447Y-128545236D01*
X187001249Y-127820435D01*
X187212649Y-127908000D01*
X187523351Y-127908000D01*
X187810401Y-127789100D01*
X188030100Y-127569401D01*
X188149000Y-127282351D01*
X188149000Y-126971649D01*
X188030100Y-126684599D01*
X187810401Y-126464900D01*
X187523351Y-126346000D01*
X187212649Y-126346000D01*
X186925599Y-126464900D01*
X186894499Y-126496000D01*
X186864463Y-126496000D01*
X186802315Y-126483638D01*
X186740167Y-126496000D01*
X186556111Y-126532611D01*
X186347389Y-126672074D01*
X186312184Y-126724762D01*
X185524947Y-127512000D01*
X184646611Y-127512000D01*
X184652350Y-127508165D01*
X184701502Y-127434604D01*
X186718208Y-125417899D01*
X186791765Y-125368750D01*
X186986483Y-125077334D01*
X187037600Y-124820352D01*
X187037600Y-124820351D01*
X187054859Y-124733585D01*
X187037600Y-124646818D01*
X187037600Y-121548532D01*
X187495073Y-121548532D01*
X187593736Y-121815387D01*
X188203461Y-122041908D01*
X188853460Y-122017856D01*
X189342264Y-121815387D01*
X189440927Y-121548532D01*
X188468000Y-120575605D01*
X187495073Y-121548532D01*
X187037600Y-121548532D01*
X187037600Y-121243676D01*
X187048613Y-121270264D01*
X187315468Y-121368927D01*
X188288395Y-120396000D01*
X188647605Y-120396000D01*
X189620532Y-121368927D01*
X189887387Y-121270264D01*
X190113908Y-120660539D01*
X190089856Y-120010540D01*
X189887387Y-119521736D01*
X189620532Y-119423073D01*
X188647605Y-120396000D01*
X188288395Y-120396000D01*
X188274253Y-120381858D01*
X188453858Y-120202253D01*
X188468000Y-120216395D01*
X189440927Y-119243468D01*
X189342264Y-118976613D01*
X188732539Y-118750092D01*
X188082540Y-118774144D01*
X187795888Y-118892879D01*
X187773883Y-118782252D01*
X187579165Y-118490835D01*
X187287748Y-118296117D01*
X186944000Y-118227741D01*
X186600251Y-118296117D01*
X186382392Y-118441686D01*
X186204078Y-118620000D01*
X186137592Y-118620000D01*
X182568800Y-115051209D01*
X182568800Y-114830449D01*
X182449900Y-114543399D01*
X182230201Y-114323700D01*
X182101289Y-114270303D01*
X182579592Y-113792000D01*
X185666087Y-113792000D01*
X185676000Y-113841834D01*
X185676001Y-115012161D01*
X185666087Y-115062000D01*
X185695255Y-115208631D01*
X185705360Y-115259431D01*
X185817195Y-115426806D01*
X185859446Y-115455037D01*
X186042961Y-115638552D01*
X186071194Y-115680806D01*
X186238569Y-115792641D01*
X186386165Y-115822000D01*
X186435999Y-115831913D01*
X186485833Y-115822000D01*
X187869499Y-115822000D01*
X188025599Y-115978100D01*
X188312649Y-116097000D01*
X188623351Y-116097000D01*
X188910401Y-115978100D01*
X189130100Y-115758401D01*
X189249000Y-115471351D01*
X189249000Y-115160649D01*
X189130100Y-114873599D01*
X188910401Y-114653900D01*
X188623351Y-114535000D01*
X188312649Y-114535000D01*
X188025599Y-114653900D01*
X187869499Y-114810000D01*
X186688000Y-114810000D01*
X186688000Y-114423501D01*
X186755599Y-114491100D01*
X187042649Y-114610000D01*
X187353351Y-114610000D01*
X187640401Y-114491100D01*
X187796501Y-114335000D01*
X188922499Y-114335000D01*
X189041599Y-114454100D01*
X189328649Y-114573000D01*
X189639351Y-114573000D01*
X189926401Y-114454100D01*
X190146100Y-114234401D01*
X190265000Y-113947351D01*
X190265000Y-113636649D01*
X190146100Y-113349599D01*
X189926401Y-113129900D01*
X189639351Y-113011000D01*
X189328649Y-113011000D01*
X189041599Y-113129900D01*
X188848499Y-113323000D01*
X187796501Y-113323000D01*
X187776001Y-113302500D01*
X187860100Y-113218401D01*
X187979000Y-112931351D01*
X187979000Y-112620649D01*
X187860100Y-112333599D01*
X187640401Y-112113900D01*
X187353351Y-111995000D01*
X187042649Y-111995000D01*
X186755599Y-112113900D01*
X186535900Y-112333599D01*
X186417000Y-112620649D01*
X186417000Y-112841408D01*
X185859447Y-113398962D01*
X185817194Y-113427194D01*
X185705359Y-113594570D01*
X185677225Y-113736010D01*
X185666087Y-113792000D01*
X182579592Y-113792000D01*
X183405756Y-112965836D01*
X183448006Y-112937606D01*
X183559841Y-112770231D01*
X183563608Y-112751293D01*
X183745300Y-112569601D01*
X183798804Y-112440430D01*
X183943200Y-112469152D01*
X184943200Y-112469152D01*
X185141412Y-112429725D01*
X185309447Y-112317447D01*
X185421725Y-112149412D01*
X185461152Y-111951200D01*
X185461152Y-110463000D01*
X191035000Y-110463000D01*
X191035001Y-135858975D01*
G36*
X182104736Y-111951200D02*
X182134306Y-112099859D01*
X182218514Y-112225886D01*
X182302200Y-112281803D01*
X182302200Y-112282551D01*
X182406370Y-112534039D01*
X180710209Y-114230200D01*
X180489449Y-114230200D01*
X180202399Y-114349100D01*
X180124100Y-114427399D01*
X179995001Y-114298300D01*
X179707951Y-114179400D01*
X179487192Y-114179400D01*
X179031238Y-113723447D01*
X179003006Y-113681194D01*
X178835631Y-113569359D01*
X178688035Y-113540000D01*
X178688034Y-113540000D01*
X178638200Y-113530087D01*
X178588366Y-113540000D01*
X178072231Y-113540000D01*
X178022397Y-113530087D01*
X177972563Y-113540000D01*
X177824967Y-113569359D01*
X177657592Y-113681194D01*
X177629359Y-113723448D01*
X177616797Y-113736010D01*
X166292412Y-113736010D01*
X166242578Y-113726097D01*
X166192744Y-113736010D01*
X166192743Y-113736010D01*
X166045147Y-113765369D01*
X165877772Y-113877204D01*
X165849541Y-113919455D01*
X158884646Y-120884351D01*
X158842395Y-120912582D01*
X158750256Y-121050480D01*
X158730560Y-121079957D01*
X158691287Y-121277388D01*
X158701201Y-121327227D01*
X158701201Y-123553396D01*
X158688053Y-123540248D01*
X158401003Y-123421348D01*
X158090301Y-123421348D01*
X157803251Y-123540248D01*
X157583552Y-123759947D01*
X157503173Y-123954000D01*
X156554501Y-123954000D01*
X156398401Y-123797900D01*
X156111351Y-123679000D01*
X155800649Y-123679000D01*
X155513599Y-123797900D01*
X155293900Y-124017599D01*
X155175000Y-124304649D01*
X155175000Y-124615351D01*
X155293900Y-124902401D01*
X155513599Y-125122100D01*
X155800649Y-125241000D01*
X156111351Y-125241000D01*
X156398401Y-125122100D01*
X156554501Y-124966000D01*
X157938166Y-124966000D01*
X157988000Y-124975913D01*
X158037834Y-124966000D01*
X158037835Y-124966000D01*
X158044985Y-124964578D01*
X158090301Y-124983348D01*
X158401003Y-124983348D01*
X158688053Y-124864448D01*
X158701200Y-124851301D01*
X158701200Y-127545523D01*
X157944845Y-128301879D01*
X157902595Y-128330109D01*
X157841203Y-128421990D01*
X157790760Y-128497484D01*
X157757174Y-128666325D01*
X157605300Y-128818199D01*
X157486400Y-129105249D01*
X157486400Y-129415951D01*
X157605300Y-129703001D01*
X157824999Y-129922700D01*
X157962851Y-129979800D01*
X154467967Y-129979800D01*
X154381200Y-129962541D01*
X154294433Y-129979800D01*
X153128600Y-129979800D01*
X153128600Y-120258433D01*
X153077483Y-120001451D01*
X152882765Y-119710035D01*
X152591348Y-119515317D01*
X152247600Y-119446941D01*
X151903851Y-119515317D01*
X151612435Y-119710035D01*
X151417717Y-120001452D01*
X151366600Y-120258434D01*
X151366601Y-127833900D01*
X151364548Y-127831847D01*
X151077498Y-127712947D01*
X150766796Y-127712947D01*
X150569200Y-127794794D01*
X150569200Y-123509101D01*
X150725300Y-123353001D01*
X150844200Y-123065951D01*
X150844200Y-122755249D01*
X150725300Y-122468199D01*
X150505601Y-122248500D01*
X150218551Y-122129600D01*
X149907849Y-122129600D01*
X149620799Y-122248500D01*
X149549508Y-122319791D01*
X149505984Y-122276267D01*
X149218934Y-122157367D01*
X148908232Y-122157367D01*
X148621182Y-122276267D01*
X148401483Y-122495966D01*
X148282583Y-122783016D01*
X148282583Y-123093718D01*
X148401483Y-123380768D01*
X148557583Y-123536868D01*
X148557584Y-128769944D01*
X148547670Y-128819783D01*
X148570947Y-128936800D01*
X148586943Y-129017214D01*
X148698778Y-129184589D01*
X148741028Y-129212819D01*
X149465009Y-129936801D01*
X146128960Y-129936801D01*
X146042198Y-129919543D01*
X145955437Y-129936801D01*
X145955432Y-129936801D01*
X145698450Y-129987918D01*
X145407034Y-130182636D01*
X145357884Y-130256194D01*
X144726395Y-130887684D01*
X144652835Y-130936835D01*
X144458117Y-131228252D01*
X144407000Y-131485234D01*
X144407000Y-131485237D01*
X144389742Y-131572000D01*
X144407000Y-131658763D01*
X144407000Y-132050922D01*
X144389742Y-132137685D01*
X144407000Y-132224448D01*
X144407000Y-132224452D01*
X144458117Y-132481434D01*
X144508600Y-132556987D01*
X144508600Y-132745572D01*
X144450273Y-132687245D01*
X143942698Y-132477000D01*
X143393302Y-132477000D01*
X142885727Y-132687245D01*
X142595972Y-132977000D01*
X141588922Y-132977000D01*
X140327000Y-131715079D01*
X140327000Y-123568708D01*
X142607340Y-121288368D01*
X142885727Y-121566755D01*
X143393302Y-121777000D01*
X143942698Y-121777000D01*
X144450273Y-121566755D01*
X144838755Y-121178273D01*
X145049000Y-120670698D01*
X145049000Y-120121302D01*
X144838755Y-119613727D01*
X144703677Y-119478649D01*
X147555000Y-119478649D01*
X147555000Y-119789351D01*
X147673900Y-120076401D01*
X147893599Y-120296100D01*
X148180649Y-120415000D01*
X148491351Y-120415000D01*
X148778401Y-120296100D01*
X148998100Y-120076401D01*
X149117000Y-119789351D01*
X149117000Y-119745368D01*
X151364919Y-117497449D01*
X156521200Y-117497449D01*
X156521200Y-117808151D01*
X156640100Y-118095201D01*
X156859799Y-118314900D01*
X157146849Y-118433800D01*
X157367608Y-118433800D01*
X157503123Y-118569315D01*
X157503122Y-119463021D01*
X157347022Y-119619121D01*
X157228122Y-119906171D01*
X157228122Y-120216873D01*
X157347022Y-120503923D01*
X157566721Y-120723622D01*
X157853771Y-120842522D01*
X158164473Y-120842522D01*
X158451523Y-120723622D01*
X158671222Y-120503923D01*
X158790122Y-120216873D01*
X158790122Y-119906171D01*
X158671222Y-119619121D01*
X158515122Y-119463021D01*
X158515122Y-118409557D01*
X158525035Y-118359722D01*
X158485763Y-118162290D01*
X158406992Y-118044401D01*
X158373928Y-117994916D01*
X158331677Y-117966685D01*
X158083200Y-117718208D01*
X158083200Y-117497449D01*
X157964300Y-117210399D01*
X157744601Y-116990700D01*
X157457551Y-116871800D01*
X157146849Y-116871800D01*
X156859799Y-116990700D01*
X156640100Y-117210399D01*
X156521200Y-117497449D01*
X151364919Y-117497449D01*
X153564235Y-115298133D01*
X153616926Y-115262926D01*
X153756389Y-115054204D01*
X153793000Y-114870148D01*
X153805362Y-114808000D01*
X153793000Y-114745852D01*
X153793000Y-113252464D01*
X154012000Y-113252464D01*
X154160659Y-113222894D01*
X154286686Y-113138686D01*
X154370894Y-113012659D01*
X154400464Y-112864000D01*
X154400464Y-111164000D01*
X164623536Y-111164000D01*
X164623536Y-112864000D01*
X164653106Y-113012659D01*
X164737314Y-113138686D01*
X164863341Y-113222894D01*
X165012000Y-113252464D01*
X166712000Y-113252464D01*
X166860659Y-113222894D01*
X166986686Y-113138686D01*
X167070894Y-113012659D01*
X167100464Y-112864000D01*
X167100464Y-112668895D01*
X167206817Y-112895358D01*
X167635076Y-113285645D01*
X168045110Y-113455476D01*
X168275000Y-113334155D01*
X168275000Y-112141000D01*
X168255000Y-112141000D01*
X168255000Y-111887000D01*
X168275000Y-111887000D01*
X168275000Y-110693845D01*
X168529000Y-110693845D01*
X168529000Y-111887000D01*
X168549000Y-111887000D01*
X168549000Y-112141000D01*
X168529000Y-112141000D01*
X168529000Y-113334155D01*
X168758890Y-113455476D01*
X169168924Y-113285645D01*
X169597183Y-112895358D01*
X169784245Y-112497037D01*
X170054499Y-112901501D01*
X170461688Y-113173576D01*
X170820761Y-113245000D01*
X171063239Y-113245000D01*
X171422312Y-113173576D01*
X171829501Y-112901501D01*
X172101576Y-112494312D01*
X172197116Y-112014000D01*
X172226884Y-112014000D01*
X172322424Y-112494312D01*
X172594499Y-112901501D01*
X173001688Y-113173576D01*
X173360761Y-113245000D01*
X173603239Y-113245000D01*
X173962312Y-113173576D01*
X174369501Y-112901501D01*
X174641576Y-112494312D01*
X174737116Y-112014000D01*
X174766884Y-112014000D01*
X174862424Y-112494312D01*
X175134499Y-112901501D01*
X175541688Y-113173576D01*
X175900761Y-113245000D01*
X176143239Y-113245000D01*
X176502312Y-113173576D01*
X176909501Y-112901501D01*
X177181576Y-112494312D01*
X177277116Y-112014000D01*
X177181576Y-111533688D01*
X176909501Y-111126499D01*
X176502312Y-110854424D01*
X176143239Y-110783000D01*
X175900761Y-110783000D01*
X175541688Y-110854424D01*
X175134499Y-111126499D01*
X174862424Y-111533688D01*
X174766884Y-112014000D01*
X174737116Y-112014000D01*
X174641576Y-111533688D01*
X174369501Y-111126499D01*
X173962312Y-110854424D01*
X173603239Y-110783000D01*
X173360761Y-110783000D01*
X173001688Y-110854424D01*
X172594499Y-111126499D01*
X172322424Y-111533688D01*
X172226884Y-112014000D01*
X172197116Y-112014000D01*
X172101576Y-111533688D01*
X171829501Y-111126499D01*
X171422312Y-110854424D01*
X171063239Y-110783000D01*
X170820761Y-110783000D01*
X170461688Y-110854424D01*
X170054499Y-111126499D01*
X169784245Y-111530963D01*
X169597183Y-111132642D01*
X169168924Y-110742355D01*
X168758890Y-110572524D01*
X168529000Y-110693845D01*
X168275000Y-110693845D01*
X168045110Y-110572524D01*
X167635076Y-110742355D01*
X167206817Y-111132642D01*
X167100464Y-111359105D01*
X167100464Y-111164000D01*
X167070894Y-111015341D01*
X166986686Y-110889314D01*
X166860659Y-110805106D01*
X166712000Y-110775536D01*
X165012000Y-110775536D01*
X164863341Y-110805106D01*
X164737314Y-110889314D01*
X164653106Y-111015341D01*
X164623536Y-111164000D01*
X154400464Y-111164000D01*
X154370894Y-111015341D01*
X154286686Y-110889314D01*
X154160659Y-110805106D01*
X154012000Y-110775536D01*
X152312000Y-110775536D01*
X152163341Y-110805106D01*
X152037314Y-110889314D01*
X151953106Y-111015341D01*
X151923536Y-111164000D01*
X151923536Y-112864000D01*
X151953106Y-113012659D01*
X152037314Y-113138686D01*
X152163341Y-113222894D01*
X152312000Y-113252464D01*
X152531001Y-113252464D01*
X152531001Y-113301848D01*
X152531000Y-113301853D01*
X152531001Y-114546631D01*
X148224632Y-118853000D01*
X148180649Y-118853000D01*
X147893599Y-118971900D01*
X147673900Y-119191599D01*
X147555000Y-119478649D01*
X144703677Y-119478649D01*
X144450273Y-119225245D01*
X143942698Y-119015000D01*
X143393302Y-119015000D01*
X142885727Y-119225245D01*
X142595972Y-119515000D01*
X142340548Y-119515000D01*
X142253786Y-119497742D01*
X142167025Y-119515000D01*
X142167020Y-119515000D01*
X141910038Y-119566117D01*
X141618622Y-119760835D01*
X141569472Y-119834393D01*
X138884394Y-122519472D01*
X138810836Y-122568622D01*
X138761686Y-122642180D01*
X138616117Y-122860039D01*
X138547742Y-123203787D01*
X138565001Y-123290555D01*
X138565000Y-131993237D01*
X138547742Y-132080000D01*
X138565000Y-132166763D01*
X138565000Y-132166766D01*
X138616117Y-132423748D01*
X138810835Y-132715165D01*
X138884396Y-132764317D01*
X140539685Y-134419607D01*
X140588835Y-134493165D01*
X140662392Y-134542314D01*
X140880251Y-134687883D01*
X141224000Y-134756259D01*
X141310767Y-134739000D01*
X142595972Y-134739000D01*
X142885727Y-135028755D01*
X143393302Y-135239000D01*
X143942698Y-135239000D01*
X144450273Y-135028755D01*
X144508601Y-134970427D01*
X144508601Y-137201477D01*
X140750394Y-140959685D01*
X140750391Y-140959687D01*
X140447078Y-141263000D01*
X140340761Y-141263000D01*
X139981688Y-141334424D01*
X139574499Y-141606499D01*
X139304245Y-142010963D01*
X139117183Y-141612642D01*
X138688924Y-141222355D01*
X138278890Y-141052524D01*
X138049000Y-141173845D01*
X138049000Y-142367000D01*
X138069000Y-142367000D01*
X138069000Y-142621000D01*
X138049000Y-142621000D01*
X138049000Y-142641000D01*
X137795000Y-142641000D01*
X137795000Y-142621000D01*
X137775000Y-142621000D01*
X137775000Y-142367000D01*
X137795000Y-142367000D01*
X137795000Y-141173845D01*
X137565110Y-141052524D01*
X137155076Y-141222355D01*
X136726817Y-141612642D01*
X136539755Y-142010963D01*
X136269501Y-141606499D01*
X135862312Y-141334424D01*
X135503239Y-141263000D01*
X135260761Y-141263000D01*
X134901688Y-141334424D01*
X134598811Y-141536800D01*
X134008780Y-141536800D01*
X133962886Y-141468114D01*
X133836859Y-141383906D01*
X133688200Y-141354336D01*
X132338200Y-141354336D01*
X132189541Y-141383906D01*
X132063514Y-141468114D01*
X131994576Y-141571288D01*
X131676833Y-141288322D01*
X131342600Y-141149890D01*
X131140200Y-141273576D01*
X131140200Y-142290800D01*
X131160200Y-142290800D01*
X131160200Y-142544800D01*
X131140200Y-142544800D01*
X131140200Y-142564800D01*
X130886200Y-142564800D01*
X130886200Y-142544800D01*
X130866200Y-142544800D01*
X130866200Y-142290800D01*
X130886200Y-142290800D01*
X130886200Y-141273576D01*
X130683800Y-141149890D01*
X130529000Y-141214005D01*
X130529000Y-127499745D01*
X131077861Y-127499745D01*
X131151995Y-127745864D01*
X131689223Y-127938965D01*
X132259454Y-127911778D01*
X132660005Y-127745864D01*
X132734139Y-127499745D01*
X131906000Y-126671605D01*
X131077861Y-127499745D01*
X130529000Y-127499745D01*
X130529000Y-126948729D01*
X130652136Y-127246005D01*
X130898255Y-127320139D01*
X131726395Y-126492000D01*
X132085605Y-126492000D01*
X132913745Y-127320139D01*
X133159864Y-127246005D01*
X133352965Y-126708777D01*
X133325778Y-126138546D01*
X133159864Y-125737995D01*
X133007165Y-125692000D01*
X135717536Y-125692000D01*
X135717536Y-127292000D01*
X135747106Y-127440659D01*
X135831314Y-127566686D01*
X135957341Y-127650894D01*
X136106000Y-127680464D01*
X137706000Y-127680464D01*
X137854659Y-127650894D01*
X137980686Y-127566686D01*
X138064894Y-127440659D01*
X138094464Y-127292000D01*
X138094464Y-125692000D01*
X138064894Y-125543341D01*
X137980686Y-125417314D01*
X137854659Y-125333106D01*
X137706000Y-125303536D01*
X136106000Y-125303536D01*
X135957341Y-125333106D01*
X135831314Y-125417314D01*
X135747106Y-125543341D01*
X135717536Y-125692000D01*
X133007165Y-125692000D01*
X132913745Y-125663861D01*
X132085605Y-126492000D01*
X131726395Y-126492000D01*
X130898255Y-125663861D01*
X130652136Y-125737995D01*
X130529000Y-126080573D01*
X130529000Y-125484255D01*
X131077861Y-125484255D01*
X131906000Y-126312395D01*
X132734139Y-125484255D01*
X132660005Y-125238136D01*
X132122777Y-125045035D01*
X131552546Y-125072222D01*
X131151995Y-125238136D01*
X131077861Y-125484255D01*
X130529000Y-125484255D01*
X130529000Y-123963595D01*
X132245500Y-123963595D01*
X132245500Y-118225405D01*
X131545096Y-118225405D01*
X131726100Y-118044401D01*
X131845000Y-117757351D01*
X131845000Y-117536591D01*
X135450556Y-113931036D01*
X135492806Y-113902806D01*
X135604641Y-113735431D01*
X135634000Y-113587835D01*
X135634000Y-113587834D01*
X135643913Y-113538000D01*
X135634000Y-113488166D01*
X135634000Y-113151271D01*
X135753000Y-113127600D01*
X135878000Y-113152464D01*
X136428000Y-113152464D01*
X136440106Y-113150056D01*
X136477009Y-113150056D01*
X136552794Y-113142592D01*
X136648927Y-113123470D01*
X136721799Y-113101365D01*
X136812355Y-113063856D01*
X136879517Y-113027957D01*
X136961016Y-112973501D01*
X137019883Y-112925191D01*
X137089191Y-112855883D01*
X137137501Y-112797016D01*
X137168505Y-112750615D01*
X137348401Y-112676100D01*
X137568100Y-112456401D01*
X137588324Y-112407574D01*
X139116200Y-112407574D01*
X139116200Y-113056426D01*
X139364505Y-113655887D01*
X139823313Y-114114695D01*
X140422774Y-114363000D01*
X141071626Y-114363000D01*
X141671087Y-114114695D01*
X142129895Y-113655887D01*
X142378200Y-113056426D01*
X142378200Y-112407574D01*
X142363006Y-112370892D01*
X144100514Y-112370892D01*
X144346817Y-112895358D01*
X144775076Y-113285645D01*
X145185110Y-113455476D01*
X145415000Y-113334155D01*
X145415000Y-112141000D01*
X144221181Y-112141000D01*
X144100514Y-112370892D01*
X142363006Y-112370892D01*
X142129895Y-111808113D01*
X141978890Y-111657108D01*
X144100514Y-111657108D01*
X144221181Y-111887000D01*
X145415000Y-111887000D01*
X145415000Y-110693845D01*
X145669000Y-110693845D01*
X145669000Y-111887000D01*
X145689000Y-111887000D01*
X145689000Y-112141000D01*
X145669000Y-112141000D01*
X145669000Y-113334155D01*
X145898890Y-113455476D01*
X146308924Y-113285645D01*
X146737183Y-112895358D01*
X146924245Y-112497037D01*
X147194499Y-112901501D01*
X147601688Y-113173576D01*
X147960761Y-113245000D01*
X148203239Y-113245000D01*
X148562312Y-113173576D01*
X148969501Y-112901501D01*
X149241576Y-112494312D01*
X149337116Y-112014000D01*
X149366884Y-112014000D01*
X149462424Y-112494312D01*
X149734499Y-112901501D01*
X150141688Y-113173576D01*
X150500761Y-113245000D01*
X150743239Y-113245000D01*
X151102312Y-113173576D01*
X151509501Y-112901501D01*
X151781576Y-112494312D01*
X151877116Y-112014000D01*
X151781576Y-111533688D01*
X151509501Y-111126499D01*
X151102312Y-110854424D01*
X150743239Y-110783000D01*
X150500761Y-110783000D01*
X150141688Y-110854424D01*
X149734499Y-111126499D01*
X149462424Y-111533688D01*
X149366884Y-112014000D01*
X149337116Y-112014000D01*
X149241576Y-111533688D01*
X148969501Y-111126499D01*
X148562312Y-110854424D01*
X148203239Y-110783000D01*
X147960761Y-110783000D01*
X147601688Y-110854424D01*
X147194499Y-111126499D01*
X146924245Y-111530963D01*
X146737183Y-111132642D01*
X146308924Y-110742355D01*
X145898890Y-110572524D01*
X145669000Y-110693845D01*
X145415000Y-110693845D01*
X145185110Y-110572524D01*
X144775076Y-110742355D01*
X144346817Y-111132642D01*
X144100514Y-111657108D01*
X141978890Y-111657108D01*
X141671087Y-111349305D01*
X141071626Y-111101000D01*
X140422774Y-111101000D01*
X139823313Y-111349305D01*
X139364505Y-111808113D01*
X139116200Y-112407574D01*
X137588324Y-112407574D01*
X137687000Y-112169351D01*
X137687000Y-111858649D01*
X137568100Y-111571599D01*
X137348401Y-111351900D01*
X137168505Y-111277385D01*
X137137501Y-111230984D01*
X137089191Y-111172117D01*
X137019883Y-111102809D01*
X136961016Y-111054499D01*
X136879517Y-111000043D01*
X136812355Y-110964144D01*
X136721799Y-110926635D01*
X136648927Y-110904530D01*
X136552794Y-110885408D01*
X136477009Y-110877944D01*
X136440106Y-110877944D01*
X136428000Y-110875536D01*
X135878000Y-110875536D01*
X135753000Y-110900400D01*
X135628000Y-110875536D01*
X134628000Y-110875536D01*
X134503000Y-110900400D01*
X134378000Y-110875536D01*
X133828000Y-110875536D01*
X133815894Y-110877944D01*
X133778991Y-110877944D01*
X133703206Y-110885408D01*
X133607073Y-110904530D01*
X133534201Y-110926635D01*
X133443645Y-110964144D01*
X133376483Y-111000043D01*
X133294984Y-111054499D01*
X133236117Y-111102809D01*
X133166809Y-111172117D01*
X133118499Y-111230984D01*
X133087495Y-111277385D01*
X132907599Y-111351900D01*
X132687900Y-111571599D01*
X132569000Y-111858649D01*
X132569000Y-112169351D01*
X132687900Y-112456401D01*
X132907599Y-112676100D01*
X133087495Y-112750615D01*
X133118499Y-112797016D01*
X133166809Y-112855883D01*
X133236117Y-112925191D01*
X133294984Y-112973501D01*
X133376483Y-113027957D01*
X133443645Y-113063856D01*
X133534201Y-113101365D01*
X133607073Y-113123470D01*
X133703206Y-113142592D01*
X133778991Y-113150056D01*
X133815894Y-113150056D01*
X133828000Y-113152464D01*
X134378000Y-113152464D01*
X134503000Y-113127600D01*
X134622000Y-113151271D01*
X134622000Y-113328408D01*
X131129409Y-116821000D01*
X130908649Y-116821000D01*
X130621599Y-116939900D01*
X130529000Y-117032499D01*
X130529000Y-110463000D01*
X182104736Y-110463000D01*
X182104736Y-111951200D01*
X182104736Y-111951200D01*
G37*
X182104736Y-111951200D02*
X182134306Y-112099859D01*
X182218514Y-112225886D01*
X182302200Y-112281803D01*
X182302200Y-112282551D01*
X182406370Y-112534039D01*
X180710209Y-114230200D01*
X180489449Y-114230200D01*
X180202399Y-114349100D01*
X180124100Y-114427399D01*
X179995001Y-114298300D01*
X179707951Y-114179400D01*
X179487192Y-114179400D01*
X179031238Y-113723447D01*
X179003006Y-113681194D01*
X178835631Y-113569359D01*
X178688035Y-113540000D01*
X178688034Y-113540000D01*
X178638200Y-113530087D01*
X178588366Y-113540000D01*
X178072231Y-113540000D01*
X178022397Y-113530087D01*
X177972563Y-113540000D01*
X177824967Y-113569359D01*
X177657592Y-113681194D01*
X177629359Y-113723448D01*
X177616797Y-113736010D01*
X166292412Y-113736010D01*
X166242578Y-113726097D01*
X166192744Y-113736010D01*
X166192743Y-113736010D01*
X166045147Y-113765369D01*
X165877772Y-113877204D01*
X165849541Y-113919455D01*
X158884646Y-120884351D01*
X158842395Y-120912582D01*
X158750256Y-121050480D01*
X158730560Y-121079957D01*
X158691287Y-121277388D01*
X158701201Y-121327227D01*
X158701201Y-123553396D01*
X158688053Y-123540248D01*
X158401003Y-123421348D01*
X158090301Y-123421348D01*
X157803251Y-123540248D01*
X157583552Y-123759947D01*
X157503173Y-123954000D01*
X156554501Y-123954000D01*
X156398401Y-123797900D01*
X156111351Y-123679000D01*
X155800649Y-123679000D01*
X155513599Y-123797900D01*
X155293900Y-124017599D01*
X155175000Y-124304649D01*
X155175000Y-124615351D01*
X155293900Y-124902401D01*
X155513599Y-125122100D01*
X155800649Y-125241000D01*
X156111351Y-125241000D01*
X156398401Y-125122100D01*
X156554501Y-124966000D01*
X157938166Y-124966000D01*
X157988000Y-124975913D01*
X158037834Y-124966000D01*
X158037835Y-124966000D01*
X158044985Y-124964578D01*
X158090301Y-124983348D01*
X158401003Y-124983348D01*
X158688053Y-124864448D01*
X158701200Y-124851301D01*
X158701200Y-127545523D01*
X157944845Y-128301879D01*
X157902595Y-128330109D01*
X157841203Y-128421990D01*
X157790760Y-128497484D01*
X157757174Y-128666325D01*
X157605300Y-128818199D01*
X157486400Y-129105249D01*
X157486400Y-129415951D01*
X157605300Y-129703001D01*
X157824999Y-129922700D01*
X157962851Y-129979800D01*
X154467967Y-129979800D01*
X154381200Y-129962541D01*
X154294433Y-129979800D01*
X153128600Y-129979800D01*
X153128600Y-120258433D01*
X153077483Y-120001451D01*
X152882765Y-119710035D01*
X152591348Y-119515317D01*
X152247600Y-119446941D01*
X151903851Y-119515317D01*
X151612435Y-119710035D01*
X151417717Y-120001452D01*
X151366600Y-120258434D01*
X151366601Y-127833900D01*
X151364548Y-127831847D01*
X151077498Y-127712947D01*
X150766796Y-127712947D01*
X150569200Y-127794794D01*
X150569200Y-123509101D01*
X150725300Y-123353001D01*
X150844200Y-123065951D01*
X150844200Y-122755249D01*
X150725300Y-122468199D01*
X150505601Y-122248500D01*
X150218551Y-122129600D01*
X149907849Y-122129600D01*
X149620799Y-122248500D01*
X149549508Y-122319791D01*
X149505984Y-122276267D01*
X149218934Y-122157367D01*
X148908232Y-122157367D01*
X148621182Y-122276267D01*
X148401483Y-122495966D01*
X148282583Y-122783016D01*
X148282583Y-123093718D01*
X148401483Y-123380768D01*
X148557583Y-123536868D01*
X148557584Y-128769944D01*
X148547670Y-128819783D01*
X148570947Y-128936800D01*
X148586943Y-129017214D01*
X148698778Y-129184589D01*
X148741028Y-129212819D01*
X149465009Y-129936801D01*
X146128960Y-129936801D01*
X146042198Y-129919543D01*
X145955437Y-129936801D01*
X145955432Y-129936801D01*
X145698450Y-129987918D01*
X145407034Y-130182636D01*
X145357884Y-130256194D01*
X144726395Y-130887684D01*
X144652835Y-130936835D01*
X144458117Y-131228252D01*
X144407000Y-131485234D01*
X144407000Y-131485237D01*
X144389742Y-131572000D01*
X144407000Y-131658763D01*
X144407000Y-132050922D01*
X144389742Y-132137685D01*
X144407000Y-132224448D01*
X144407000Y-132224452D01*
X144458117Y-132481434D01*
X144508600Y-132556987D01*
X144508600Y-132745572D01*
X144450273Y-132687245D01*
X143942698Y-132477000D01*
X143393302Y-132477000D01*
X142885727Y-132687245D01*
X142595972Y-132977000D01*
X141588922Y-132977000D01*
X140327000Y-131715079D01*
X140327000Y-123568708D01*
X142607340Y-121288368D01*
X142885727Y-121566755D01*
X143393302Y-121777000D01*
X143942698Y-121777000D01*
X144450273Y-121566755D01*
X144838755Y-121178273D01*
X145049000Y-120670698D01*
X145049000Y-120121302D01*
X144838755Y-119613727D01*
X144703677Y-119478649D01*
X147555000Y-119478649D01*
X147555000Y-119789351D01*
X147673900Y-120076401D01*
X147893599Y-120296100D01*
X148180649Y-120415000D01*
X148491351Y-120415000D01*
X148778401Y-120296100D01*
X148998100Y-120076401D01*
X149117000Y-119789351D01*
X149117000Y-119745368D01*
X151364919Y-117497449D01*
X156521200Y-117497449D01*
X156521200Y-117808151D01*
X156640100Y-118095201D01*
X156859799Y-118314900D01*
X157146849Y-118433800D01*
X157367608Y-118433800D01*
X157503123Y-118569315D01*
X157503122Y-119463021D01*
X157347022Y-119619121D01*
X157228122Y-119906171D01*
X157228122Y-120216873D01*
X157347022Y-120503923D01*
X157566721Y-120723622D01*
X157853771Y-120842522D01*
X158164473Y-120842522D01*
X158451523Y-120723622D01*
X158671222Y-120503923D01*
X158790122Y-120216873D01*
X158790122Y-119906171D01*
X158671222Y-119619121D01*
X158515122Y-119463021D01*
X158515122Y-118409557D01*
X158525035Y-118359722D01*
X158485763Y-118162290D01*
X158406992Y-118044401D01*
X158373928Y-117994916D01*
X158331677Y-117966685D01*
X158083200Y-117718208D01*
X158083200Y-117497449D01*
X157964300Y-117210399D01*
X157744601Y-116990700D01*
X157457551Y-116871800D01*
X157146849Y-116871800D01*
X156859799Y-116990700D01*
X156640100Y-117210399D01*
X156521200Y-117497449D01*
X151364919Y-117497449D01*
X153564235Y-115298133D01*
X153616926Y-115262926D01*
X153756389Y-115054204D01*
X153793000Y-114870148D01*
X153805362Y-114808000D01*
X153793000Y-114745852D01*
X153793000Y-113252464D01*
X154012000Y-113252464D01*
X154160659Y-113222894D01*
X154286686Y-113138686D01*
X154370894Y-113012659D01*
X154400464Y-112864000D01*
X154400464Y-111164000D01*
X164623536Y-111164000D01*
X164623536Y-112864000D01*
X164653106Y-113012659D01*
X164737314Y-113138686D01*
X164863341Y-113222894D01*
X165012000Y-113252464D01*
X166712000Y-113252464D01*
X166860659Y-113222894D01*
X166986686Y-113138686D01*
X167070894Y-113012659D01*
X167100464Y-112864000D01*
X167100464Y-112668895D01*
X167206817Y-112895358D01*
X167635076Y-113285645D01*
X168045110Y-113455476D01*
X168275000Y-113334155D01*
X168275000Y-112141000D01*
X168255000Y-112141000D01*
X168255000Y-111887000D01*
X168275000Y-111887000D01*
X168275000Y-110693845D01*
X168529000Y-110693845D01*
X168529000Y-111887000D01*
X168549000Y-111887000D01*
X168549000Y-112141000D01*
X168529000Y-112141000D01*
X168529000Y-113334155D01*
X168758890Y-113455476D01*
X169168924Y-113285645D01*
X169597183Y-112895358D01*
X169784245Y-112497037D01*
X170054499Y-112901501D01*
X170461688Y-113173576D01*
X170820761Y-113245000D01*
X171063239Y-113245000D01*
X171422312Y-113173576D01*
X171829501Y-112901501D01*
X172101576Y-112494312D01*
X172197116Y-112014000D01*
X172226884Y-112014000D01*
X172322424Y-112494312D01*
X172594499Y-112901501D01*
X173001688Y-113173576D01*
X173360761Y-113245000D01*
X173603239Y-113245000D01*
X173962312Y-113173576D01*
X174369501Y-112901501D01*
X174641576Y-112494312D01*
X174737116Y-112014000D01*
X174766884Y-112014000D01*
X174862424Y-112494312D01*
X175134499Y-112901501D01*
X175541688Y-113173576D01*
X175900761Y-113245000D01*
X176143239Y-113245000D01*
X176502312Y-113173576D01*
X176909501Y-112901501D01*
X177181576Y-112494312D01*
X177277116Y-112014000D01*
X177181576Y-111533688D01*
X176909501Y-111126499D01*
X176502312Y-110854424D01*
X176143239Y-110783000D01*
X175900761Y-110783000D01*
X175541688Y-110854424D01*
X175134499Y-111126499D01*
X174862424Y-111533688D01*
X174766884Y-112014000D01*
X174737116Y-112014000D01*
X174641576Y-111533688D01*
X174369501Y-111126499D01*
X173962312Y-110854424D01*
X173603239Y-110783000D01*
X173360761Y-110783000D01*
X173001688Y-110854424D01*
X172594499Y-111126499D01*
X172322424Y-111533688D01*
X172226884Y-112014000D01*
X172197116Y-112014000D01*
X172101576Y-111533688D01*
X171829501Y-111126499D01*
X171422312Y-110854424D01*
X171063239Y-110783000D01*
X170820761Y-110783000D01*
X170461688Y-110854424D01*
X170054499Y-111126499D01*
X169784245Y-111530963D01*
X169597183Y-111132642D01*
X169168924Y-110742355D01*
X168758890Y-110572524D01*
X168529000Y-110693845D01*
X168275000Y-110693845D01*
X168045110Y-110572524D01*
X167635076Y-110742355D01*
X167206817Y-111132642D01*
X167100464Y-111359105D01*
X167100464Y-111164000D01*
X167070894Y-111015341D01*
X166986686Y-110889314D01*
X166860659Y-110805106D01*
X166712000Y-110775536D01*
X165012000Y-110775536D01*
X164863341Y-110805106D01*
X164737314Y-110889314D01*
X164653106Y-111015341D01*
X164623536Y-111164000D01*
X154400464Y-111164000D01*
X154370894Y-111015341D01*
X154286686Y-110889314D01*
X154160659Y-110805106D01*
X154012000Y-110775536D01*
X152312000Y-110775536D01*
X152163341Y-110805106D01*
X152037314Y-110889314D01*
X151953106Y-111015341D01*
X151923536Y-111164000D01*
X151923536Y-112864000D01*
X151953106Y-113012659D01*
X152037314Y-113138686D01*
X152163341Y-113222894D01*
X152312000Y-113252464D01*
X152531001Y-113252464D01*
X152531001Y-113301848D01*
X152531000Y-113301853D01*
X152531001Y-114546631D01*
X148224632Y-118853000D01*
X148180649Y-118853000D01*
X147893599Y-118971900D01*
X147673900Y-119191599D01*
X147555000Y-119478649D01*
X144703677Y-119478649D01*
X144450273Y-119225245D01*
X143942698Y-119015000D01*
X143393302Y-119015000D01*
X142885727Y-119225245D01*
X142595972Y-119515000D01*
X142340548Y-119515000D01*
X142253786Y-119497742D01*
X142167025Y-119515000D01*
X142167020Y-119515000D01*
X141910038Y-119566117D01*
X141618622Y-119760835D01*
X141569472Y-119834393D01*
X138884394Y-122519472D01*
X138810836Y-122568622D01*
X138761686Y-122642180D01*
X138616117Y-122860039D01*
X138547742Y-123203787D01*
X138565001Y-123290555D01*
X138565000Y-131993237D01*
X138547742Y-132080000D01*
X138565000Y-132166763D01*
X138565000Y-132166766D01*
X138616117Y-132423748D01*
X138810835Y-132715165D01*
X138884396Y-132764317D01*
X140539685Y-134419607D01*
X140588835Y-134493165D01*
X140662392Y-134542314D01*
X140880251Y-134687883D01*
X141224000Y-134756259D01*
X141310767Y-134739000D01*
X142595972Y-134739000D01*
X142885727Y-135028755D01*
X143393302Y-135239000D01*
X143942698Y-135239000D01*
X144450273Y-135028755D01*
X144508601Y-134970427D01*
X144508601Y-137201477D01*
X140750394Y-140959685D01*
X140750391Y-140959687D01*
X140447078Y-141263000D01*
X140340761Y-141263000D01*
X139981688Y-141334424D01*
X139574499Y-141606499D01*
X139304245Y-142010963D01*
X139117183Y-141612642D01*
X138688924Y-141222355D01*
X138278890Y-141052524D01*
X138049000Y-141173845D01*
X138049000Y-142367000D01*
X138069000Y-142367000D01*
X138069000Y-142621000D01*
X138049000Y-142621000D01*
X138049000Y-142641000D01*
X137795000Y-142641000D01*
X137795000Y-142621000D01*
X137775000Y-142621000D01*
X137775000Y-142367000D01*
X137795000Y-142367000D01*
X137795000Y-141173845D01*
X137565110Y-141052524D01*
X137155076Y-141222355D01*
X136726817Y-141612642D01*
X136539755Y-142010963D01*
X136269501Y-141606499D01*
X135862312Y-141334424D01*
X135503239Y-141263000D01*
X135260761Y-141263000D01*
X134901688Y-141334424D01*
X134598811Y-141536800D01*
X134008780Y-141536800D01*
X133962886Y-141468114D01*
X133836859Y-141383906D01*
X133688200Y-141354336D01*
X132338200Y-141354336D01*
X132189541Y-141383906D01*
X132063514Y-141468114D01*
X131994576Y-141571288D01*
X131676833Y-141288322D01*
X131342600Y-141149890D01*
X131140200Y-141273576D01*
X131140200Y-142290800D01*
X131160200Y-142290800D01*
X131160200Y-142544800D01*
X131140200Y-142544800D01*
X131140200Y-142564800D01*
X130886200Y-142564800D01*
X130886200Y-142544800D01*
X130866200Y-142544800D01*
X130866200Y-142290800D01*
X130886200Y-142290800D01*
X130886200Y-141273576D01*
X130683800Y-141149890D01*
X130529000Y-141214005D01*
X130529000Y-127499745D01*
X131077861Y-127499745D01*
X131151995Y-127745864D01*
X131689223Y-127938965D01*
X132259454Y-127911778D01*
X132660005Y-127745864D01*
X132734139Y-127499745D01*
X131906000Y-126671605D01*
X131077861Y-127499745D01*
X130529000Y-127499745D01*
X130529000Y-126948729D01*
X130652136Y-127246005D01*
X130898255Y-127320139D01*
X131726395Y-126492000D01*
X132085605Y-126492000D01*
X132913745Y-127320139D01*
X133159864Y-127246005D01*
X133352965Y-126708777D01*
X133325778Y-126138546D01*
X133159864Y-125737995D01*
X133007165Y-125692000D01*
X135717536Y-125692000D01*
X135717536Y-127292000D01*
X135747106Y-127440659D01*
X135831314Y-127566686D01*
X135957341Y-127650894D01*
X136106000Y-127680464D01*
X137706000Y-127680464D01*
X137854659Y-127650894D01*
X137980686Y-127566686D01*
X138064894Y-127440659D01*
X138094464Y-127292000D01*
X138094464Y-125692000D01*
X138064894Y-125543341D01*
X137980686Y-125417314D01*
X137854659Y-125333106D01*
X137706000Y-125303536D01*
X136106000Y-125303536D01*
X135957341Y-125333106D01*
X135831314Y-125417314D01*
X135747106Y-125543341D01*
X135717536Y-125692000D01*
X133007165Y-125692000D01*
X132913745Y-125663861D01*
X132085605Y-126492000D01*
X131726395Y-126492000D01*
X130898255Y-125663861D01*
X130652136Y-125737995D01*
X130529000Y-126080573D01*
X130529000Y-125484255D01*
X131077861Y-125484255D01*
X131906000Y-126312395D01*
X132734139Y-125484255D01*
X132660005Y-125238136D01*
X132122777Y-125045035D01*
X131552546Y-125072222D01*
X131151995Y-125238136D01*
X131077861Y-125484255D01*
X130529000Y-125484255D01*
X130529000Y-123963595D01*
X132245500Y-123963595D01*
X132245500Y-118225405D01*
X131545096Y-118225405D01*
X131726100Y-118044401D01*
X131845000Y-117757351D01*
X131845000Y-117536591D01*
X135450556Y-113931036D01*
X135492806Y-113902806D01*
X135604641Y-113735431D01*
X135634000Y-113587835D01*
X135634000Y-113587834D01*
X135643913Y-113538000D01*
X135634000Y-113488166D01*
X135634000Y-113151271D01*
X135753000Y-113127600D01*
X135878000Y-113152464D01*
X136428000Y-113152464D01*
X136440106Y-113150056D01*
X136477009Y-113150056D01*
X136552794Y-113142592D01*
X136648927Y-113123470D01*
X136721799Y-113101365D01*
X136812355Y-113063856D01*
X136879517Y-113027957D01*
X136961016Y-112973501D01*
X137019883Y-112925191D01*
X137089191Y-112855883D01*
X137137501Y-112797016D01*
X137168505Y-112750615D01*
X137348401Y-112676100D01*
X137568100Y-112456401D01*
X137588324Y-112407574D01*
X139116200Y-112407574D01*
X139116200Y-113056426D01*
X139364505Y-113655887D01*
X139823313Y-114114695D01*
X140422774Y-114363000D01*
X141071626Y-114363000D01*
X141671087Y-114114695D01*
X142129895Y-113655887D01*
X142378200Y-113056426D01*
X142378200Y-112407574D01*
X142363006Y-112370892D01*
X144100514Y-112370892D01*
X144346817Y-112895358D01*
X144775076Y-113285645D01*
X145185110Y-113455476D01*
X145415000Y-113334155D01*
X145415000Y-112141000D01*
X144221181Y-112141000D01*
X144100514Y-112370892D01*
X142363006Y-112370892D01*
X142129895Y-111808113D01*
X141978890Y-111657108D01*
X144100514Y-111657108D01*
X144221181Y-111887000D01*
X145415000Y-111887000D01*
X145415000Y-110693845D01*
X145669000Y-110693845D01*
X145669000Y-111887000D01*
X145689000Y-111887000D01*
X145689000Y-112141000D01*
X145669000Y-112141000D01*
X145669000Y-113334155D01*
X145898890Y-113455476D01*
X146308924Y-113285645D01*
X146737183Y-112895358D01*
X146924245Y-112497037D01*
X147194499Y-112901501D01*
X147601688Y-113173576D01*
X147960761Y-113245000D01*
X148203239Y-113245000D01*
X148562312Y-113173576D01*
X148969501Y-112901501D01*
X149241576Y-112494312D01*
X149337116Y-112014000D01*
X149366884Y-112014000D01*
X149462424Y-112494312D01*
X149734499Y-112901501D01*
X150141688Y-113173576D01*
X150500761Y-113245000D01*
X150743239Y-113245000D01*
X151102312Y-113173576D01*
X151509501Y-112901501D01*
X151781576Y-112494312D01*
X151877116Y-112014000D01*
X151781576Y-111533688D01*
X151509501Y-111126499D01*
X151102312Y-110854424D01*
X150743239Y-110783000D01*
X150500761Y-110783000D01*
X150141688Y-110854424D01*
X149734499Y-111126499D01*
X149462424Y-111533688D01*
X149366884Y-112014000D01*
X149337116Y-112014000D01*
X149241576Y-111533688D01*
X148969501Y-111126499D01*
X148562312Y-110854424D01*
X148203239Y-110783000D01*
X147960761Y-110783000D01*
X147601688Y-110854424D01*
X147194499Y-111126499D01*
X146924245Y-111530963D01*
X146737183Y-111132642D01*
X146308924Y-110742355D01*
X145898890Y-110572524D01*
X145669000Y-110693845D01*
X145415000Y-110693845D01*
X145185110Y-110572524D01*
X144775076Y-110742355D01*
X144346817Y-111132642D01*
X144100514Y-111657108D01*
X141978890Y-111657108D01*
X141671087Y-111349305D01*
X141071626Y-111101000D01*
X140422774Y-111101000D01*
X139823313Y-111349305D01*
X139364505Y-111808113D01*
X139116200Y-112407574D01*
X137588324Y-112407574D01*
X137687000Y-112169351D01*
X137687000Y-111858649D01*
X137568100Y-111571599D01*
X137348401Y-111351900D01*
X137168505Y-111277385D01*
X137137501Y-111230984D01*
X137089191Y-111172117D01*
X137019883Y-111102809D01*
X136961016Y-111054499D01*
X136879517Y-111000043D01*
X136812355Y-110964144D01*
X136721799Y-110926635D01*
X136648927Y-110904530D01*
X136552794Y-110885408D01*
X136477009Y-110877944D01*
X136440106Y-110877944D01*
X136428000Y-110875536D01*
X135878000Y-110875536D01*
X135753000Y-110900400D01*
X135628000Y-110875536D01*
X134628000Y-110875536D01*
X134503000Y-110900400D01*
X134378000Y-110875536D01*
X133828000Y-110875536D01*
X133815894Y-110877944D01*
X133778991Y-110877944D01*
X133703206Y-110885408D01*
X133607073Y-110904530D01*
X133534201Y-110926635D01*
X133443645Y-110964144D01*
X133376483Y-111000043D01*
X133294984Y-111054499D01*
X133236117Y-111102809D01*
X133166809Y-111172117D01*
X133118499Y-111230984D01*
X133087495Y-111277385D01*
X132907599Y-111351900D01*
X132687900Y-111571599D01*
X132569000Y-111858649D01*
X132569000Y-112169351D01*
X132687900Y-112456401D01*
X132907599Y-112676100D01*
X133087495Y-112750615D01*
X133118499Y-112797016D01*
X133166809Y-112855883D01*
X133236117Y-112925191D01*
X133294984Y-112973501D01*
X133376483Y-113027957D01*
X133443645Y-113063856D01*
X133534201Y-113101365D01*
X133607073Y-113123470D01*
X133703206Y-113142592D01*
X133778991Y-113150056D01*
X133815894Y-113150056D01*
X133828000Y-113152464D01*
X134378000Y-113152464D01*
X134503000Y-113127600D01*
X134622000Y-113151271D01*
X134622000Y-113328408D01*
X131129409Y-116821000D01*
X130908649Y-116821000D01*
X130621599Y-116939900D01*
X130529000Y-117032499D01*
X130529000Y-110463000D01*
X182104736Y-110463000D01*
X182104736Y-111951200D01*
G36*
X151030401Y-134918875D02*
X151020487Y-134968715D01*
X151059759Y-135166146D01*
X151171594Y-135333521D01*
X151338969Y-135445356D01*
X151486565Y-135474715D01*
X151536400Y-135484628D01*
X151586235Y-135474715D01*
X151777124Y-135474715D01*
X152571500Y-136269092D01*
X152571500Y-136489851D01*
X152591692Y-136538599D01*
X147840834Y-136538599D01*
X147791000Y-136528686D01*
X147741166Y-136538599D01*
X147593570Y-136567958D01*
X147426195Y-136679793D01*
X147397964Y-136722044D01*
X146221873Y-137898136D01*
X146270600Y-137653167D01*
X146287859Y-137566400D01*
X146270600Y-137479633D01*
X146270600Y-132326047D01*
X146287858Y-132239284D01*
X146270600Y-132152519D01*
X146270600Y-132152518D01*
X146219483Y-131895536D01*
X146215839Y-131890082D01*
X146407121Y-131698801D01*
X151030400Y-131698801D01*
X151030401Y-134918875D01*
X151030401Y-134918875D01*
G37*
X151030401Y-134918875D02*
X151020487Y-134968715D01*
X151059759Y-135166146D01*
X151171594Y-135333521D01*
X151338969Y-135445356D01*
X151486565Y-135474715D01*
X151536400Y-135484628D01*
X151586235Y-135474715D01*
X151777124Y-135474715D01*
X152571500Y-136269092D01*
X152571500Y-136489851D01*
X152591692Y-136538599D01*
X147840834Y-136538599D01*
X147791000Y-136528686D01*
X147741166Y-136538599D01*
X147593570Y-136567958D01*
X147426195Y-136679793D01*
X147397964Y-136722044D01*
X146221873Y-137898136D01*
X146270600Y-137653167D01*
X146287859Y-137566400D01*
X146270600Y-137479633D01*
X146270600Y-132326047D01*
X146287858Y-132239284D01*
X146270600Y-132152519D01*
X146270600Y-132152518D01*
X146219483Y-131895536D01*
X146215839Y-131890082D01*
X146407121Y-131698801D01*
X151030400Y-131698801D01*
X151030401Y-134918875D01*
G36*
X153551317Y-131890348D02*
X153568289Y-131915748D01*
X153746036Y-132181765D01*
X153819594Y-132230915D01*
X154124393Y-132535714D01*
X154342252Y-132681282D01*
X154685999Y-132749658D01*
X155029748Y-132681282D01*
X155321164Y-132486564D01*
X155515882Y-132195148D01*
X155584258Y-131851399D01*
X155562457Y-131741800D01*
X163768633Y-131741800D01*
X163855400Y-131759059D01*
X163942167Y-131741800D01*
X172202679Y-131741800D01*
X173822030Y-133361152D01*
X173822031Y-137473537D01*
X173868227Y-137705780D01*
X169968173Y-137705780D01*
X169487800Y-137225408D01*
X169487800Y-137004649D01*
X169368900Y-136717599D01*
X169149201Y-136497900D01*
X168862151Y-136379000D01*
X168551449Y-136379000D01*
X168264399Y-136497900D01*
X168112525Y-136649774D01*
X168091280Y-136654000D01*
X167943684Y-136683359D01*
X167776309Y-136795194D01*
X167748076Y-136837448D01*
X167652124Y-136933400D01*
X162311263Y-136933400D01*
X162426600Y-136654951D01*
X162426600Y-136344249D01*
X162307700Y-136057199D01*
X162088001Y-135837500D01*
X161800951Y-135718600D01*
X161490249Y-135718600D01*
X161203199Y-135837500D01*
X160983500Y-136057199D01*
X160864600Y-136344249D01*
X160864600Y-136546206D01*
X159885841Y-135567447D01*
X159857608Y-135525194D01*
X159690233Y-135413359D01*
X159542637Y-135384000D01*
X159542636Y-135384000D01*
X159492802Y-135374087D01*
X159442968Y-135384000D01*
X157852421Y-135384000D01*
X157802587Y-135374087D01*
X157752753Y-135384000D01*
X157605157Y-135413359D01*
X157437782Y-135525194D01*
X157409551Y-135567445D01*
X156068997Y-136908000D01*
X153883501Y-136908000D01*
X154014600Y-136776901D01*
X154133500Y-136489851D01*
X154133500Y-136179149D01*
X154014600Y-135892099D01*
X153794901Y-135672400D01*
X153507851Y-135553500D01*
X153287092Y-135553500D01*
X152379753Y-134646162D01*
X152351521Y-134603909D01*
X152184146Y-134492074D01*
X152042400Y-134463879D01*
X152042400Y-131741800D01*
X153521769Y-131741800D01*
X153551317Y-131890348D01*
X153551317Y-131890348D01*
G37*
X153551317Y-131890348D02*
X153568289Y-131915748D01*
X153746036Y-132181765D01*
X153819594Y-132230915D01*
X154124393Y-132535714D01*
X154342252Y-132681282D01*
X154685999Y-132749658D01*
X155029748Y-132681282D01*
X155321164Y-132486564D01*
X155515882Y-132195148D01*
X155584258Y-131851399D01*
X155562457Y-131741800D01*
X163768633Y-131741800D01*
X163855400Y-131759059D01*
X163942167Y-131741800D01*
X172202679Y-131741800D01*
X173822030Y-133361152D01*
X173822031Y-137473537D01*
X173868227Y-137705780D01*
X169968173Y-137705780D01*
X169487800Y-137225408D01*
X169487800Y-137004649D01*
X169368900Y-136717599D01*
X169149201Y-136497900D01*
X168862151Y-136379000D01*
X168551449Y-136379000D01*
X168264399Y-136497900D01*
X168112525Y-136649774D01*
X168091280Y-136654000D01*
X167943684Y-136683359D01*
X167776309Y-136795194D01*
X167748076Y-136837448D01*
X167652124Y-136933400D01*
X162311263Y-136933400D01*
X162426600Y-136654951D01*
X162426600Y-136344249D01*
X162307700Y-136057199D01*
X162088001Y-135837500D01*
X161800951Y-135718600D01*
X161490249Y-135718600D01*
X161203199Y-135837500D01*
X160983500Y-136057199D01*
X160864600Y-136344249D01*
X160864600Y-136546206D01*
X159885841Y-135567447D01*
X159857608Y-135525194D01*
X159690233Y-135413359D01*
X159542637Y-135384000D01*
X159542636Y-135384000D01*
X159492802Y-135374087D01*
X159442968Y-135384000D01*
X157852421Y-135384000D01*
X157802587Y-135374087D01*
X157752753Y-135384000D01*
X157605157Y-135413359D01*
X157437782Y-135525194D01*
X157409551Y-135567445D01*
X156068997Y-136908000D01*
X153883501Y-136908000D01*
X154014600Y-136776901D01*
X154133500Y-136489851D01*
X154133500Y-136179149D01*
X154014600Y-135892099D01*
X153794901Y-135672400D01*
X153507851Y-135553500D01*
X153287092Y-135553500D01*
X152379753Y-134646162D01*
X152351521Y-134603909D01*
X152184146Y-134492074D01*
X152042400Y-134463879D01*
X152042400Y-131741800D01*
X153521769Y-131741800D01*
X153551317Y-131890348D01*
G36*
X177527000Y-115377592D02*
X177527000Y-115598351D01*
X177645900Y-115885401D01*
X177865599Y-116105100D01*
X178152649Y-116224000D01*
X178463351Y-116224000D01*
X178750401Y-116105100D01*
X178970100Y-115885401D01*
X179088136Y-115600437D01*
X179110199Y-115622500D01*
X179397249Y-115741400D01*
X179707951Y-115741400D01*
X179995001Y-115622500D01*
X180073300Y-115544201D01*
X180202399Y-115673300D01*
X180489449Y-115792200D01*
X180800151Y-115792200D01*
X181087201Y-115673300D01*
X181229000Y-115531501D01*
X181345399Y-115647900D01*
X181632449Y-115766800D01*
X181853209Y-115766800D01*
X185458633Y-119372225D01*
X185326717Y-119569652D01*
X185258342Y-119913400D01*
X185275601Y-120000168D01*
X185275600Y-123530766D01*
X185275601Y-123530770D01*
X185275600Y-124368663D01*
X183652264Y-125992000D01*
X176642167Y-125992000D01*
X176555400Y-125974741D01*
X176468633Y-125992000D01*
X176211651Y-126043117D01*
X175920235Y-126237835D01*
X175871085Y-126311393D01*
X172202679Y-129979800D01*
X165702921Y-129979800D01*
X165835114Y-129847607D01*
X167693608Y-127989114D01*
X167767165Y-127939965D01*
X167961883Y-127648549D01*
X168013000Y-127391567D01*
X168013000Y-127391566D01*
X168030259Y-127304800D01*
X168013000Y-127218033D01*
X168013000Y-124627233D01*
X167961883Y-124370251D01*
X167767165Y-124078835D01*
X167475749Y-123884117D01*
X167132000Y-123815741D01*
X166788252Y-123884117D01*
X166496836Y-124078835D01*
X166302118Y-124370251D01*
X166251001Y-124627233D01*
X166251000Y-126939878D01*
X164589193Y-128601686D01*
X164182795Y-129008084D01*
X164182792Y-129008086D01*
X163293795Y-129897084D01*
X163220235Y-129946235D01*
X163197808Y-129979800D01*
X159633505Y-129979800D01*
X159709475Y-129948332D01*
X159929174Y-129728633D01*
X160048074Y-129441583D01*
X160048074Y-129226801D01*
X160143714Y-129083664D01*
X160173073Y-128936068D01*
X160173073Y-128936067D01*
X160182986Y-128886234D01*
X160173073Y-128836400D01*
X160173073Y-128630664D01*
X160255000Y-128712592D01*
X160255000Y-128933351D01*
X160373900Y-129220401D01*
X160593599Y-129440100D01*
X160880649Y-129559000D01*
X161191351Y-129559000D01*
X161478401Y-129440100D01*
X161698100Y-129220401D01*
X161817000Y-128933351D01*
X161817000Y-128622649D01*
X161698100Y-128335599D01*
X161478401Y-128115900D01*
X161191351Y-127997000D01*
X160970592Y-127997000D01*
X160623083Y-127649492D01*
X160623083Y-122142432D01*
X160751106Y-122116966D01*
X160918481Y-122005131D01*
X160946714Y-121962877D01*
X165542592Y-117367000D01*
X165763351Y-117367000D01*
X165813438Y-117346253D01*
X165814592Y-117346483D01*
X165814593Y-121275753D01*
X165804679Y-121325592D01*
X165838049Y-121493349D01*
X165843000Y-121518237D01*
X165843000Y-121784351D01*
X165961900Y-122071401D01*
X166181599Y-122291100D01*
X166468649Y-122410000D01*
X166779351Y-122410000D01*
X167066401Y-122291100D01*
X167108847Y-122248654D01*
X167192946Y-122332753D01*
X167479996Y-122451653D01*
X167790698Y-122451653D01*
X168077748Y-122332753D01*
X168297447Y-122113054D01*
X168416347Y-121826004D01*
X168416347Y-121515302D01*
X168297447Y-121228252D01*
X168152537Y-121083342D01*
X168131440Y-120977284D01*
X168116641Y-120902884D01*
X168004806Y-120735509D01*
X167962552Y-120707276D01*
X167836724Y-120581448D01*
X167808491Y-120539194D01*
X167641116Y-120427359D01*
X167493520Y-120398000D01*
X167493519Y-120398000D01*
X167443685Y-120388087D01*
X167393851Y-120398000D01*
X167276602Y-120398000D01*
X167276602Y-119599586D01*
X168262063Y-119599586D01*
X168262063Y-119910288D01*
X168380963Y-120197338D01*
X168600662Y-120417037D01*
X168887712Y-120535937D01*
X169071011Y-120535937D01*
X169071010Y-125131499D01*
X168914910Y-125287599D01*
X168796010Y-125574649D01*
X168796010Y-125885351D01*
X168914910Y-126172401D01*
X169134609Y-126392100D01*
X169421659Y-126511000D01*
X169732361Y-126511000D01*
X170019411Y-126392100D01*
X170239110Y-126172401D01*
X170358010Y-125885351D01*
X170358010Y-125574649D01*
X170239110Y-125287599D01*
X170083010Y-125131499D01*
X170083010Y-120415000D01*
X170245408Y-120415000D01*
X170426616Y-120596208D01*
X170454847Y-120638459D01*
X170622222Y-120750294D01*
X170769818Y-120779653D01*
X170769819Y-120779653D01*
X170819653Y-120789566D01*
X170869487Y-120779653D01*
X177875566Y-120779653D01*
X177899900Y-120838401D01*
X178119599Y-121058100D01*
X178406649Y-121177000D01*
X178717351Y-121177000D01*
X179004401Y-121058100D01*
X179224100Y-120838401D01*
X179343000Y-120551351D01*
X179343000Y-120382008D01*
X179422649Y-120415000D01*
X179733351Y-120415000D01*
X180020401Y-120296100D01*
X180240100Y-120076401D01*
X180359000Y-119789351D01*
X180359000Y-119690000D01*
X180565402Y-119690000D01*
X180852452Y-119571100D01*
X181072151Y-119351401D01*
X181191051Y-119064351D01*
X181191051Y-118753649D01*
X181072151Y-118466599D01*
X180852452Y-118246900D01*
X180565402Y-118128000D01*
X180254700Y-118128000D01*
X179967650Y-118246900D01*
X179811550Y-118403000D01*
X172556501Y-118403000D01*
X172400401Y-118246900D01*
X172113351Y-118128000D01*
X171802649Y-118128000D01*
X171515599Y-118246900D01*
X171468500Y-118293999D01*
X171384401Y-118209900D01*
X171097351Y-118091000D01*
X170786649Y-118091000D01*
X170499599Y-118209900D01*
X170279900Y-118429599D01*
X170161000Y-118716649D01*
X170161000Y-118853000D01*
X170024649Y-118853000D01*
X169737599Y-118971900D01*
X169551063Y-119158436D01*
X169485464Y-119092837D01*
X169198414Y-118973937D01*
X168887712Y-118973937D01*
X168600662Y-119092837D01*
X168380963Y-119312536D01*
X168262063Y-119599586D01*
X167276602Y-119599586D01*
X167276602Y-117186404D01*
X167313017Y-117149990D01*
X168115489Y-117149990D01*
X168213599Y-117248100D01*
X168500649Y-117367000D01*
X168811351Y-117367000D01*
X169098401Y-117248100D01*
X169288457Y-117058045D01*
X169358708Y-117128296D01*
X169645758Y-117247196D01*
X169956460Y-117247196D01*
X170243510Y-117128296D01*
X170463209Y-116908597D01*
X170582109Y-116621547D01*
X170582109Y-116310845D01*
X170463209Y-116023795D01*
X170243510Y-115804096D01*
X169956460Y-115685196D01*
X169735700Y-115685196D01*
X169588950Y-115538446D01*
X169560718Y-115496193D01*
X169393343Y-115384358D01*
X169295019Y-115364800D01*
X177514208Y-115364800D01*
X177527000Y-115377592D01*
X177527000Y-115377592D01*
G37*
X177527000Y-115377592D02*
X177527000Y-115598351D01*
X177645900Y-115885401D01*
X177865599Y-116105100D01*
X178152649Y-116224000D01*
X178463351Y-116224000D01*
X178750401Y-116105100D01*
X178970100Y-115885401D01*
X179088136Y-115600437D01*
X179110199Y-115622500D01*
X179397249Y-115741400D01*
X179707951Y-115741400D01*
X179995001Y-115622500D01*
X180073300Y-115544201D01*
X180202399Y-115673300D01*
X180489449Y-115792200D01*
X180800151Y-115792200D01*
X181087201Y-115673300D01*
X181229000Y-115531501D01*
X181345399Y-115647900D01*
X181632449Y-115766800D01*
X181853209Y-115766800D01*
X185458633Y-119372225D01*
X185326717Y-119569652D01*
X185258342Y-119913400D01*
X185275601Y-120000168D01*
X185275600Y-123530766D01*
X185275601Y-123530770D01*
X185275600Y-124368663D01*
X183652264Y-125992000D01*
X176642167Y-125992000D01*
X176555400Y-125974741D01*
X176468633Y-125992000D01*
X176211651Y-126043117D01*
X175920235Y-126237835D01*
X175871085Y-126311393D01*
X172202679Y-129979800D01*
X165702921Y-129979800D01*
X165835114Y-129847607D01*
X167693608Y-127989114D01*
X167767165Y-127939965D01*
X167961883Y-127648549D01*
X168013000Y-127391567D01*
X168013000Y-127391566D01*
X168030259Y-127304800D01*
X168013000Y-127218033D01*
X168013000Y-124627233D01*
X167961883Y-124370251D01*
X167767165Y-124078835D01*
X167475749Y-123884117D01*
X167132000Y-123815741D01*
X166788252Y-123884117D01*
X166496836Y-124078835D01*
X166302118Y-124370251D01*
X166251001Y-124627233D01*
X166251000Y-126939878D01*
X164589193Y-128601686D01*
X164182795Y-129008084D01*
X164182792Y-129008086D01*
X163293795Y-129897084D01*
X163220235Y-129946235D01*
X163197808Y-129979800D01*
X159633505Y-129979800D01*
X159709475Y-129948332D01*
X159929174Y-129728633D01*
X160048074Y-129441583D01*
X160048074Y-129226801D01*
X160143714Y-129083664D01*
X160173073Y-128936068D01*
X160173073Y-128936067D01*
X160182986Y-128886234D01*
X160173073Y-128836400D01*
X160173073Y-128630664D01*
X160255000Y-128712592D01*
X160255000Y-128933351D01*
X160373900Y-129220401D01*
X160593599Y-129440100D01*
X160880649Y-129559000D01*
X161191351Y-129559000D01*
X161478401Y-129440100D01*
X161698100Y-129220401D01*
X161817000Y-128933351D01*
X161817000Y-128622649D01*
X161698100Y-128335599D01*
X161478401Y-128115900D01*
X161191351Y-127997000D01*
X160970592Y-127997000D01*
X160623083Y-127649492D01*
X160623083Y-122142432D01*
X160751106Y-122116966D01*
X160918481Y-122005131D01*
X160946714Y-121962877D01*
X165542592Y-117367000D01*
X165763351Y-117367000D01*
X165813438Y-117346253D01*
X165814592Y-117346483D01*
X165814593Y-121275753D01*
X165804679Y-121325592D01*
X165838049Y-121493349D01*
X165843000Y-121518237D01*
X165843000Y-121784351D01*
X165961900Y-122071401D01*
X166181599Y-122291100D01*
X166468649Y-122410000D01*
X166779351Y-122410000D01*
X167066401Y-122291100D01*
X167108847Y-122248654D01*
X167192946Y-122332753D01*
X167479996Y-122451653D01*
X167790698Y-122451653D01*
X168077748Y-122332753D01*
X168297447Y-122113054D01*
X168416347Y-121826004D01*
X168416347Y-121515302D01*
X168297447Y-121228252D01*
X168152537Y-121083342D01*
X168131440Y-120977284D01*
X168116641Y-120902884D01*
X168004806Y-120735509D01*
X167962552Y-120707276D01*
X167836724Y-120581448D01*
X167808491Y-120539194D01*
X167641116Y-120427359D01*
X167493520Y-120398000D01*
X167493519Y-120398000D01*
X167443685Y-120388087D01*
X167393851Y-120398000D01*
X167276602Y-120398000D01*
X167276602Y-119599586D01*
X168262063Y-119599586D01*
X168262063Y-119910288D01*
X168380963Y-120197338D01*
X168600662Y-120417037D01*
X168887712Y-120535937D01*
X169071011Y-120535937D01*
X169071010Y-125131499D01*
X168914910Y-125287599D01*
X168796010Y-125574649D01*
X168796010Y-125885351D01*
X168914910Y-126172401D01*
X169134609Y-126392100D01*
X169421659Y-126511000D01*
X169732361Y-126511000D01*
X170019411Y-126392100D01*
X170239110Y-126172401D01*
X170358010Y-125885351D01*
X170358010Y-125574649D01*
X170239110Y-125287599D01*
X170083010Y-125131499D01*
X170083010Y-120415000D01*
X170245408Y-120415000D01*
X170426616Y-120596208D01*
X170454847Y-120638459D01*
X170622222Y-120750294D01*
X170769818Y-120779653D01*
X170769819Y-120779653D01*
X170819653Y-120789566D01*
X170869487Y-120779653D01*
X177875566Y-120779653D01*
X177899900Y-120838401D01*
X178119599Y-121058100D01*
X178406649Y-121177000D01*
X178717351Y-121177000D01*
X179004401Y-121058100D01*
X179224100Y-120838401D01*
X179343000Y-120551351D01*
X179343000Y-120382008D01*
X179422649Y-120415000D01*
X179733351Y-120415000D01*
X180020401Y-120296100D01*
X180240100Y-120076401D01*
X180359000Y-119789351D01*
X180359000Y-119690000D01*
X180565402Y-119690000D01*
X180852452Y-119571100D01*
X181072151Y-119351401D01*
X181191051Y-119064351D01*
X181191051Y-118753649D01*
X181072151Y-118466599D01*
X180852452Y-118246900D01*
X180565402Y-118128000D01*
X180254700Y-118128000D01*
X179967650Y-118246900D01*
X179811550Y-118403000D01*
X172556501Y-118403000D01*
X172400401Y-118246900D01*
X172113351Y-118128000D01*
X171802649Y-118128000D01*
X171515599Y-118246900D01*
X171468500Y-118293999D01*
X171384401Y-118209900D01*
X171097351Y-118091000D01*
X170786649Y-118091000D01*
X170499599Y-118209900D01*
X170279900Y-118429599D01*
X170161000Y-118716649D01*
X170161000Y-118853000D01*
X170024649Y-118853000D01*
X169737599Y-118971900D01*
X169551063Y-119158436D01*
X169485464Y-119092837D01*
X169198414Y-118973937D01*
X168887712Y-118973937D01*
X168600662Y-119092837D01*
X168380963Y-119312536D01*
X168262063Y-119599586D01*
X167276602Y-119599586D01*
X167276602Y-117186404D01*
X167313017Y-117149990D01*
X168115489Y-117149990D01*
X168213599Y-117248100D01*
X168500649Y-117367000D01*
X168811351Y-117367000D01*
X169098401Y-117248100D01*
X169288457Y-117058045D01*
X169358708Y-117128296D01*
X169645758Y-117247196D01*
X169956460Y-117247196D01*
X170243510Y-117128296D01*
X170463209Y-116908597D01*
X170582109Y-116621547D01*
X170582109Y-116310845D01*
X170463209Y-116023795D01*
X170243510Y-115804096D01*
X169956460Y-115685196D01*
X169735700Y-115685196D01*
X169588950Y-115538446D01*
X169560718Y-115496193D01*
X169393343Y-115384358D01*
X169295019Y-115364800D01*
X177514208Y-115364800D01*
X177527000Y-115377592D01*
G04 #@! TD*
M02*
