M48
;DRILL file {KiCad (5.0.2)-1} date 27.11.2019 09:51:50
;FORMAT={-:-/ absolute / metric / decimal}
FMAT,2
METRIC,TZ
T1C0.400
T2C0.800
T3C1.000
T4C1.200
T5C2.500
%
G90
G05
T1
X131.064Y-117.602
X133.096Y-113.792
X133.35Y-112.014
X136.144Y-135.445
X136.906Y-112.014
X137.16Y-114.808
X141.968Y-122.791
X142.24Y-129.032
X145.237Y-139.624
X145.288Y-131.572
X147.066Y-133.096
X147.066Y-136.652
X148.336Y-119.634
X149.064Y-122.938
X150.063Y-122.911
X150.724Y-129.718
X150.922Y-128.494
X152.248Y-120.345
X152.363Y-137.77
X153.352Y-136.334
X154.178Y-118.364
X154.553Y-133.483
X154.686Y-131.851
X154.94Y-140.023
X155.194Y-110.744
X155.956Y-124.46
X156.718Y-139.517
X156.887Y-127.191
X156.909Y-125.857
X156.909Y-141.16
X157.226Y-114.808
X157.302Y-117.653
X157.48Y-137.922
X157.652Y-139.067
X158.009Y-120.062
X158.242Y-125.806
X158.242Y-127.191
X158.246Y-124.202
X158.267Y-129.261
X159.267Y-129.286
X159.283Y-136.754
X161.036Y-128.778
X161.646Y-136.5
X162.814Y-130.861
X163.068Y-122.428
X164.338Y-136.652
X165.151Y-129.286
X165.608Y-116.586
X165.608Y-135.179
X165.608Y-136.652
X166.624Y-121.629
X166.624Y-133.35
X166.624Y-140.716
X167.132Y-124.714
X167.635Y-121.671
X168.25Y-134.137
X168.402Y-132.588
X168.656Y-116.586
X168.707Y-137.16
X169.038Y-135.794
X169.043Y-119.755
X169.577Y-125.73
X169.801Y-116.466
X170.18Y-119.634
X170.942Y-118.872
X171.958Y-118.909
X172.212Y-121.666
X172.275Y-117.03
X173.324Y-135.794
X174.703Y-137.387
X175.006Y-121.666
X175.008Y-138.937
X177.038Y-135.953
X177.736Y-136.906
X177.8Y-122.682
X177.8Y-124.46
X178.054Y-140.97
X178.054Y-142.494
X178.308Y-115.443
X178.562Y-120.396
X179.324Y-122.682
X179.324Y-124.46
X179.387Y-136.969
X179.553Y-114.96
X179.578Y-119.634
X180.41Y-118.909
X180.594Y-137.414
X180.645Y-115.011
X181.102Y-122.682
X181.102Y-124.46
X181.788Y-114.986
X183.083Y-112.127
X183.261Y-137.414
X183.451Y-126.873
X184.15Y-119.888
X184.443Y-111.201
X184.963Y-115.477
X185.039Y-139.954
X186.944Y-119.126
X187.198Y-112.776
X187.198Y-113.829
X187.368Y-127.127
X188.468Y-115.316
X189.484Y-113.792
X190.5Y-112.776
X190.5Y-115.062
T2
X131.013Y-142.418
X133.013Y-142.418
X131.906Y-126.492
X136.906Y-126.492
T3
X165.862Y-112.014
X168.402Y-112.014
X170.942Y-112.014
X173.482Y-112.014
X176.022Y-112.014
X189.738Y-137.16
X145.542Y-112.014
X148.082Y-112.014
X150.622Y-112.014
X153.162Y-112.014
X183.667Y-142.545
X186.207Y-142.545
X188.747Y-142.545
X135.382Y-142.494
X137.922Y-142.494
X140.462Y-142.494
X143.002Y-142.494
X145.542Y-142.494
X148.082Y-142.494
X150.622Y-142.494
X153.162Y-142.494
X155.702Y-142.494
X158.242Y-142.494
X160.782Y-142.494
X163.322Y-142.494
X165.862Y-142.494
X168.402Y-142.494
X170.942Y-142.494
X173.482Y-142.494
X176.022Y-142.494
T4
X189.814Y-140.183
X143.668Y-120.396
X188.468Y-120.396
X143.668Y-133.858
X188.468Y-133.858
T5
X180.747Y-141.232
X140.747Y-112.732
T0
M30
