G04 #@! TF.GenerationSoftware,KiCad,Pcbnew,(5.0.2)-1*
G04 #@! TF.CreationDate,2019-11-27T09:51:45+01:00*
G04 #@! TF.ProjectId,LoRa_Tracker,4c6f5261-5f54-4726-9163-6b65722e6b69,rev?*
G04 #@! TF.SameCoordinates,Original*
G04 #@! TF.FileFunction,Legend,Bot*
G04 #@! TF.FilePolarity,Positive*
%FSLAX46Y46*%
G04 Gerber Fmt 4.6, Leading zero omitted, Abs format (unit mm)*
G04 Created by KiCad (PCBNEW (5.0.2)-1) date 27.11.2019 09:51:45*
%MOMM*%
%LPD*%
G01*
G04 APERTURE LIST*
%ADD10C,0.100000*%
%ADD11C,0.300000*%
%ADD12C,0.200000*%
%ADD13C,0.010000*%
%ADD14C,0.120000*%
%ADD15C,0.400000*%
%ADD16C,0.150000*%
%ADD17C,0.250000*%
G04 APERTURE END LIST*
D10*
X130958452Y-118942119D02*
X130958452Y-118751642D01*
X130558452Y-118751642D01*
X130958452Y-119075452D02*
X130691785Y-119075452D01*
X130558452Y-119075452D02*
X130577500Y-119056404D01*
X130596547Y-119075452D01*
X130577500Y-119094500D01*
X130558452Y-119075452D01*
X130596547Y-119075452D01*
X130939404Y-119437357D02*
X130958452Y-119399261D01*
X130958452Y-119323071D01*
X130939404Y-119284976D01*
X130920357Y-119265928D01*
X130882261Y-119246880D01*
X130767976Y-119246880D01*
X130729880Y-119265928D01*
X130710833Y-119284976D01*
X130691785Y-119323071D01*
X130691785Y-119399261D01*
X130710833Y-119437357D01*
X130939404Y-119761166D02*
X130958452Y-119723071D01*
X130958452Y-119646880D01*
X130939404Y-119608785D01*
X130901309Y-119589738D01*
X130748928Y-119589738D01*
X130710833Y-119608785D01*
X130691785Y-119646880D01*
X130691785Y-119723071D01*
X130710833Y-119761166D01*
X130748928Y-119780214D01*
X130787023Y-119780214D01*
X130825119Y-119589738D01*
X130691785Y-119951642D02*
X130958452Y-119951642D01*
X130729880Y-119951642D02*
X130710833Y-119970690D01*
X130691785Y-120008785D01*
X130691785Y-120065928D01*
X130710833Y-120104023D01*
X130748928Y-120123071D01*
X130958452Y-120123071D01*
X130939404Y-120294500D02*
X130958452Y-120332595D01*
X130958452Y-120408785D01*
X130939404Y-120446880D01*
X130901309Y-120465928D01*
X130882261Y-120465928D01*
X130844166Y-120446880D01*
X130825119Y-120408785D01*
X130825119Y-120351642D01*
X130806071Y-120313547D01*
X130767976Y-120294500D01*
X130748928Y-120294500D01*
X130710833Y-120313547D01*
X130691785Y-120351642D01*
X130691785Y-120408785D01*
X130710833Y-120446880D01*
X130939404Y-120789738D02*
X130958452Y-120751642D01*
X130958452Y-120675452D01*
X130939404Y-120637357D01*
X130901309Y-120618309D01*
X130748928Y-120618309D01*
X130710833Y-120637357D01*
X130691785Y-120675452D01*
X130691785Y-120751642D01*
X130710833Y-120789738D01*
X130748928Y-120808785D01*
X130787023Y-120808785D01*
X130825119Y-120618309D01*
X130958452Y-121151642D02*
X130558452Y-121151642D01*
X130939404Y-121151642D02*
X130958452Y-121113547D01*
X130958452Y-121037357D01*
X130939404Y-120999261D01*
X130920357Y-120980214D01*
X130882261Y-120961166D01*
X130767976Y-120961166D01*
X130729880Y-120980214D01*
X130710833Y-120999261D01*
X130691785Y-121037357D01*
X130691785Y-121113547D01*
X130710833Y-121151642D01*
X130691785Y-121818309D02*
X130958452Y-121818309D01*
X130691785Y-121646880D02*
X130901309Y-121646880D01*
X130939404Y-121665928D01*
X130958452Y-121704023D01*
X130958452Y-121761166D01*
X130939404Y-121799261D01*
X130920357Y-121818309D01*
X130691785Y-122008785D02*
X130958452Y-122008785D01*
X130729880Y-122008785D02*
X130710833Y-122027833D01*
X130691785Y-122065928D01*
X130691785Y-122123071D01*
X130710833Y-122161166D01*
X130748928Y-122180214D01*
X130958452Y-122180214D01*
X130958452Y-122542119D02*
X130558452Y-122542119D01*
X130939404Y-122542119D02*
X130958452Y-122504023D01*
X130958452Y-122427833D01*
X130939404Y-122389738D01*
X130920357Y-122370690D01*
X130882261Y-122351642D01*
X130767976Y-122351642D01*
X130729880Y-122370690D01*
X130710833Y-122389738D01*
X130691785Y-122427833D01*
X130691785Y-122504023D01*
X130710833Y-122542119D01*
X130939404Y-122884976D02*
X130958452Y-122846880D01*
X130958452Y-122770690D01*
X130939404Y-122732595D01*
X130901309Y-122713547D01*
X130748928Y-122713547D01*
X130710833Y-122732595D01*
X130691785Y-122770690D01*
X130691785Y-122846880D01*
X130710833Y-122884976D01*
X130748928Y-122904023D01*
X130787023Y-122904023D01*
X130825119Y-122713547D01*
X130958452Y-123075452D02*
X130691785Y-123075452D01*
X130767976Y-123075452D02*
X130729880Y-123094500D01*
X130710833Y-123113547D01*
X130691785Y-123151642D01*
X130691785Y-123189738D01*
X131620357Y-119018309D02*
X131639404Y-118999261D01*
X131658452Y-118942119D01*
X131658452Y-118904023D01*
X131639404Y-118846880D01*
X131601309Y-118808785D01*
X131563214Y-118789738D01*
X131487023Y-118770690D01*
X131429880Y-118770690D01*
X131353690Y-118789738D01*
X131315595Y-118808785D01*
X131277500Y-118846880D01*
X131258452Y-118904023D01*
X131258452Y-118942119D01*
X131277500Y-118999261D01*
X131296547Y-119018309D01*
X131448928Y-119189738D02*
X131448928Y-119323071D01*
X131658452Y-119380214D02*
X131658452Y-119189738D01*
X131258452Y-119189738D01*
X131258452Y-119380214D01*
X131658452Y-119780214D02*
X131467976Y-119646880D01*
X131658452Y-119551642D02*
X131258452Y-119551642D01*
X131258452Y-119704023D01*
X131277500Y-119742119D01*
X131296547Y-119761166D01*
X131334642Y-119780214D01*
X131391785Y-119780214D01*
X131429880Y-119761166D01*
X131448928Y-119742119D01*
X131467976Y-119704023D01*
X131467976Y-119551642D01*
X131658452Y-119951642D02*
X131258452Y-119951642D01*
X131658452Y-120180214D01*
X131258452Y-120180214D01*
X131258452Y-120751642D02*
X131258452Y-120827833D01*
X131277500Y-120865928D01*
X131315595Y-120904023D01*
X131391785Y-120923071D01*
X131525119Y-120923071D01*
X131601309Y-120904023D01*
X131639404Y-120865928D01*
X131658452Y-120827833D01*
X131658452Y-120751642D01*
X131639404Y-120713547D01*
X131601309Y-120675452D01*
X131525119Y-120656404D01*
X131391785Y-120656404D01*
X131315595Y-120675452D01*
X131277500Y-120713547D01*
X131258452Y-120751642D01*
X131658452Y-121094500D02*
X131258452Y-121094500D01*
X131448928Y-121094500D02*
X131448928Y-121323071D01*
X131658452Y-121323071D02*
X131258452Y-121323071D01*
X131658452Y-121704023D02*
X131658452Y-121513547D01*
X131258452Y-121513547D01*
X131391785Y-122104023D02*
X131658452Y-122199261D01*
X131391785Y-122294500D01*
X131620357Y-122446880D02*
X131639404Y-122465928D01*
X131658452Y-122446880D01*
X131639404Y-122427833D01*
X131620357Y-122446880D01*
X131658452Y-122446880D01*
X131658452Y-122846880D02*
X131658452Y-122618309D01*
X131658452Y-122732595D02*
X131258452Y-122732595D01*
X131315595Y-122694500D01*
X131353690Y-122656404D01*
X131372738Y-122618309D01*
X131620357Y-123018309D02*
X131639404Y-123037357D01*
X131658452Y-123018309D01*
X131639404Y-122999261D01*
X131620357Y-123018309D01*
X131658452Y-123018309D01*
X131296547Y-123189738D02*
X131277500Y-123208785D01*
X131258452Y-123246880D01*
X131258452Y-123342119D01*
X131277500Y-123380214D01*
X131296547Y-123399261D01*
X131334642Y-123418309D01*
X131372738Y-123418309D01*
X131429880Y-123399261D01*
X131658452Y-123170690D01*
X131658452Y-123418309D01*
D11*
X136806571Y-115764571D02*
X136806571Y-116978857D01*
X136735142Y-117121714D01*
X136663714Y-117193142D01*
X136520857Y-117264571D01*
X136235142Y-117264571D01*
X136092285Y-117193142D01*
X136020857Y-117121714D01*
X135949428Y-116978857D01*
X135949428Y-115764571D01*
X135449428Y-115764571D02*
X134949428Y-117264571D01*
X134449428Y-115764571D01*
X133235142Y-117264571D02*
X133949428Y-117264571D01*
X133949428Y-115764571D01*
D12*
X186044523Y-131068166D02*
X186104047Y-131008642D01*
X186223095Y-130830071D01*
X186282619Y-130711023D01*
X186342142Y-130532452D01*
X186401666Y-130234833D01*
X186401666Y-129996738D01*
X186342142Y-129699119D01*
X186282619Y-129520547D01*
X186223095Y-129401500D01*
X186104047Y-129222928D01*
X186044523Y-129163404D01*
X185032619Y-130532452D02*
X185151666Y-130591976D01*
X185389761Y-130591976D01*
X185508809Y-130532452D01*
X185568333Y-130472928D01*
X185627857Y-130353880D01*
X185627857Y-129996738D01*
X185568333Y-129877690D01*
X185508809Y-129818166D01*
X185389761Y-129758642D01*
X185151666Y-129758642D01*
X185032619Y-129818166D01*
X184615952Y-131068166D02*
X184556428Y-131008642D01*
X184437380Y-130830071D01*
X184377857Y-130711023D01*
X184318333Y-130532452D01*
X184258809Y-130234833D01*
X184258809Y-129996738D01*
X184318333Y-129699119D01*
X184377857Y-129520547D01*
X184437380Y-129401500D01*
X184556428Y-129222928D01*
X184615952Y-129163404D01*
X182711190Y-129937214D02*
X182294523Y-129937214D01*
X182115952Y-130591976D02*
X182711190Y-130591976D01*
X182711190Y-129341976D01*
X182115952Y-129341976D01*
X181401666Y-130591976D02*
X181520714Y-130532452D01*
X181580238Y-130413404D01*
X181580238Y-129341976D01*
X180449285Y-130532452D02*
X180568333Y-130591976D01*
X180806428Y-130591976D01*
X180925476Y-130532452D01*
X180985000Y-130413404D01*
X180985000Y-129937214D01*
X180925476Y-129818166D01*
X180806428Y-129758642D01*
X180568333Y-129758642D01*
X180449285Y-129818166D01*
X180389761Y-129937214D01*
X180389761Y-130056261D01*
X180985000Y-130175309D01*
X179854047Y-130591976D02*
X179854047Y-129341976D01*
X179735000Y-130115785D02*
X179377857Y-130591976D01*
X179377857Y-129758642D02*
X179854047Y-130234833D01*
X179020714Y-129758642D02*
X178544523Y-129758642D01*
X178842142Y-129341976D02*
X178842142Y-130413404D01*
X178782619Y-130532452D01*
X178663571Y-130591976D01*
X178544523Y-130591976D01*
X177949285Y-130591976D02*
X178068333Y-130532452D01*
X178127857Y-130472928D01*
X178187380Y-130353880D01*
X178187380Y-129996738D01*
X178127857Y-129877690D01*
X178068333Y-129818166D01*
X177949285Y-129758642D01*
X177770714Y-129758642D01*
X177651666Y-129818166D01*
X177592142Y-129877690D01*
X177532619Y-129996738D01*
X177532619Y-130353880D01*
X177592142Y-130472928D01*
X177651666Y-130532452D01*
X177770714Y-130591976D01*
X177949285Y-130591976D01*
X176996904Y-130591976D02*
X176996904Y-129758642D01*
X176996904Y-129996738D02*
X176937380Y-129877690D01*
X176877857Y-129818166D01*
X176758809Y-129758642D01*
X176639761Y-129758642D01*
X185598095Y-132666976D02*
X186312380Y-132666976D01*
X185955238Y-132666976D02*
X185955238Y-131416976D01*
X186074285Y-131595547D01*
X186193333Y-131714595D01*
X186312380Y-131774119D01*
X184883809Y-131952690D02*
X185002857Y-131893166D01*
X185062380Y-131833642D01*
X185121904Y-131714595D01*
X185121904Y-131655071D01*
X185062380Y-131536023D01*
X185002857Y-131476500D01*
X184883809Y-131416976D01*
X184645714Y-131416976D01*
X184526666Y-131476500D01*
X184467142Y-131536023D01*
X184407619Y-131655071D01*
X184407619Y-131714595D01*
X184467142Y-131833642D01*
X184526666Y-131893166D01*
X184645714Y-131952690D01*
X184883809Y-131952690D01*
X185002857Y-132012214D01*
X185062380Y-132071738D01*
X185121904Y-132190785D01*
X185121904Y-132428880D01*
X185062380Y-132547928D01*
X185002857Y-132607452D01*
X184883809Y-132666976D01*
X184645714Y-132666976D01*
X184526666Y-132607452D01*
X184467142Y-132547928D01*
X184407619Y-132428880D01*
X184407619Y-132190785D01*
X184467142Y-132071738D01*
X184526666Y-132012214D01*
X184645714Y-131952690D01*
X183633809Y-131416976D02*
X183514761Y-131416976D01*
X183395714Y-131476500D01*
X183336190Y-131536023D01*
X183276666Y-131655071D01*
X183217142Y-131893166D01*
X183217142Y-132190785D01*
X183276666Y-132428880D01*
X183336190Y-132547928D01*
X183395714Y-132607452D01*
X183514761Y-132666976D01*
X183633809Y-132666976D01*
X183752857Y-132607452D01*
X183812380Y-132547928D01*
X183871904Y-132428880D01*
X183931428Y-132190785D01*
X183931428Y-131893166D01*
X183871904Y-131655071D01*
X183812380Y-131536023D01*
X183752857Y-131476500D01*
X183633809Y-131416976D01*
X182086190Y-131416976D02*
X182681428Y-131416976D01*
X182740952Y-132012214D01*
X182681428Y-131952690D01*
X182562380Y-131893166D01*
X182264761Y-131893166D01*
X182145714Y-131952690D01*
X182086190Y-132012214D01*
X182026666Y-132131261D01*
X182026666Y-132428880D01*
X182086190Y-132547928D01*
X182145714Y-132607452D01*
X182264761Y-132666976D01*
X182562380Y-132666976D01*
X182681428Y-132607452D01*
X182740952Y-132547928D01*
X180836190Y-132666976D02*
X181550476Y-132666976D01*
X181193333Y-132666976D02*
X181193333Y-131416976D01*
X181312380Y-131595547D01*
X181431428Y-131714595D01*
X181550476Y-131774119D01*
X179764761Y-131416976D02*
X180002857Y-131416976D01*
X180121904Y-131476500D01*
X180181428Y-131536023D01*
X180300476Y-131714595D01*
X180360000Y-131952690D01*
X180360000Y-132428880D01*
X180300476Y-132547928D01*
X180240952Y-132607452D01*
X180121904Y-132666976D01*
X179883809Y-132666976D01*
X179764761Y-132607452D01*
X179705238Y-132547928D01*
X179645714Y-132428880D01*
X179645714Y-132131261D01*
X179705238Y-132012214D01*
X179764761Y-131952690D01*
X179883809Y-131893166D01*
X180121904Y-131893166D01*
X180240952Y-131952690D01*
X180300476Y-132012214D01*
X180360000Y-132131261D01*
X179110000Y-132190785D02*
X178157619Y-132190785D01*
X176907619Y-132666976D02*
X177621904Y-132666976D01*
X177264761Y-132666976D02*
X177264761Y-131416976D01*
X177383809Y-131595547D01*
X177502857Y-131714595D01*
X177621904Y-131774119D01*
D11*
X130877571Y-112236428D02*
X130877571Y-112522142D01*
X130949000Y-112665000D01*
X131091857Y-112807857D01*
X131377571Y-112879285D01*
X131877571Y-112879285D01*
X132163285Y-112807857D01*
X132306142Y-112665000D01*
X132377571Y-112522142D01*
X132377571Y-112236428D01*
X132306142Y-112093571D01*
X132163285Y-111950714D01*
X131877571Y-111879285D01*
X131377571Y-111879285D01*
X131091857Y-111950714D01*
X130949000Y-112093571D01*
X130877571Y-112236428D01*
X131591857Y-114022142D02*
X131591857Y-113522142D01*
X132377571Y-113522142D02*
X130877571Y-113522142D01*
X130877571Y-114236428D01*
X131591857Y-115307857D02*
X131591857Y-114807857D01*
X132377571Y-114807857D02*
X130877571Y-114807857D01*
X130877571Y-115522142D01*
X137735571Y-112355428D02*
X137735571Y-112641142D01*
X137807000Y-112784000D01*
X137949857Y-112926857D01*
X138235571Y-112998285D01*
X138735571Y-112998285D01*
X139021285Y-112926857D01*
X139164142Y-112784000D01*
X139235571Y-112641142D01*
X139235571Y-112355428D01*
X139164142Y-112212571D01*
X139021285Y-112069714D01*
X138735571Y-111998285D01*
X138235571Y-111998285D01*
X137949857Y-112069714D01*
X137807000Y-112212571D01*
X137735571Y-112355428D01*
X139235571Y-113641142D02*
X137735571Y-113641142D01*
X139235571Y-114498285D01*
X137735571Y-114498285D01*
X134509771Y-134708485D02*
X136009771Y-135208485D01*
X134509771Y-135708485D01*
X135224057Y-137851342D02*
X135295485Y-138065628D01*
X135366914Y-138137057D01*
X135509771Y-138208485D01*
X135724057Y-138208485D01*
X135866914Y-138137057D01*
X135938342Y-138065628D01*
X136009771Y-137922771D01*
X136009771Y-137351342D01*
X134509771Y-137351342D01*
X134509771Y-137851342D01*
X134581200Y-137994200D01*
X134652628Y-138065628D01*
X134795485Y-138137057D01*
X134938342Y-138137057D01*
X135081200Y-138065628D01*
X135152628Y-137994200D01*
X135224057Y-137851342D01*
X135224057Y-137351342D01*
X135581200Y-138779914D02*
X135581200Y-139494200D01*
X136009771Y-138637057D02*
X134509771Y-139137057D01*
X136009771Y-139637057D01*
X134509771Y-139922771D02*
X134509771Y-140779914D01*
X136009771Y-140351342D02*
X134509771Y-140351342D01*
X143629771Y-134639371D02*
X142129771Y-134639371D01*
X142129771Y-135210800D01*
X142201200Y-135353657D01*
X142272628Y-135425085D01*
X142415485Y-135496514D01*
X142629771Y-135496514D01*
X142772628Y-135425085D01*
X142844057Y-135353657D01*
X142915485Y-135210800D01*
X142915485Y-134639371D01*
X142844057Y-136639371D02*
X142915485Y-136853657D01*
X142986914Y-136925085D01*
X143129771Y-136996514D01*
X143344057Y-136996514D01*
X143486914Y-136925085D01*
X143558342Y-136853657D01*
X143629771Y-136710800D01*
X143629771Y-136139371D01*
X142129771Y-136139371D01*
X142129771Y-136639371D01*
X142201200Y-136782228D01*
X142272628Y-136853657D01*
X142415485Y-136925085D01*
X142558342Y-136925085D01*
X142701200Y-136853657D01*
X142772628Y-136782228D01*
X142844057Y-136639371D01*
X142844057Y-136139371D01*
X143629771Y-138425085D02*
X143629771Y-137567942D01*
X143629771Y-137996514D02*
X142129771Y-137996514D01*
X142344057Y-137853657D01*
X142486914Y-137710800D01*
X142558342Y-137567942D01*
X142272628Y-138996514D02*
X142201200Y-139067942D01*
X142129771Y-139210800D01*
X142129771Y-139567942D01*
X142201200Y-139710800D01*
X142272628Y-139782228D01*
X142415485Y-139853657D01*
X142558342Y-139853657D01*
X142772628Y-139782228D01*
X143629771Y-138925085D01*
X143629771Y-139853657D01*
X146245971Y-134613971D02*
X144745971Y-134613971D01*
X144745971Y-135185400D01*
X144817400Y-135328257D01*
X144888828Y-135399685D01*
X145031685Y-135471114D01*
X145245971Y-135471114D01*
X145388828Y-135399685D01*
X145460257Y-135328257D01*
X145531685Y-135185400D01*
X145531685Y-134613971D01*
X145460257Y-136613971D02*
X145531685Y-136828257D01*
X145603114Y-136899685D01*
X145745971Y-136971114D01*
X145960257Y-136971114D01*
X146103114Y-136899685D01*
X146174542Y-136828257D01*
X146245971Y-136685400D01*
X146245971Y-136113971D01*
X144745971Y-136113971D01*
X144745971Y-136613971D01*
X144817400Y-136756828D01*
X144888828Y-136828257D01*
X145031685Y-136899685D01*
X145174542Y-136899685D01*
X145317400Y-136828257D01*
X145388828Y-136756828D01*
X145460257Y-136613971D01*
X145460257Y-136113971D01*
X146245971Y-138399685D02*
X146245971Y-137542542D01*
X146245971Y-137971114D02*
X144745971Y-137971114D01*
X144960257Y-137828257D01*
X145103114Y-137685400D01*
X145174542Y-137542542D01*
X144745971Y-138899685D02*
X144745971Y-139828257D01*
X145317400Y-139328257D01*
X145317400Y-139542542D01*
X145388828Y-139685400D01*
X145460257Y-139756828D01*
X145603114Y-139828257D01*
X145960257Y-139828257D01*
X146103114Y-139756828D01*
X146174542Y-139685400D01*
X146245971Y-139542542D01*
X146245971Y-139113971D01*
X146174542Y-138971114D01*
X146103114Y-138899685D01*
X148862171Y-134613971D02*
X147362171Y-134613971D01*
X147362171Y-135185400D01*
X147433600Y-135328257D01*
X147505028Y-135399685D01*
X147647885Y-135471114D01*
X147862171Y-135471114D01*
X148005028Y-135399685D01*
X148076457Y-135328257D01*
X148147885Y-135185400D01*
X148147885Y-134613971D01*
X148076457Y-136613971D02*
X148147885Y-136828257D01*
X148219314Y-136899685D01*
X148362171Y-136971114D01*
X148576457Y-136971114D01*
X148719314Y-136899685D01*
X148790742Y-136828257D01*
X148862171Y-136685400D01*
X148862171Y-136113971D01*
X147362171Y-136113971D01*
X147362171Y-136613971D01*
X147433600Y-136756828D01*
X147505028Y-136828257D01*
X147647885Y-136899685D01*
X147790742Y-136899685D01*
X147933600Y-136828257D01*
X148005028Y-136756828D01*
X148076457Y-136613971D01*
X148076457Y-136113971D01*
X148862171Y-138399685D02*
X148862171Y-137542542D01*
X148862171Y-137971114D02*
X147362171Y-137971114D01*
X147576457Y-137828257D01*
X147719314Y-137685400D01*
X147790742Y-137542542D01*
X147862171Y-139685400D02*
X148862171Y-139685400D01*
X147290742Y-139328257D02*
X148362171Y-138971114D01*
X148362171Y-139899685D01*
X151351371Y-134588571D02*
X149851371Y-134588571D01*
X149851371Y-135160000D01*
X149922800Y-135302857D01*
X149994228Y-135374285D01*
X150137085Y-135445714D01*
X150351371Y-135445714D01*
X150494228Y-135374285D01*
X150565657Y-135302857D01*
X150637085Y-135160000D01*
X150637085Y-134588571D01*
X150565657Y-136588571D02*
X150637085Y-136802857D01*
X150708514Y-136874285D01*
X150851371Y-136945714D01*
X151065657Y-136945714D01*
X151208514Y-136874285D01*
X151279942Y-136802857D01*
X151351371Y-136660000D01*
X151351371Y-136088571D01*
X149851371Y-136088571D01*
X149851371Y-136588571D01*
X149922800Y-136731428D01*
X149994228Y-136802857D01*
X150137085Y-136874285D01*
X150279942Y-136874285D01*
X150422800Y-136802857D01*
X150494228Y-136731428D01*
X150565657Y-136588571D01*
X150565657Y-136088571D01*
X151351371Y-138374285D02*
X151351371Y-137517142D01*
X151351371Y-137945714D02*
X149851371Y-137945714D01*
X150065657Y-137802857D01*
X150208514Y-137660000D01*
X150279942Y-137517142D01*
X149851371Y-139731428D02*
X149851371Y-139017142D01*
X150565657Y-138945714D01*
X150494228Y-139017142D01*
X150422800Y-139160000D01*
X150422800Y-139517142D01*
X150494228Y-139660000D01*
X150565657Y-139731428D01*
X150708514Y-139802857D01*
X151065657Y-139802857D01*
X151208514Y-139731428D01*
X151279942Y-139660000D01*
X151351371Y-139517142D01*
X151351371Y-139160000D01*
X151279942Y-139017142D01*
X151208514Y-138945714D01*
X153942171Y-136070400D02*
X152442171Y-136070400D01*
X152442171Y-136641828D01*
X152513600Y-136784685D01*
X152585028Y-136856114D01*
X152727885Y-136927542D01*
X152942171Y-136927542D01*
X153085028Y-136856114D01*
X153156457Y-136784685D01*
X153227885Y-136641828D01*
X153227885Y-136070400D01*
X153513600Y-137498971D02*
X153513600Y-138213257D01*
X153942171Y-137356114D02*
X152442171Y-137856114D01*
X153942171Y-138356114D01*
X153942171Y-138927542D02*
X153942171Y-139213257D01*
X153870742Y-139356114D01*
X153799314Y-139427542D01*
X153585028Y-139570400D01*
X153299314Y-139641828D01*
X152727885Y-139641828D01*
X152585028Y-139570400D01*
X152513600Y-139498971D01*
X152442171Y-139356114D01*
X152442171Y-139070400D01*
X152513600Y-138927542D01*
X152585028Y-138856114D01*
X152727885Y-138784685D01*
X153085028Y-138784685D01*
X153227885Y-138856114D01*
X153299314Y-138927542D01*
X153370742Y-139070400D01*
X153370742Y-139356114D01*
X153299314Y-139498971D01*
X153227885Y-139570400D01*
X153085028Y-139641828D01*
X156304371Y-134721114D02*
X154804371Y-134721114D01*
X154804371Y-135292542D01*
X154875800Y-135435400D01*
X154947228Y-135506828D01*
X155090085Y-135578257D01*
X155304371Y-135578257D01*
X155447228Y-135506828D01*
X155518657Y-135435400D01*
X155590085Y-135292542D01*
X155590085Y-134721114D01*
X155875800Y-136149685D02*
X155875800Y-136863971D01*
X156304371Y-136006828D02*
X154804371Y-136506828D01*
X156304371Y-137006828D01*
X156304371Y-138292542D02*
X156304371Y-137435400D01*
X156304371Y-137863971D02*
X154804371Y-137863971D01*
X155018657Y-137721114D01*
X155161514Y-137578257D01*
X155232942Y-137435400D01*
X154804371Y-139221114D02*
X154804371Y-139363971D01*
X154875800Y-139506828D01*
X154947228Y-139578257D01*
X155090085Y-139649685D01*
X155375800Y-139721114D01*
X155732942Y-139721114D01*
X156018657Y-139649685D01*
X156161514Y-139578257D01*
X156232942Y-139506828D01*
X156304371Y-139363971D01*
X156304371Y-139221114D01*
X156232942Y-139078257D01*
X156161514Y-139006828D01*
X156018657Y-138935400D01*
X155732942Y-138863971D01*
X155375800Y-138863971D01*
X155090085Y-138935400D01*
X154947228Y-139006828D01*
X154875800Y-139078257D01*
X154804371Y-139221114D01*
X158925342Y-129554885D02*
X158996771Y-129769171D01*
X158996771Y-130126314D01*
X158925342Y-130269171D01*
X158853914Y-130340600D01*
X158711057Y-130412028D01*
X158568200Y-130412028D01*
X158425342Y-130340600D01*
X158353914Y-130269171D01*
X158282485Y-130126314D01*
X158211057Y-129840600D01*
X158139628Y-129697742D01*
X158068200Y-129626314D01*
X157925342Y-129554885D01*
X157782485Y-129554885D01*
X157639628Y-129626314D01*
X157568200Y-129697742D01*
X157496771Y-129840600D01*
X157496771Y-130197742D01*
X157568200Y-130412028D01*
X158853914Y-131912028D02*
X158925342Y-131840600D01*
X158996771Y-131626314D01*
X158996771Y-131483457D01*
X158925342Y-131269171D01*
X158782485Y-131126314D01*
X158639628Y-131054885D01*
X158353914Y-130983457D01*
X158139628Y-130983457D01*
X157853914Y-131054885D01*
X157711057Y-131126314D01*
X157568200Y-131269171D01*
X157496771Y-131483457D01*
X157496771Y-131626314D01*
X157568200Y-131840600D01*
X157639628Y-131912028D01*
X158996771Y-133269171D02*
X158996771Y-132554885D01*
X157496771Y-132554885D01*
X157425342Y-134840600D02*
X159353914Y-133554885D01*
X158996771Y-135340600D02*
X157496771Y-135340600D01*
X157496771Y-135912028D01*
X157568200Y-136054885D01*
X157639628Y-136126314D01*
X157782485Y-136197742D01*
X157996771Y-136197742D01*
X158139628Y-136126314D01*
X158211057Y-136054885D01*
X158282485Y-135912028D01*
X158282485Y-135340600D01*
X158211057Y-137340600D02*
X158282485Y-137554885D01*
X158353914Y-137626314D01*
X158496771Y-137697742D01*
X158711057Y-137697742D01*
X158853914Y-137626314D01*
X158925342Y-137554885D01*
X158996771Y-137412028D01*
X158996771Y-136840600D01*
X157496771Y-136840600D01*
X157496771Y-137340600D01*
X157568200Y-137483457D01*
X157639628Y-137554885D01*
X157782485Y-137626314D01*
X157925342Y-137626314D01*
X158068200Y-137554885D01*
X158139628Y-137483457D01*
X158211057Y-137340600D01*
X158211057Y-136840600D01*
X157496771Y-138983457D02*
X157496771Y-138697742D01*
X157568200Y-138554885D01*
X157639628Y-138483457D01*
X157853914Y-138340600D01*
X158139628Y-138269171D01*
X158711057Y-138269171D01*
X158853914Y-138340600D01*
X158925342Y-138412028D01*
X158996771Y-138554885D01*
X158996771Y-138840600D01*
X158925342Y-138983457D01*
X158853914Y-139054885D01*
X158711057Y-139126314D01*
X158353914Y-139126314D01*
X158211057Y-139054885D01*
X158139628Y-138983457D01*
X158068200Y-138840600D01*
X158068200Y-138554885D01*
X158139628Y-138412028D01*
X158211057Y-138340600D01*
X158353914Y-138269171D01*
X161338342Y-129468371D02*
X161409771Y-129682657D01*
X161409771Y-130039800D01*
X161338342Y-130182657D01*
X161266914Y-130254085D01*
X161124057Y-130325514D01*
X160981200Y-130325514D01*
X160838342Y-130254085D01*
X160766914Y-130182657D01*
X160695485Y-130039800D01*
X160624057Y-129754085D01*
X160552628Y-129611228D01*
X160481200Y-129539800D01*
X160338342Y-129468371D01*
X160195485Y-129468371D01*
X160052628Y-129539800D01*
X159981200Y-129611228D01*
X159909771Y-129754085D01*
X159909771Y-130111228D01*
X159981200Y-130325514D01*
X161409771Y-130968371D02*
X159909771Y-130968371D01*
X159909771Y-131325514D01*
X159981200Y-131539800D01*
X160124057Y-131682657D01*
X160266914Y-131754085D01*
X160552628Y-131825514D01*
X160766914Y-131825514D01*
X161052628Y-131754085D01*
X161195485Y-131682657D01*
X161338342Y-131539800D01*
X161409771Y-131325514D01*
X161409771Y-130968371D01*
X160981200Y-132396942D02*
X160981200Y-133111228D01*
X161409771Y-132254085D02*
X159909771Y-132754085D01*
X161409771Y-133254085D01*
X159838342Y-134825514D02*
X161766914Y-133539800D01*
X161409771Y-135325514D02*
X159909771Y-135325514D01*
X159909771Y-135896942D01*
X159981200Y-136039800D01*
X160052628Y-136111228D01*
X160195485Y-136182657D01*
X160409771Y-136182657D01*
X160552628Y-136111228D01*
X160624057Y-136039800D01*
X160695485Y-135896942D01*
X160695485Y-135325514D01*
X160624057Y-137325514D02*
X160695485Y-137539800D01*
X160766914Y-137611228D01*
X160909771Y-137682657D01*
X161124057Y-137682657D01*
X161266914Y-137611228D01*
X161338342Y-137539800D01*
X161409771Y-137396942D01*
X161409771Y-136825514D01*
X159909771Y-136825514D01*
X159909771Y-137325514D01*
X159981200Y-137468371D01*
X160052628Y-137539800D01*
X160195485Y-137611228D01*
X160338342Y-137611228D01*
X160481200Y-137539800D01*
X160552628Y-137468371D01*
X160624057Y-137325514D01*
X160624057Y-136825514D01*
X159909771Y-138182657D02*
X159909771Y-139182657D01*
X161409771Y-138539800D01*
X164102171Y-135861657D02*
X162602171Y-135861657D01*
X162602171Y-136433085D01*
X162673600Y-136575942D01*
X162745028Y-136647371D01*
X162887885Y-136718800D01*
X163102171Y-136718800D01*
X163245028Y-136647371D01*
X163316457Y-136575942D01*
X163387885Y-136433085D01*
X163387885Y-135861657D01*
X163316457Y-137861657D02*
X163387885Y-138075942D01*
X163459314Y-138147371D01*
X163602171Y-138218800D01*
X163816457Y-138218800D01*
X163959314Y-138147371D01*
X164030742Y-138075942D01*
X164102171Y-137933085D01*
X164102171Y-137361657D01*
X162602171Y-137361657D01*
X162602171Y-137861657D01*
X162673600Y-138004514D01*
X162745028Y-138075942D01*
X162887885Y-138147371D01*
X163030742Y-138147371D01*
X163173600Y-138075942D01*
X163245028Y-138004514D01*
X163316457Y-137861657D01*
X163316457Y-137361657D01*
X163245028Y-139075942D02*
X163173600Y-138933085D01*
X163102171Y-138861657D01*
X162959314Y-138790228D01*
X162887885Y-138790228D01*
X162745028Y-138861657D01*
X162673600Y-138933085D01*
X162602171Y-139075942D01*
X162602171Y-139361657D01*
X162673600Y-139504514D01*
X162745028Y-139575942D01*
X162887885Y-139647371D01*
X162959314Y-139647371D01*
X163102171Y-139575942D01*
X163173600Y-139504514D01*
X163245028Y-139361657D01*
X163245028Y-139075942D01*
X163316457Y-138933085D01*
X163387885Y-138861657D01*
X163530742Y-138790228D01*
X163816457Y-138790228D01*
X163959314Y-138861657D01*
X164030742Y-138933085D01*
X164102171Y-139075942D01*
X164102171Y-139361657D01*
X164030742Y-139504514D01*
X163959314Y-139575942D01*
X163816457Y-139647371D01*
X163530742Y-139647371D01*
X163387885Y-139575942D01*
X163316457Y-139504514D01*
X163245028Y-139361657D01*
X166337371Y-135709257D02*
X164837371Y-135709257D01*
X164837371Y-136280685D01*
X164908800Y-136423542D01*
X164980228Y-136494971D01*
X165123085Y-136566400D01*
X165337371Y-136566400D01*
X165480228Y-136494971D01*
X165551657Y-136423542D01*
X165623085Y-136280685D01*
X165623085Y-135709257D01*
X165551657Y-137709257D02*
X165623085Y-137923542D01*
X165694514Y-137994971D01*
X165837371Y-138066400D01*
X166051657Y-138066400D01*
X166194514Y-137994971D01*
X166265942Y-137923542D01*
X166337371Y-137780685D01*
X166337371Y-137209257D01*
X164837371Y-137209257D01*
X164837371Y-137709257D01*
X164908800Y-137852114D01*
X164980228Y-137923542D01*
X165123085Y-137994971D01*
X165265942Y-137994971D01*
X165408800Y-137923542D01*
X165480228Y-137852114D01*
X165551657Y-137709257D01*
X165551657Y-137209257D01*
X166337371Y-138780685D02*
X166337371Y-139066400D01*
X166265942Y-139209257D01*
X166194514Y-139280685D01*
X165980228Y-139423542D01*
X165694514Y-139494971D01*
X165123085Y-139494971D01*
X164980228Y-139423542D01*
X164908800Y-139352114D01*
X164837371Y-139209257D01*
X164837371Y-138923542D01*
X164908800Y-138780685D01*
X164980228Y-138709257D01*
X165123085Y-138637828D01*
X165480228Y-138637828D01*
X165623085Y-138709257D01*
X165694514Y-138780685D01*
X165765942Y-138923542D01*
X165765942Y-139209257D01*
X165694514Y-139352114D01*
X165623085Y-139423542D01*
X165480228Y-139494971D01*
X188536971Y-137303771D02*
X187822685Y-136803771D01*
X188536971Y-136446628D02*
X187036971Y-136446628D01*
X187036971Y-137018057D01*
X187108400Y-137160914D01*
X187179828Y-137232342D01*
X187322685Y-137303771D01*
X187536971Y-137303771D01*
X187679828Y-137232342D01*
X187751257Y-137160914D01*
X187822685Y-137018057D01*
X187822685Y-136446628D01*
X188465542Y-137875200D02*
X188536971Y-138089485D01*
X188536971Y-138446628D01*
X188465542Y-138589485D01*
X188394114Y-138660914D01*
X188251257Y-138732342D01*
X188108400Y-138732342D01*
X187965542Y-138660914D01*
X187894114Y-138589485D01*
X187822685Y-138446628D01*
X187751257Y-138160914D01*
X187679828Y-138018057D01*
X187608400Y-137946628D01*
X187465542Y-137875200D01*
X187322685Y-137875200D01*
X187179828Y-137946628D01*
X187108400Y-138018057D01*
X187036971Y-138160914D01*
X187036971Y-138518057D01*
X187108400Y-138732342D01*
X187036971Y-139160914D02*
X187036971Y-140018057D01*
X188536971Y-139589485D02*
X187036971Y-139589485D01*
X184903371Y-135673542D02*
X185974800Y-135673542D01*
X186189085Y-135602114D01*
X186331942Y-135459257D01*
X186403371Y-135244971D01*
X186403371Y-135102114D01*
X184903371Y-136173542D02*
X184903371Y-137030685D01*
X186403371Y-136602114D02*
X184903371Y-136602114D01*
X186403371Y-137530685D02*
X184903371Y-137530685D01*
X184903371Y-137887828D01*
X184974800Y-138102114D01*
X185117657Y-138244971D01*
X185260514Y-138316400D01*
X185546228Y-138387828D01*
X185760514Y-138387828D01*
X186046228Y-138316400D01*
X186189085Y-138244971D01*
X186331942Y-138102114D01*
X186403371Y-137887828D01*
X186403371Y-137530685D01*
X184903371Y-139316400D02*
X184903371Y-139602114D01*
X184974800Y-139744971D01*
X185117657Y-139887828D01*
X185403371Y-139959257D01*
X185903371Y-139959257D01*
X186189085Y-139887828D01*
X186331942Y-139744971D01*
X186403371Y-139602114D01*
X186403371Y-139316400D01*
X186331942Y-139173542D01*
X186189085Y-139030685D01*
X185903371Y-138959257D01*
X185403371Y-138959257D01*
X185117657Y-139030685D01*
X184974800Y-139173542D01*
X184903371Y-139316400D01*
X182845971Y-136508514D02*
X183917400Y-136508514D01*
X184131685Y-136437085D01*
X184274542Y-136294228D01*
X184345971Y-136079942D01*
X184345971Y-135937085D01*
X182845971Y-137008514D02*
X182845971Y-137865657D01*
X184345971Y-137437085D02*
X182845971Y-137437085D01*
X184345971Y-138365657D02*
X182845971Y-138365657D01*
X182845971Y-138722800D01*
X182917400Y-138937085D01*
X183060257Y-139079942D01*
X183203114Y-139151371D01*
X183488828Y-139222800D01*
X183703114Y-139222800D01*
X183988828Y-139151371D01*
X184131685Y-139079942D01*
X184274542Y-138937085D01*
X184345971Y-138722800D01*
X184345971Y-138365657D01*
X184345971Y-139865657D02*
X182845971Y-139865657D01*
X176552942Y-133132142D02*
X176624371Y-133346428D01*
X176624371Y-133703571D01*
X176552942Y-133846428D01*
X176481514Y-133917857D01*
X176338657Y-133989285D01*
X176195800Y-133989285D01*
X176052942Y-133917857D01*
X175981514Y-133846428D01*
X175910085Y-133703571D01*
X175838657Y-133417857D01*
X175767228Y-133275000D01*
X175695800Y-133203571D01*
X175552942Y-133132142D01*
X175410085Y-133132142D01*
X175267228Y-133203571D01*
X175195800Y-133275000D01*
X175124371Y-133417857D01*
X175124371Y-133775000D01*
X175195800Y-133989285D01*
X175124371Y-134489285D02*
X176624371Y-134846428D01*
X175552942Y-135132142D01*
X176624371Y-135417857D01*
X175124371Y-135775000D01*
X176481514Y-137203571D02*
X176552942Y-137132142D01*
X176624371Y-136917857D01*
X176624371Y-136775000D01*
X176552942Y-136560714D01*
X176410085Y-136417857D01*
X176267228Y-136346428D01*
X175981514Y-136275000D01*
X175767228Y-136275000D01*
X175481514Y-136346428D01*
X175338657Y-136417857D01*
X175195800Y-136560714D01*
X175124371Y-136775000D01*
X175124371Y-136917857D01*
X175195800Y-137132142D01*
X175267228Y-137203571D01*
X176624371Y-138560714D02*
X176624371Y-137846428D01*
X175124371Y-137846428D01*
X176624371Y-139060714D02*
X175124371Y-139060714D01*
X176624371Y-139917857D02*
X175767228Y-139275000D01*
X175124371Y-139917857D02*
X175981514Y-139060714D01*
X174038342Y-133600428D02*
X174109771Y-133814714D01*
X174109771Y-134171857D01*
X174038342Y-134314714D01*
X173966914Y-134386142D01*
X173824057Y-134457571D01*
X173681200Y-134457571D01*
X173538342Y-134386142D01*
X173466914Y-134314714D01*
X173395485Y-134171857D01*
X173324057Y-133886142D01*
X173252628Y-133743285D01*
X173181200Y-133671857D01*
X173038342Y-133600428D01*
X172895485Y-133600428D01*
X172752628Y-133671857D01*
X172681200Y-133743285D01*
X172609771Y-133886142D01*
X172609771Y-134243285D01*
X172681200Y-134457571D01*
X172609771Y-134957571D02*
X174109771Y-135314714D01*
X173038342Y-135600428D01*
X174109771Y-135886142D01*
X172609771Y-136243285D01*
X174109771Y-136814714D02*
X172609771Y-136814714D01*
X172609771Y-137171857D01*
X172681200Y-137386142D01*
X172824057Y-137529000D01*
X172966914Y-137600428D01*
X173252628Y-137671857D01*
X173466914Y-137671857D01*
X173752628Y-137600428D01*
X173895485Y-137529000D01*
X174038342Y-137386142D01*
X174109771Y-137171857D01*
X174109771Y-136814714D01*
X174109771Y-138314714D02*
X172609771Y-138314714D01*
X172609771Y-139314714D02*
X172609771Y-139600428D01*
X172681200Y-139743285D01*
X172824057Y-139886142D01*
X173109771Y-139957571D01*
X173609771Y-139957571D01*
X173895485Y-139886142D01*
X174038342Y-139743285D01*
X174109771Y-139600428D01*
X174109771Y-139314714D01*
X174038342Y-139171857D01*
X173895485Y-139029000D01*
X173609771Y-138957571D01*
X173109771Y-138957571D01*
X172824057Y-139029000D01*
X172681200Y-139171857D01*
X172609771Y-139314714D01*
X170044371Y-135683857D02*
X170044371Y-136612428D01*
X170615800Y-136112428D01*
X170615800Y-136326714D01*
X170687228Y-136469571D01*
X170758657Y-136541000D01*
X170901514Y-136612428D01*
X171258657Y-136612428D01*
X171401514Y-136541000D01*
X171472942Y-136469571D01*
X171544371Y-136326714D01*
X171544371Y-135898142D01*
X171472942Y-135755285D01*
X171401514Y-135683857D01*
X170044371Y-137041000D02*
X171544371Y-137541000D01*
X170044371Y-138041000D01*
X170044371Y-138398142D02*
X170044371Y-139326714D01*
X170615800Y-138826714D01*
X170615800Y-139041000D01*
X170687228Y-139183857D01*
X170758657Y-139255285D01*
X170901514Y-139326714D01*
X171258657Y-139326714D01*
X171401514Y-139255285D01*
X171472942Y-139183857D01*
X171544371Y-139041000D01*
X171544371Y-138612428D01*
X171472942Y-138469571D01*
X171401514Y-138398142D01*
X167550400Y-136448942D02*
X167478971Y-136306085D01*
X167478971Y-136091800D01*
X167550400Y-135877514D01*
X167693257Y-135734657D01*
X167836114Y-135663228D01*
X168121828Y-135591800D01*
X168336114Y-135591800D01*
X168621828Y-135663228D01*
X168764685Y-135734657D01*
X168907542Y-135877514D01*
X168978971Y-136091800D01*
X168978971Y-136234657D01*
X168907542Y-136448942D01*
X168836114Y-136520371D01*
X168336114Y-136520371D01*
X168336114Y-136234657D01*
X168978971Y-137163228D02*
X167478971Y-137163228D01*
X168978971Y-138020371D01*
X167478971Y-138020371D01*
X168978971Y-138734657D02*
X167478971Y-138734657D01*
X167478971Y-139091800D01*
X167550400Y-139306085D01*
X167693257Y-139448942D01*
X167836114Y-139520371D01*
X168121828Y-139591800D01*
X168336114Y-139591800D01*
X168621828Y-139520371D01*
X168764685Y-139448942D01*
X168907542Y-139306085D01*
X168978971Y-139091800D01*
X168978971Y-138734657D01*
X139234171Y-137030057D02*
X139234171Y-137958628D01*
X139805600Y-137458628D01*
X139805600Y-137672914D01*
X139877028Y-137815771D01*
X139948457Y-137887200D01*
X140091314Y-137958628D01*
X140448457Y-137958628D01*
X140591314Y-137887200D01*
X140662742Y-137815771D01*
X140734171Y-137672914D01*
X140734171Y-137244342D01*
X140662742Y-137101485D01*
X140591314Y-137030057D01*
X139234171Y-138387200D02*
X140734171Y-138887200D01*
X139234171Y-139387200D01*
X139234171Y-139744342D02*
X139234171Y-140672914D01*
X139805600Y-140172914D01*
X139805600Y-140387200D01*
X139877028Y-140530057D01*
X139948457Y-140601485D01*
X140091314Y-140672914D01*
X140448457Y-140672914D01*
X140591314Y-140601485D01*
X140662742Y-140530057D01*
X140734171Y-140387200D01*
X140734171Y-139958628D01*
X140662742Y-139815771D01*
X140591314Y-139744342D01*
X137019600Y-137744342D02*
X136948171Y-137601485D01*
X136948171Y-137387200D01*
X137019600Y-137172914D01*
X137162457Y-137030057D01*
X137305314Y-136958628D01*
X137591028Y-136887200D01*
X137805314Y-136887200D01*
X138091028Y-136958628D01*
X138233885Y-137030057D01*
X138376742Y-137172914D01*
X138448171Y-137387200D01*
X138448171Y-137530057D01*
X138376742Y-137744342D01*
X138305314Y-137815771D01*
X137805314Y-137815771D01*
X137805314Y-137530057D01*
X138448171Y-138458628D02*
X136948171Y-138458628D01*
X138448171Y-139315771D01*
X136948171Y-139315771D01*
X138448171Y-140030057D02*
X136948171Y-140030057D01*
X136948171Y-140387200D01*
X137019600Y-140601485D01*
X137162457Y-140744342D01*
X137305314Y-140815771D01*
X137591028Y-140887200D01*
X137805314Y-140887200D01*
X138091028Y-140815771D01*
X138233885Y-140744342D01*
X138376742Y-140601485D01*
X138448171Y-140387200D01*
X138448171Y-140030057D01*
X152340571Y-114344000D02*
X153840571Y-114844000D01*
X152340571Y-115344000D01*
X152340571Y-115844000D02*
X153554857Y-115844000D01*
X153697714Y-115915428D01*
X153769142Y-115986857D01*
X153840571Y-116129714D01*
X153840571Y-116415428D01*
X153769142Y-116558285D01*
X153697714Y-116629714D01*
X153554857Y-116701142D01*
X152340571Y-116701142D01*
X153769142Y-117344000D02*
X153840571Y-117558285D01*
X153840571Y-117915428D01*
X153769142Y-118058285D01*
X153697714Y-118129714D01*
X153554857Y-118201142D01*
X153412000Y-118201142D01*
X153269142Y-118129714D01*
X153197714Y-118058285D01*
X153126285Y-117915428D01*
X153054857Y-117629714D01*
X152983428Y-117486857D01*
X152912000Y-117415428D01*
X152769142Y-117344000D01*
X152626285Y-117344000D01*
X152483428Y-117415428D01*
X152412000Y-117486857D01*
X152340571Y-117629714D01*
X152340571Y-117986857D01*
X152412000Y-118201142D01*
X153054857Y-119344000D02*
X153126285Y-119558285D01*
X153197714Y-119629714D01*
X153340571Y-119701142D01*
X153554857Y-119701142D01*
X153697714Y-119629714D01*
X153769142Y-119558285D01*
X153840571Y-119415428D01*
X153840571Y-118844000D01*
X152340571Y-118844000D01*
X152340571Y-119344000D01*
X152412000Y-119486857D01*
X152483428Y-119558285D01*
X152626285Y-119629714D01*
X152769142Y-119629714D01*
X152912000Y-119558285D01*
X152983428Y-119486857D01*
X153054857Y-119344000D01*
X153054857Y-118844000D01*
X149800571Y-114546571D02*
X151014857Y-114546571D01*
X151157714Y-114618000D01*
X151229142Y-114689428D01*
X151300571Y-114832285D01*
X151300571Y-115118000D01*
X151229142Y-115260857D01*
X151157714Y-115332285D01*
X151014857Y-115403714D01*
X149800571Y-115403714D01*
X151229142Y-116046571D02*
X151300571Y-116260857D01*
X151300571Y-116618000D01*
X151229142Y-116760857D01*
X151157714Y-116832285D01*
X151014857Y-116903714D01*
X150872000Y-116903714D01*
X150729142Y-116832285D01*
X150657714Y-116760857D01*
X150586285Y-116618000D01*
X150514857Y-116332285D01*
X150443428Y-116189428D01*
X150372000Y-116118000D01*
X150229142Y-116046571D01*
X150086285Y-116046571D01*
X149943428Y-116118000D01*
X149872000Y-116189428D01*
X149800571Y-116332285D01*
X149800571Y-116689428D01*
X149872000Y-116903714D01*
X150514857Y-118046571D02*
X150586285Y-118260857D01*
X150657714Y-118332285D01*
X150800571Y-118403714D01*
X151014857Y-118403714D01*
X151157714Y-118332285D01*
X151229142Y-118260857D01*
X151300571Y-118118000D01*
X151300571Y-117546571D01*
X149800571Y-117546571D01*
X149800571Y-118046571D01*
X149872000Y-118189428D01*
X149943428Y-118260857D01*
X150086285Y-118332285D01*
X150229142Y-118332285D01*
X150372000Y-118260857D01*
X150443428Y-118189428D01*
X150514857Y-118046571D01*
X150514857Y-117546571D01*
X151300571Y-120189428D02*
X149800571Y-120189428D01*
X149800571Y-120546571D01*
X149872000Y-120760857D01*
X150014857Y-120903714D01*
X150157714Y-120975142D01*
X150443428Y-121046571D01*
X150657714Y-121046571D01*
X150943428Y-120975142D01*
X151086285Y-120903714D01*
X151229142Y-120760857D01*
X151300571Y-120546571D01*
X151300571Y-120189428D01*
X151300571Y-121689428D02*
X149800571Y-121689428D01*
X150872000Y-122189428D01*
X149800571Y-122689428D01*
X151300571Y-122689428D01*
X147260571Y-114653714D02*
X148474857Y-114653714D01*
X148617714Y-114725142D01*
X148689142Y-114796571D01*
X148760571Y-114939428D01*
X148760571Y-115225142D01*
X148689142Y-115368000D01*
X148617714Y-115439428D01*
X148474857Y-115510857D01*
X147260571Y-115510857D01*
X148689142Y-116153714D02*
X148760571Y-116368000D01*
X148760571Y-116725142D01*
X148689142Y-116868000D01*
X148617714Y-116939428D01*
X148474857Y-117010857D01*
X148332000Y-117010857D01*
X148189142Y-116939428D01*
X148117714Y-116868000D01*
X148046285Y-116725142D01*
X147974857Y-116439428D01*
X147903428Y-116296571D01*
X147832000Y-116225142D01*
X147689142Y-116153714D01*
X147546285Y-116153714D01*
X147403428Y-116225142D01*
X147332000Y-116296571D01*
X147260571Y-116439428D01*
X147260571Y-116796571D01*
X147332000Y-117010857D01*
X147974857Y-118153714D02*
X148046285Y-118368000D01*
X148117714Y-118439428D01*
X148260571Y-118510857D01*
X148474857Y-118510857D01*
X148617714Y-118439428D01*
X148689142Y-118368000D01*
X148760571Y-118225142D01*
X148760571Y-117653714D01*
X147260571Y-117653714D01*
X147260571Y-118153714D01*
X147332000Y-118296571D01*
X147403428Y-118368000D01*
X147546285Y-118439428D01*
X147689142Y-118439428D01*
X147832000Y-118368000D01*
X147903428Y-118296571D01*
X147974857Y-118153714D01*
X147974857Y-117653714D01*
X148760571Y-120296571D02*
X147260571Y-120296571D01*
X147260571Y-120653714D01*
X147332000Y-120868000D01*
X147474857Y-121010857D01*
X147617714Y-121082285D01*
X147903428Y-121153714D01*
X148117714Y-121153714D01*
X148403428Y-121082285D01*
X148546285Y-121010857D01*
X148689142Y-120868000D01*
X148760571Y-120653714D01*
X148760571Y-120296571D01*
X148760571Y-121796571D02*
X147260571Y-121796571D01*
X147260571Y-122368000D01*
X147332000Y-122510857D01*
X147403428Y-122582285D01*
X147546285Y-122653714D01*
X147760571Y-122653714D01*
X147903428Y-122582285D01*
X147974857Y-122510857D01*
X148046285Y-122368000D01*
X148046285Y-121796571D01*
X144792000Y-115417742D02*
X144720571Y-115274885D01*
X144720571Y-115060600D01*
X144792000Y-114846314D01*
X144934857Y-114703457D01*
X145077714Y-114632028D01*
X145363428Y-114560600D01*
X145577714Y-114560600D01*
X145863428Y-114632028D01*
X146006285Y-114703457D01*
X146149142Y-114846314D01*
X146220571Y-115060600D01*
X146220571Y-115203457D01*
X146149142Y-115417742D01*
X146077714Y-115489171D01*
X145577714Y-115489171D01*
X145577714Y-115203457D01*
X146220571Y-116132028D02*
X144720571Y-116132028D01*
X146220571Y-116989171D01*
X144720571Y-116989171D01*
X146220571Y-117703457D02*
X144720571Y-117703457D01*
X144720571Y-118060600D01*
X144792000Y-118274885D01*
X144934857Y-118417742D01*
X145077714Y-118489171D01*
X145363428Y-118560600D01*
X145577714Y-118560600D01*
X145863428Y-118489171D01*
X146006285Y-118417742D01*
X146149142Y-118274885D01*
X146220571Y-118060600D01*
X146220571Y-117703457D01*
X165446971Y-114560600D02*
X166946971Y-115060600D01*
X165446971Y-115560600D01*
X166804114Y-116917742D02*
X166875542Y-116846314D01*
X166946971Y-116632028D01*
X166946971Y-116489171D01*
X166875542Y-116274885D01*
X166732685Y-116132028D01*
X166589828Y-116060600D01*
X166304114Y-115989171D01*
X166089828Y-115989171D01*
X165804114Y-116060600D01*
X165661257Y-116132028D01*
X165518400Y-116274885D01*
X165446971Y-116489171D01*
X165446971Y-116632028D01*
X165518400Y-116846314D01*
X165589828Y-116917742D01*
X166804114Y-118417742D02*
X166875542Y-118346314D01*
X166946971Y-118132028D01*
X166946971Y-117989171D01*
X166875542Y-117774885D01*
X166732685Y-117632028D01*
X166589828Y-117560600D01*
X166304114Y-117489171D01*
X166089828Y-117489171D01*
X165804114Y-117560600D01*
X165661257Y-117632028D01*
X165518400Y-117774885D01*
X165446971Y-117989171D01*
X165446971Y-118132028D01*
X165518400Y-118346314D01*
X165589828Y-118417742D01*
X172909800Y-115206828D02*
X172838371Y-115063971D01*
X172838371Y-114849685D01*
X172909800Y-114635400D01*
X173052657Y-114492542D01*
X173195514Y-114421114D01*
X173481228Y-114349685D01*
X173695514Y-114349685D01*
X173981228Y-114421114D01*
X174124085Y-114492542D01*
X174266942Y-114635400D01*
X174338371Y-114849685D01*
X174338371Y-114992542D01*
X174266942Y-115206828D01*
X174195514Y-115278257D01*
X173695514Y-115278257D01*
X173695514Y-114992542D01*
X174338371Y-115921114D02*
X172838371Y-115921114D01*
X172838371Y-116492542D01*
X172909800Y-116635400D01*
X172981228Y-116706828D01*
X173124085Y-116778257D01*
X173338371Y-116778257D01*
X173481228Y-116706828D01*
X173552657Y-116635400D01*
X173624085Y-116492542D01*
X173624085Y-115921114D01*
X174266942Y-117349685D02*
X174338371Y-117563971D01*
X174338371Y-117921114D01*
X174266942Y-118063971D01*
X174195514Y-118135400D01*
X174052657Y-118206828D01*
X173909800Y-118206828D01*
X173766942Y-118135400D01*
X173695514Y-118063971D01*
X173624085Y-117921114D01*
X173552657Y-117635400D01*
X173481228Y-117492542D01*
X173409800Y-117421114D01*
X173266942Y-117349685D01*
X173124085Y-117349685D01*
X172981228Y-117421114D01*
X172909800Y-117492542D01*
X172838371Y-117635400D01*
X172838371Y-117992542D01*
X172909800Y-118206828D01*
X172838371Y-119778257D02*
X172838371Y-120635400D01*
X174338371Y-120206828D02*
X172838371Y-120206828D01*
X172838371Y-120992542D02*
X174338371Y-121992542D01*
X172838371Y-121992542D02*
X174338371Y-120992542D01*
X170217400Y-115256857D02*
X170145971Y-115114000D01*
X170145971Y-114899714D01*
X170217400Y-114685428D01*
X170360257Y-114542571D01*
X170503114Y-114471142D01*
X170788828Y-114399714D01*
X171003114Y-114399714D01*
X171288828Y-114471142D01*
X171431685Y-114542571D01*
X171574542Y-114685428D01*
X171645971Y-114899714D01*
X171645971Y-115042571D01*
X171574542Y-115256857D01*
X171503114Y-115328285D01*
X171003114Y-115328285D01*
X171003114Y-115042571D01*
X171645971Y-115971142D02*
X170145971Y-115971142D01*
X170145971Y-116542571D01*
X170217400Y-116685428D01*
X170288828Y-116756857D01*
X170431685Y-116828285D01*
X170645971Y-116828285D01*
X170788828Y-116756857D01*
X170860257Y-116685428D01*
X170931685Y-116542571D01*
X170931685Y-115971142D01*
X171574542Y-117399714D02*
X171645971Y-117614000D01*
X171645971Y-117971142D01*
X171574542Y-118114000D01*
X171503114Y-118185428D01*
X171360257Y-118256857D01*
X171217400Y-118256857D01*
X171074542Y-118185428D01*
X171003114Y-118114000D01*
X170931685Y-117971142D01*
X170860257Y-117685428D01*
X170788828Y-117542571D01*
X170717400Y-117471142D01*
X170574542Y-117399714D01*
X170431685Y-117399714D01*
X170288828Y-117471142D01*
X170217400Y-117542571D01*
X170145971Y-117685428D01*
X170145971Y-118042571D01*
X170217400Y-118256857D01*
X171645971Y-120899714D02*
X170931685Y-120399714D01*
X171645971Y-120042571D02*
X170145971Y-120042571D01*
X170145971Y-120614000D01*
X170217400Y-120756857D01*
X170288828Y-120828285D01*
X170431685Y-120899714D01*
X170645971Y-120899714D01*
X170788828Y-120828285D01*
X170860257Y-120756857D01*
X170931685Y-120614000D01*
X170931685Y-120042571D01*
X170145971Y-121399714D02*
X171645971Y-122399714D01*
X170145971Y-122399714D02*
X171645971Y-121399714D01*
X167702800Y-115265342D02*
X167631371Y-115122485D01*
X167631371Y-114908200D01*
X167702800Y-114693914D01*
X167845657Y-114551057D01*
X167988514Y-114479628D01*
X168274228Y-114408200D01*
X168488514Y-114408200D01*
X168774228Y-114479628D01*
X168917085Y-114551057D01*
X169059942Y-114693914D01*
X169131371Y-114908200D01*
X169131371Y-115051057D01*
X169059942Y-115265342D01*
X168988514Y-115336771D01*
X168488514Y-115336771D01*
X168488514Y-115051057D01*
X169131371Y-115979628D02*
X167631371Y-115979628D01*
X169131371Y-116836771D01*
X167631371Y-116836771D01*
X169131371Y-117551057D02*
X167631371Y-117551057D01*
X167631371Y-117908200D01*
X167702800Y-118122485D01*
X167845657Y-118265342D01*
X167988514Y-118336771D01*
X168274228Y-118408200D01*
X168488514Y-118408200D01*
X168774228Y-118336771D01*
X168917085Y-118265342D01*
X169059942Y-118122485D01*
X169131371Y-117908200D01*
X169131371Y-117551057D01*
X131508428Y-140442142D02*
X130365571Y-140442142D01*
X133591228Y-140391342D02*
X132448371Y-140391342D01*
X133019800Y-140962771D02*
X133019800Y-139819914D01*
D12*
X191516000Y-109982000D02*
X191516000Y-144018000D01*
X130048000Y-144018000D02*
X191516000Y-144018000D01*
X130048000Y-109982000D02*
X130048000Y-144018000D01*
X130048000Y-109982000D02*
X191516000Y-109982000D01*
D13*
G04 #@! TO.C,G\002A\002A\002A*
G36*
X159512426Y-110743132D02*
X159348284Y-110769281D01*
X159241862Y-110798038D01*
X159086102Y-110858956D01*
X158941435Y-110939216D01*
X158809214Y-111037223D01*
X158690793Y-111151382D01*
X158587526Y-111280099D01*
X158500767Y-111421779D01*
X158431871Y-111574826D01*
X158382190Y-111737647D01*
X158363176Y-111833064D01*
X158347849Y-111997684D01*
X158354604Y-112160974D01*
X158382438Y-112320965D01*
X158430352Y-112475687D01*
X158497343Y-112623170D01*
X158582411Y-112761445D01*
X158684555Y-112888541D01*
X158802773Y-113002488D01*
X158936065Y-113101316D01*
X159037669Y-113160376D01*
X159184068Y-113224752D01*
X159339558Y-113271162D01*
X159499719Y-113298913D01*
X159660134Y-113307308D01*
X159816383Y-113295655D01*
X159856552Y-113289114D01*
X160020959Y-113247916D01*
X160175592Y-113187045D01*
X160319186Y-113108092D01*
X160450479Y-113012646D01*
X160568204Y-112902295D01*
X160671097Y-112778628D01*
X160757895Y-112643236D01*
X160827333Y-112497708D01*
X160878146Y-112343632D01*
X160909070Y-112182597D01*
X160918629Y-112019773D01*
X160614590Y-112019773D01*
X160613839Y-112101655D01*
X160611330Y-112165310D01*
X160606681Y-112215562D01*
X160599510Y-112257236D01*
X160593997Y-112279546D01*
X160557729Y-112382688D01*
X160506288Y-112488180D01*
X160443273Y-112590552D01*
X160372286Y-112684333D01*
X160296927Y-112764054D01*
X160247948Y-112805258D01*
X160131101Y-112880535D01*
X160001189Y-112942107D01*
X159865567Y-112986868D01*
X159771772Y-113006440D01*
X159698901Y-113012891D01*
X159613308Y-113012874D01*
X159524269Y-113006943D01*
X159441059Y-112995652D01*
X159385776Y-112983373D01*
X159277125Y-112946316D01*
X159169082Y-112897130D01*
X159072456Y-112840778D01*
X159066092Y-112836485D01*
X159011985Y-112794462D01*
X158951874Y-112739538D01*
X158892214Y-112678248D01*
X158839464Y-112617130D01*
X158808752Y-112575971D01*
X158754214Y-112481958D01*
X158707257Y-112373480D01*
X158671018Y-112258733D01*
X158651426Y-112165229D01*
X158643470Y-112114412D01*
X158695385Y-112121528D01*
X158723304Y-112127315D01*
X158747634Y-112138517D01*
X158774055Y-112158889D01*
X158808248Y-112192188D01*
X158818899Y-112203205D01*
X158879052Y-112260113D01*
X158950532Y-112318733D01*
X159026640Y-112374164D01*
X159100677Y-112421508D01*
X159161868Y-112454018D01*
X159276283Y-112498002D01*
X159389766Y-112525222D01*
X159499741Y-112535879D01*
X159603632Y-112530170D01*
X159698864Y-112508298D01*
X159782860Y-112470461D01*
X159853044Y-112416859D01*
X159869844Y-112399083D01*
X159893469Y-112368037D01*
X159916595Y-112330870D01*
X159936441Y-112293135D01*
X159950224Y-112260386D01*
X159955161Y-112238176D01*
X159953260Y-112232591D01*
X159939923Y-112227503D01*
X159907958Y-112217644D01*
X159861077Y-112204090D01*
X159802991Y-112187915D01*
X159742909Y-112171662D01*
X159658351Y-112149056D01*
X159561321Y-112123063D01*
X159461637Y-112096315D01*
X159369119Y-112071448D01*
X159333045Y-112061735D01*
X159251280Y-112039805D01*
X159155762Y-112014345D01*
X159055082Y-111987637D01*
X158957835Y-111961960D01*
X158891431Y-111944519D01*
X158810029Y-111923337D01*
X158748506Y-111906569D01*
X158704616Y-111892029D01*
X158676109Y-111877532D01*
X158660739Y-111860893D01*
X158656258Y-111839928D01*
X158660416Y-111812451D01*
X158670967Y-111776276D01*
X158682067Y-111741012D01*
X158737238Y-111600136D01*
X158811275Y-111471122D01*
X158902434Y-111355508D01*
X159008973Y-111254829D01*
X159129149Y-111170623D01*
X159261218Y-111104426D01*
X159403437Y-111057776D01*
X159473831Y-111042945D01*
X159535845Y-111036389D01*
X159612316Y-111034620D01*
X159695193Y-111037267D01*
X159776427Y-111043957D01*
X159847968Y-111054319D01*
X159881454Y-111061761D01*
X160024435Y-111111151D01*
X160155873Y-111179968D01*
X160274462Y-111266943D01*
X160378898Y-111370807D01*
X160467877Y-111490290D01*
X160540094Y-111624123D01*
X160587499Y-111748766D01*
X160598093Y-111785199D01*
X160605547Y-111819428D01*
X160610391Y-111856765D01*
X160613156Y-111902520D01*
X160614374Y-111962003D01*
X160614590Y-112019773D01*
X160918629Y-112019773D01*
X160918840Y-112016194D01*
X160916990Y-111956273D01*
X160896959Y-111788162D01*
X160856629Y-111628622D01*
X160797534Y-111478717D01*
X160721212Y-111339507D01*
X160629196Y-111212055D01*
X160523024Y-111097422D01*
X160404231Y-110996671D01*
X160274352Y-110910863D01*
X160134923Y-110841059D01*
X159987481Y-110788323D01*
X159833560Y-110753715D01*
X159674696Y-110738297D01*
X159512426Y-110743132D01*
X159512426Y-110743132D01*
G37*
X159512426Y-110743132D02*
X159348284Y-110769281D01*
X159241862Y-110798038D01*
X159086102Y-110858956D01*
X158941435Y-110939216D01*
X158809214Y-111037223D01*
X158690793Y-111151382D01*
X158587526Y-111280099D01*
X158500767Y-111421779D01*
X158431871Y-111574826D01*
X158382190Y-111737647D01*
X158363176Y-111833064D01*
X158347849Y-111997684D01*
X158354604Y-112160974D01*
X158382438Y-112320965D01*
X158430352Y-112475687D01*
X158497343Y-112623170D01*
X158582411Y-112761445D01*
X158684555Y-112888541D01*
X158802773Y-113002488D01*
X158936065Y-113101316D01*
X159037669Y-113160376D01*
X159184068Y-113224752D01*
X159339558Y-113271162D01*
X159499719Y-113298913D01*
X159660134Y-113307308D01*
X159816383Y-113295655D01*
X159856552Y-113289114D01*
X160020959Y-113247916D01*
X160175592Y-113187045D01*
X160319186Y-113108092D01*
X160450479Y-113012646D01*
X160568204Y-112902295D01*
X160671097Y-112778628D01*
X160757895Y-112643236D01*
X160827333Y-112497708D01*
X160878146Y-112343632D01*
X160909070Y-112182597D01*
X160918629Y-112019773D01*
X160614590Y-112019773D01*
X160613839Y-112101655D01*
X160611330Y-112165310D01*
X160606681Y-112215562D01*
X160599510Y-112257236D01*
X160593997Y-112279546D01*
X160557729Y-112382688D01*
X160506288Y-112488180D01*
X160443273Y-112590552D01*
X160372286Y-112684333D01*
X160296927Y-112764054D01*
X160247948Y-112805258D01*
X160131101Y-112880535D01*
X160001189Y-112942107D01*
X159865567Y-112986868D01*
X159771772Y-113006440D01*
X159698901Y-113012891D01*
X159613308Y-113012874D01*
X159524269Y-113006943D01*
X159441059Y-112995652D01*
X159385776Y-112983373D01*
X159277125Y-112946316D01*
X159169082Y-112897130D01*
X159072456Y-112840778D01*
X159066092Y-112836485D01*
X159011985Y-112794462D01*
X158951874Y-112739538D01*
X158892214Y-112678248D01*
X158839464Y-112617130D01*
X158808752Y-112575971D01*
X158754214Y-112481958D01*
X158707257Y-112373480D01*
X158671018Y-112258733D01*
X158651426Y-112165229D01*
X158643470Y-112114412D01*
X158695385Y-112121528D01*
X158723304Y-112127315D01*
X158747634Y-112138517D01*
X158774055Y-112158889D01*
X158808248Y-112192188D01*
X158818899Y-112203205D01*
X158879052Y-112260113D01*
X158950532Y-112318733D01*
X159026640Y-112374164D01*
X159100677Y-112421508D01*
X159161868Y-112454018D01*
X159276283Y-112498002D01*
X159389766Y-112525222D01*
X159499741Y-112535879D01*
X159603632Y-112530170D01*
X159698864Y-112508298D01*
X159782860Y-112470461D01*
X159853044Y-112416859D01*
X159869844Y-112399083D01*
X159893469Y-112368037D01*
X159916595Y-112330870D01*
X159936441Y-112293135D01*
X159950224Y-112260386D01*
X159955161Y-112238176D01*
X159953260Y-112232591D01*
X159939923Y-112227503D01*
X159907958Y-112217644D01*
X159861077Y-112204090D01*
X159802991Y-112187915D01*
X159742909Y-112171662D01*
X159658351Y-112149056D01*
X159561321Y-112123063D01*
X159461637Y-112096315D01*
X159369119Y-112071448D01*
X159333045Y-112061735D01*
X159251280Y-112039805D01*
X159155762Y-112014345D01*
X159055082Y-111987637D01*
X158957835Y-111961960D01*
X158891431Y-111944519D01*
X158810029Y-111923337D01*
X158748506Y-111906569D01*
X158704616Y-111892029D01*
X158676109Y-111877532D01*
X158660739Y-111860893D01*
X158656258Y-111839928D01*
X158660416Y-111812451D01*
X158670967Y-111776276D01*
X158682067Y-111741012D01*
X158737238Y-111600136D01*
X158811275Y-111471122D01*
X158902434Y-111355508D01*
X159008973Y-111254829D01*
X159129149Y-111170623D01*
X159261218Y-111104426D01*
X159403437Y-111057776D01*
X159473831Y-111042945D01*
X159535845Y-111036389D01*
X159612316Y-111034620D01*
X159695193Y-111037267D01*
X159776427Y-111043957D01*
X159847968Y-111054319D01*
X159881454Y-111061761D01*
X160024435Y-111111151D01*
X160155873Y-111179968D01*
X160274462Y-111266943D01*
X160378898Y-111370807D01*
X160467877Y-111490290D01*
X160540094Y-111624123D01*
X160587499Y-111748766D01*
X160598093Y-111785199D01*
X160605547Y-111819428D01*
X160610391Y-111856765D01*
X160613156Y-111902520D01*
X160614374Y-111962003D01*
X160614590Y-112019773D01*
X160918629Y-112019773D01*
X160918840Y-112016194D01*
X160916990Y-111956273D01*
X160896959Y-111788162D01*
X160856629Y-111628622D01*
X160797534Y-111478717D01*
X160721212Y-111339507D01*
X160629196Y-111212055D01*
X160523024Y-111097422D01*
X160404231Y-110996671D01*
X160274352Y-110910863D01*
X160134923Y-110841059D01*
X159987481Y-110788323D01*
X159833560Y-110753715D01*
X159674696Y-110738297D01*
X159512426Y-110743132D01*
G36*
X159551182Y-111431138D02*
X159483343Y-111460202D01*
X159424992Y-111510087D01*
X159411561Y-111526077D01*
X159388814Y-111558626D01*
X159366330Y-111596949D01*
X159346820Y-111635469D01*
X159332996Y-111668607D01*
X159327568Y-111690786D01*
X159328936Y-111696111D01*
X159341058Y-111700434D01*
X159371012Y-111709256D01*
X159414275Y-111721287D01*
X159465818Y-111735105D01*
X159521782Y-111749929D01*
X159593259Y-111768960D01*
X159673468Y-111790385D01*
X159755627Y-111812396D01*
X159815793Y-111828560D01*
X159883478Y-111846631D01*
X159943655Y-111862431D01*
X159992723Y-111875037D01*
X160027081Y-111883524D01*
X160043128Y-111886969D01*
X160043596Y-111887000D01*
X160053897Y-111877190D01*
X160061690Y-111857143D01*
X160066166Y-111814066D01*
X160063366Y-111759285D01*
X160054523Y-111702566D01*
X160040871Y-111653669D01*
X160033945Y-111637705D01*
X159985519Y-111567475D01*
X159919472Y-111509237D01*
X159838804Y-111464594D01*
X159746513Y-111435145D01*
X159645600Y-111422492D01*
X159630089Y-111422144D01*
X159551182Y-111431138D01*
X159551182Y-111431138D01*
G37*
X159551182Y-111431138D02*
X159483343Y-111460202D01*
X159424992Y-111510087D01*
X159411561Y-111526077D01*
X159388814Y-111558626D01*
X159366330Y-111596949D01*
X159346820Y-111635469D01*
X159332996Y-111668607D01*
X159327568Y-111690786D01*
X159328936Y-111696111D01*
X159341058Y-111700434D01*
X159371012Y-111709256D01*
X159414275Y-111721287D01*
X159465818Y-111735105D01*
X159521782Y-111749929D01*
X159593259Y-111768960D01*
X159673468Y-111790385D01*
X159755627Y-111812396D01*
X159815793Y-111828560D01*
X159883478Y-111846631D01*
X159943655Y-111862431D01*
X159992723Y-111875037D01*
X160027081Y-111883524D01*
X160043128Y-111886969D01*
X160043596Y-111887000D01*
X160053897Y-111877190D01*
X160061690Y-111857143D01*
X160066166Y-111814066D01*
X160063366Y-111759285D01*
X160054523Y-111702566D01*
X160040871Y-111653669D01*
X160033945Y-111637705D01*
X159985519Y-111567475D01*
X159919472Y-111509237D01*
X159838804Y-111464594D01*
X159746513Y-111435145D01*
X159645600Y-111422492D01*
X159630089Y-111422144D01*
X159551182Y-111431138D01*
G36*
X135547100Y-131889500D02*
X135547100Y-120980200D01*
X134690299Y-120980200D01*
X134690299Y-121259086D01*
X134769672Y-121267066D01*
X134833979Y-121285384D01*
X134909340Y-121331168D01*
X134970659Y-121396306D01*
X135017001Y-121478396D01*
X135047432Y-121575036D01*
X135061016Y-121683822D01*
X135056819Y-121802352D01*
X135051277Y-121843800D01*
X135040893Y-121899016D01*
X135027807Y-121954651D01*
X135018603Y-121986675D01*
X134998958Y-122047000D01*
X134905478Y-122047000D01*
X134859332Y-122045725D01*
X134824029Y-122042361D01*
X134806402Y-122037599D01*
X134805767Y-122036917D01*
X134807951Y-122021382D01*
X134819539Y-121989921D01*
X134838089Y-121949074D01*
X134839943Y-121945310D01*
X134859868Y-121902495D01*
X134871930Y-121866669D01*
X134878052Y-121828482D01*
X134880154Y-121778588D01*
X134880301Y-121749018D01*
X134875416Y-121664406D01*
X134859718Y-121600541D01*
X134831526Y-121554469D01*
X134789156Y-121523233D01*
X134742224Y-121506510D01*
X134709402Y-121498272D01*
X134702550Y-122053350D01*
X134600225Y-122051369D01*
X134520647Y-122045799D01*
X134457979Y-122030915D01*
X134404657Y-122004195D01*
X134363505Y-121972481D01*
X134314172Y-121915361D01*
X134281436Y-121844024D01*
X134264383Y-121755905D01*
X134261279Y-121685050D01*
X134271081Y-121570660D01*
X134299676Y-121472900D01*
X134346917Y-121392054D01*
X134412657Y-121328405D01*
X134462787Y-121297628D01*
X134527565Y-121274674D01*
X134606500Y-121261725D01*
X134690299Y-121259086D01*
X134690299Y-120980200D01*
X133985000Y-120980200D01*
X133985000Y-122199400D01*
X135039100Y-122199400D01*
X135039100Y-122440700D01*
X134662664Y-122440700D01*
X134662664Y-122580400D01*
X134718905Y-122583263D01*
X134774251Y-122590733D01*
X134813106Y-122600139D01*
X134890379Y-122639353D01*
X134954573Y-122698490D01*
X135004661Y-122775113D01*
X135039614Y-122866785D01*
X135058405Y-122971068D01*
X135060003Y-123085526D01*
X135051277Y-123164600D01*
X135040893Y-123219816D01*
X135027807Y-123275451D01*
X135018603Y-123307475D01*
X134998958Y-123367800D01*
X134898379Y-123367800D01*
X134851457Y-123366873D01*
X134816219Y-123364414D01*
X134798706Y-123360901D01*
X134797800Y-123359833D01*
X134803032Y-123345334D01*
X134816837Y-123314460D01*
X134836372Y-123273531D01*
X134839075Y-123268025D01*
X134859212Y-123224679D01*
X134871499Y-123188808D01*
X134877837Y-123151171D01*
X134880127Y-123102529D01*
X134880350Y-123067373D01*
X134879446Y-123008554D01*
X134875991Y-122968601D01*
X134868863Y-122941022D01*
X134856944Y-122919324D01*
X134854165Y-122915491D01*
X134808496Y-122867961D01*
X134756276Y-122835142D01*
X134737475Y-122828240D01*
X134708900Y-122819988D01*
X134708900Y-123383685D01*
X134602750Y-123378113D01*
X134499961Y-123364393D01*
X134416405Y-123334582D01*
X134351444Y-123287975D01*
X134304443Y-123223866D01*
X134274762Y-123141549D01*
X134261766Y-123040317D01*
X134261047Y-122999500D01*
X134271765Y-122887652D01*
X134301649Y-122791589D01*
X134349770Y-122712276D01*
X134415202Y-122650683D01*
X134497018Y-122607776D01*
X134594290Y-122584522D01*
X134662664Y-122580400D01*
X134662664Y-122440700D01*
X133985000Y-122440700D01*
X133985000Y-123520200D01*
X135039100Y-123520200D01*
X135039100Y-123761500D01*
X134917235Y-123761500D01*
X134857056Y-123762341D01*
X134815860Y-123765571D01*
X134787263Y-123772245D01*
X134764883Y-123783419D01*
X134758485Y-123787764D01*
X134733971Y-123807959D01*
X134721871Y-123823299D01*
X134721600Y-123824798D01*
X134731798Y-123834989D01*
X134759865Y-123855813D01*
X134802013Y-123884631D01*
X134854451Y-123918809D01*
X134880114Y-123935058D01*
X135038629Y-124034550D01*
X135038864Y-124178672D01*
X135039100Y-124322794D01*
X135003784Y-124299322D01*
X134981383Y-124284320D01*
X134942407Y-124258102D01*
X134891323Y-124223678D01*
X134832599Y-124184056D01*
X134794569Y-124158375D01*
X134735766Y-124119113D01*
X134684001Y-124085424D01*
X134643034Y-124059683D01*
X134616626Y-124044270D01*
X134608822Y-124040900D01*
X134595461Y-124048650D01*
X134566351Y-124070037D01*
X134525107Y-124102262D01*
X134475347Y-124142526D01*
X134444682Y-124167900D01*
X134442200Y-124169951D01*
X134442200Y-124319087D01*
X134442200Y-124421900D01*
X134639776Y-124421900D01*
X134713193Y-124422830D01*
X134782289Y-124425390D01*
X134840926Y-124429232D01*
X134882966Y-124434011D01*
X134894485Y-124436286D01*
X134953476Y-124461821D01*
X135002238Y-124503187D01*
X135033950Y-124554228D01*
X135037806Y-124565603D01*
X135044125Y-124601979D01*
X135048407Y-124655047D01*
X135050468Y-124716165D01*
X135050127Y-124776694D01*
X135047201Y-124827993D01*
X135043862Y-124852112D01*
X135035925Y-124891800D01*
X134947253Y-124891800D01*
X134901095Y-124891184D01*
X134875609Y-124888450D01*
X134866081Y-124882265D01*
X134867795Y-124871299D01*
X134868543Y-124869575D01*
X134875709Y-124843687D01*
X134881990Y-124804758D01*
X134883750Y-124788173D01*
X134882704Y-124746744D01*
X134869839Y-124714735D01*
X134842913Y-124691291D01*
X134799684Y-124675555D01*
X134737910Y-124666668D01*
X134656086Y-124663801D01*
X134656086Y-124956601D01*
X134691284Y-124957856D01*
X134796175Y-124973451D01*
X134884309Y-125007965D01*
X134955184Y-125060797D01*
X135008298Y-125131349D01*
X135043149Y-125219020D01*
X135059233Y-125323211D01*
X135059488Y-125397411D01*
X135054604Y-125459998D01*
X135044989Y-125508909D01*
X135039100Y-125525000D01*
X135039100Y-125920122D01*
X135039100Y-126161800D01*
X134532079Y-126161800D01*
X134518110Y-126213673D01*
X134511690Y-126251893D01*
X134507649Y-126304842D01*
X134506752Y-126361899D01*
X134506912Y-126369248D01*
X134509681Y-126472950D01*
X134462781Y-126474422D01*
X134462781Y-126572407D01*
X134613569Y-126578809D01*
X134760797Y-126608599D01*
X134902225Y-126661172D01*
X135035611Y-126735923D01*
X135158714Y-126832247D01*
X135250087Y-126926525D01*
X135337245Y-127047178D01*
X135404287Y-127180692D01*
X135450416Y-127323433D01*
X135474831Y-127471767D01*
X135476733Y-127622063D01*
X135455324Y-127770685D01*
X135444872Y-127812120D01*
X135390676Y-127961838D01*
X135315711Y-128097889D01*
X135221487Y-128218813D01*
X135109510Y-128323150D01*
X134981288Y-128409440D01*
X134838327Y-128476221D01*
X134721617Y-128512810D01*
X134614436Y-128531181D01*
X134495536Y-128536869D01*
X134374350Y-128530226D01*
X134260306Y-128511601D01*
X134194550Y-128493260D01*
X134046844Y-128430543D01*
X133985000Y-128392191D01*
X133985000Y-128689100D01*
X135039100Y-128689100D01*
X135039100Y-128930400D01*
X134823061Y-128930400D01*
X134823061Y-129075573D01*
X134891839Y-129086190D01*
X134947594Y-129111320D01*
X135004797Y-129163660D01*
X135042919Y-129230564D01*
X135060774Y-129308570D01*
X135057176Y-129394217D01*
X135052515Y-129417591D01*
X135038941Y-129457072D01*
X135016849Y-129503727D01*
X135002542Y-129528716D01*
X134963949Y-129590800D01*
X135039100Y-129590800D01*
X135039100Y-129832100D01*
X134750175Y-129831821D01*
X134654766Y-129831516D01*
X134581101Y-129830638D01*
X134525526Y-129828933D01*
X134484385Y-129826144D01*
X134454025Y-129822017D01*
X134430791Y-129816296D01*
X134411028Y-129808726D01*
X134409451Y-129808016D01*
X134357612Y-129776118D01*
X134318325Y-129731778D01*
X134290534Y-129672362D01*
X134273180Y-129595239D01*
X134265208Y-129497775D01*
X134264399Y-129446660D01*
X134265756Y-129379149D01*
X134269402Y-129311253D01*
X134274708Y-129252898D01*
X134278403Y-129226715D01*
X134292407Y-129146300D01*
X134386353Y-129146300D01*
X134431538Y-129147237D01*
X134464829Y-129149713D01*
X134479977Y-129153227D01*
X134480300Y-129153853D01*
X134476856Y-129168869D01*
X134467777Y-129201450D01*
X134454937Y-129244894D01*
X134453305Y-129250280D01*
X134436462Y-129324980D01*
X134429995Y-129399417D01*
X134433622Y-129467630D01*
X134447062Y-129523658D01*
X134467928Y-129559400D01*
X134497023Y-129585772D01*
X134518110Y-129592332D01*
X134532802Y-129577651D01*
X134542712Y-129540305D01*
X134548724Y-129487955D01*
X134563760Y-129365980D01*
X134586821Y-129267100D01*
X134618344Y-129190169D01*
X134658763Y-129134043D01*
X134694049Y-129105604D01*
X134754008Y-129081974D01*
X134823061Y-129075573D01*
X134823061Y-128930400D01*
X133985000Y-128930400D01*
X133985000Y-130022600D01*
X135039100Y-130022600D01*
X135039100Y-130137298D01*
X135038158Y-130194999D01*
X135034884Y-130231726D01*
X135028603Y-130251852D01*
X135020282Y-130259218D01*
X135008270Y-130269629D01*
X135014136Y-130290053D01*
X135015681Y-130293002D01*
X135038609Y-130355489D01*
X135050123Y-130429867D01*
X135049836Y-130506307D01*
X135037359Y-130574979D01*
X135027794Y-130600450D01*
X134978842Y-130677732D01*
X134911789Y-130737617D01*
X134897859Y-130744553D01*
X134897859Y-130898900D01*
X134948325Y-130899595D01*
X134981872Y-130904656D01*
X135003441Y-130918548D01*
X135017974Y-130945733D01*
X135030412Y-130990675D01*
X135038447Y-131025900D01*
X135055392Y-131136520D01*
X135058297Y-131249130D01*
X135047271Y-131354797D01*
X135033642Y-131412396D01*
X134999179Y-131492319D01*
X134950528Y-131552569D01*
X134889115Y-131591960D01*
X134816366Y-131609301D01*
X134796503Y-131610052D01*
X134736426Y-131604519D01*
X134687893Y-131586154D01*
X134648804Y-131552438D01*
X134617056Y-131500856D01*
X134590550Y-131428890D01*
X134567549Y-131335755D01*
X134547705Y-131253375D01*
X134527879Y-131195738D01*
X134507542Y-131162191D01*
X134486167Y-131152083D01*
X134463223Y-131164760D01*
X134446326Y-131186261D01*
X134428785Y-131232623D01*
X134423760Y-131294153D01*
X134430793Y-131364183D01*
X134449424Y-131436044D01*
X134466429Y-131478233D01*
X134485655Y-131520840D01*
X134499653Y-131554762D01*
X134505647Y-131573235D01*
X134505700Y-131573960D01*
X134494004Y-131579156D01*
X134462816Y-131582128D01*
X134417983Y-131582394D01*
X134407304Y-131582059D01*
X134308909Y-131578350D01*
X134287671Y-131502150D01*
X134274799Y-131436695D01*
X134267464Y-131358214D01*
X134265767Y-131275546D01*
X134269808Y-131197528D01*
X134279686Y-131133001D01*
X134283324Y-131119183D01*
X134309053Y-131055899D01*
X134345132Y-130997698D01*
X134386351Y-130951969D01*
X134415918Y-130931105D01*
X134465620Y-130915809D01*
X134525513Y-130911975D01*
X134584296Y-130919330D01*
X134628523Y-130936251D01*
X134674240Y-130977864D01*
X134712699Y-131041100D01*
X134742233Y-131122804D01*
X134753907Y-131173617D01*
X134771092Y-131255314D01*
X134787657Y-131313307D01*
X134804675Y-131349240D01*
X134823218Y-131364752D01*
X134844359Y-131361485D01*
X134865695Y-131344649D01*
X134887401Y-131306532D01*
X134896886Y-131251604D01*
X134894672Y-131185026D01*
X134881279Y-131111958D01*
X134857228Y-131037564D01*
X134828538Y-130976675D01*
X134810739Y-130942430D01*
X134799642Y-130917108D01*
X134797800Y-130910000D01*
X134809487Y-130904810D01*
X134840511Y-130900917D01*
X134884818Y-130898994D01*
X134897859Y-130898900D01*
X134897859Y-130744553D01*
X134827521Y-130779579D01*
X134726924Y-130803092D01*
X134679284Y-130807378D01*
X134564961Y-130805254D01*
X134467842Y-130786500D01*
X134388698Y-130751665D01*
X134328302Y-130701296D01*
X134287427Y-130635942D01*
X134266844Y-130556151D01*
X134264400Y-130512978D01*
X134266633Y-130462418D01*
X134275401Y-130420494D01*
X134293802Y-130375409D01*
X134307908Y-130347372D01*
X134351417Y-130263900D01*
X133985000Y-130263900D01*
X133985000Y-130022600D01*
X133985000Y-128930400D01*
X133985000Y-128689100D01*
X133985000Y-128392191D01*
X133913643Y-128347938D01*
X133796522Y-128247130D01*
X133697053Y-128129804D01*
X133616813Y-127997644D01*
X133557374Y-127852334D01*
X133540396Y-127793346D01*
X133523482Y-127699321D01*
X133515718Y-127591903D01*
X133517214Y-127481436D01*
X133528080Y-127378264D01*
X133535584Y-127339057D01*
X133580968Y-127193299D01*
X133648563Y-127057102D01*
X133736191Y-126932934D01*
X133841673Y-126823263D01*
X133962833Y-126730556D01*
X134097490Y-126657282D01*
X134159491Y-126632184D01*
X134310675Y-126589997D01*
X134462781Y-126572407D01*
X134462781Y-126474422D01*
X134393390Y-126476601D01*
X134277100Y-126480253D01*
X134277170Y-126432151D01*
X134286894Y-126352425D01*
X134317258Y-126274069D01*
X134340441Y-126233945D01*
X134361338Y-126200028D01*
X134375234Y-126175623D01*
X134378700Y-126167708D01*
X134367413Y-126164021D01*
X134339193Y-126161958D01*
X134327423Y-126161800D01*
X134276146Y-126161800D01*
X134283450Y-125926850D01*
X135039100Y-125920122D01*
X135039100Y-125525000D01*
X135027830Y-125555796D01*
X135014291Y-125584673D01*
X134963613Y-125662990D01*
X134898288Y-125721134D01*
X134817622Y-125759494D01*
X134720920Y-125778464D01*
X134666618Y-125780800D01*
X134573706Y-125775383D01*
X134498079Y-125757684D01*
X134433718Y-125725531D01*
X134374607Y-125676751D01*
X134372412Y-125674568D01*
X134321119Y-125613755D01*
X134286857Y-125548387D01*
X134267433Y-125472458D01*
X134260657Y-125379963D01*
X134260590Y-125368050D01*
X134266041Y-125273360D01*
X134283862Y-125195916D01*
X134316256Y-125129689D01*
X134365426Y-125068647D01*
X134372622Y-125061321D01*
X134431701Y-125011509D01*
X134494880Y-124978672D01*
X134567795Y-124960980D01*
X134656086Y-124956601D01*
X134656086Y-124663801D01*
X134655348Y-124663775D01*
X134562850Y-124665536D01*
X134448550Y-124669550D01*
X134444880Y-124780675D01*
X134441211Y-124891800D01*
X134277100Y-124891800D01*
X134277100Y-124663200D01*
X134061200Y-124663200D01*
X134061200Y-124421900D01*
X134275566Y-124421900D01*
X134283450Y-124326650D01*
X134362825Y-124322868D01*
X134442200Y-124319087D01*
X134442200Y-124169951D01*
X134392043Y-124211409D01*
X134346287Y-124248496D01*
X134310919Y-124276378D01*
X134289443Y-124292271D01*
X134284745Y-124294900D01*
X134281655Y-124283065D01*
X134279197Y-124251018D01*
X134277656Y-124203943D01*
X134277273Y-124158375D01*
X134277446Y-124021850D01*
X134604804Y-123767850D01*
X134294902Y-123764453D01*
X133984999Y-123761056D01*
X133984999Y-123640628D01*
X133985000Y-123520200D01*
X133985000Y-122440700D01*
X133985000Y-122199400D01*
X133985000Y-120980200D01*
X133438900Y-120980200D01*
X133438900Y-131889500D01*
X135547100Y-131889500D01*
X135547100Y-131889500D01*
G37*
X135547100Y-131889500D02*
X135547100Y-120980200D01*
X134690299Y-120980200D01*
X134690299Y-121259086D01*
X134769672Y-121267066D01*
X134833979Y-121285384D01*
X134909340Y-121331168D01*
X134970659Y-121396306D01*
X135017001Y-121478396D01*
X135047432Y-121575036D01*
X135061016Y-121683822D01*
X135056819Y-121802352D01*
X135051277Y-121843800D01*
X135040893Y-121899016D01*
X135027807Y-121954651D01*
X135018603Y-121986675D01*
X134998958Y-122047000D01*
X134905478Y-122047000D01*
X134859332Y-122045725D01*
X134824029Y-122042361D01*
X134806402Y-122037599D01*
X134805767Y-122036917D01*
X134807951Y-122021382D01*
X134819539Y-121989921D01*
X134838089Y-121949074D01*
X134839943Y-121945310D01*
X134859868Y-121902495D01*
X134871930Y-121866669D01*
X134878052Y-121828482D01*
X134880154Y-121778588D01*
X134880301Y-121749018D01*
X134875416Y-121664406D01*
X134859718Y-121600541D01*
X134831526Y-121554469D01*
X134789156Y-121523233D01*
X134742224Y-121506510D01*
X134709402Y-121498272D01*
X134702550Y-122053350D01*
X134600225Y-122051369D01*
X134520647Y-122045799D01*
X134457979Y-122030915D01*
X134404657Y-122004195D01*
X134363505Y-121972481D01*
X134314172Y-121915361D01*
X134281436Y-121844024D01*
X134264383Y-121755905D01*
X134261279Y-121685050D01*
X134271081Y-121570660D01*
X134299676Y-121472900D01*
X134346917Y-121392054D01*
X134412657Y-121328405D01*
X134462787Y-121297628D01*
X134527565Y-121274674D01*
X134606500Y-121261725D01*
X134690299Y-121259086D01*
X134690299Y-120980200D01*
X133985000Y-120980200D01*
X133985000Y-122199400D01*
X135039100Y-122199400D01*
X135039100Y-122440700D01*
X134662664Y-122440700D01*
X134662664Y-122580400D01*
X134718905Y-122583263D01*
X134774251Y-122590733D01*
X134813106Y-122600139D01*
X134890379Y-122639353D01*
X134954573Y-122698490D01*
X135004661Y-122775113D01*
X135039614Y-122866785D01*
X135058405Y-122971068D01*
X135060003Y-123085526D01*
X135051277Y-123164600D01*
X135040893Y-123219816D01*
X135027807Y-123275451D01*
X135018603Y-123307475D01*
X134998958Y-123367800D01*
X134898379Y-123367800D01*
X134851457Y-123366873D01*
X134816219Y-123364414D01*
X134798706Y-123360901D01*
X134797800Y-123359833D01*
X134803032Y-123345334D01*
X134816837Y-123314460D01*
X134836372Y-123273531D01*
X134839075Y-123268025D01*
X134859212Y-123224679D01*
X134871499Y-123188808D01*
X134877837Y-123151171D01*
X134880127Y-123102529D01*
X134880350Y-123067373D01*
X134879446Y-123008554D01*
X134875991Y-122968601D01*
X134868863Y-122941022D01*
X134856944Y-122919324D01*
X134854165Y-122915491D01*
X134808496Y-122867961D01*
X134756276Y-122835142D01*
X134737475Y-122828240D01*
X134708900Y-122819988D01*
X134708900Y-123383685D01*
X134602750Y-123378113D01*
X134499961Y-123364393D01*
X134416405Y-123334582D01*
X134351444Y-123287975D01*
X134304443Y-123223866D01*
X134274762Y-123141549D01*
X134261766Y-123040317D01*
X134261047Y-122999500D01*
X134271765Y-122887652D01*
X134301649Y-122791589D01*
X134349770Y-122712276D01*
X134415202Y-122650683D01*
X134497018Y-122607776D01*
X134594290Y-122584522D01*
X134662664Y-122580400D01*
X134662664Y-122440700D01*
X133985000Y-122440700D01*
X133985000Y-123520200D01*
X135039100Y-123520200D01*
X135039100Y-123761500D01*
X134917235Y-123761500D01*
X134857056Y-123762341D01*
X134815860Y-123765571D01*
X134787263Y-123772245D01*
X134764883Y-123783419D01*
X134758485Y-123787764D01*
X134733971Y-123807959D01*
X134721871Y-123823299D01*
X134721600Y-123824798D01*
X134731798Y-123834989D01*
X134759865Y-123855813D01*
X134802013Y-123884631D01*
X134854451Y-123918809D01*
X134880114Y-123935058D01*
X135038629Y-124034550D01*
X135038864Y-124178672D01*
X135039100Y-124322794D01*
X135003784Y-124299322D01*
X134981383Y-124284320D01*
X134942407Y-124258102D01*
X134891323Y-124223678D01*
X134832599Y-124184056D01*
X134794569Y-124158375D01*
X134735766Y-124119113D01*
X134684001Y-124085424D01*
X134643034Y-124059683D01*
X134616626Y-124044270D01*
X134608822Y-124040900D01*
X134595461Y-124048650D01*
X134566351Y-124070037D01*
X134525107Y-124102262D01*
X134475347Y-124142526D01*
X134444682Y-124167900D01*
X134442200Y-124169951D01*
X134442200Y-124319087D01*
X134442200Y-124421900D01*
X134639776Y-124421900D01*
X134713193Y-124422830D01*
X134782289Y-124425390D01*
X134840926Y-124429232D01*
X134882966Y-124434011D01*
X134894485Y-124436286D01*
X134953476Y-124461821D01*
X135002238Y-124503187D01*
X135033950Y-124554228D01*
X135037806Y-124565603D01*
X135044125Y-124601979D01*
X135048407Y-124655047D01*
X135050468Y-124716165D01*
X135050127Y-124776694D01*
X135047201Y-124827993D01*
X135043862Y-124852112D01*
X135035925Y-124891800D01*
X134947253Y-124891800D01*
X134901095Y-124891184D01*
X134875609Y-124888450D01*
X134866081Y-124882265D01*
X134867795Y-124871299D01*
X134868543Y-124869575D01*
X134875709Y-124843687D01*
X134881990Y-124804758D01*
X134883750Y-124788173D01*
X134882704Y-124746744D01*
X134869839Y-124714735D01*
X134842913Y-124691291D01*
X134799684Y-124675555D01*
X134737910Y-124666668D01*
X134656086Y-124663801D01*
X134656086Y-124956601D01*
X134691284Y-124957856D01*
X134796175Y-124973451D01*
X134884309Y-125007965D01*
X134955184Y-125060797D01*
X135008298Y-125131349D01*
X135043149Y-125219020D01*
X135059233Y-125323211D01*
X135059488Y-125397411D01*
X135054604Y-125459998D01*
X135044989Y-125508909D01*
X135039100Y-125525000D01*
X135039100Y-125920122D01*
X135039100Y-126161800D01*
X134532079Y-126161800D01*
X134518110Y-126213673D01*
X134511690Y-126251893D01*
X134507649Y-126304842D01*
X134506752Y-126361899D01*
X134506912Y-126369248D01*
X134509681Y-126472950D01*
X134462781Y-126474422D01*
X134462781Y-126572407D01*
X134613569Y-126578809D01*
X134760797Y-126608599D01*
X134902225Y-126661172D01*
X135035611Y-126735923D01*
X135158714Y-126832247D01*
X135250087Y-126926525D01*
X135337245Y-127047178D01*
X135404287Y-127180692D01*
X135450416Y-127323433D01*
X135474831Y-127471767D01*
X135476733Y-127622063D01*
X135455324Y-127770685D01*
X135444872Y-127812120D01*
X135390676Y-127961838D01*
X135315711Y-128097889D01*
X135221487Y-128218813D01*
X135109510Y-128323150D01*
X134981288Y-128409440D01*
X134838327Y-128476221D01*
X134721617Y-128512810D01*
X134614436Y-128531181D01*
X134495536Y-128536869D01*
X134374350Y-128530226D01*
X134260306Y-128511601D01*
X134194550Y-128493260D01*
X134046844Y-128430543D01*
X133985000Y-128392191D01*
X133985000Y-128689100D01*
X135039100Y-128689100D01*
X135039100Y-128930400D01*
X134823061Y-128930400D01*
X134823061Y-129075573D01*
X134891839Y-129086190D01*
X134947594Y-129111320D01*
X135004797Y-129163660D01*
X135042919Y-129230564D01*
X135060774Y-129308570D01*
X135057176Y-129394217D01*
X135052515Y-129417591D01*
X135038941Y-129457072D01*
X135016849Y-129503727D01*
X135002542Y-129528716D01*
X134963949Y-129590800D01*
X135039100Y-129590800D01*
X135039100Y-129832100D01*
X134750175Y-129831821D01*
X134654766Y-129831516D01*
X134581101Y-129830638D01*
X134525526Y-129828933D01*
X134484385Y-129826144D01*
X134454025Y-129822017D01*
X134430791Y-129816296D01*
X134411028Y-129808726D01*
X134409451Y-129808016D01*
X134357612Y-129776118D01*
X134318325Y-129731778D01*
X134290534Y-129672362D01*
X134273180Y-129595239D01*
X134265208Y-129497775D01*
X134264399Y-129446660D01*
X134265756Y-129379149D01*
X134269402Y-129311253D01*
X134274708Y-129252898D01*
X134278403Y-129226715D01*
X134292407Y-129146300D01*
X134386353Y-129146300D01*
X134431538Y-129147237D01*
X134464829Y-129149713D01*
X134479977Y-129153227D01*
X134480300Y-129153853D01*
X134476856Y-129168869D01*
X134467777Y-129201450D01*
X134454937Y-129244894D01*
X134453305Y-129250280D01*
X134436462Y-129324980D01*
X134429995Y-129399417D01*
X134433622Y-129467630D01*
X134447062Y-129523658D01*
X134467928Y-129559400D01*
X134497023Y-129585772D01*
X134518110Y-129592332D01*
X134532802Y-129577651D01*
X134542712Y-129540305D01*
X134548724Y-129487955D01*
X134563760Y-129365980D01*
X134586821Y-129267100D01*
X134618344Y-129190169D01*
X134658763Y-129134043D01*
X134694049Y-129105604D01*
X134754008Y-129081974D01*
X134823061Y-129075573D01*
X134823061Y-128930400D01*
X133985000Y-128930400D01*
X133985000Y-130022600D01*
X135039100Y-130022600D01*
X135039100Y-130137298D01*
X135038158Y-130194999D01*
X135034884Y-130231726D01*
X135028603Y-130251852D01*
X135020282Y-130259218D01*
X135008270Y-130269629D01*
X135014136Y-130290053D01*
X135015681Y-130293002D01*
X135038609Y-130355489D01*
X135050123Y-130429867D01*
X135049836Y-130506307D01*
X135037359Y-130574979D01*
X135027794Y-130600450D01*
X134978842Y-130677732D01*
X134911789Y-130737617D01*
X134897859Y-130744553D01*
X134897859Y-130898900D01*
X134948325Y-130899595D01*
X134981872Y-130904656D01*
X135003441Y-130918548D01*
X135017974Y-130945733D01*
X135030412Y-130990675D01*
X135038447Y-131025900D01*
X135055392Y-131136520D01*
X135058297Y-131249130D01*
X135047271Y-131354797D01*
X135033642Y-131412396D01*
X134999179Y-131492319D01*
X134950528Y-131552569D01*
X134889115Y-131591960D01*
X134816366Y-131609301D01*
X134796503Y-131610052D01*
X134736426Y-131604519D01*
X134687893Y-131586154D01*
X134648804Y-131552438D01*
X134617056Y-131500856D01*
X134590550Y-131428890D01*
X134567549Y-131335755D01*
X134547705Y-131253375D01*
X134527879Y-131195738D01*
X134507542Y-131162191D01*
X134486167Y-131152083D01*
X134463223Y-131164760D01*
X134446326Y-131186261D01*
X134428785Y-131232623D01*
X134423760Y-131294153D01*
X134430793Y-131364183D01*
X134449424Y-131436044D01*
X134466429Y-131478233D01*
X134485655Y-131520840D01*
X134499653Y-131554762D01*
X134505647Y-131573235D01*
X134505700Y-131573960D01*
X134494004Y-131579156D01*
X134462816Y-131582128D01*
X134417983Y-131582394D01*
X134407304Y-131582059D01*
X134308909Y-131578350D01*
X134287671Y-131502150D01*
X134274799Y-131436695D01*
X134267464Y-131358214D01*
X134265767Y-131275546D01*
X134269808Y-131197528D01*
X134279686Y-131133001D01*
X134283324Y-131119183D01*
X134309053Y-131055899D01*
X134345132Y-130997698D01*
X134386351Y-130951969D01*
X134415918Y-130931105D01*
X134465620Y-130915809D01*
X134525513Y-130911975D01*
X134584296Y-130919330D01*
X134628523Y-130936251D01*
X134674240Y-130977864D01*
X134712699Y-131041100D01*
X134742233Y-131122804D01*
X134753907Y-131173617D01*
X134771092Y-131255314D01*
X134787657Y-131313307D01*
X134804675Y-131349240D01*
X134823218Y-131364752D01*
X134844359Y-131361485D01*
X134865695Y-131344649D01*
X134887401Y-131306532D01*
X134896886Y-131251604D01*
X134894672Y-131185026D01*
X134881279Y-131111958D01*
X134857228Y-131037564D01*
X134828538Y-130976675D01*
X134810739Y-130942430D01*
X134799642Y-130917108D01*
X134797800Y-130910000D01*
X134809487Y-130904810D01*
X134840511Y-130900917D01*
X134884818Y-130898994D01*
X134897859Y-130898900D01*
X134897859Y-130744553D01*
X134827521Y-130779579D01*
X134726924Y-130803092D01*
X134679284Y-130807378D01*
X134564961Y-130805254D01*
X134467842Y-130786500D01*
X134388698Y-130751665D01*
X134328302Y-130701296D01*
X134287427Y-130635942D01*
X134266844Y-130556151D01*
X134264400Y-130512978D01*
X134266633Y-130462418D01*
X134275401Y-130420494D01*
X134293802Y-130375409D01*
X134307908Y-130347372D01*
X134351417Y-130263900D01*
X133985000Y-130263900D01*
X133985000Y-130022600D01*
X133985000Y-128930400D01*
X133985000Y-128689100D01*
X133985000Y-128392191D01*
X133913643Y-128347938D01*
X133796522Y-128247130D01*
X133697053Y-128129804D01*
X133616813Y-127997644D01*
X133557374Y-127852334D01*
X133540396Y-127793346D01*
X133523482Y-127699321D01*
X133515718Y-127591903D01*
X133517214Y-127481436D01*
X133528080Y-127378264D01*
X133535584Y-127339057D01*
X133580968Y-127193299D01*
X133648563Y-127057102D01*
X133736191Y-126932934D01*
X133841673Y-126823263D01*
X133962833Y-126730556D01*
X134097490Y-126657282D01*
X134159491Y-126632184D01*
X134310675Y-126589997D01*
X134462781Y-126572407D01*
X134462781Y-126474422D01*
X134393390Y-126476601D01*
X134277100Y-126480253D01*
X134277170Y-126432151D01*
X134286894Y-126352425D01*
X134317258Y-126274069D01*
X134340441Y-126233945D01*
X134361338Y-126200028D01*
X134375234Y-126175623D01*
X134378700Y-126167708D01*
X134367413Y-126164021D01*
X134339193Y-126161958D01*
X134327423Y-126161800D01*
X134276146Y-126161800D01*
X134283450Y-125926850D01*
X135039100Y-125920122D01*
X135039100Y-125525000D01*
X135027830Y-125555796D01*
X135014291Y-125584673D01*
X134963613Y-125662990D01*
X134898288Y-125721134D01*
X134817622Y-125759494D01*
X134720920Y-125778464D01*
X134666618Y-125780800D01*
X134573706Y-125775383D01*
X134498079Y-125757684D01*
X134433718Y-125725531D01*
X134374607Y-125676751D01*
X134372412Y-125674568D01*
X134321119Y-125613755D01*
X134286857Y-125548387D01*
X134267433Y-125472458D01*
X134260657Y-125379963D01*
X134260590Y-125368050D01*
X134266041Y-125273360D01*
X134283862Y-125195916D01*
X134316256Y-125129689D01*
X134365426Y-125068647D01*
X134372622Y-125061321D01*
X134431701Y-125011509D01*
X134494880Y-124978672D01*
X134567795Y-124960980D01*
X134656086Y-124956601D01*
X134656086Y-124663801D01*
X134655348Y-124663775D01*
X134562850Y-124665536D01*
X134448550Y-124669550D01*
X134444880Y-124780675D01*
X134441211Y-124891800D01*
X134277100Y-124891800D01*
X134277100Y-124663200D01*
X134061200Y-124663200D01*
X134061200Y-124421900D01*
X134275566Y-124421900D01*
X134283450Y-124326650D01*
X134362825Y-124322868D01*
X134442200Y-124319087D01*
X134442200Y-124169951D01*
X134392043Y-124211409D01*
X134346287Y-124248496D01*
X134310919Y-124276378D01*
X134289443Y-124292271D01*
X134284745Y-124294900D01*
X134281655Y-124283065D01*
X134279197Y-124251018D01*
X134277656Y-124203943D01*
X134277273Y-124158375D01*
X134277446Y-124021850D01*
X134604804Y-123767850D01*
X134294902Y-123764453D01*
X133984999Y-123761056D01*
X133984999Y-123640628D01*
X133985000Y-123520200D01*
X133985000Y-122440700D01*
X133985000Y-122199400D01*
X133985000Y-120980200D01*
X133438900Y-120980200D01*
X133438900Y-131889500D01*
X135547100Y-131889500D01*
G36*
X133745196Y-127702930D02*
X133780623Y-127825589D01*
X133835976Y-127940660D01*
X133910256Y-128045639D01*
X134002464Y-128138020D01*
X134111603Y-128215298D01*
X134236675Y-128274968D01*
X134259716Y-128283273D01*
X134303864Y-128296838D01*
X134342257Y-128305855D01*
X134360737Y-128308100D01*
X134368067Y-128308556D01*
X134374250Y-128308527D01*
X134379960Y-128305917D01*
X134385872Y-128298630D01*
X134392660Y-128284571D01*
X134400999Y-128261643D01*
X134411564Y-128227750D01*
X134425029Y-128180798D01*
X134442068Y-128118689D01*
X134463357Y-128039328D01*
X134489570Y-127940619D01*
X134521381Y-127820466D01*
X134538548Y-127755650D01*
X134565095Y-127656278D01*
X134589997Y-127564606D01*
X134612426Y-127483563D01*
X134631556Y-127416077D01*
X134646558Y-127365076D01*
X134656606Y-127333489D01*
X134660428Y-127324258D01*
X134678832Y-127320906D01*
X134709201Y-127332709D01*
X134746049Y-127356361D01*
X134783893Y-127388559D01*
X134805958Y-127411955D01*
X134853456Y-127486240D01*
X134879775Y-127571431D01*
X134885423Y-127665213D01*
X134870909Y-127765269D01*
X134836741Y-127869283D01*
X134783426Y-127974940D01*
X134711473Y-128079922D01*
X134641600Y-128161056D01*
X134595244Y-128215837D01*
X134569974Y-128260211D01*
X134565022Y-128278119D01*
X134557954Y-128321678D01*
X134604852Y-128314129D01*
X134726358Y-128283679D01*
X134844967Y-128233527D01*
X134954268Y-128167123D01*
X135047852Y-128087920D01*
X135071182Y-128062998D01*
X135116302Y-128002828D01*
X135160857Y-127927719D01*
X135200201Y-127846868D01*
X135229691Y-127769471D01*
X135241155Y-127726449D01*
X135248146Y-127675191D01*
X135252200Y-127609303D01*
X135253304Y-127537306D01*
X135251446Y-127467721D01*
X135246615Y-127409070D01*
X135241650Y-127379883D01*
X135198329Y-127250460D01*
X135133568Y-127132380D01*
X135049690Y-127028016D01*
X134949018Y-126939740D01*
X134833875Y-126869926D01*
X134706585Y-126820945D01*
X134689918Y-126816401D01*
X134621227Y-126804292D01*
X134537786Y-126798200D01*
X134449428Y-126798132D01*
X134365989Y-126804091D01*
X134347724Y-126807280D01*
X134347724Y-127227919D01*
X134364154Y-127233250D01*
X134372588Y-127247187D01*
X134373351Y-127272626D01*
X134366768Y-127312464D01*
X134353162Y-127369596D01*
X134332860Y-127446918D01*
X134319399Y-127497440D01*
X134298622Y-127575325D01*
X134279831Y-127645352D01*
X134264079Y-127703629D01*
X134252418Y-127746266D01*
X134245901Y-127769374D01*
X134245122Y-127771873D01*
X134235132Y-127778466D01*
X134211302Y-127772366D01*
X134177419Y-127756622D01*
X134108633Y-127711730D01*
X134063404Y-127657916D01*
X134040978Y-127593618D01*
X134040601Y-127517273D01*
X134046144Y-127484483D01*
X134074576Y-127396778D01*
X134118573Y-127325337D01*
X134176032Y-127272344D01*
X134244850Y-127239985D01*
X134289576Y-127231491D01*
X134322973Y-127228298D01*
X134347724Y-127227919D01*
X134347724Y-126807280D01*
X134297305Y-126816083D01*
X134296814Y-126816210D01*
X134189050Y-126855404D01*
X134083306Y-126914398D01*
X133985125Y-126988861D01*
X133900054Y-127074462D01*
X133833637Y-127166871D01*
X133822697Y-127186512D01*
X133768443Y-127314474D01*
X133738107Y-127444867D01*
X133730691Y-127575188D01*
X133745196Y-127702930D01*
X133745196Y-127702930D01*
G37*
X133745196Y-127702930D02*
X133780623Y-127825589D01*
X133835976Y-127940660D01*
X133910256Y-128045639D01*
X134002464Y-128138020D01*
X134111603Y-128215298D01*
X134236675Y-128274968D01*
X134259716Y-128283273D01*
X134303864Y-128296838D01*
X134342257Y-128305855D01*
X134360737Y-128308100D01*
X134368067Y-128308556D01*
X134374250Y-128308527D01*
X134379960Y-128305917D01*
X134385872Y-128298630D01*
X134392660Y-128284571D01*
X134400999Y-128261643D01*
X134411564Y-128227750D01*
X134425029Y-128180798D01*
X134442068Y-128118689D01*
X134463357Y-128039328D01*
X134489570Y-127940619D01*
X134521381Y-127820466D01*
X134538548Y-127755650D01*
X134565095Y-127656278D01*
X134589997Y-127564606D01*
X134612426Y-127483563D01*
X134631556Y-127416077D01*
X134646558Y-127365076D01*
X134656606Y-127333489D01*
X134660428Y-127324258D01*
X134678832Y-127320906D01*
X134709201Y-127332709D01*
X134746049Y-127356361D01*
X134783893Y-127388559D01*
X134805958Y-127411955D01*
X134853456Y-127486240D01*
X134879775Y-127571431D01*
X134885423Y-127665213D01*
X134870909Y-127765269D01*
X134836741Y-127869283D01*
X134783426Y-127974940D01*
X134711473Y-128079922D01*
X134641600Y-128161056D01*
X134595244Y-128215837D01*
X134569974Y-128260211D01*
X134565022Y-128278119D01*
X134557954Y-128321678D01*
X134604852Y-128314129D01*
X134726358Y-128283679D01*
X134844967Y-128233527D01*
X134954268Y-128167123D01*
X135047852Y-128087920D01*
X135071182Y-128062998D01*
X135116302Y-128002828D01*
X135160857Y-127927719D01*
X135200201Y-127846868D01*
X135229691Y-127769471D01*
X135241155Y-127726449D01*
X135248146Y-127675191D01*
X135252200Y-127609303D01*
X135253304Y-127537306D01*
X135251446Y-127467721D01*
X135246615Y-127409070D01*
X135241650Y-127379883D01*
X135198329Y-127250460D01*
X135133568Y-127132380D01*
X135049690Y-127028016D01*
X134949018Y-126939740D01*
X134833875Y-126869926D01*
X134706585Y-126820945D01*
X134689918Y-126816401D01*
X134621227Y-126804292D01*
X134537786Y-126798200D01*
X134449428Y-126798132D01*
X134365989Y-126804091D01*
X134347724Y-126807280D01*
X134347724Y-127227919D01*
X134364154Y-127233250D01*
X134372588Y-127247187D01*
X134373351Y-127272626D01*
X134366768Y-127312464D01*
X134353162Y-127369596D01*
X134332860Y-127446918D01*
X134319399Y-127497440D01*
X134298622Y-127575325D01*
X134279831Y-127645352D01*
X134264079Y-127703629D01*
X134252418Y-127746266D01*
X134245901Y-127769374D01*
X134245122Y-127771873D01*
X134235132Y-127778466D01*
X134211302Y-127772366D01*
X134177419Y-127756622D01*
X134108633Y-127711730D01*
X134063404Y-127657916D01*
X134040978Y-127593618D01*
X134040601Y-127517273D01*
X134046144Y-127484483D01*
X134074576Y-127396778D01*
X134118573Y-127325337D01*
X134176032Y-127272344D01*
X134244850Y-127239985D01*
X134289576Y-127231491D01*
X134322973Y-127228298D01*
X134347724Y-127227919D01*
X134347724Y-126807280D01*
X134297305Y-126816083D01*
X134296814Y-126816210D01*
X134189050Y-126855404D01*
X134083306Y-126914398D01*
X133985125Y-126988861D01*
X133900054Y-127074462D01*
X133833637Y-127166871D01*
X133822697Y-127186512D01*
X133768443Y-127314474D01*
X133738107Y-127444867D01*
X133730691Y-127575188D01*
X133745196Y-127702930D01*
G36*
X134422568Y-121731741D02*
X134451272Y-121773209D01*
X134477141Y-121794895D01*
X134497991Y-121805491D01*
X134500043Y-121805700D01*
X134526129Y-121810079D01*
X134536411Y-121813408D01*
X134544737Y-121813950D01*
X134550416Y-121805551D01*
X134553936Y-121784474D01*
X134555786Y-121746981D01*
X134556454Y-121689334D01*
X134556500Y-121659631D01*
X134556500Y-121498146D01*
X134521575Y-121506862D01*
X134471665Y-121531087D01*
X134435215Y-121571729D01*
X134413819Y-121622747D01*
X134409072Y-121678098D01*
X134422568Y-121731741D01*
X134422568Y-121731741D01*
G37*
X134422568Y-121731741D02*
X134451272Y-121773209D01*
X134477141Y-121794895D01*
X134497991Y-121805491D01*
X134500043Y-121805700D01*
X134526129Y-121810079D01*
X134536411Y-121813408D01*
X134544737Y-121813950D01*
X134550416Y-121805551D01*
X134553936Y-121784474D01*
X134555786Y-121746981D01*
X134556454Y-121689334D01*
X134556500Y-121659631D01*
X134556500Y-121498146D01*
X134521575Y-121506862D01*
X134471665Y-121531087D01*
X134435215Y-121571729D01*
X134413819Y-121622747D01*
X134409072Y-121678098D01*
X134422568Y-121731741D01*
G36*
X134413061Y-123021460D02*
X134416478Y-123036404D01*
X134439230Y-123085503D01*
X134478416Y-123117843D01*
X134521575Y-123133366D01*
X134556500Y-123141953D01*
X134556500Y-122980970D01*
X134556377Y-122914704D01*
X134555521Y-122869929D01*
X134553202Y-122842739D01*
X134548688Y-122829226D01*
X134541247Y-122825483D01*
X134530150Y-122827601D01*
X134527925Y-122828240D01*
X134472131Y-122856335D01*
X134432718Y-122901024D01*
X134412192Y-122957627D01*
X134413061Y-123021460D01*
X134413061Y-123021460D01*
G37*
X134413061Y-123021460D02*
X134416478Y-123036404D01*
X134439230Y-123085503D01*
X134478416Y-123117843D01*
X134521575Y-123133366D01*
X134556500Y-123141953D01*
X134556500Y-122980970D01*
X134556377Y-122914704D01*
X134555521Y-122869929D01*
X134553202Y-122842739D01*
X134548688Y-122829226D01*
X134541247Y-122825483D01*
X134530150Y-122827601D01*
X134527925Y-122828240D01*
X134472131Y-122856335D01*
X134432718Y-122901024D01*
X134412192Y-122957627D01*
X134413061Y-123021460D01*
G36*
X134439986Y-125428371D02*
X134471403Y-125474352D01*
X134523684Y-125505948D01*
X134596765Y-125523115D01*
X134660867Y-125526521D01*
X134733323Y-125520990D01*
X134795991Y-125506011D01*
X134843776Y-125483317D01*
X134871472Y-125454854D01*
X134885809Y-125413961D01*
X134892668Y-125367140D01*
X134890255Y-125330479D01*
X134865245Y-125278464D01*
X134820628Y-125241140D01*
X134755853Y-125218221D01*
X134670374Y-125209421D01*
X134657435Y-125209300D01*
X134570945Y-125216655D01*
X134504777Y-125238610D01*
X134459170Y-125274999D01*
X134434364Y-125325654D01*
X134429500Y-125368050D01*
X134439986Y-125428371D01*
X134439986Y-125428371D01*
G37*
X134439986Y-125428371D02*
X134471403Y-125474352D01*
X134523684Y-125505948D01*
X134596765Y-125523115D01*
X134660867Y-125526521D01*
X134733323Y-125520990D01*
X134795991Y-125506011D01*
X134843776Y-125483317D01*
X134871472Y-125454854D01*
X134885809Y-125413961D01*
X134892668Y-125367140D01*
X134890255Y-125330479D01*
X134865245Y-125278464D01*
X134820628Y-125241140D01*
X134755853Y-125218221D01*
X134670374Y-125209421D01*
X134657435Y-125209300D01*
X134570945Y-125216655D01*
X134504777Y-125238610D01*
X134459170Y-125274999D01*
X134434364Y-125325654D01*
X134429500Y-125368050D01*
X134439986Y-125428371D01*
G36*
X134762120Y-129590800D02*
X134806941Y-129589908D01*
X134833871Y-129585472D01*
X134850405Y-129574848D01*
X134864037Y-129555394D01*
X134864439Y-129554715D01*
X134882304Y-129510538D01*
X134892681Y-129457452D01*
X134893430Y-129408512D01*
X134890807Y-129393950D01*
X134868482Y-129351627D01*
X134831030Y-129327967D01*
X134804150Y-129324100D01*
X134767882Y-129330442D01*
X134739810Y-129351293D01*
X134718367Y-129389386D01*
X134701989Y-129447454D01*
X134689630Y-129524125D01*
X134681116Y-129590800D01*
X134762120Y-129590800D01*
X134762120Y-129590800D01*
G37*
X134762120Y-129590800D02*
X134806941Y-129589908D01*
X134833871Y-129585472D01*
X134850405Y-129574848D01*
X134864037Y-129555394D01*
X134864439Y-129554715D01*
X134882304Y-129510538D01*
X134892681Y-129457452D01*
X134893430Y-129408512D01*
X134890807Y-129393950D01*
X134868482Y-129351627D01*
X134831030Y-129327967D01*
X134804150Y-129324100D01*
X134767882Y-129330442D01*
X134739810Y-129351293D01*
X134718367Y-129389386D01*
X134701989Y-129447454D01*
X134689630Y-129524125D01*
X134681116Y-129590800D01*
X134762120Y-129590800D01*
G36*
X134448337Y-130445440D02*
X134471697Y-130496986D01*
X134514254Y-130534664D01*
X134519675Y-130537609D01*
X134563339Y-130551387D01*
X134620984Y-130558093D01*
X134683210Y-130557817D01*
X134740620Y-130550651D01*
X134783814Y-130536685D01*
X134786820Y-130535018D01*
X134838025Y-130491211D01*
X134870238Y-130433022D01*
X134881823Y-130364611D01*
X134875830Y-130308350D01*
X134867427Y-130270250D01*
X134675372Y-130266752D01*
X134483316Y-130263254D01*
X134462758Y-130314634D01*
X134445062Y-130383499D01*
X134448337Y-130445440D01*
X134448337Y-130445440D01*
G37*
X134448337Y-130445440D02*
X134471697Y-130496986D01*
X134514254Y-130534664D01*
X134519675Y-130537609D01*
X134563339Y-130551387D01*
X134620984Y-130558093D01*
X134683210Y-130557817D01*
X134740620Y-130550651D01*
X134783814Y-130536685D01*
X134786820Y-130535018D01*
X134838025Y-130491211D01*
X134870238Y-130433022D01*
X134881823Y-130364611D01*
X134875830Y-130308350D01*
X134867427Y-130270250D01*
X134675372Y-130266752D01*
X134483316Y-130263254D01*
X134462758Y-130314634D01*
X134445062Y-130383499D01*
X134448337Y-130445440D01*
D14*
G04 #@! TO.C,K4*
X177352000Y-110684000D02*
X177352000Y-113344000D01*
X167132000Y-110684000D02*
X177352000Y-110684000D01*
X167132000Y-113344000D02*
X177352000Y-113344000D01*
X167132000Y-110684000D02*
X167132000Y-113344000D01*
X165862000Y-110684000D02*
X164532000Y-110684000D01*
X164532000Y-110684000D02*
X164532000Y-112014000D01*
D15*
G04 #@! TO.C,BT2*
X141168000Y-126896000D02*
X191168000Y-126896000D01*
X191168000Y-113896000D02*
X191168000Y-126896000D01*
X141168000Y-113896000D02*
X191168000Y-113896000D01*
X141168000Y-126896000D02*
X141168000Y-113896000D01*
G04 #@! TO.C,BT1*
X141168000Y-140358000D02*
X141168000Y-127358000D01*
X141168000Y-127358000D02*
X191168000Y-127358000D01*
X191168000Y-127358000D02*
X191168000Y-140358000D01*
X141168000Y-140358000D02*
X191168000Y-140358000D01*
D14*
G04 #@! TO.C,K3*
X144212000Y-113344000D02*
X144212000Y-110684000D01*
X151892000Y-113344000D02*
X144212000Y-113344000D01*
X151892000Y-110684000D02*
X144212000Y-110684000D01*
X151892000Y-113344000D02*
X151892000Y-110684000D01*
X153162000Y-113344000D02*
X154492000Y-113344000D01*
X154492000Y-113344000D02*
X154492000Y-112014000D01*
G04 #@! TO.C,K2*
X129953200Y-143477800D02*
X129953200Y-141357800D01*
X132013200Y-143477800D02*
X129953200Y-143477800D01*
X132013200Y-141357800D02*
X129953200Y-141357800D01*
X132013200Y-143477800D02*
X132013200Y-141357800D01*
X133013200Y-143477800D02*
X134073200Y-143477800D01*
X134073200Y-143477800D02*
X134073200Y-142417800D01*
G04 #@! TO.C,K5*
X134052000Y-143824000D02*
X134052000Y-141164000D01*
X174752000Y-143824000D02*
X134052000Y-143824000D01*
X174752000Y-141164000D02*
X134052000Y-141164000D01*
X174752000Y-143824000D02*
X174752000Y-141164000D01*
X176022000Y-143824000D02*
X177352000Y-143824000D01*
X177352000Y-143824000D02*
X177352000Y-142494000D01*
G04 #@! TO.C,K6*
X190077400Y-141214800D02*
X190077400Y-143874800D01*
X184937400Y-141214800D02*
X190077400Y-141214800D01*
X184937400Y-143874800D02*
X190077400Y-143874800D01*
X184937400Y-141214800D02*
X184937400Y-143874800D01*
X183667400Y-141214800D02*
X182337400Y-141214800D01*
X182337400Y-141214800D02*
X182337400Y-142544800D01*
G04 #@! TO.C,JP1*
X185118200Y-112201200D02*
X185118200Y-110201200D01*
X182318200Y-112201200D02*
X185118200Y-112201200D01*
X182318200Y-110201200D02*
X182318200Y-112201200D01*
X185118200Y-110201200D02*
X182318200Y-110201200D01*
G04 #@! TO.C,JP2*
X136328000Y-113214000D02*
X136028000Y-113514000D01*
X136628000Y-113514000D02*
X136028000Y-113514000D01*
X136328000Y-113214000D02*
X136628000Y-113514000D01*
X137178000Y-112314000D02*
X137178000Y-111714000D01*
X133728000Y-113014000D02*
X136528000Y-113014000D01*
X133078000Y-111714000D02*
X133078000Y-112314000D01*
X136528000Y-111014000D02*
X133728000Y-111014000D01*
X133778000Y-111014000D02*
G75*
G03X133078000Y-111714000I0J-700000D01*
G01*
X133078000Y-112314000D02*
G75*
G03X133778000Y-113014000I700000J0D01*
G01*
X136478000Y-113014000D02*
G75*
G03X137178000Y-112314000I0J700000D01*
G01*
X137178000Y-111714000D02*
G75*
G03X136478000Y-111014000I-700000J0D01*
G01*
G04 #@! TD*
G04 #@! TO.C,K4*
D16*
X163984380Y-111275904D02*
X162984380Y-111275904D01*
X163984380Y-111847333D02*
X163412952Y-111418761D01*
X162984380Y-111847333D02*
X163555809Y-111275904D01*
X163317714Y-112704476D02*
X163984380Y-112704476D01*
X162936761Y-112466380D02*
X163651047Y-112228285D01*
X163651047Y-112847333D01*
G04 #@! TO.C,BT2*
X143990914Y-122458171D02*
X143848057Y-122505790D01*
X143800438Y-122553409D01*
X143752819Y-122648647D01*
X143752819Y-122791504D01*
X143800438Y-122886742D01*
X143848057Y-122934361D01*
X143943295Y-122981980D01*
X144324247Y-122981980D01*
X144324247Y-121981980D01*
X143990914Y-121981980D01*
X143895676Y-122029600D01*
X143848057Y-122077219D01*
X143800438Y-122172457D01*
X143800438Y-122267695D01*
X143848057Y-122362933D01*
X143895676Y-122410552D01*
X143990914Y-122458171D01*
X144324247Y-122458171D01*
X143467104Y-121981980D02*
X142895676Y-121981980D01*
X143181390Y-122981980D02*
X143181390Y-121981980D01*
X142609961Y-122077219D02*
X142562342Y-122029600D01*
X142467104Y-121981980D01*
X142229009Y-121981980D01*
X142133771Y-122029600D01*
X142086152Y-122077219D01*
X142038533Y-122172457D01*
X142038533Y-122267695D01*
X142086152Y-122410552D01*
X142657580Y-122981980D01*
X142038533Y-122981980D01*
D17*
X144449704Y-124348857D02*
X142925895Y-124348857D01*
X143687800Y-125110761D02*
X143687800Y-123586952D01*
X186339904Y-120538857D02*
X184816095Y-120538857D01*
G04 #@! TO.C,BT1*
D16*
X144473514Y-131602171D02*
X144330657Y-131649790D01*
X144283038Y-131697409D01*
X144235419Y-131792647D01*
X144235419Y-131935504D01*
X144283038Y-132030742D01*
X144330657Y-132078361D01*
X144425895Y-132125980D01*
X144806847Y-132125980D01*
X144806847Y-131125980D01*
X144473514Y-131125980D01*
X144378276Y-131173600D01*
X144330657Y-131221219D01*
X144283038Y-131316457D01*
X144283038Y-131411695D01*
X144330657Y-131506933D01*
X144378276Y-131554552D01*
X144473514Y-131602171D01*
X144806847Y-131602171D01*
X143949704Y-131125980D02*
X143378276Y-131125980D01*
X143663990Y-132125980D02*
X143663990Y-131125980D01*
X142521133Y-132125980D02*
X143092561Y-132125980D01*
X142806847Y-132125980D02*
X142806847Y-131125980D01*
X142902085Y-131268838D01*
X142997323Y-131364076D01*
X143092561Y-131411695D01*
D17*
X186339904Y-134000857D02*
X184816095Y-134000857D01*
X144221104Y-129632057D02*
X142697295Y-129632057D01*
X143459200Y-130393961D02*
X143459200Y-128870152D01*
G04 #@! TO.C,K3*
D16*
X155944380Y-111275904D02*
X154944380Y-111275904D01*
X155944380Y-111847333D02*
X155372952Y-111418761D01*
X154944380Y-111847333D02*
X155515809Y-111275904D01*
X154944380Y-112180666D02*
X154944380Y-112799714D01*
X155325333Y-112466380D01*
X155325333Y-112609238D01*
X155372952Y-112704476D01*
X155420571Y-112752095D01*
X155515809Y-112799714D01*
X155753904Y-112799714D01*
X155849142Y-112752095D01*
X155896761Y-112704476D01*
X155944380Y-112609238D01*
X155944380Y-112323523D01*
X155896761Y-112228285D01*
X155849142Y-112180666D01*
G04 #@! TO.C,K2*
X135811295Y-142870180D02*
X135811295Y-141870180D01*
X135239866Y-142870180D02*
X135668438Y-142298752D01*
X135239866Y-141870180D02*
X135811295Y-142441609D01*
X134858914Y-141965419D02*
X134811295Y-141917800D01*
X134716057Y-141870180D01*
X134477961Y-141870180D01*
X134382723Y-141917800D01*
X134335104Y-141965419D01*
X134287485Y-142060657D01*
X134287485Y-142155895D01*
X134335104Y-142298752D01*
X134906533Y-142870180D01*
X134287485Y-142870180D01*
G04 #@! TO.C,K5*
X179522380Y-141882904D02*
X178522380Y-141882904D01*
X179522380Y-142454333D02*
X178950952Y-142025761D01*
X178522380Y-142454333D02*
X179093809Y-141882904D01*
X178522380Y-143359095D02*
X178522380Y-142882904D01*
X178998571Y-142835285D01*
X178950952Y-142882904D01*
X178903333Y-142978142D01*
X178903333Y-143216238D01*
X178950952Y-143311476D01*
X178998571Y-143359095D01*
X179093809Y-143406714D01*
X179331904Y-143406714D01*
X179427142Y-143359095D01*
X179474761Y-143311476D01*
X179522380Y-143216238D01*
X179522380Y-142978142D01*
X179474761Y-142882904D01*
X179427142Y-142835285D01*
G04 #@! TO.C,K6*
X191206380Y-141806704D02*
X190206380Y-141806704D01*
X191206380Y-142378133D02*
X190634952Y-141949561D01*
X190206380Y-142378133D02*
X190777809Y-141806704D01*
X190206380Y-143235276D02*
X190206380Y-143044800D01*
X190254000Y-142949561D01*
X190301619Y-142901942D01*
X190444476Y-142806704D01*
X190634952Y-142759085D01*
X191015904Y-142759085D01*
X191111142Y-142806704D01*
X191158761Y-142854323D01*
X191206380Y-142949561D01*
X191206380Y-143140038D01*
X191158761Y-143235276D01*
X191111142Y-143282895D01*
X191015904Y-143330514D01*
X190777809Y-143330514D01*
X190682571Y-143282895D01*
X190634952Y-143235276D01*
X190587333Y-143140038D01*
X190587333Y-142949561D01*
X190634952Y-142854323D01*
X190682571Y-142806704D01*
X190777809Y-142759085D01*
G04 #@! TO.C,JP1*
X181300333Y-110831380D02*
X181300333Y-111545666D01*
X181347952Y-111688523D01*
X181443190Y-111783761D01*
X181586047Y-111831380D01*
X181681285Y-111831380D01*
X180824142Y-111831380D02*
X180824142Y-110831380D01*
X180443190Y-110831380D01*
X180347952Y-110879000D01*
X180300333Y-110926619D01*
X180252714Y-111021857D01*
X180252714Y-111164714D01*
X180300333Y-111259952D01*
X180347952Y-111307571D01*
X180443190Y-111355190D01*
X180824142Y-111355190D01*
X179300333Y-111831380D02*
X179871761Y-111831380D01*
X179586047Y-111831380D02*
X179586047Y-110831380D01*
X179681285Y-110974238D01*
X179776523Y-111069476D01*
X179871761Y-111117095D01*
G04 #@! TO.C,JP2*
X139517333Y-110450380D02*
X139517333Y-111164666D01*
X139564952Y-111307523D01*
X139660190Y-111402761D01*
X139803047Y-111450380D01*
X139898285Y-111450380D01*
X139041142Y-111450380D02*
X139041142Y-110450380D01*
X138660190Y-110450380D01*
X138564952Y-110498000D01*
X138517333Y-110545619D01*
X138469714Y-110640857D01*
X138469714Y-110783714D01*
X138517333Y-110878952D01*
X138564952Y-110926571D01*
X138660190Y-110974190D01*
X139041142Y-110974190D01*
X138088761Y-110545619D02*
X138041142Y-110498000D01*
X137945904Y-110450380D01*
X137707809Y-110450380D01*
X137612571Y-110498000D01*
X137564952Y-110545619D01*
X137517333Y-110640857D01*
X137517333Y-110736095D01*
X137564952Y-110878952D01*
X138136380Y-111450380D01*
X137517333Y-111450380D01*
G04 #@! TD*
M02*
