G04 #@! TF.GenerationSoftware,KiCad,Pcbnew,(5.0.2)-1*
G04 #@! TF.CreationDate,2019-11-27T09:51:45+01:00*
G04 #@! TF.ProjectId,LoRa_Tracker,4c6f5261-5f54-4726-9163-6b65722e6b69,rev?*
G04 #@! TF.SameCoordinates,Original*
G04 #@! TF.FileFunction,Soldermask,Bot*
G04 #@! TF.FilePolarity,Negative*
%FSLAX46Y46*%
G04 Gerber Fmt 4.6, Leading zero omitted, Abs format (unit mm)*
G04 Created by KiCad (PCBNEW (5.0.2)-1) date 27.11.2019 09:51:45*
%MOMM*%
%LPD*%
G01*
G04 APERTURE LIST*
%ADD10C,0.200000*%
%ADD11C,0.100000*%
G04 APERTURE END LIST*
D10*
X191516000Y-109982000D02*
X191516000Y-144018000D01*
X130048000Y-144018000D02*
X191516000Y-144018000D01*
X130048000Y-109982000D02*
X130048000Y-144018000D01*
X130048000Y-109982000D02*
X191516000Y-109982000D01*
D11*
G36*
X188857843Y-141650319D02*
X188924027Y-141656837D01*
X189037253Y-141691184D01*
X189093867Y-141708357D01*
X189160214Y-141743821D01*
X189250391Y-141792022D01*
X189286129Y-141821352D01*
X189387586Y-141904614D01*
X189458487Y-141991009D01*
X189500178Y-142041809D01*
X189500179Y-142041811D01*
X189583843Y-142198333D01*
X189583843Y-142198334D01*
X189635363Y-142368173D01*
X189652759Y-142544800D01*
X189635363Y-142721427D01*
X189604522Y-142823095D01*
X189583843Y-142891267D01*
X189512698Y-143024368D01*
X189500178Y-143047791D01*
X189470848Y-143083529D01*
X189387586Y-143184986D01*
X189286129Y-143268248D01*
X189250391Y-143297578D01*
X189250389Y-143297579D01*
X189093867Y-143381243D01*
X189048515Y-143395000D01*
X188924027Y-143432763D01*
X188857842Y-143439282D01*
X188791660Y-143445800D01*
X188703140Y-143445800D01*
X188636958Y-143439282D01*
X188570773Y-143432763D01*
X188446285Y-143395000D01*
X188400933Y-143381243D01*
X188244411Y-143297579D01*
X188244409Y-143297578D01*
X188208671Y-143268248D01*
X188107214Y-143184986D01*
X188023952Y-143083529D01*
X187994622Y-143047791D01*
X187982102Y-143024368D01*
X187910957Y-142891267D01*
X187890278Y-142823095D01*
X187859437Y-142721427D01*
X187842041Y-142544800D01*
X187859437Y-142368173D01*
X187910957Y-142198334D01*
X187910957Y-142198333D01*
X187994621Y-142041811D01*
X187994622Y-142041809D01*
X188036313Y-141991009D01*
X188107214Y-141904614D01*
X188208671Y-141821352D01*
X188244409Y-141792022D01*
X188334586Y-141743821D01*
X188400933Y-141708357D01*
X188457547Y-141691184D01*
X188570773Y-141656837D01*
X188636957Y-141650319D01*
X188703140Y-141643800D01*
X188791660Y-141643800D01*
X188857843Y-141650319D01*
X188857843Y-141650319D01*
G37*
G36*
X186317843Y-141650319D02*
X186384027Y-141656837D01*
X186497253Y-141691184D01*
X186553867Y-141708357D01*
X186620214Y-141743821D01*
X186710391Y-141792022D01*
X186746129Y-141821352D01*
X186847586Y-141904614D01*
X186918487Y-141991009D01*
X186960178Y-142041809D01*
X186960179Y-142041811D01*
X187043843Y-142198333D01*
X187043843Y-142198334D01*
X187095363Y-142368173D01*
X187112759Y-142544800D01*
X187095363Y-142721427D01*
X187064522Y-142823095D01*
X187043843Y-142891267D01*
X186972698Y-143024368D01*
X186960178Y-143047791D01*
X186930848Y-143083529D01*
X186847586Y-143184986D01*
X186746129Y-143268248D01*
X186710391Y-143297578D01*
X186710389Y-143297579D01*
X186553867Y-143381243D01*
X186508515Y-143395000D01*
X186384027Y-143432763D01*
X186317842Y-143439282D01*
X186251660Y-143445800D01*
X186163140Y-143445800D01*
X186096958Y-143439282D01*
X186030773Y-143432763D01*
X185906285Y-143395000D01*
X185860933Y-143381243D01*
X185704411Y-143297579D01*
X185704409Y-143297578D01*
X185668671Y-143268248D01*
X185567214Y-143184986D01*
X185483952Y-143083529D01*
X185454622Y-143047791D01*
X185442102Y-143024368D01*
X185370957Y-142891267D01*
X185350278Y-142823095D01*
X185319437Y-142721427D01*
X185302041Y-142544800D01*
X185319437Y-142368173D01*
X185370957Y-142198334D01*
X185370957Y-142198333D01*
X185454621Y-142041811D01*
X185454622Y-142041809D01*
X185496313Y-141991009D01*
X185567214Y-141904614D01*
X185668671Y-141821352D01*
X185704409Y-141792022D01*
X185794586Y-141743821D01*
X185860933Y-141708357D01*
X185917547Y-141691184D01*
X186030773Y-141656837D01*
X186096957Y-141650319D01*
X186163140Y-141643800D01*
X186251660Y-141643800D01*
X186317843Y-141650319D01*
X186317843Y-141650319D01*
G37*
G36*
X184568400Y-143445800D02*
X182766400Y-143445800D01*
X182766400Y-141643800D01*
X184568400Y-141643800D01*
X184568400Y-143445800D01*
X184568400Y-143445800D01*
G37*
G36*
X176923000Y-143395000D02*
X175121000Y-143395000D01*
X175121000Y-141593000D01*
X176923000Y-141593000D01*
X176923000Y-143395000D01*
X176923000Y-143395000D01*
G37*
G36*
X155812443Y-141599519D02*
X155878627Y-141606037D01*
X155991853Y-141640384D01*
X156048467Y-141657557D01*
X156187087Y-141731652D01*
X156204991Y-141741222D01*
X156240729Y-141770552D01*
X156342186Y-141853814D01*
X156425448Y-141955271D01*
X156454778Y-141991009D01*
X156454779Y-141991011D01*
X156538443Y-142147533D01*
X156538443Y-142147534D01*
X156589963Y-142317373D01*
X156607359Y-142494000D01*
X156589963Y-142670627D01*
X156574553Y-142721427D01*
X156538443Y-142840467D01*
X156464348Y-142979087D01*
X156454778Y-142996991D01*
X156432311Y-143024367D01*
X156342186Y-143134186D01*
X156240729Y-143217448D01*
X156204991Y-143246778D01*
X156204989Y-143246779D01*
X156048467Y-143330443D01*
X155991853Y-143347616D01*
X155878627Y-143381963D01*
X155812443Y-143388481D01*
X155746260Y-143395000D01*
X155657740Y-143395000D01*
X155591557Y-143388481D01*
X155525373Y-143381963D01*
X155412147Y-143347616D01*
X155355533Y-143330443D01*
X155199011Y-143246779D01*
X155199009Y-143246778D01*
X155163271Y-143217448D01*
X155061814Y-143134186D01*
X154971689Y-143024367D01*
X154949222Y-142996991D01*
X154939652Y-142979087D01*
X154865557Y-142840467D01*
X154829447Y-142721427D01*
X154814037Y-142670627D01*
X154796641Y-142494000D01*
X154814037Y-142317373D01*
X154865557Y-142147534D01*
X154865557Y-142147533D01*
X154949221Y-141991011D01*
X154949222Y-141991009D01*
X154978552Y-141955271D01*
X155061814Y-141853814D01*
X155163271Y-141770552D01*
X155199009Y-141741222D01*
X155216913Y-141731652D01*
X155355533Y-141657557D01*
X155412147Y-141640384D01*
X155525373Y-141606037D01*
X155591557Y-141599519D01*
X155657740Y-141593000D01*
X155746260Y-141593000D01*
X155812443Y-141599519D01*
X155812443Y-141599519D01*
G37*
G36*
X158352443Y-141599519D02*
X158418627Y-141606037D01*
X158531853Y-141640384D01*
X158588467Y-141657557D01*
X158727087Y-141731652D01*
X158744991Y-141741222D01*
X158780729Y-141770552D01*
X158882186Y-141853814D01*
X158965448Y-141955271D01*
X158994778Y-141991009D01*
X158994779Y-141991011D01*
X159078443Y-142147533D01*
X159078443Y-142147534D01*
X159129963Y-142317373D01*
X159147359Y-142494000D01*
X159129963Y-142670627D01*
X159114553Y-142721427D01*
X159078443Y-142840467D01*
X159004348Y-142979087D01*
X158994778Y-142996991D01*
X158972311Y-143024367D01*
X158882186Y-143134186D01*
X158780729Y-143217448D01*
X158744991Y-143246778D01*
X158744989Y-143246779D01*
X158588467Y-143330443D01*
X158531853Y-143347616D01*
X158418627Y-143381963D01*
X158352443Y-143388481D01*
X158286260Y-143395000D01*
X158197740Y-143395000D01*
X158131557Y-143388481D01*
X158065373Y-143381963D01*
X157952147Y-143347616D01*
X157895533Y-143330443D01*
X157739011Y-143246779D01*
X157739009Y-143246778D01*
X157703271Y-143217448D01*
X157601814Y-143134186D01*
X157511689Y-143024367D01*
X157489222Y-142996991D01*
X157479652Y-142979087D01*
X157405557Y-142840467D01*
X157369447Y-142721427D01*
X157354037Y-142670627D01*
X157336641Y-142494000D01*
X157354037Y-142317373D01*
X157405557Y-142147534D01*
X157405557Y-142147533D01*
X157489221Y-141991011D01*
X157489222Y-141991009D01*
X157518552Y-141955271D01*
X157601814Y-141853814D01*
X157703271Y-141770552D01*
X157739009Y-141741222D01*
X157756913Y-141731652D01*
X157895533Y-141657557D01*
X157952147Y-141640384D01*
X158065373Y-141606037D01*
X158131557Y-141599519D01*
X158197740Y-141593000D01*
X158286260Y-141593000D01*
X158352443Y-141599519D01*
X158352443Y-141599519D01*
G37*
G36*
X160892443Y-141599519D02*
X160958627Y-141606037D01*
X161071853Y-141640384D01*
X161128467Y-141657557D01*
X161267087Y-141731652D01*
X161284991Y-141741222D01*
X161320729Y-141770552D01*
X161422186Y-141853814D01*
X161505448Y-141955271D01*
X161534778Y-141991009D01*
X161534779Y-141991011D01*
X161618443Y-142147533D01*
X161618443Y-142147534D01*
X161669963Y-142317373D01*
X161687359Y-142494000D01*
X161669963Y-142670627D01*
X161654553Y-142721427D01*
X161618443Y-142840467D01*
X161544348Y-142979087D01*
X161534778Y-142996991D01*
X161512311Y-143024367D01*
X161422186Y-143134186D01*
X161320729Y-143217448D01*
X161284991Y-143246778D01*
X161284989Y-143246779D01*
X161128467Y-143330443D01*
X161071853Y-143347616D01*
X160958627Y-143381963D01*
X160892443Y-143388481D01*
X160826260Y-143395000D01*
X160737740Y-143395000D01*
X160671557Y-143388481D01*
X160605373Y-143381963D01*
X160492147Y-143347616D01*
X160435533Y-143330443D01*
X160279011Y-143246779D01*
X160279009Y-143246778D01*
X160243271Y-143217448D01*
X160141814Y-143134186D01*
X160051689Y-143024367D01*
X160029222Y-142996991D01*
X160019652Y-142979087D01*
X159945557Y-142840467D01*
X159909447Y-142721427D01*
X159894037Y-142670627D01*
X159876641Y-142494000D01*
X159894037Y-142317373D01*
X159945557Y-142147534D01*
X159945557Y-142147533D01*
X160029221Y-141991011D01*
X160029222Y-141991009D01*
X160058552Y-141955271D01*
X160141814Y-141853814D01*
X160243271Y-141770552D01*
X160279009Y-141741222D01*
X160296913Y-141731652D01*
X160435533Y-141657557D01*
X160492147Y-141640384D01*
X160605373Y-141606037D01*
X160671557Y-141599519D01*
X160737740Y-141593000D01*
X160826260Y-141593000D01*
X160892443Y-141599519D01*
X160892443Y-141599519D01*
G37*
G36*
X163432443Y-141599519D02*
X163498627Y-141606037D01*
X163611853Y-141640384D01*
X163668467Y-141657557D01*
X163807087Y-141731652D01*
X163824991Y-141741222D01*
X163860729Y-141770552D01*
X163962186Y-141853814D01*
X164045448Y-141955271D01*
X164074778Y-141991009D01*
X164074779Y-141991011D01*
X164158443Y-142147533D01*
X164158443Y-142147534D01*
X164209963Y-142317373D01*
X164227359Y-142494000D01*
X164209963Y-142670627D01*
X164194553Y-142721427D01*
X164158443Y-142840467D01*
X164084348Y-142979087D01*
X164074778Y-142996991D01*
X164052311Y-143024367D01*
X163962186Y-143134186D01*
X163860729Y-143217448D01*
X163824991Y-143246778D01*
X163824989Y-143246779D01*
X163668467Y-143330443D01*
X163611853Y-143347616D01*
X163498627Y-143381963D01*
X163432443Y-143388481D01*
X163366260Y-143395000D01*
X163277740Y-143395000D01*
X163211557Y-143388481D01*
X163145373Y-143381963D01*
X163032147Y-143347616D01*
X162975533Y-143330443D01*
X162819011Y-143246779D01*
X162819009Y-143246778D01*
X162783271Y-143217448D01*
X162681814Y-143134186D01*
X162591689Y-143024367D01*
X162569222Y-142996991D01*
X162559652Y-142979087D01*
X162485557Y-142840467D01*
X162449447Y-142721427D01*
X162434037Y-142670627D01*
X162416641Y-142494000D01*
X162434037Y-142317373D01*
X162485557Y-142147534D01*
X162485557Y-142147533D01*
X162569221Y-141991011D01*
X162569222Y-141991009D01*
X162598552Y-141955271D01*
X162681814Y-141853814D01*
X162783271Y-141770552D01*
X162819009Y-141741222D01*
X162836913Y-141731652D01*
X162975533Y-141657557D01*
X163032147Y-141640384D01*
X163145373Y-141606037D01*
X163211557Y-141599519D01*
X163277740Y-141593000D01*
X163366260Y-141593000D01*
X163432443Y-141599519D01*
X163432443Y-141599519D01*
G37*
G36*
X165972443Y-141599519D02*
X166038627Y-141606037D01*
X166151853Y-141640384D01*
X166208467Y-141657557D01*
X166347087Y-141731652D01*
X166364991Y-141741222D01*
X166400729Y-141770552D01*
X166502186Y-141853814D01*
X166585448Y-141955271D01*
X166614778Y-141991009D01*
X166614779Y-141991011D01*
X166698443Y-142147533D01*
X166698443Y-142147534D01*
X166749963Y-142317373D01*
X166767359Y-142494000D01*
X166749963Y-142670627D01*
X166734553Y-142721427D01*
X166698443Y-142840467D01*
X166624348Y-142979087D01*
X166614778Y-142996991D01*
X166592311Y-143024367D01*
X166502186Y-143134186D01*
X166400729Y-143217448D01*
X166364991Y-143246778D01*
X166364989Y-143246779D01*
X166208467Y-143330443D01*
X166151853Y-143347616D01*
X166038627Y-143381963D01*
X165972443Y-143388481D01*
X165906260Y-143395000D01*
X165817740Y-143395000D01*
X165751557Y-143388481D01*
X165685373Y-143381963D01*
X165572147Y-143347616D01*
X165515533Y-143330443D01*
X165359011Y-143246779D01*
X165359009Y-143246778D01*
X165323271Y-143217448D01*
X165221814Y-143134186D01*
X165131689Y-143024367D01*
X165109222Y-142996991D01*
X165099652Y-142979087D01*
X165025557Y-142840467D01*
X164989447Y-142721427D01*
X164974037Y-142670627D01*
X164956641Y-142494000D01*
X164974037Y-142317373D01*
X165025557Y-142147534D01*
X165025557Y-142147533D01*
X165109221Y-141991011D01*
X165109222Y-141991009D01*
X165138552Y-141955271D01*
X165221814Y-141853814D01*
X165323271Y-141770552D01*
X165359009Y-141741222D01*
X165376913Y-141731652D01*
X165515533Y-141657557D01*
X165572147Y-141640384D01*
X165685373Y-141606037D01*
X165751557Y-141599519D01*
X165817740Y-141593000D01*
X165906260Y-141593000D01*
X165972443Y-141599519D01*
X165972443Y-141599519D01*
G37*
G36*
X168512443Y-141599519D02*
X168578627Y-141606037D01*
X168691853Y-141640384D01*
X168748467Y-141657557D01*
X168887087Y-141731652D01*
X168904991Y-141741222D01*
X168940729Y-141770552D01*
X169042186Y-141853814D01*
X169125448Y-141955271D01*
X169154778Y-141991009D01*
X169154779Y-141991011D01*
X169238443Y-142147533D01*
X169238443Y-142147534D01*
X169289963Y-142317373D01*
X169307359Y-142494000D01*
X169289963Y-142670627D01*
X169274553Y-142721427D01*
X169238443Y-142840467D01*
X169164348Y-142979087D01*
X169154778Y-142996991D01*
X169132311Y-143024367D01*
X169042186Y-143134186D01*
X168940729Y-143217448D01*
X168904991Y-143246778D01*
X168904989Y-143246779D01*
X168748467Y-143330443D01*
X168691853Y-143347616D01*
X168578627Y-143381963D01*
X168512443Y-143388481D01*
X168446260Y-143395000D01*
X168357740Y-143395000D01*
X168291557Y-143388481D01*
X168225373Y-143381963D01*
X168112147Y-143347616D01*
X168055533Y-143330443D01*
X167899011Y-143246779D01*
X167899009Y-143246778D01*
X167863271Y-143217448D01*
X167761814Y-143134186D01*
X167671689Y-143024367D01*
X167649222Y-142996991D01*
X167639652Y-142979087D01*
X167565557Y-142840467D01*
X167529447Y-142721427D01*
X167514037Y-142670627D01*
X167496641Y-142494000D01*
X167514037Y-142317373D01*
X167565557Y-142147534D01*
X167565557Y-142147533D01*
X167649221Y-141991011D01*
X167649222Y-141991009D01*
X167678552Y-141955271D01*
X167761814Y-141853814D01*
X167863271Y-141770552D01*
X167899009Y-141741222D01*
X167916913Y-141731652D01*
X168055533Y-141657557D01*
X168112147Y-141640384D01*
X168225373Y-141606037D01*
X168291557Y-141599519D01*
X168357740Y-141593000D01*
X168446260Y-141593000D01*
X168512443Y-141599519D01*
X168512443Y-141599519D01*
G37*
G36*
X171052443Y-141599519D02*
X171118627Y-141606037D01*
X171231853Y-141640384D01*
X171288467Y-141657557D01*
X171427087Y-141731652D01*
X171444991Y-141741222D01*
X171480729Y-141770552D01*
X171582186Y-141853814D01*
X171665448Y-141955271D01*
X171694778Y-141991009D01*
X171694779Y-141991011D01*
X171778443Y-142147533D01*
X171778443Y-142147534D01*
X171829963Y-142317373D01*
X171847359Y-142494000D01*
X171829963Y-142670627D01*
X171814553Y-142721427D01*
X171778443Y-142840467D01*
X171704348Y-142979087D01*
X171694778Y-142996991D01*
X171672311Y-143024367D01*
X171582186Y-143134186D01*
X171480729Y-143217448D01*
X171444991Y-143246778D01*
X171444989Y-143246779D01*
X171288467Y-143330443D01*
X171231853Y-143347616D01*
X171118627Y-143381963D01*
X171052443Y-143388481D01*
X170986260Y-143395000D01*
X170897740Y-143395000D01*
X170831557Y-143388481D01*
X170765373Y-143381963D01*
X170652147Y-143347616D01*
X170595533Y-143330443D01*
X170439011Y-143246779D01*
X170439009Y-143246778D01*
X170403271Y-143217448D01*
X170301814Y-143134186D01*
X170211689Y-143024367D01*
X170189222Y-142996991D01*
X170179652Y-142979087D01*
X170105557Y-142840467D01*
X170069447Y-142721427D01*
X170054037Y-142670627D01*
X170036641Y-142494000D01*
X170054037Y-142317373D01*
X170105557Y-142147534D01*
X170105557Y-142147533D01*
X170189221Y-141991011D01*
X170189222Y-141991009D01*
X170218552Y-141955271D01*
X170301814Y-141853814D01*
X170403271Y-141770552D01*
X170439009Y-141741222D01*
X170456913Y-141731652D01*
X170595533Y-141657557D01*
X170652147Y-141640384D01*
X170765373Y-141606037D01*
X170831557Y-141599519D01*
X170897740Y-141593000D01*
X170986260Y-141593000D01*
X171052443Y-141599519D01*
X171052443Y-141599519D01*
G37*
G36*
X173592443Y-141599519D02*
X173658627Y-141606037D01*
X173771853Y-141640384D01*
X173828467Y-141657557D01*
X173967087Y-141731652D01*
X173984991Y-141741222D01*
X174020729Y-141770552D01*
X174122186Y-141853814D01*
X174205448Y-141955271D01*
X174234778Y-141991009D01*
X174234779Y-141991011D01*
X174318443Y-142147533D01*
X174318443Y-142147534D01*
X174369963Y-142317373D01*
X174387359Y-142494000D01*
X174369963Y-142670627D01*
X174354553Y-142721427D01*
X174318443Y-142840467D01*
X174244348Y-142979087D01*
X174234778Y-142996991D01*
X174212311Y-143024367D01*
X174122186Y-143134186D01*
X174020729Y-143217448D01*
X173984991Y-143246778D01*
X173984989Y-143246779D01*
X173828467Y-143330443D01*
X173771853Y-143347616D01*
X173658627Y-143381963D01*
X173592443Y-143388481D01*
X173526260Y-143395000D01*
X173437740Y-143395000D01*
X173371557Y-143388481D01*
X173305373Y-143381963D01*
X173192147Y-143347616D01*
X173135533Y-143330443D01*
X172979011Y-143246779D01*
X172979009Y-143246778D01*
X172943271Y-143217448D01*
X172841814Y-143134186D01*
X172751689Y-143024367D01*
X172729222Y-142996991D01*
X172719652Y-142979087D01*
X172645557Y-142840467D01*
X172609447Y-142721427D01*
X172594037Y-142670627D01*
X172576641Y-142494000D01*
X172594037Y-142317373D01*
X172645557Y-142147534D01*
X172645557Y-142147533D01*
X172729221Y-141991011D01*
X172729222Y-141991009D01*
X172758552Y-141955271D01*
X172841814Y-141853814D01*
X172943271Y-141770552D01*
X172979009Y-141741222D01*
X172996913Y-141731652D01*
X173135533Y-141657557D01*
X173192147Y-141640384D01*
X173305373Y-141606037D01*
X173371557Y-141599519D01*
X173437740Y-141593000D01*
X173526260Y-141593000D01*
X173592443Y-141599519D01*
X173592443Y-141599519D01*
G37*
G36*
X153272443Y-141599519D02*
X153338627Y-141606037D01*
X153451853Y-141640384D01*
X153508467Y-141657557D01*
X153647087Y-141731652D01*
X153664991Y-141741222D01*
X153700729Y-141770552D01*
X153802186Y-141853814D01*
X153885448Y-141955271D01*
X153914778Y-141991009D01*
X153914779Y-141991011D01*
X153998443Y-142147533D01*
X153998443Y-142147534D01*
X154049963Y-142317373D01*
X154067359Y-142494000D01*
X154049963Y-142670627D01*
X154034553Y-142721427D01*
X153998443Y-142840467D01*
X153924348Y-142979087D01*
X153914778Y-142996991D01*
X153892311Y-143024367D01*
X153802186Y-143134186D01*
X153700729Y-143217448D01*
X153664991Y-143246778D01*
X153664989Y-143246779D01*
X153508467Y-143330443D01*
X153451853Y-143347616D01*
X153338627Y-143381963D01*
X153272443Y-143388481D01*
X153206260Y-143395000D01*
X153117740Y-143395000D01*
X153051557Y-143388481D01*
X152985373Y-143381963D01*
X152872147Y-143347616D01*
X152815533Y-143330443D01*
X152659011Y-143246779D01*
X152659009Y-143246778D01*
X152623271Y-143217448D01*
X152521814Y-143134186D01*
X152431689Y-143024367D01*
X152409222Y-142996991D01*
X152399652Y-142979087D01*
X152325557Y-142840467D01*
X152289447Y-142721427D01*
X152274037Y-142670627D01*
X152256641Y-142494000D01*
X152274037Y-142317373D01*
X152325557Y-142147534D01*
X152325557Y-142147533D01*
X152409221Y-141991011D01*
X152409222Y-141991009D01*
X152438552Y-141955271D01*
X152521814Y-141853814D01*
X152623271Y-141770552D01*
X152659009Y-141741222D01*
X152676913Y-141731652D01*
X152815533Y-141657557D01*
X152872147Y-141640384D01*
X152985373Y-141606037D01*
X153051557Y-141599519D01*
X153117740Y-141593000D01*
X153206260Y-141593000D01*
X153272443Y-141599519D01*
X153272443Y-141599519D01*
G37*
G36*
X143112443Y-141599519D02*
X143178627Y-141606037D01*
X143291853Y-141640384D01*
X143348467Y-141657557D01*
X143487087Y-141731652D01*
X143504991Y-141741222D01*
X143540729Y-141770552D01*
X143642186Y-141853814D01*
X143725448Y-141955271D01*
X143754778Y-141991009D01*
X143754779Y-141991011D01*
X143838443Y-142147533D01*
X143838443Y-142147534D01*
X143889963Y-142317373D01*
X143907359Y-142494000D01*
X143889963Y-142670627D01*
X143874553Y-142721427D01*
X143838443Y-142840467D01*
X143764348Y-142979087D01*
X143754778Y-142996991D01*
X143732311Y-143024367D01*
X143642186Y-143134186D01*
X143540729Y-143217448D01*
X143504991Y-143246778D01*
X143504989Y-143246779D01*
X143348467Y-143330443D01*
X143291853Y-143347616D01*
X143178627Y-143381963D01*
X143112443Y-143388481D01*
X143046260Y-143395000D01*
X142957740Y-143395000D01*
X142891557Y-143388481D01*
X142825373Y-143381963D01*
X142712147Y-143347616D01*
X142655533Y-143330443D01*
X142499011Y-143246779D01*
X142499009Y-143246778D01*
X142463271Y-143217448D01*
X142361814Y-143134186D01*
X142271689Y-143024367D01*
X142249222Y-142996991D01*
X142239652Y-142979087D01*
X142165557Y-142840467D01*
X142129447Y-142721427D01*
X142114037Y-142670627D01*
X142096641Y-142494000D01*
X142114037Y-142317373D01*
X142165557Y-142147534D01*
X142165557Y-142147533D01*
X142249221Y-141991011D01*
X142249222Y-141991009D01*
X142278552Y-141955271D01*
X142361814Y-141853814D01*
X142463271Y-141770552D01*
X142499009Y-141741222D01*
X142516913Y-141731652D01*
X142655533Y-141657557D01*
X142712147Y-141640384D01*
X142825373Y-141606037D01*
X142891557Y-141599519D01*
X142957740Y-141593000D01*
X143046260Y-141593000D01*
X143112443Y-141599519D01*
X143112443Y-141599519D01*
G37*
G36*
X140572443Y-141599519D02*
X140638627Y-141606037D01*
X140751853Y-141640384D01*
X140808467Y-141657557D01*
X140947087Y-141731652D01*
X140964991Y-141741222D01*
X141000729Y-141770552D01*
X141102186Y-141853814D01*
X141185448Y-141955271D01*
X141214778Y-141991009D01*
X141214779Y-141991011D01*
X141298443Y-142147533D01*
X141298443Y-142147534D01*
X141349963Y-142317373D01*
X141367359Y-142494000D01*
X141349963Y-142670627D01*
X141334553Y-142721427D01*
X141298443Y-142840467D01*
X141224348Y-142979087D01*
X141214778Y-142996991D01*
X141192311Y-143024367D01*
X141102186Y-143134186D01*
X141000729Y-143217448D01*
X140964991Y-143246778D01*
X140964989Y-143246779D01*
X140808467Y-143330443D01*
X140751853Y-143347616D01*
X140638627Y-143381963D01*
X140572443Y-143388481D01*
X140506260Y-143395000D01*
X140417740Y-143395000D01*
X140351557Y-143388481D01*
X140285373Y-143381963D01*
X140172147Y-143347616D01*
X140115533Y-143330443D01*
X139959011Y-143246779D01*
X139959009Y-143246778D01*
X139923271Y-143217448D01*
X139821814Y-143134186D01*
X139731689Y-143024367D01*
X139709222Y-142996991D01*
X139699652Y-142979087D01*
X139625557Y-142840467D01*
X139589447Y-142721427D01*
X139574037Y-142670627D01*
X139556641Y-142494000D01*
X139574037Y-142317373D01*
X139625557Y-142147534D01*
X139625557Y-142147533D01*
X139709221Y-141991011D01*
X139709222Y-141991009D01*
X139738552Y-141955271D01*
X139821814Y-141853814D01*
X139923271Y-141770552D01*
X139959009Y-141741222D01*
X139976913Y-141731652D01*
X140115533Y-141657557D01*
X140172147Y-141640384D01*
X140285373Y-141606037D01*
X140351557Y-141599519D01*
X140417740Y-141593000D01*
X140506260Y-141593000D01*
X140572443Y-141599519D01*
X140572443Y-141599519D01*
G37*
G36*
X138032443Y-141599519D02*
X138098627Y-141606037D01*
X138211853Y-141640384D01*
X138268467Y-141657557D01*
X138407087Y-141731652D01*
X138424991Y-141741222D01*
X138460729Y-141770552D01*
X138562186Y-141853814D01*
X138645448Y-141955271D01*
X138674778Y-141991009D01*
X138674779Y-141991011D01*
X138758443Y-142147533D01*
X138758443Y-142147534D01*
X138809963Y-142317373D01*
X138827359Y-142494000D01*
X138809963Y-142670627D01*
X138794553Y-142721427D01*
X138758443Y-142840467D01*
X138684348Y-142979087D01*
X138674778Y-142996991D01*
X138652311Y-143024367D01*
X138562186Y-143134186D01*
X138460729Y-143217448D01*
X138424991Y-143246778D01*
X138424989Y-143246779D01*
X138268467Y-143330443D01*
X138211853Y-143347616D01*
X138098627Y-143381963D01*
X138032443Y-143388481D01*
X137966260Y-143395000D01*
X137877740Y-143395000D01*
X137811557Y-143388481D01*
X137745373Y-143381963D01*
X137632147Y-143347616D01*
X137575533Y-143330443D01*
X137419011Y-143246779D01*
X137419009Y-143246778D01*
X137383271Y-143217448D01*
X137281814Y-143134186D01*
X137191689Y-143024367D01*
X137169222Y-142996991D01*
X137159652Y-142979087D01*
X137085557Y-142840467D01*
X137049447Y-142721427D01*
X137034037Y-142670627D01*
X137016641Y-142494000D01*
X137034037Y-142317373D01*
X137085557Y-142147534D01*
X137085557Y-142147533D01*
X137169221Y-141991011D01*
X137169222Y-141991009D01*
X137198552Y-141955271D01*
X137281814Y-141853814D01*
X137383271Y-141770552D01*
X137419009Y-141741222D01*
X137436913Y-141731652D01*
X137575533Y-141657557D01*
X137632147Y-141640384D01*
X137745373Y-141606037D01*
X137811557Y-141599519D01*
X137877740Y-141593000D01*
X137966260Y-141593000D01*
X138032443Y-141599519D01*
X138032443Y-141599519D01*
G37*
G36*
X135492443Y-141599519D02*
X135558627Y-141606037D01*
X135671853Y-141640384D01*
X135728467Y-141657557D01*
X135867087Y-141731652D01*
X135884991Y-141741222D01*
X135920729Y-141770552D01*
X136022186Y-141853814D01*
X136105448Y-141955271D01*
X136134778Y-141991009D01*
X136134779Y-141991011D01*
X136218443Y-142147533D01*
X136218443Y-142147534D01*
X136269963Y-142317373D01*
X136287359Y-142494000D01*
X136269963Y-142670627D01*
X136254553Y-142721427D01*
X136218443Y-142840467D01*
X136144348Y-142979087D01*
X136134778Y-142996991D01*
X136112311Y-143024367D01*
X136022186Y-143134186D01*
X135920729Y-143217448D01*
X135884991Y-143246778D01*
X135884989Y-143246779D01*
X135728467Y-143330443D01*
X135671853Y-143347616D01*
X135558627Y-143381963D01*
X135492443Y-143388481D01*
X135426260Y-143395000D01*
X135337740Y-143395000D01*
X135271557Y-143388481D01*
X135205373Y-143381963D01*
X135092147Y-143347616D01*
X135035533Y-143330443D01*
X134879011Y-143246779D01*
X134879009Y-143246778D01*
X134843271Y-143217448D01*
X134741814Y-143134186D01*
X134651689Y-143024367D01*
X134629222Y-142996991D01*
X134619652Y-142979087D01*
X134545557Y-142840467D01*
X134509447Y-142721427D01*
X134494037Y-142670627D01*
X134476641Y-142494000D01*
X134494037Y-142317373D01*
X134545557Y-142147534D01*
X134545557Y-142147533D01*
X134629221Y-141991011D01*
X134629222Y-141991009D01*
X134658552Y-141955271D01*
X134741814Y-141853814D01*
X134843271Y-141770552D01*
X134879009Y-141741222D01*
X134896913Y-141731652D01*
X135035533Y-141657557D01*
X135092147Y-141640384D01*
X135205373Y-141606037D01*
X135271557Y-141599519D01*
X135337740Y-141593000D01*
X135426260Y-141593000D01*
X135492443Y-141599519D01*
X135492443Y-141599519D01*
G37*
G36*
X150732443Y-141599519D02*
X150798627Y-141606037D01*
X150911853Y-141640384D01*
X150968467Y-141657557D01*
X151107087Y-141731652D01*
X151124991Y-141741222D01*
X151160729Y-141770552D01*
X151262186Y-141853814D01*
X151345448Y-141955271D01*
X151374778Y-141991009D01*
X151374779Y-141991011D01*
X151458443Y-142147533D01*
X151458443Y-142147534D01*
X151509963Y-142317373D01*
X151527359Y-142494000D01*
X151509963Y-142670627D01*
X151494553Y-142721427D01*
X151458443Y-142840467D01*
X151384348Y-142979087D01*
X151374778Y-142996991D01*
X151352311Y-143024367D01*
X151262186Y-143134186D01*
X151160729Y-143217448D01*
X151124991Y-143246778D01*
X151124989Y-143246779D01*
X150968467Y-143330443D01*
X150911853Y-143347616D01*
X150798627Y-143381963D01*
X150732443Y-143388481D01*
X150666260Y-143395000D01*
X150577740Y-143395000D01*
X150511557Y-143388481D01*
X150445373Y-143381963D01*
X150332147Y-143347616D01*
X150275533Y-143330443D01*
X150119011Y-143246779D01*
X150119009Y-143246778D01*
X150083271Y-143217448D01*
X149981814Y-143134186D01*
X149891689Y-143024367D01*
X149869222Y-142996991D01*
X149859652Y-142979087D01*
X149785557Y-142840467D01*
X149749447Y-142721427D01*
X149734037Y-142670627D01*
X149716641Y-142494000D01*
X149734037Y-142317373D01*
X149785557Y-142147534D01*
X149785557Y-142147533D01*
X149869221Y-141991011D01*
X149869222Y-141991009D01*
X149898552Y-141955271D01*
X149981814Y-141853814D01*
X150083271Y-141770552D01*
X150119009Y-141741222D01*
X150136913Y-141731652D01*
X150275533Y-141657557D01*
X150332147Y-141640384D01*
X150445373Y-141606037D01*
X150511557Y-141599519D01*
X150577740Y-141593000D01*
X150666260Y-141593000D01*
X150732443Y-141599519D01*
X150732443Y-141599519D01*
G37*
G36*
X148192443Y-141599519D02*
X148258627Y-141606037D01*
X148371853Y-141640384D01*
X148428467Y-141657557D01*
X148567087Y-141731652D01*
X148584991Y-141741222D01*
X148620729Y-141770552D01*
X148722186Y-141853814D01*
X148805448Y-141955271D01*
X148834778Y-141991009D01*
X148834779Y-141991011D01*
X148918443Y-142147533D01*
X148918443Y-142147534D01*
X148969963Y-142317373D01*
X148987359Y-142494000D01*
X148969963Y-142670627D01*
X148954553Y-142721427D01*
X148918443Y-142840467D01*
X148844348Y-142979087D01*
X148834778Y-142996991D01*
X148812311Y-143024367D01*
X148722186Y-143134186D01*
X148620729Y-143217448D01*
X148584991Y-143246778D01*
X148584989Y-143246779D01*
X148428467Y-143330443D01*
X148371853Y-143347616D01*
X148258627Y-143381963D01*
X148192443Y-143388481D01*
X148126260Y-143395000D01*
X148037740Y-143395000D01*
X147971557Y-143388481D01*
X147905373Y-143381963D01*
X147792147Y-143347616D01*
X147735533Y-143330443D01*
X147579011Y-143246779D01*
X147579009Y-143246778D01*
X147543271Y-143217448D01*
X147441814Y-143134186D01*
X147351689Y-143024367D01*
X147329222Y-142996991D01*
X147319652Y-142979087D01*
X147245557Y-142840467D01*
X147209447Y-142721427D01*
X147194037Y-142670627D01*
X147176641Y-142494000D01*
X147194037Y-142317373D01*
X147245557Y-142147534D01*
X147245557Y-142147533D01*
X147329221Y-141991011D01*
X147329222Y-141991009D01*
X147358552Y-141955271D01*
X147441814Y-141853814D01*
X147543271Y-141770552D01*
X147579009Y-141741222D01*
X147596913Y-141731652D01*
X147735533Y-141657557D01*
X147792147Y-141640384D01*
X147905373Y-141606037D01*
X147971557Y-141599519D01*
X148037740Y-141593000D01*
X148126260Y-141593000D01*
X148192443Y-141599519D01*
X148192443Y-141599519D01*
G37*
G36*
X145652443Y-141599519D02*
X145718627Y-141606037D01*
X145831853Y-141640384D01*
X145888467Y-141657557D01*
X146027087Y-141731652D01*
X146044991Y-141741222D01*
X146080729Y-141770552D01*
X146182186Y-141853814D01*
X146265448Y-141955271D01*
X146294778Y-141991009D01*
X146294779Y-141991011D01*
X146378443Y-142147533D01*
X146378443Y-142147534D01*
X146429963Y-142317373D01*
X146447359Y-142494000D01*
X146429963Y-142670627D01*
X146414553Y-142721427D01*
X146378443Y-142840467D01*
X146304348Y-142979087D01*
X146294778Y-142996991D01*
X146272311Y-143024367D01*
X146182186Y-143134186D01*
X146080729Y-143217448D01*
X146044991Y-143246778D01*
X146044989Y-143246779D01*
X145888467Y-143330443D01*
X145831853Y-143347616D01*
X145718627Y-143381963D01*
X145652443Y-143388481D01*
X145586260Y-143395000D01*
X145497740Y-143395000D01*
X145431557Y-143388481D01*
X145365373Y-143381963D01*
X145252147Y-143347616D01*
X145195533Y-143330443D01*
X145039011Y-143246779D01*
X145039009Y-143246778D01*
X145003271Y-143217448D01*
X144901814Y-143134186D01*
X144811689Y-143024367D01*
X144789222Y-142996991D01*
X144779652Y-142979087D01*
X144705557Y-142840467D01*
X144669447Y-142721427D01*
X144654037Y-142670627D01*
X144636641Y-142494000D01*
X144654037Y-142317373D01*
X144705557Y-142147534D01*
X144705557Y-142147533D01*
X144789221Y-141991011D01*
X144789222Y-141991009D01*
X144818552Y-141955271D01*
X144901814Y-141853814D01*
X145003271Y-141770552D01*
X145039009Y-141741222D01*
X145056913Y-141731652D01*
X145195533Y-141657557D01*
X145252147Y-141640384D01*
X145365373Y-141606037D01*
X145431557Y-141599519D01*
X145497740Y-141593000D01*
X145586260Y-141593000D01*
X145652443Y-141599519D01*
X145652443Y-141599519D01*
G37*
G36*
X131070191Y-141693901D02*
X131155521Y-141702305D01*
X131292372Y-141743819D01*
X131292374Y-141743820D01*
X131292377Y-141743821D01*
X131418496Y-141811232D01*
X131529043Y-141901957D01*
X131619768Y-142012504D01*
X131687179Y-142138623D01*
X131687180Y-142138626D01*
X131687181Y-142138628D01*
X131728695Y-142275479D01*
X131742712Y-142417800D01*
X131728695Y-142560121D01*
X131687181Y-142696972D01*
X131687179Y-142696977D01*
X131619768Y-142823096D01*
X131529043Y-142933643D01*
X131418496Y-143024368D01*
X131292377Y-143091779D01*
X131292374Y-143091780D01*
X131292372Y-143091781D01*
X131155521Y-143133295D01*
X131070191Y-143141699D01*
X131048860Y-143143800D01*
X130977540Y-143143800D01*
X130956209Y-143141699D01*
X130870879Y-143133295D01*
X130734028Y-143091781D01*
X130734026Y-143091780D01*
X130734023Y-143091779D01*
X130607904Y-143024368D01*
X130497357Y-142933643D01*
X130406632Y-142823096D01*
X130339221Y-142696977D01*
X130339219Y-142696972D01*
X130297705Y-142560121D01*
X130283688Y-142417800D01*
X130297705Y-142275479D01*
X130339219Y-142138628D01*
X130339220Y-142138626D01*
X130339221Y-142138623D01*
X130406632Y-142012504D01*
X130497357Y-141901957D01*
X130607904Y-141811232D01*
X130734023Y-141743821D01*
X130734026Y-141743820D01*
X130734028Y-141743819D01*
X130870879Y-141702305D01*
X130956209Y-141693901D01*
X130977540Y-141691800D01*
X131048860Y-141691800D01*
X131070191Y-141693901D01*
X131070191Y-141693901D01*
G37*
G36*
X133739200Y-143143800D02*
X132287200Y-143143800D01*
X132287200Y-141691800D01*
X133739200Y-141691800D01*
X133739200Y-143143800D01*
X133739200Y-143143800D01*
G37*
G36*
X181126685Y-139980996D02*
X181126687Y-139980997D01*
X181126688Y-139980997D01*
X181363455Y-140079069D01*
X181576542Y-140221449D01*
X181757751Y-140402658D01*
X181900131Y-140615745D01*
X181998204Y-140852515D01*
X182048200Y-141103861D01*
X182048200Y-141360139D01*
X181999288Y-141606037D01*
X181998203Y-141611488D01*
X181944466Y-141741221D01*
X181900131Y-141848255D01*
X181757751Y-142061342D01*
X181576542Y-142242551D01*
X181576539Y-142242553D01*
X181363455Y-142384931D01*
X181126688Y-142483003D01*
X181126687Y-142483003D01*
X181126685Y-142483004D01*
X180875339Y-142533000D01*
X180619061Y-142533000D01*
X180367715Y-142483004D01*
X180367713Y-142483003D01*
X180367712Y-142483003D01*
X180130945Y-142384931D01*
X179917861Y-142242553D01*
X179917858Y-142242551D01*
X179736649Y-142061342D01*
X179594269Y-141848255D01*
X179549934Y-141741221D01*
X179496197Y-141611488D01*
X179495113Y-141606037D01*
X179446200Y-141360139D01*
X179446200Y-141103861D01*
X179496196Y-140852515D01*
X179594269Y-140615745D01*
X179736649Y-140402658D01*
X179917858Y-140221449D01*
X180130945Y-140079069D01*
X180367712Y-139980997D01*
X180367713Y-139980997D01*
X180367715Y-139980996D01*
X180619061Y-139931000D01*
X180875339Y-139931000D01*
X181126685Y-139980996D01*
X181126685Y-139980996D01*
G37*
G36*
X190091596Y-139268146D02*
X190264666Y-139339834D01*
X190420430Y-139443912D01*
X190552888Y-139576370D01*
X190656966Y-139732134D01*
X190728654Y-139905204D01*
X190765200Y-140088933D01*
X190765200Y-140276267D01*
X190728654Y-140459996D01*
X190656966Y-140633066D01*
X190552888Y-140788830D01*
X190420430Y-140921288D01*
X190264666Y-141025366D01*
X190091596Y-141097054D01*
X189907867Y-141133600D01*
X189720533Y-141133600D01*
X189536804Y-141097054D01*
X189363734Y-141025366D01*
X189207970Y-140921288D01*
X189075512Y-140788830D01*
X188971434Y-140633066D01*
X188899746Y-140459996D01*
X188863200Y-140276267D01*
X188863200Y-140088933D01*
X188899746Y-139905204D01*
X188971434Y-139732134D01*
X189075512Y-139576370D01*
X189207970Y-139443912D01*
X189363734Y-139339834D01*
X189536804Y-139268146D01*
X189720533Y-139231600D01*
X189907867Y-139231600D01*
X190091596Y-139268146D01*
X190091596Y-139268146D01*
G37*
G36*
X190639000Y-138061000D02*
X188837000Y-138061000D01*
X188837000Y-136259000D01*
X190639000Y-136259000D01*
X190639000Y-138061000D01*
X190639000Y-138061000D01*
G37*
G36*
X188774565Y-132847389D02*
X188965834Y-132926615D01*
X189137976Y-133041637D01*
X189284363Y-133188024D01*
X189399385Y-133360166D01*
X189478611Y-133551435D01*
X189519000Y-133754484D01*
X189519000Y-133961516D01*
X189478611Y-134164565D01*
X189399385Y-134355834D01*
X189284363Y-134527976D01*
X189137976Y-134674363D01*
X188965834Y-134789385D01*
X188774565Y-134868611D01*
X188571516Y-134909000D01*
X188364484Y-134909000D01*
X188161435Y-134868611D01*
X187970166Y-134789385D01*
X187798024Y-134674363D01*
X187651637Y-134527976D01*
X187536615Y-134355834D01*
X187457389Y-134164565D01*
X187417000Y-133961516D01*
X187417000Y-133754484D01*
X187457389Y-133551435D01*
X187536615Y-133360166D01*
X187651637Y-133188024D01*
X187798024Y-133041637D01*
X187970166Y-132926615D01*
X188161435Y-132847389D01*
X188364484Y-132807000D01*
X188571516Y-132807000D01*
X188774565Y-132847389D01*
X188774565Y-132847389D01*
G37*
G36*
X143974565Y-132847389D02*
X144165834Y-132926615D01*
X144337976Y-133041637D01*
X144484363Y-133188024D01*
X144599385Y-133360166D01*
X144678611Y-133551435D01*
X144719000Y-133754484D01*
X144719000Y-133961516D01*
X144678611Y-134164565D01*
X144599385Y-134355834D01*
X144484363Y-134527976D01*
X144337976Y-134674363D01*
X144165834Y-134789385D01*
X143974565Y-134868611D01*
X143771516Y-134909000D01*
X143564484Y-134909000D01*
X143361435Y-134868611D01*
X143170166Y-134789385D01*
X142998024Y-134674363D01*
X142851637Y-134527976D01*
X142736615Y-134355834D01*
X142657389Y-134164565D01*
X142617000Y-133961516D01*
X142617000Y-133754484D01*
X142657389Y-133551435D01*
X142736615Y-133360166D01*
X142851637Y-133188024D01*
X142998024Y-133041637D01*
X143170166Y-132926615D01*
X143361435Y-132847389D01*
X143564484Y-132807000D01*
X143771516Y-132807000D01*
X143974565Y-132847389D01*
X143974565Y-132847389D01*
G37*
G36*
X132154228Y-125673703D02*
X132309100Y-125737853D01*
X132448481Y-125830985D01*
X132567015Y-125949519D01*
X132660147Y-126088900D01*
X132724297Y-126243772D01*
X132757000Y-126408184D01*
X132757000Y-126575816D01*
X132724297Y-126740228D01*
X132660147Y-126895100D01*
X132567015Y-127034481D01*
X132448481Y-127153015D01*
X132309100Y-127246147D01*
X132154228Y-127310297D01*
X131989816Y-127343000D01*
X131822184Y-127343000D01*
X131657772Y-127310297D01*
X131502900Y-127246147D01*
X131363519Y-127153015D01*
X131244985Y-127034481D01*
X131151853Y-126895100D01*
X131087703Y-126740228D01*
X131055000Y-126575816D01*
X131055000Y-126408184D01*
X131087703Y-126243772D01*
X131151853Y-126088900D01*
X131244985Y-125949519D01*
X131363519Y-125830985D01*
X131502900Y-125737853D01*
X131657772Y-125673703D01*
X131822184Y-125641000D01*
X131989816Y-125641000D01*
X132154228Y-125673703D01*
X132154228Y-125673703D01*
G37*
G36*
X137757000Y-127343000D02*
X136055000Y-127343000D01*
X136055000Y-125641000D01*
X137757000Y-125641000D01*
X137757000Y-127343000D01*
X137757000Y-127343000D01*
G37*
G36*
X143974565Y-119385389D02*
X144165834Y-119464615D01*
X144337976Y-119579637D01*
X144484363Y-119726024D01*
X144599385Y-119898166D01*
X144678611Y-120089435D01*
X144719000Y-120292484D01*
X144719000Y-120499516D01*
X144678611Y-120702565D01*
X144599385Y-120893834D01*
X144484363Y-121065976D01*
X144337976Y-121212363D01*
X144165834Y-121327385D01*
X143974565Y-121406611D01*
X143771516Y-121447000D01*
X143564484Y-121447000D01*
X143361435Y-121406611D01*
X143170166Y-121327385D01*
X142998024Y-121212363D01*
X142851637Y-121065976D01*
X142736615Y-120893834D01*
X142657389Y-120702565D01*
X142617000Y-120499516D01*
X142617000Y-120292484D01*
X142657389Y-120089435D01*
X142736615Y-119898166D01*
X142851637Y-119726024D01*
X142998024Y-119579637D01*
X143170166Y-119464615D01*
X143361435Y-119385389D01*
X143564484Y-119345000D01*
X143771516Y-119345000D01*
X143974565Y-119385389D01*
X143974565Y-119385389D01*
G37*
G36*
X188774565Y-119385389D02*
X188965834Y-119464615D01*
X189137976Y-119579637D01*
X189284363Y-119726024D01*
X189399385Y-119898166D01*
X189478611Y-120089435D01*
X189519000Y-120292484D01*
X189519000Y-120499516D01*
X189478611Y-120702565D01*
X189399385Y-120893834D01*
X189284363Y-121065976D01*
X189137976Y-121212363D01*
X188965834Y-121327385D01*
X188774565Y-121406611D01*
X188571516Y-121447000D01*
X188364484Y-121447000D01*
X188161435Y-121406611D01*
X187970166Y-121327385D01*
X187798024Y-121212363D01*
X187651637Y-121065976D01*
X187536615Y-120893834D01*
X187457389Y-120702565D01*
X187417000Y-120499516D01*
X187417000Y-120292484D01*
X187457389Y-120089435D01*
X187536615Y-119898166D01*
X187651637Y-119726024D01*
X187798024Y-119579637D01*
X187970166Y-119464615D01*
X188161435Y-119385389D01*
X188364484Y-119345000D01*
X188571516Y-119345000D01*
X188774565Y-119385389D01*
X188774565Y-119385389D01*
G37*
G36*
X141126685Y-111480996D02*
X141126687Y-111480997D01*
X141126688Y-111480997D01*
X141363455Y-111579069D01*
X141576542Y-111721449D01*
X141757751Y-111902658D01*
X141757753Y-111902661D01*
X141900131Y-112115745D01*
X141985982Y-112323007D01*
X141998204Y-112352515D01*
X142048200Y-112603861D01*
X142048200Y-112860139D01*
X141998204Y-113111485D01*
X141900131Y-113348255D01*
X141757751Y-113561342D01*
X141576542Y-113742551D01*
X141576539Y-113742553D01*
X141363455Y-113884931D01*
X141126688Y-113983003D01*
X141126687Y-113983003D01*
X141126685Y-113983004D01*
X140875339Y-114033000D01*
X140619061Y-114033000D01*
X140367715Y-113983004D01*
X140367713Y-113983003D01*
X140367712Y-113983003D01*
X140130945Y-113884931D01*
X139917861Y-113742553D01*
X139917858Y-113742551D01*
X139736649Y-113561342D01*
X139594269Y-113348255D01*
X139496196Y-113111485D01*
X139446200Y-112860139D01*
X139446200Y-112603861D01*
X139496196Y-112352515D01*
X139508419Y-112323007D01*
X139594269Y-112115745D01*
X139736647Y-111902661D01*
X139736649Y-111902658D01*
X139917858Y-111721449D01*
X140130945Y-111579069D01*
X140367712Y-111480997D01*
X140367713Y-111480997D01*
X140367715Y-111480996D01*
X140619061Y-111431000D01*
X140875339Y-111431000D01*
X141126685Y-111480996D01*
X141126685Y-111480996D01*
G37*
G36*
X150732443Y-111119519D02*
X150798627Y-111126037D01*
X150911853Y-111160384D01*
X150968467Y-111177557D01*
X151076435Y-111235268D01*
X151124991Y-111261222D01*
X151160729Y-111290552D01*
X151262186Y-111373814D01*
X151345448Y-111475271D01*
X151374778Y-111511009D01*
X151374779Y-111511011D01*
X151458443Y-111667533D01*
X151458443Y-111667534D01*
X151509963Y-111837373D01*
X151527359Y-112014000D01*
X151509963Y-112190627D01*
X151484673Y-112273998D01*
X151458443Y-112360467D01*
X151430237Y-112413236D01*
X151374778Y-112516991D01*
X151345448Y-112552729D01*
X151262186Y-112654186D01*
X151160729Y-112737448D01*
X151124991Y-112766778D01*
X151124989Y-112766779D01*
X150968467Y-112850443D01*
X150936503Y-112860139D01*
X150798627Y-112901963D01*
X150732442Y-112908482D01*
X150666260Y-112915000D01*
X150577740Y-112915000D01*
X150511558Y-112908482D01*
X150445373Y-112901963D01*
X150307497Y-112860139D01*
X150275533Y-112850443D01*
X150119011Y-112766779D01*
X150119009Y-112766778D01*
X150083271Y-112737448D01*
X149981814Y-112654186D01*
X149898552Y-112552729D01*
X149869222Y-112516991D01*
X149813763Y-112413236D01*
X149785557Y-112360467D01*
X149759327Y-112273998D01*
X149734037Y-112190627D01*
X149716641Y-112014000D01*
X149734037Y-111837373D01*
X149785557Y-111667534D01*
X149785557Y-111667533D01*
X149869221Y-111511011D01*
X149869222Y-111511009D01*
X149898552Y-111475271D01*
X149981814Y-111373814D01*
X150083271Y-111290552D01*
X150119009Y-111261222D01*
X150167565Y-111235268D01*
X150275533Y-111177557D01*
X150332147Y-111160384D01*
X150445373Y-111126037D01*
X150511557Y-111119519D01*
X150577740Y-111113000D01*
X150666260Y-111113000D01*
X150732443Y-111119519D01*
X150732443Y-111119519D01*
G37*
G36*
X148192443Y-111119519D02*
X148258627Y-111126037D01*
X148371853Y-111160384D01*
X148428467Y-111177557D01*
X148536435Y-111235268D01*
X148584991Y-111261222D01*
X148620729Y-111290552D01*
X148722186Y-111373814D01*
X148805448Y-111475271D01*
X148834778Y-111511009D01*
X148834779Y-111511011D01*
X148918443Y-111667533D01*
X148918443Y-111667534D01*
X148969963Y-111837373D01*
X148987359Y-112014000D01*
X148969963Y-112190627D01*
X148944673Y-112273998D01*
X148918443Y-112360467D01*
X148890237Y-112413236D01*
X148834778Y-112516991D01*
X148805448Y-112552729D01*
X148722186Y-112654186D01*
X148620729Y-112737448D01*
X148584991Y-112766778D01*
X148584989Y-112766779D01*
X148428467Y-112850443D01*
X148396503Y-112860139D01*
X148258627Y-112901963D01*
X148192442Y-112908482D01*
X148126260Y-112915000D01*
X148037740Y-112915000D01*
X147971558Y-112908482D01*
X147905373Y-112901963D01*
X147767497Y-112860139D01*
X147735533Y-112850443D01*
X147579011Y-112766779D01*
X147579009Y-112766778D01*
X147543271Y-112737448D01*
X147441814Y-112654186D01*
X147358552Y-112552729D01*
X147329222Y-112516991D01*
X147273763Y-112413236D01*
X147245557Y-112360467D01*
X147219327Y-112273998D01*
X147194037Y-112190627D01*
X147176641Y-112014000D01*
X147194037Y-111837373D01*
X147245557Y-111667534D01*
X147245557Y-111667533D01*
X147329221Y-111511011D01*
X147329222Y-111511009D01*
X147358552Y-111475271D01*
X147441814Y-111373814D01*
X147543271Y-111290552D01*
X147579009Y-111261222D01*
X147627565Y-111235268D01*
X147735533Y-111177557D01*
X147792147Y-111160384D01*
X147905373Y-111126037D01*
X147971557Y-111119519D01*
X148037740Y-111113000D01*
X148126260Y-111113000D01*
X148192443Y-111119519D01*
X148192443Y-111119519D01*
G37*
G36*
X154063000Y-112915000D02*
X152261000Y-112915000D01*
X152261000Y-111113000D01*
X154063000Y-111113000D01*
X154063000Y-112915000D01*
X154063000Y-112915000D01*
G37*
G36*
X166763000Y-112915000D02*
X164961000Y-112915000D01*
X164961000Y-111113000D01*
X166763000Y-111113000D01*
X166763000Y-112915000D01*
X166763000Y-112915000D01*
G37*
G36*
X173592443Y-111119519D02*
X173658627Y-111126037D01*
X173771853Y-111160384D01*
X173828467Y-111177557D01*
X173936435Y-111235268D01*
X173984991Y-111261222D01*
X174020729Y-111290552D01*
X174122186Y-111373814D01*
X174205448Y-111475271D01*
X174234778Y-111511009D01*
X174234779Y-111511011D01*
X174318443Y-111667533D01*
X174318443Y-111667534D01*
X174369963Y-111837373D01*
X174387359Y-112014000D01*
X174369963Y-112190627D01*
X174344673Y-112273998D01*
X174318443Y-112360467D01*
X174290237Y-112413236D01*
X174234778Y-112516991D01*
X174205448Y-112552729D01*
X174122186Y-112654186D01*
X174020729Y-112737448D01*
X173984991Y-112766778D01*
X173984989Y-112766779D01*
X173828467Y-112850443D01*
X173796503Y-112860139D01*
X173658627Y-112901963D01*
X173592442Y-112908482D01*
X173526260Y-112915000D01*
X173437740Y-112915000D01*
X173371558Y-112908482D01*
X173305373Y-112901963D01*
X173167497Y-112860139D01*
X173135533Y-112850443D01*
X172979011Y-112766779D01*
X172979009Y-112766778D01*
X172943271Y-112737448D01*
X172841814Y-112654186D01*
X172758552Y-112552729D01*
X172729222Y-112516991D01*
X172673763Y-112413236D01*
X172645557Y-112360467D01*
X172619327Y-112273998D01*
X172594037Y-112190627D01*
X172576641Y-112014000D01*
X172594037Y-111837373D01*
X172645557Y-111667534D01*
X172645557Y-111667533D01*
X172729221Y-111511011D01*
X172729222Y-111511009D01*
X172758552Y-111475271D01*
X172841814Y-111373814D01*
X172943271Y-111290552D01*
X172979009Y-111261222D01*
X173027565Y-111235268D01*
X173135533Y-111177557D01*
X173192147Y-111160384D01*
X173305373Y-111126037D01*
X173371557Y-111119519D01*
X173437740Y-111113000D01*
X173526260Y-111113000D01*
X173592443Y-111119519D01*
X173592443Y-111119519D01*
G37*
G36*
X176132443Y-111119519D02*
X176198627Y-111126037D01*
X176311853Y-111160384D01*
X176368467Y-111177557D01*
X176476435Y-111235268D01*
X176524991Y-111261222D01*
X176560729Y-111290552D01*
X176662186Y-111373814D01*
X176745448Y-111475271D01*
X176774778Y-111511009D01*
X176774779Y-111511011D01*
X176858443Y-111667533D01*
X176858443Y-111667534D01*
X176909963Y-111837373D01*
X176927359Y-112014000D01*
X176909963Y-112190627D01*
X176884673Y-112273998D01*
X176858443Y-112360467D01*
X176830237Y-112413236D01*
X176774778Y-112516991D01*
X176745448Y-112552729D01*
X176662186Y-112654186D01*
X176560729Y-112737448D01*
X176524991Y-112766778D01*
X176524989Y-112766779D01*
X176368467Y-112850443D01*
X176336503Y-112860139D01*
X176198627Y-112901963D01*
X176132442Y-112908482D01*
X176066260Y-112915000D01*
X175977740Y-112915000D01*
X175911558Y-112908482D01*
X175845373Y-112901963D01*
X175707497Y-112860139D01*
X175675533Y-112850443D01*
X175519011Y-112766779D01*
X175519009Y-112766778D01*
X175483271Y-112737448D01*
X175381814Y-112654186D01*
X175298552Y-112552729D01*
X175269222Y-112516991D01*
X175213763Y-112413236D01*
X175185557Y-112360467D01*
X175159327Y-112273998D01*
X175134037Y-112190627D01*
X175116641Y-112014000D01*
X175134037Y-111837373D01*
X175185557Y-111667534D01*
X175185557Y-111667533D01*
X175269221Y-111511011D01*
X175269222Y-111511009D01*
X175298552Y-111475271D01*
X175381814Y-111373814D01*
X175483271Y-111290552D01*
X175519009Y-111261222D01*
X175567565Y-111235268D01*
X175675533Y-111177557D01*
X175732147Y-111160384D01*
X175845373Y-111126037D01*
X175911557Y-111119519D01*
X175977740Y-111113000D01*
X176066260Y-111113000D01*
X176132443Y-111119519D01*
X176132443Y-111119519D01*
G37*
G36*
X145652443Y-111119519D02*
X145718627Y-111126037D01*
X145831853Y-111160384D01*
X145888467Y-111177557D01*
X145996435Y-111235268D01*
X146044991Y-111261222D01*
X146080729Y-111290552D01*
X146182186Y-111373814D01*
X146265448Y-111475271D01*
X146294778Y-111511009D01*
X146294779Y-111511011D01*
X146378443Y-111667533D01*
X146378443Y-111667534D01*
X146429963Y-111837373D01*
X146447359Y-112014000D01*
X146429963Y-112190627D01*
X146404673Y-112273998D01*
X146378443Y-112360467D01*
X146350237Y-112413236D01*
X146294778Y-112516991D01*
X146265448Y-112552729D01*
X146182186Y-112654186D01*
X146080729Y-112737448D01*
X146044991Y-112766778D01*
X146044989Y-112766779D01*
X145888467Y-112850443D01*
X145856503Y-112860139D01*
X145718627Y-112901963D01*
X145652442Y-112908482D01*
X145586260Y-112915000D01*
X145497740Y-112915000D01*
X145431558Y-112908482D01*
X145365373Y-112901963D01*
X145227497Y-112860139D01*
X145195533Y-112850443D01*
X145039011Y-112766779D01*
X145039009Y-112766778D01*
X145003271Y-112737448D01*
X144901814Y-112654186D01*
X144818552Y-112552729D01*
X144789222Y-112516991D01*
X144733763Y-112413236D01*
X144705557Y-112360467D01*
X144679327Y-112273998D01*
X144654037Y-112190627D01*
X144636641Y-112014000D01*
X144654037Y-111837373D01*
X144705557Y-111667534D01*
X144705557Y-111667533D01*
X144789221Y-111511011D01*
X144789222Y-111511009D01*
X144818552Y-111475271D01*
X144901814Y-111373814D01*
X145003271Y-111290552D01*
X145039009Y-111261222D01*
X145087565Y-111235268D01*
X145195533Y-111177557D01*
X145252147Y-111160384D01*
X145365373Y-111126037D01*
X145431557Y-111119519D01*
X145497740Y-111113000D01*
X145586260Y-111113000D01*
X145652443Y-111119519D01*
X145652443Y-111119519D01*
G37*
G36*
X171052443Y-111119519D02*
X171118627Y-111126037D01*
X171231853Y-111160384D01*
X171288467Y-111177557D01*
X171396435Y-111235268D01*
X171444991Y-111261222D01*
X171480729Y-111290552D01*
X171582186Y-111373814D01*
X171665448Y-111475271D01*
X171694778Y-111511009D01*
X171694779Y-111511011D01*
X171778443Y-111667533D01*
X171778443Y-111667534D01*
X171829963Y-111837373D01*
X171847359Y-112014000D01*
X171829963Y-112190627D01*
X171804673Y-112273998D01*
X171778443Y-112360467D01*
X171750237Y-112413236D01*
X171694778Y-112516991D01*
X171665448Y-112552729D01*
X171582186Y-112654186D01*
X171480729Y-112737448D01*
X171444991Y-112766778D01*
X171444989Y-112766779D01*
X171288467Y-112850443D01*
X171256503Y-112860139D01*
X171118627Y-112901963D01*
X171052442Y-112908482D01*
X170986260Y-112915000D01*
X170897740Y-112915000D01*
X170831558Y-112908482D01*
X170765373Y-112901963D01*
X170627497Y-112860139D01*
X170595533Y-112850443D01*
X170439011Y-112766779D01*
X170439009Y-112766778D01*
X170403271Y-112737448D01*
X170301814Y-112654186D01*
X170218552Y-112552729D01*
X170189222Y-112516991D01*
X170133763Y-112413236D01*
X170105557Y-112360467D01*
X170079327Y-112273998D01*
X170054037Y-112190627D01*
X170036641Y-112014000D01*
X170054037Y-111837373D01*
X170105557Y-111667534D01*
X170105557Y-111667533D01*
X170189221Y-111511011D01*
X170189222Y-111511009D01*
X170218552Y-111475271D01*
X170301814Y-111373814D01*
X170403271Y-111290552D01*
X170439009Y-111261222D01*
X170487565Y-111235268D01*
X170595533Y-111177557D01*
X170652147Y-111160384D01*
X170765373Y-111126037D01*
X170831557Y-111119519D01*
X170897740Y-111113000D01*
X170986260Y-111113000D01*
X171052443Y-111119519D01*
X171052443Y-111119519D01*
G37*
G36*
X168512443Y-111119519D02*
X168578627Y-111126037D01*
X168691853Y-111160384D01*
X168748467Y-111177557D01*
X168856435Y-111235268D01*
X168904991Y-111261222D01*
X168940729Y-111290552D01*
X169042186Y-111373814D01*
X169125448Y-111475271D01*
X169154778Y-111511009D01*
X169154779Y-111511011D01*
X169238443Y-111667533D01*
X169238443Y-111667534D01*
X169289963Y-111837373D01*
X169307359Y-112014000D01*
X169289963Y-112190627D01*
X169264673Y-112273998D01*
X169238443Y-112360467D01*
X169210237Y-112413236D01*
X169154778Y-112516991D01*
X169125448Y-112552729D01*
X169042186Y-112654186D01*
X168940729Y-112737448D01*
X168904991Y-112766778D01*
X168904989Y-112766779D01*
X168748467Y-112850443D01*
X168716503Y-112860139D01*
X168578627Y-112901963D01*
X168512442Y-112908482D01*
X168446260Y-112915000D01*
X168357740Y-112915000D01*
X168291558Y-112908482D01*
X168225373Y-112901963D01*
X168087497Y-112860139D01*
X168055533Y-112850443D01*
X167899011Y-112766779D01*
X167899009Y-112766778D01*
X167863271Y-112737448D01*
X167761814Y-112654186D01*
X167678552Y-112552729D01*
X167649222Y-112516991D01*
X167593763Y-112413236D01*
X167565557Y-112360467D01*
X167539327Y-112273998D01*
X167514037Y-112190627D01*
X167496641Y-112014000D01*
X167514037Y-111837373D01*
X167565557Y-111667534D01*
X167565557Y-111667533D01*
X167649221Y-111511011D01*
X167649222Y-111511009D01*
X167678552Y-111475271D01*
X167761814Y-111373814D01*
X167863271Y-111290552D01*
X167899009Y-111261222D01*
X167947565Y-111235268D01*
X168055533Y-111177557D01*
X168112147Y-111160384D01*
X168225373Y-111126037D01*
X168291557Y-111119519D01*
X168357740Y-111113000D01*
X168446260Y-111113000D01*
X168512443Y-111119519D01*
X168512443Y-111119519D01*
G37*
G36*
X134387999Y-111213737D02*
X134402534Y-111218147D01*
X134415717Y-111223607D01*
X134439751Y-111228387D01*
X134464255Y-111228387D01*
X134488288Y-111223606D01*
X134510927Y-111214228D01*
X134512765Y-111213000D01*
X135744053Y-111213000D01*
X135756165Y-111219474D01*
X135779614Y-111226587D01*
X135804000Y-111228989D01*
X135828386Y-111226587D01*
X135846564Y-111220083D01*
X135846608Y-111220227D01*
X135868001Y-111213737D01*
X135884140Y-111212148D01*
X136421860Y-111212148D01*
X136440198Y-111213954D01*
X136452450Y-111214556D01*
X136470869Y-111214556D01*
X136493149Y-111216750D01*
X136577236Y-111233476D01*
X136598655Y-111239974D01*
X136677871Y-111272785D01*
X136697607Y-111283335D01*
X136768897Y-111330969D01*
X136786208Y-111345176D01*
X136846824Y-111405792D01*
X136861031Y-111423103D01*
X136908665Y-111494393D01*
X136919215Y-111514129D01*
X136952026Y-111593345D01*
X136958524Y-111614764D01*
X136975250Y-111698851D01*
X136977444Y-111721131D01*
X136977444Y-111739550D01*
X136978046Y-111751802D01*
X136979852Y-111770140D01*
X136979852Y-112257861D01*
X136978046Y-112276198D01*
X136977444Y-112288450D01*
X136977444Y-112306869D01*
X136975250Y-112329149D01*
X136958524Y-112413236D01*
X136952026Y-112434655D01*
X136919215Y-112513871D01*
X136908665Y-112533607D01*
X136861031Y-112604897D01*
X136846824Y-112622208D01*
X136786208Y-112682824D01*
X136768897Y-112697031D01*
X136697607Y-112744665D01*
X136677871Y-112755215D01*
X136598655Y-112788026D01*
X136577236Y-112794524D01*
X136493149Y-112811250D01*
X136470869Y-112813444D01*
X136452450Y-112813444D01*
X136440198Y-112814046D01*
X136421861Y-112815852D01*
X135884140Y-112815852D01*
X135868001Y-112814263D01*
X135853466Y-112809853D01*
X135840283Y-112804393D01*
X135816249Y-112799613D01*
X135791745Y-112799613D01*
X135767712Y-112804394D01*
X135745073Y-112813772D01*
X135743235Y-112815000D01*
X134511947Y-112815000D01*
X134499835Y-112808526D01*
X134476386Y-112801413D01*
X134452000Y-112799011D01*
X134427614Y-112801413D01*
X134409436Y-112807917D01*
X134409392Y-112807773D01*
X134387999Y-112814263D01*
X134371860Y-112815852D01*
X133834139Y-112815852D01*
X133815802Y-112814046D01*
X133803550Y-112813444D01*
X133785131Y-112813444D01*
X133762851Y-112811250D01*
X133678764Y-112794524D01*
X133657345Y-112788026D01*
X133578129Y-112755215D01*
X133558393Y-112744665D01*
X133487103Y-112697031D01*
X133469792Y-112682824D01*
X133409176Y-112622208D01*
X133394969Y-112604897D01*
X133347335Y-112533607D01*
X133336785Y-112513871D01*
X133303974Y-112434655D01*
X133297476Y-112413236D01*
X133280750Y-112329149D01*
X133278556Y-112306869D01*
X133278556Y-112288450D01*
X133277954Y-112276198D01*
X133276148Y-112257861D01*
X133276148Y-111770140D01*
X133277954Y-111751802D01*
X133278556Y-111739550D01*
X133278556Y-111721131D01*
X133280750Y-111698851D01*
X133297476Y-111614764D01*
X133303974Y-111593345D01*
X133336785Y-111514129D01*
X133347335Y-111494393D01*
X133394969Y-111423103D01*
X133409176Y-111405792D01*
X133469792Y-111345176D01*
X133487103Y-111330969D01*
X133558393Y-111283335D01*
X133578129Y-111272785D01*
X133657345Y-111239974D01*
X133678764Y-111233476D01*
X133762851Y-111216750D01*
X133785131Y-111214556D01*
X133803550Y-111214556D01*
X133815802Y-111213954D01*
X133834140Y-111212148D01*
X134371860Y-111212148D01*
X134387999Y-111213737D01*
X134387999Y-111213737D01*
G37*
G36*
X183653199Y-110400937D02*
X183662811Y-110403853D01*
X183671669Y-110408588D01*
X183679437Y-110414963D01*
X183690084Y-110427936D01*
X183696246Y-110437159D01*
X183713573Y-110454487D01*
X183733947Y-110468101D01*
X183756586Y-110477479D01*
X183780619Y-110482261D01*
X183805123Y-110482261D01*
X183829157Y-110477482D01*
X183851796Y-110468105D01*
X183872171Y-110454492D01*
X183889499Y-110437165D01*
X183896383Y-110427873D01*
X183906921Y-110415005D01*
X183906925Y-110415001D01*
X183914684Y-110408619D01*
X183923539Y-110403874D01*
X183933150Y-110400948D01*
X183943200Y-110399953D01*
X183943266Y-110399953D01*
X183949375Y-110399348D01*
X184937060Y-110399348D01*
X184953199Y-110400937D01*
X184962811Y-110403853D01*
X184971669Y-110408588D01*
X184979437Y-110414963D01*
X184985812Y-110422731D01*
X184990547Y-110431589D01*
X184993463Y-110441201D01*
X184995052Y-110457340D01*
X184995052Y-111945060D01*
X184993463Y-111961199D01*
X184990547Y-111970811D01*
X184985812Y-111979669D01*
X184979437Y-111987437D01*
X184971669Y-111993812D01*
X184962811Y-111998547D01*
X184953199Y-112001463D01*
X184937060Y-112003052D01*
X183949340Y-112003052D01*
X183933201Y-112001463D01*
X183923589Y-111998547D01*
X183914731Y-111993812D01*
X183906986Y-111987456D01*
X183906963Y-111987437D01*
X183900560Y-111979627D01*
X183900527Y-111979578D01*
X183892716Y-111970050D01*
X183892686Y-111970075D01*
X183881343Y-111956226D01*
X183862417Y-111940662D01*
X183840818Y-111929089D01*
X183817376Y-111921952D01*
X183792992Y-111919526D01*
X183768603Y-111921904D01*
X183745147Y-111928993D01*
X183723524Y-111940523D01*
X183704567Y-111956050D01*
X183693876Y-111970434D01*
X183693600Y-111970207D01*
X183685784Y-111979711D01*
X183685781Y-111979716D01*
X183679399Y-111987475D01*
X183679395Y-111987479D01*
X183671628Y-111993840D01*
X183663743Y-111998044D01*
X183662800Y-111998547D01*
X183662760Y-111998568D01*
X183653118Y-112001482D01*
X183637088Y-112003052D01*
X182499340Y-112003052D01*
X182483201Y-112001463D01*
X182473589Y-111998547D01*
X182464731Y-111993812D01*
X182456963Y-111987437D01*
X182450588Y-111979669D01*
X182445853Y-111970811D01*
X182442937Y-111961199D01*
X182441348Y-111945060D01*
X182441348Y-110457340D01*
X182442937Y-110441201D01*
X182445853Y-110431589D01*
X182450588Y-110422731D01*
X182456963Y-110414963D01*
X182464731Y-110408588D01*
X182473589Y-110403853D01*
X182483201Y-110400937D01*
X182499340Y-110399348D01*
X183637060Y-110399348D01*
X183653199Y-110400937D01*
X183653199Y-110400937D01*
G37*
M02*
